%TF.GenerationSoftware,KiCad,Pcbnew,5.1.6*%
%TF.CreationDate,2020-09-27T13:31:50+02:00*%
%TF.ProjectId,AS3320-VCF,41533333-3230-42d5-9643-462e6b696361,rev?*%
%TF.SameCoordinates,Original*%
%TF.FileFunction,Copper,L1,Top*%
%TF.FilePolarity,Positive*%
%FSLAX46Y46*%
G04 Gerber Fmt 4.6, Leading zero omitted, Abs format (unit mm)*
G04 Created by KiCad (PCBNEW 5.1.6) date 2020-09-27 13:31:50*
%MOMM*%
%LPD*%
G01*
G04 APERTURE LIST*
%TA.AperFunction,ComponentPad*%
%ADD10C,1.600000*%
%TD*%
%TA.AperFunction,ComponentPad*%
%ADD11R,1.600000X1.600000*%
%TD*%
%TA.AperFunction,ComponentPad*%
%ADD12C,2.340000*%
%TD*%
%TA.AperFunction,ComponentPad*%
%ADD13O,1.600000X1.600000*%
%TD*%
%TA.AperFunction,ComponentPad*%
%ADD14C,3.400000*%
%TD*%
%TA.AperFunction,ComponentPad*%
%ADD15C,3.000000*%
%TD*%
%TA.AperFunction,ComponentPad*%
%ADD16C,2.000000*%
%TD*%
%TA.AperFunction,SMDPad,CuDef*%
%ADD17R,4.000000X4.000000*%
%TD*%
%TA.AperFunction,ViaPad*%
%ADD18C,0.800000*%
%TD*%
%TA.AperFunction,Conductor*%
%ADD19C,0.250000*%
%TD*%
G04 APERTURE END LIST*
D10*
%TO.P,C5,2*%
%TO.N,/SIGNAL_OUTPUT*%
X152019000Y-97790000D03*
D11*
%TO.P,C5,1*%
%TO.N,/OUT4*%
X149519000Y-97790000D03*
%TD*%
D12*
%TO.P,RV1,1*%
%TO.N,+12V*%
X139573000Y-83693000D03*
%TO.P,RV1,2*%
%TO.N,Net-(R2-Pad2)*%
X129573000Y-86193000D03*
%TO.P,RV1,3*%
%TO.N,GND*%
X139573000Y-88693000D03*
%TD*%
%TO.P,RV2,1*%
%TO.N,+12V*%
X139700000Y-69342000D03*
%TO.P,RV2,2*%
%TO.N,Net-(R7-Pad2)*%
X129700000Y-71842000D03*
%TO.P,RV2,3*%
%TO.N,GND*%
X139700000Y-74342000D03*
%TD*%
D13*
%TO.P,U1,18*%
%TO.N,Net-(R15-Pad1)*%
X151638000Y-68072000D03*
%TO.P,U1,9*%
%TO.N,Net-(R6-Pad1)*%
X144018000Y-88392000D03*
%TO.P,U1,17*%
%TO.N,Net-(R13-Pad1)*%
X151638000Y-70612000D03*
%TO.P,U1,8*%
%TO.N,/VRES*%
X144018000Y-85852000D03*
%TO.P,U1,16*%
%TO.N,Net-(C2-Pad1)*%
X151638000Y-73152000D03*
%TO.P,U1,7*%
%TO.N,/OUT1*%
X144018000Y-83312000D03*
%TO.P,U1,15*%
%TO.N,/OUT3*%
X151638000Y-75692000D03*
%TO.P,U1,6*%
%TO.N,/OUT2*%
X144018000Y-80772000D03*
%TO.P,U1,14*%
%TO.N,+12V*%
X151638000Y-78232000D03*
%TO.P,U1,5*%
%TO.N,Net-(C3-Pad2)*%
X144018000Y-78232000D03*
%TO.P,U1,13*%
%TO.N,Net-(R17-Pad1)*%
X151638000Y-80772000D03*
%TO.P,U1,4*%
%TO.N,Net-(C1-Pad2)*%
X144018000Y-75692000D03*
%TO.P,U1,12*%
%TO.N,Net-(R1-Pad1)*%
X151638000Y-83312000D03*
%TO.P,U1,3*%
%TO.N,GND*%
X144018000Y-73152000D03*
%TO.P,U1,11*%
%TO.N,Net-(C4-Pad1)*%
X151638000Y-85852000D03*
%TO.P,U1,2*%
%TO.N,Net-(R11-Pad1)*%
X144018000Y-70612000D03*
%TO.P,U1,10*%
%TO.N,/OUT4*%
X151638000Y-88392000D03*
D11*
%TO.P,U1,1*%
%TO.N,Net-(R10-Pad1)*%
X144018000Y-68072000D03*
%TD*%
D14*
%TO.P,J2,S*%
%TO.N,GND*%
X141506000Y-116546000D03*
D15*
%TO.P,J2,T*%
%TO.N,/RESONANCE_CTRL_INPUT*%
X146586000Y-110826000D03*
%TD*%
D14*
%TO.P,J3,S*%
%TO.N,GND*%
X158056000Y-116546000D03*
D15*
%TO.P,J3,T*%
%TO.N,/FREQ_CTRL_INPUT*%
X163136000Y-110826000D03*
%TD*%
D14*
%TO.P,J1,S*%
%TO.N,GND*%
X192306000Y-116546000D03*
D15*
%TO.P,J1,T*%
%TO.N,/SIGNAL_INPUT*%
X197386000Y-110826000D03*
%TD*%
D16*
%TO.P,C1,1*%
%TO.N,GND*%
X140034000Y-103440000D03*
%TO.P,C1,2*%
%TO.N,Net-(C1-Pad2)*%
X145034000Y-103440000D03*
%TD*%
%TO.P,C2,1*%
%TO.N,Net-(C2-Pad1)*%
X130188000Y-96882000D03*
%TO.P,C2,2*%
%TO.N,GND*%
X135188000Y-96882000D03*
%TD*%
%TO.P,C3,2*%
%TO.N,Net-(C3-Pad2)*%
X135188000Y-103432000D03*
%TO.P,C3,1*%
%TO.N,GND*%
X130188000Y-103432000D03*
%TD*%
%TO.P,C4,2*%
%TO.N,GND*%
X145034000Y-96889500D03*
%TO.P,C4,1*%
%TO.N,Net-(C4-Pad1)*%
X140034000Y-96889500D03*
%TD*%
D10*
%TO.P,R1,1*%
%TO.N,Net-(R1-Pad1)*%
X156210000Y-68072000D03*
D13*
%TO.P,R1,2*%
%TO.N,/FREQ_CTRL_INPUT*%
X166370000Y-68072000D03*
%TD*%
%TO.P,R2,2*%
%TO.N,Net-(R2-Pad2)*%
X166243000Y-74676000D03*
D10*
%TO.P,R2,1*%
%TO.N,Net-(R1-Pad1)*%
X156083000Y-74676000D03*
%TD*%
D13*
%TO.P,R3,2*%
%TO.N,-12V*%
X166337000Y-81280000D03*
D10*
%TO.P,R3,1*%
%TO.N,Net-(R11-Pad1)*%
X156177000Y-81280000D03*
%TD*%
D13*
%TO.P,R4,2*%
%TO.N,-12V*%
X166370000Y-87630000D03*
D10*
%TO.P,R4,1*%
%TO.N,Net-(R13-Pad1)*%
X156210000Y-87630000D03*
%TD*%
%TO.P,R5,1*%
%TO.N,Net-(R15-Pad1)*%
X156083000Y-93980000D03*
D13*
%TO.P,R5,2*%
%TO.N,-12V*%
X166243000Y-93980000D03*
%TD*%
%TO.P,R6,2*%
%TO.N,/RESONANCE_CTRL_INPUT*%
X166243000Y-100330000D03*
D10*
%TO.P,R6,1*%
%TO.N,Net-(R6-Pad1)*%
X156083000Y-100330000D03*
%TD*%
%TO.P,R7,1*%
%TO.N,Net-(R6-Pad1)*%
X170434000Y-68072000D03*
D13*
%TO.P,R7,2*%
%TO.N,Net-(R7-Pad2)*%
X180594000Y-68072000D03*
%TD*%
%TO.P,R8,2*%
%TO.N,Net-(R1-Pad1)*%
X180594000Y-74676000D03*
D10*
%TO.P,R8,1*%
%TO.N,GND*%
X170434000Y-74676000D03*
%TD*%
D13*
%TO.P,R9,2*%
%TO.N,/SIGNAL_INPUT*%
X180594000Y-81026000D03*
D10*
%TO.P,R9,1*%
%TO.N,Net-(R10-Pad1)*%
X170434000Y-81026000D03*
%TD*%
%TO.P,R10,1*%
%TO.N,Net-(R10-Pad1)*%
X170434000Y-87376000D03*
D13*
%TO.P,R10,2*%
%TO.N,/OUT1*%
X180594000Y-87376000D03*
%TD*%
D10*
%TO.P,R11,1*%
%TO.N,Net-(R11-Pad1)*%
X170434000Y-93726000D03*
D13*
%TO.P,R11,2*%
%TO.N,/OUT1*%
X180594000Y-93726000D03*
%TD*%
%TO.P,R12,2*%
%TO.N,/OUT2*%
X180594000Y-100076000D03*
D10*
%TO.P,R12,1*%
%TO.N,Net-(R11-Pad1)*%
X170434000Y-100076000D03*
%TD*%
%TO.P,R13,1*%
%TO.N,Net-(R13-Pad1)*%
X184912000Y-68072000D03*
D13*
%TO.P,R13,2*%
%TO.N,/OUT2*%
X195072000Y-68072000D03*
%TD*%
%TO.P,R14,2*%
%TO.N,/OUT3*%
X194945000Y-74676000D03*
D10*
%TO.P,R14,1*%
%TO.N,Net-(R13-Pad1)*%
X184785000Y-74676000D03*
%TD*%
%TO.P,R15,1*%
%TO.N,Net-(R15-Pad1)*%
X184785000Y-81026000D03*
D13*
%TO.P,R15,2*%
%TO.N,/OUT3*%
X194945000Y-81026000D03*
%TD*%
%TO.P,R16,2*%
%TO.N,/OUT4*%
X194945000Y-87376000D03*
D10*
%TO.P,R16,1*%
%TO.N,Net-(R15-Pad1)*%
X184785000Y-87376000D03*
%TD*%
%TO.P,R17,1*%
%TO.N,Net-(R17-Pad1)*%
X184785000Y-93726000D03*
D13*
%TO.P,R17,2*%
%TO.N,-12V*%
X194945000Y-93726000D03*
%TD*%
D10*
%TO.P,R18,1*%
%TO.N,/SIGNAL_OUTPUT*%
X184785000Y-100076000D03*
D13*
%TO.P,R18,2*%
%TO.N,/VRES*%
X194945000Y-100076000D03*
%TD*%
D17*
%TO.P,TP2,1*%
%TO.N,/RESONANCE_CTRL_INPUT*%
X201422000Y-103632000D03*
%TD*%
%TO.P,TP3,1*%
%TO.N,+12V*%
X201168000Y-68580000D03*
%TD*%
%TO.P,TP4,1*%
%TO.N,GND*%
X201422000Y-76962000D03*
%TD*%
%TO.P,TP5,1*%
%TO.N,-12V*%
X201422000Y-85344000D03*
%TD*%
%TO.P,TP6,1*%
%TO.N,/SIGNAL_INPUT*%
X132524000Y-121793000D03*
%TD*%
%TO.P,TP1,1*%
%TO.N,/FREQ_CTRL_INPUT*%
X201422000Y-94488000D03*
%TD*%
D15*
%TO.P,J4,T*%
%TO.N,/SIGNAL_OUTPUT*%
X180340000Y-110934000D03*
D14*
%TO.P,J4,S*%
%TO.N,GND*%
X175260000Y-116654000D03*
%TD*%
D17*
%TO.P,TP7,1*%
%TO.N,/SIGNAL_OUTPUT*%
X132588000Y-113284000D03*
%TD*%
D18*
%TO.N,Net-(C2-Pad1)*%
X145711600Y-74144200D03*
%TO.N,/FREQ_CTRL_INPUT*%
X174622500Y-97957800D03*
%TD*%
D19*
%TO.N,GND*%
X170434000Y-76253500D02*
X169827400Y-76860100D01*
X169827400Y-76860100D02*
X149453300Y-76860100D01*
X149453300Y-76860100D02*
X145745200Y-73152000D01*
X145745200Y-73152000D02*
X145143300Y-73152000D01*
X144018000Y-73152000D02*
X142892700Y-73152000D01*
X139700000Y-74342000D02*
X141702700Y-74342000D01*
X141702700Y-74342000D02*
X142892700Y-73152000D01*
X170434000Y-76253500D02*
X198388200Y-76253500D01*
X198388200Y-76253500D02*
X199096700Y-76962000D01*
X170434000Y-76253500D02*
X170434000Y-74676000D01*
X201422000Y-76962000D02*
X199096700Y-76962000D01*
X144018000Y-73152000D02*
X145143300Y-73152000D01*
X175260000Y-116654000D02*
X192198000Y-116654000D01*
X192198000Y-116654000D02*
X192306000Y-116546000D01*
X158056000Y-116546000D02*
X158164000Y-116654000D01*
X158164000Y-116654000D02*
X175260000Y-116654000D01*
X158056000Y-116546000D02*
X141506000Y-116546000D01*
%TO.N,Net-(C1-Pad2)*%
X144018000Y-75692000D02*
X144018000Y-76817300D01*
X145034000Y-103440000D02*
X144624100Y-103440000D01*
X144624100Y-103440000D02*
X138043500Y-96859400D01*
X138043500Y-96859400D02*
X138043500Y-83081200D01*
X138043500Y-83081200D02*
X141622700Y-79502000D01*
X141622700Y-79502000D02*
X144401400Y-79502000D01*
X144401400Y-79502000D02*
X145143300Y-78760100D01*
X145143300Y-78760100D02*
X145143300Y-77661200D01*
X145143300Y-77661200D02*
X144299400Y-76817300D01*
X144299400Y-76817300D02*
X144018000Y-76817300D01*
%TO.N,Net-(C2-Pad1)*%
X130188000Y-96882000D02*
X130188000Y-87874700D01*
X130188000Y-87874700D02*
X143640700Y-74422000D01*
X143640700Y-74422000D02*
X145433800Y-74422000D01*
X145433800Y-74422000D02*
X145711600Y-74144200D01*
%TO.N,Net-(C3-Pad2)*%
X142892700Y-78232000D02*
X142255800Y-78232000D01*
X142255800Y-78232000D02*
X137157200Y-83330600D01*
X137157200Y-83330600D02*
X137157200Y-101462800D01*
X137157200Y-101462800D02*
X135188000Y-103432000D01*
X144018000Y-78232000D02*
X142892700Y-78232000D01*
%TO.N,Net-(C4-Pad1)*%
X151638000Y-85852000D02*
X150512700Y-85852000D01*
X140034000Y-96889500D02*
X150512700Y-86410800D01*
X150512700Y-86410800D02*
X150512700Y-85852000D01*
%TO.N,/OUT4*%
X149519000Y-97790000D02*
X149519000Y-96664700D01*
X153610700Y-89239400D02*
X152763300Y-88392000D01*
X193819700Y-87376000D02*
X192684200Y-86240500D01*
X192684200Y-86240500D02*
X183967200Y-86240500D01*
X183967200Y-86240500D02*
X181114700Y-89093000D01*
X181114700Y-89093000D02*
X168462400Y-89093000D01*
X168462400Y-89093000D02*
X168316000Y-89239400D01*
X168316000Y-89239400D02*
X153610700Y-89239400D01*
X153610700Y-89239400D02*
X153610700Y-92573000D01*
X153610700Y-92573000D02*
X149519000Y-96664700D01*
X151638000Y-88392000D02*
X152763300Y-88392000D01*
X194945000Y-87376000D02*
X193819700Y-87376000D01*
%TO.N,-12V*%
X194945000Y-93726000D02*
X196070300Y-93726000D01*
X201422000Y-85344000D02*
X201422000Y-87669300D01*
X201422000Y-87669300D02*
X196070300Y-93021000D01*
X196070300Y-93021000D02*
X196070300Y-93726000D01*
X166370000Y-87630000D02*
X166370000Y-86504700D01*
X166370000Y-86504700D02*
X166337000Y-86471700D01*
X166337000Y-86471700D02*
X166337000Y-81280000D01*
X166243000Y-93980000D02*
X167368300Y-93980000D01*
X194945000Y-93726000D02*
X193819700Y-93726000D01*
X167368300Y-93980000D02*
X168239600Y-94851300D01*
X168239600Y-94851300D02*
X192694400Y-94851300D01*
X192694400Y-94851300D02*
X193819700Y-93726000D01*
%TO.N,+12V*%
X201168000Y-68580000D02*
X198842700Y-68580000D01*
X198842700Y-68580000D02*
X197209300Y-66946600D01*
X197209300Y-66946600D02*
X142095400Y-66946600D01*
X142095400Y-66946600D02*
X139700000Y-69342000D01*
X151638000Y-78232000D02*
X150512700Y-78232000D01*
X150512700Y-78232000D02*
X146686700Y-82058000D01*
X146686700Y-82058000D02*
X141208000Y-82058000D01*
X141208000Y-82058000D02*
X139573000Y-83693000D01*
%TO.N,/OUT3*%
X193819700Y-74676000D02*
X192694400Y-75801300D01*
X192694400Y-75801300D02*
X178203000Y-75801300D01*
X178203000Y-75801300D02*
X175924000Y-73522300D01*
X175924000Y-73522300D02*
X168989100Y-73522300D01*
X168989100Y-73522300D02*
X166255900Y-76255500D01*
X166255900Y-76255500D02*
X153326800Y-76255500D01*
X153326800Y-76255500D02*
X152763300Y-75692000D01*
X194945000Y-74676000D02*
X193819700Y-74676000D01*
X151638000Y-75692000D02*
X152763300Y-75692000D01*
%TO.N,/OUT1*%
X180594000Y-87376000D02*
X179468700Y-87376000D01*
X144018000Y-83312000D02*
X145143300Y-83312000D01*
X179468700Y-87376000D02*
X178343400Y-88501300D01*
X178343400Y-88501300D02*
X167609700Y-88501300D01*
X167609700Y-88501300D02*
X167355600Y-88755400D01*
X167355600Y-88755400D02*
X164421800Y-88755400D01*
X164421800Y-88755400D02*
X160103700Y-84437300D01*
X160103700Y-84437300D02*
X146268600Y-84437300D01*
X146268600Y-84437300D02*
X145143300Y-83312000D01*
%TO.N,Net-(R1-Pad1)*%
X179468700Y-74676000D02*
X177864600Y-73071900D01*
X177864600Y-73071900D02*
X157687100Y-73071900D01*
X157687100Y-73071900D02*
X156083000Y-74676000D01*
X180594000Y-74676000D02*
X179468700Y-74676000D01*
%TO.N,Net-(R13-Pad1)*%
X182372000Y-70612000D02*
X151638000Y-70612000D01*
X184912000Y-68072000D02*
X182372000Y-70612000D01*
X184785000Y-74676000D02*
X184785000Y-73025000D01*
X184785000Y-73025000D02*
X182372000Y-70612000D01*
%TO.N,Net-(R7-Pad2)*%
X180594000Y-68072000D02*
X179468700Y-68072000D01*
X179468700Y-68072000D02*
X178343400Y-69197300D01*
X178343400Y-69197300D02*
X143312200Y-69197300D01*
X143312200Y-69197300D02*
X141249700Y-71259800D01*
X141249700Y-71259800D02*
X130282200Y-71259800D01*
X130282200Y-71259800D02*
X129700000Y-71842000D01*
%TO.N,Net-(R15-Pad1)*%
X156083000Y-93980000D02*
X164569200Y-93980000D01*
X164569200Y-93980000D02*
X168893300Y-89655900D01*
X168893300Y-89655900D02*
X182505100Y-89655900D01*
X182505100Y-89655900D02*
X184785000Y-87376000D01*
%TO.N,/FREQ_CTRL_INPUT*%
X163136000Y-110826000D02*
X174622500Y-99339500D01*
X174622500Y-99339500D02*
X174622500Y-97957800D01*
X174622500Y-97957800D02*
X195626900Y-97957800D01*
X195626900Y-97957800D02*
X199096700Y-94488000D01*
X201422000Y-94488000D02*
X199096700Y-94488000D01*
%TO.N,/RESONANCE_CTRL_INPUT*%
X161273400Y-110826000D02*
X161273400Y-106424900D01*
X161273400Y-106424900D02*
X166243000Y-101455300D01*
X201422000Y-103632000D02*
X173134500Y-103632000D01*
X173134500Y-103632000D02*
X164114900Y-112651600D01*
X164114900Y-112651600D02*
X162305200Y-112651600D01*
X162305200Y-112651600D02*
X161273400Y-111619800D01*
X161273400Y-111619800D02*
X161273400Y-110826000D01*
X161273400Y-110826000D02*
X146586000Y-110826000D01*
X166243000Y-100330000D02*
X166243000Y-101455300D01*
%TO.N,Net-(R2-Pad2)*%
X166243000Y-74676000D02*
X165117700Y-74676000D01*
X165117700Y-74676000D02*
X163992300Y-75801400D01*
X163992300Y-75801400D02*
X155306800Y-75801400D01*
X155306800Y-75801400D02*
X153927400Y-74422000D01*
X153927400Y-74422000D02*
X151221800Y-74422000D01*
X151221800Y-74422000D02*
X148817000Y-72017200D01*
X148817000Y-72017200D02*
X139905500Y-72017200D01*
X139905500Y-72017200D02*
X129573000Y-82349700D01*
X129573000Y-82349700D02*
X129573000Y-86193000D01*
%TO.N,/SIGNAL_OUTPUT*%
X132588000Y-113284000D02*
X137095300Y-113284000D01*
X137095300Y-113284000D02*
X152019000Y-98360300D01*
X152019000Y-98360300D02*
X152019000Y-97790000D01*
%TO.N,/SIGNAL_INPUT*%
X132524000Y-121793000D02*
X134849300Y-121793000D01*
X134849300Y-121793000D02*
X134849300Y-120267000D01*
X134849300Y-120267000D02*
X140597900Y-114518400D01*
X140597900Y-114518400D02*
X193693600Y-114518400D01*
X193693600Y-114518400D02*
X197386000Y-110826000D01*
%TD*%
M02*
