%TF.GenerationSoftware,KiCad,Pcbnew,5.1.6*%
%TF.CreationDate,2020-10-11T16:32:07+02:00*%
%TF.ProjectId,AS3320-VCF,41533333-3230-42d5-9643-462e6b696361,rev?*%
%TF.SameCoordinates,Original*%
%TF.FileFunction,Copper,L2,Bot*%
%TF.FilePolarity,Positive*%
%FSLAX46Y46*%
G04 Gerber Fmt 4.6, Leading zero omitted, Abs format (unit mm)*
G04 Created by KiCad (PCBNEW 5.1.6) date 2020-10-11 16:32:07*
%MOMM*%
%LPD*%
G01*
G04 APERTURE LIST*
%TA.AperFunction,ComponentPad*%
%ADD10C,1.600000*%
%TD*%
%TA.AperFunction,ComponentPad*%
%ADD11O,1.600000X1.600000*%
%TD*%
%TA.AperFunction,ComponentPad*%
%ADD12C,1.800000*%
%TD*%
%TA.AperFunction,ComponentPad*%
%ADD13R,1.800000X1.800000*%
%TD*%
%TA.AperFunction,ComponentPad*%
%ADD14R,1.600000X1.600000*%
%TD*%
%TA.AperFunction,ComponentPad*%
%ADD15O,2.720000X3.240000*%
%TD*%
%TA.AperFunction,ComponentPad*%
%ADD16C,2.130000*%
%TD*%
%TA.AperFunction,ComponentPad*%
%ADD17R,1.930000X1.830000*%
%TD*%
%TA.AperFunction,ComponentPad*%
%ADD18C,2.000000*%
%TD*%
%TA.AperFunction,Conductor*%
%ADD19C,0.250000*%
%TD*%
G04 APERTURE END LIST*
D10*
%TO.P,R21,1*%
%TO.N,Net-(D1-Pad2)*%
X167680000Y-59510000D03*
D11*
%TO.P,R21,2*%
%TO.N,+12V*%
X177840000Y-59510000D03*
%TD*%
D12*
%TO.P,D1,2*%
%TO.N,Net-(D1-Pad2)*%
X160380000Y-59050000D03*
D13*
%TO.P,D1,1*%
%TO.N,GND*%
X162920000Y-59050000D03*
%TD*%
D11*
%TO.P,U1,18*%
%TO.N,Net-(R17-Pad1)*%
X172050000Y-84180000D03*
%TO.P,U1,9*%
%TO.N,Net-(R8-Pad1)*%
X164430000Y-104500000D03*
%TO.P,U1,17*%
%TO.N,Net-(R15-Pad1)*%
X172050000Y-86720000D03*
%TO.P,U1,8*%
%TO.N,/VRES*%
X164430000Y-101960000D03*
%TO.P,U1,16*%
%TO.N,Net-(C2-Pad1)*%
X172050000Y-89260000D03*
%TO.P,U1,7*%
%TO.N,/OUT1*%
X164430000Y-99420000D03*
%TO.P,U1,15*%
%TO.N,/OUT3*%
X172050000Y-91800000D03*
%TO.P,U1,6*%
%TO.N,/OUT2*%
X164430000Y-96880000D03*
%TO.P,U1,14*%
%TO.N,+12V*%
X172050000Y-94340000D03*
%TO.P,U1,5*%
%TO.N,Net-(C3-Pad2)*%
X164430000Y-94340000D03*
%TO.P,U1,13*%
%TO.N,Net-(R19-Pad1)*%
X172050000Y-96880000D03*
%TO.P,U1,4*%
%TO.N,Net-(C1-Pad2)*%
X164430000Y-91800000D03*
%TO.P,U1,12*%
%TO.N,Net-(R10-Pad2)*%
X172050000Y-99420000D03*
%TO.P,U1,3*%
%TO.N,GND*%
X164430000Y-89260000D03*
%TO.P,U1,11*%
%TO.N,Net-(C4-Pad1)*%
X172050000Y-101960000D03*
%TO.P,U1,2*%
%TO.N,Net-(R13-Pad1)*%
X164430000Y-86720000D03*
%TO.P,U1,10*%
%TO.N,/OUT4*%
X172050000Y-104500000D03*
D14*
%TO.P,U1,1*%
%TO.N,Net-(R11-Pad1)*%
X164430000Y-84180000D03*
%TD*%
D15*
%TO.P,RV2,*%
%TO.N,*%
X172490000Y-68990000D03*
X162890000Y-68990000D03*
D12*
%TO.P,RV2,3*%
%TO.N,Net-(R7-Pad1)*%
X165190000Y-76490000D03*
%TO.P,RV2,2*%
%TO.N,/FREQ_CTRL_INPUT*%
X167690000Y-76490000D03*
D13*
%TO.P,RV2,1*%
%TO.N,Net-(R3-Pad1)*%
X170190000Y-76490000D03*
%TD*%
D15*
%TO.P,RV1,*%
%TO.N,*%
X172440000Y-45257500D03*
X162840000Y-45257500D03*
D12*
%TO.P,RV1,3*%
%TO.N,Net-(R1-Pad2)*%
X165140000Y-52757500D03*
%TO.P,RV1,2*%
%TO.N,Net-(R8-Pad2)*%
X167640000Y-52757500D03*
D13*
%TO.P,RV1,1*%
%TO.N,Net-(R2-Pad2)*%
X170140000Y-52757500D03*
%TD*%
D10*
%TO.P,R7,1*%
%TO.N,Net-(R7-Pad1)*%
X130100000Y-91490000D03*
D11*
%TO.P,R7,2*%
%TO.N,+12V*%
X140260000Y-91490000D03*
%TD*%
D10*
%TO.P,R3,1*%
%TO.N,Net-(R3-Pad1)*%
X130170000Y-62470000D03*
D11*
%TO.P,R3,2*%
%TO.N,-12V*%
X140330000Y-62470000D03*
%TD*%
D10*
%TO.P,R2,1*%
%TO.N,+12V*%
X130208000Y-54848000D03*
D11*
%TO.P,R2,2*%
%TO.N,Net-(R2-Pad2)*%
X140368000Y-54848000D03*
%TD*%
D10*
%TO.P,R1,1*%
%TO.N,-12V*%
X130180000Y-47160000D03*
D11*
%TO.P,R1,2*%
%TO.N,Net-(R1-Pad2)*%
X140340000Y-47160000D03*
%TD*%
D16*
%TO.P,J4,T*%
%TO.N,/SIGNAL_OUTPUT*%
X185670000Y-101220000D03*
D17*
%TO.P,J4,S*%
%TO.N,GND*%
X185670000Y-89820000D03*
D16*
%TO.P,J4,TN*%
%TO.N,N/C*%
X185670000Y-92920000D03*
%TD*%
%TO.P,J3,T*%
%TO.N,/FREQ_CTRL_INPUT*%
X185580000Y-77300000D03*
D17*
%TO.P,J3,S*%
%TO.N,GND*%
X185580000Y-65900000D03*
D16*
%TO.P,J3,TN*%
%TO.N,N/C*%
X185580000Y-69000000D03*
%TD*%
%TO.P,J2,T*%
%TO.N,N/C*%
X185520000Y-52780000D03*
D17*
%TO.P,J2,S*%
%TO.N,GND*%
X185520000Y-41380000D03*
D16*
%TO.P,J2,TN*%
%TO.N,N/C*%
X185520000Y-44480000D03*
%TD*%
%TO.P,J1,T*%
%TO.N,/SIGNAL_INPUT*%
X185950000Y-119440000D03*
D17*
%TO.P,J1,S*%
%TO.N,GND*%
X185950000Y-108040000D03*
D16*
%TO.P,J1,TN*%
%TO.N,N/C*%
X185950000Y-111140000D03*
%TD*%
D10*
%TO.P,C5,2*%
%TO.N,/SIGNAL_OUTPUT*%
X155230000Y-121170000D03*
D14*
%TO.P,C5,1*%
%TO.N,/OUT4*%
X152730000Y-121170000D03*
%TD*%
D18*
%TO.P,C1,2*%
%TO.N,Net-(C1-Pad2)*%
X176544000Y-121750000D03*
%TO.P,C1,1*%
%TO.N,GND*%
X171544000Y-121750000D03*
%TD*%
%TO.P,C2,2*%
%TO.N,GND*%
X166748000Y-113622000D03*
%TO.P,C2,1*%
%TO.N,Net-(C2-Pad1)*%
X161748000Y-113622000D03*
%TD*%
%TO.P,C3,2*%
%TO.N,Net-(C3-Pad2)*%
X166698000Y-121742000D03*
%TO.P,C3,1*%
%TO.N,GND*%
X161698000Y-121742000D03*
%TD*%
%TO.P,C4,2*%
%TO.N,GND*%
X176594000Y-113630000D03*
%TO.P,C4,1*%
%TO.N,Net-(C4-Pad1)*%
X171594000Y-113630000D03*
%TD*%
D10*
%TO.P,R9,1*%
%TO.N,Net-(R10-Pad2)*%
X130030000Y-105430000D03*
D11*
%TO.P,R9,2*%
%TO.N,/FREQ_CTRL_INPUT*%
X140190000Y-105430000D03*
%TD*%
D10*
%TO.P,R4,1*%
%TO.N,Net-(R13-Pad1)*%
X130180000Y-69890000D03*
D11*
%TO.P,R4,2*%
%TO.N,-12V*%
X140340000Y-69890000D03*
%TD*%
D10*
%TO.P,R5,1*%
%TO.N,Net-(R15-Pad1)*%
X130170000Y-77090000D03*
D11*
%TO.P,R5,2*%
%TO.N,-12V*%
X140330000Y-77090000D03*
%TD*%
D10*
%TO.P,R6,1*%
%TO.N,Net-(R17-Pad1)*%
X130100000Y-84360000D03*
D11*
%TO.P,R6,2*%
%TO.N,-12V*%
X140260000Y-84360000D03*
%TD*%
D10*
%TO.P,R8,1*%
%TO.N,Net-(R8-Pad1)*%
X130030000Y-98590000D03*
D11*
%TO.P,R8,2*%
%TO.N,Net-(R8-Pad2)*%
X140190000Y-98590000D03*
%TD*%
D10*
%TO.P,R10,1*%
%TO.N,GND*%
X129950000Y-112180000D03*
D11*
%TO.P,R10,2*%
%TO.N,Net-(R10-Pad2)*%
X140110000Y-112180000D03*
%TD*%
D10*
%TO.P,R11,1*%
%TO.N,Net-(R11-Pad1)*%
X145550000Y-47020000D03*
D11*
%TO.P,R11,2*%
%TO.N,/SIGNAL_INPUT*%
X155710000Y-47020000D03*
%TD*%
D10*
%TO.P,R12,1*%
%TO.N,Net-(R11-Pad1)*%
X145400000Y-54590000D03*
D11*
%TO.P,R12,2*%
%TO.N,/OUT1*%
X155560000Y-54590000D03*
%TD*%
D10*
%TO.P,R13,1*%
%TO.N,Net-(R13-Pad1)*%
X145344000Y-62386000D03*
D11*
%TO.P,R13,2*%
%TO.N,/OUT1*%
X155504000Y-62386000D03*
%TD*%
D10*
%TO.P,R14,1*%
%TO.N,Net-(R13-Pad1)*%
X145400000Y-69820000D03*
D11*
%TO.P,R14,2*%
%TO.N,/OUT2*%
X155560000Y-69820000D03*
%TD*%
D10*
%TO.P,R15,1*%
%TO.N,Net-(R15-Pad1)*%
X145242000Y-76882000D03*
D11*
%TO.P,R15,2*%
%TO.N,/OUT2*%
X155402000Y-76882000D03*
%TD*%
D10*
%TO.P,R16,1*%
%TO.N,Net-(R15-Pad1)*%
X145115000Y-84496000D03*
D11*
%TO.P,R16,2*%
%TO.N,/OUT3*%
X155275000Y-84496000D03*
%TD*%
D10*
%TO.P,R17,1*%
%TO.N,Net-(R17-Pad1)*%
X145115000Y-91476000D03*
D11*
%TO.P,R17,2*%
%TO.N,/OUT3*%
X155275000Y-91476000D03*
%TD*%
D10*
%TO.P,R18,1*%
%TO.N,Net-(R17-Pad1)*%
X144995000Y-98466000D03*
D11*
%TO.P,R18,2*%
%TO.N,/OUT4*%
X155155000Y-98466000D03*
%TD*%
D10*
%TO.P,R19,1*%
%TO.N,Net-(R19-Pad1)*%
X144995000Y-105446000D03*
D11*
%TO.P,R19,2*%
%TO.N,-12V*%
X155155000Y-105446000D03*
%TD*%
D10*
%TO.P,R20,1*%
%TO.N,/SIGNAL_OUTPUT*%
X144995000Y-112306000D03*
D11*
%TO.P,R20,2*%
%TO.N,/VRES*%
X155155000Y-112306000D03*
%TD*%
D19*
%TO.N,GND*%
X161698000Y-121742000D02*
X161136400Y-122303600D01*
X161136400Y-122303600D02*
X140073600Y-122303600D01*
X140073600Y-122303600D02*
X129950000Y-112180000D01*
X184114100Y-58333400D02*
X184114100Y-43871200D01*
X184114100Y-43871200D02*
X185365000Y-42620300D01*
X185365000Y-42620300D02*
X185520000Y-42620300D01*
X185580000Y-64659700D02*
X184114100Y-63193800D01*
X184114100Y-63193800D02*
X184114100Y-58333400D01*
X184114100Y-58333400D02*
X164861900Y-58333400D01*
X164861900Y-58333400D02*
X164145300Y-59050000D01*
X162920000Y-59050000D02*
X164145300Y-59050000D01*
X185520000Y-41380000D02*
X185520000Y-42620300D01*
X185580000Y-65900000D02*
X185580000Y-64659700D01*
X185580000Y-66520100D02*
X185580000Y-65900000D01*
X185580000Y-66520100D02*
X185580000Y-67140300D01*
X185670000Y-89820000D02*
X185670000Y-88579700D01*
X185580000Y-67140300D02*
X185735000Y-67140300D01*
X185735000Y-67140300D02*
X186973600Y-68378900D01*
X186973600Y-68378900D02*
X186973600Y-87276100D01*
X186973600Y-87276100D02*
X185670000Y-88579700D01*
X185670000Y-89820000D02*
X185670000Y-91060300D01*
X185950000Y-108040000D02*
X185950000Y-106799700D01*
X185950000Y-106799700D02*
X187061200Y-105688500D01*
X187061200Y-105688500D02*
X187061200Y-92296500D01*
X187061200Y-92296500D02*
X185825000Y-91060300D01*
X185825000Y-91060300D02*
X185670000Y-91060300D01*
%TO.N,Net-(C1-Pad2)*%
X164430000Y-91800000D02*
X164430000Y-92925300D01*
X176544000Y-121750000D02*
X174951000Y-120157000D01*
X174951000Y-120157000D02*
X166322700Y-120157000D01*
X166322700Y-120157000D02*
X160418900Y-114253200D01*
X160418900Y-114253200D02*
X160418900Y-112747000D01*
X160418900Y-112747000D02*
X166486100Y-106679800D01*
X166486100Y-106679800D02*
X166486100Y-94700100D01*
X166486100Y-94700100D02*
X164711300Y-92925300D01*
X164711300Y-92925300D02*
X164430000Y-92925300D01*
%TO.N,Net-(C2-Pad1)*%
X161748000Y-113622000D02*
X169260400Y-106109600D01*
X169260400Y-106109600D02*
X169260400Y-92049600D01*
X169260400Y-92049600D02*
X172050000Y-89260000D01*
%TO.N,Net-(C3-Pad2)*%
X164430000Y-95465300D02*
X164711300Y-95465300D01*
X164711300Y-95465300D02*
X166019600Y-96773600D01*
X166019600Y-96773600D02*
X166019600Y-106284100D01*
X166019600Y-106284100D02*
X159968600Y-112335100D01*
X159968600Y-112335100D02*
X159968600Y-115012600D01*
X159968600Y-115012600D02*
X166698000Y-121742000D01*
X164430000Y-94340000D02*
X164430000Y-95465300D01*
%TO.N,Net-(C4-Pad1)*%
X172050000Y-101960000D02*
X172050000Y-103085300D01*
X171594000Y-113630000D02*
X170924700Y-112960700D01*
X170924700Y-112960700D02*
X170924700Y-103929200D01*
X170924700Y-103929200D02*
X171768600Y-103085300D01*
X171768600Y-103085300D02*
X172050000Y-103085300D01*
%TO.N,/OUT4*%
X155155000Y-98466000D02*
X155155000Y-99591300D01*
X152730000Y-121170000D02*
X152730000Y-102016300D01*
X152730000Y-102016300D02*
X155155000Y-99591300D01*
%TO.N,-12V*%
X155155000Y-105446000D02*
X155155000Y-104320700D01*
X155155000Y-104320700D02*
X156286300Y-103189400D01*
X156286300Y-103189400D02*
X156286300Y-97991000D01*
X156286300Y-97991000D02*
X142655300Y-84360000D01*
X142655300Y-84360000D02*
X140330000Y-84360000D01*
X140330000Y-84360000D02*
X140260000Y-84360000D01*
X140330000Y-84360000D02*
X140330000Y-78215300D01*
X140330000Y-77090000D02*
X140330000Y-78215300D01*
X140330000Y-69890000D02*
X140330000Y-62470000D01*
X140330000Y-77090000D02*
X140330000Y-69890000D01*
X140340000Y-69890000D02*
X140330000Y-69890000D01*
%TO.N,+12V*%
X172050000Y-94340000D02*
X172050000Y-93214700D01*
X172050000Y-93214700D02*
X172331300Y-93214700D01*
X172331300Y-93214700D02*
X177840000Y-87706000D01*
X177840000Y-87706000D02*
X177840000Y-59510000D01*
X130208000Y-54848000D02*
X138684400Y-63324400D01*
X138684400Y-63324400D02*
X138684400Y-88789100D01*
X138684400Y-88789100D02*
X140260000Y-90364700D01*
X140260000Y-91490000D02*
X140260000Y-90364700D01*
%TO.N,/OUT2*%
X164430000Y-96880000D02*
X164430000Y-98005300D01*
X155402000Y-76882000D02*
X155402000Y-82553600D01*
X155402000Y-82553600D02*
X160579800Y-87731400D01*
X160579800Y-87731400D02*
X160579800Y-97189800D01*
X160579800Y-97189800D02*
X163937800Y-100547800D01*
X163937800Y-100547800D02*
X164894700Y-100547800D01*
X164894700Y-100547800D02*
X165555300Y-99887200D01*
X165555300Y-99887200D02*
X165555300Y-98849200D01*
X165555300Y-98849200D02*
X164711400Y-98005300D01*
X164711400Y-98005300D02*
X164430000Y-98005300D01*
%TO.N,/OUT3*%
X155275000Y-91476000D02*
X155275000Y-84496000D01*
%TO.N,/OUT1*%
X155504000Y-62386000D02*
X155504000Y-63511300D01*
X155504000Y-63511300D02*
X158576300Y-66583600D01*
X158576300Y-66583600D02*
X158576300Y-73231600D01*
X158576300Y-73231600D02*
X165587900Y-80243200D01*
X165587900Y-80243200D02*
X165587900Y-87194600D01*
X165587900Y-87194600D02*
X164792500Y-87990000D01*
X164792500Y-87990000D02*
X164048500Y-87990000D01*
X164048500Y-87990000D02*
X163301700Y-88736800D01*
X163301700Y-88736800D02*
X163301700Y-98291700D01*
X163301700Y-98291700D02*
X164430000Y-99420000D01*
%TO.N,Net-(R11-Pad1)*%
X145400000Y-54590000D02*
X158125900Y-67315900D01*
X158125900Y-67315900D02*
X158125900Y-76750600D01*
X158125900Y-76750600D02*
X164430000Y-83054700D01*
X164430000Y-84180000D02*
X164430000Y-83054700D01*
X145400000Y-54590000D02*
X145550000Y-54440000D01*
X145550000Y-54440000D02*
X145550000Y-47020000D01*
%TO.N,Net-(R13-Pad1)*%
X145400000Y-69820000D02*
X149952700Y-69820000D01*
X149952700Y-69820000D02*
X157675500Y-77542800D01*
X157675500Y-77542800D02*
X157675500Y-79485600D01*
X157675500Y-79485600D02*
X163784600Y-85594700D01*
X163784600Y-85594700D02*
X164430000Y-85594700D01*
X145344000Y-62386000D02*
X145344000Y-69764000D01*
X145344000Y-69764000D02*
X145400000Y-69820000D01*
X164430000Y-86720000D02*
X164430000Y-85594700D01*
%TO.N,Net-(R15-Pad1)*%
X145115000Y-84496000D02*
X145115000Y-77009000D01*
X145115000Y-77009000D02*
X145242000Y-76882000D01*
%TO.N,Net-(R17-Pad1)*%
X145115000Y-91476000D02*
X145115000Y-98346000D01*
X145115000Y-98346000D02*
X144995000Y-98466000D01*
%TO.N,/SIGNAL_INPUT*%
X155710000Y-47020000D02*
X155710000Y-48145300D01*
X185950000Y-119440000D02*
X178984800Y-112474800D01*
X178984800Y-112474800D02*
X178984800Y-102158200D01*
X178984800Y-102158200D02*
X172436600Y-95610000D01*
X172436600Y-95610000D02*
X171680500Y-95610000D01*
X171680500Y-95610000D02*
X170924600Y-94854100D01*
X170924600Y-94854100D02*
X170924600Y-91327900D01*
X170924600Y-91327900D02*
X171722500Y-90530000D01*
X171722500Y-90530000D02*
X172394600Y-90530000D01*
X172394600Y-90530000D02*
X173181400Y-89743200D01*
X173181400Y-89743200D02*
X173181400Y-73545800D01*
X173181400Y-73545800D02*
X161694600Y-62059000D01*
X161694600Y-62059000D02*
X161694600Y-54129900D01*
X161694600Y-54129900D02*
X155710000Y-48145300D01*
%TO.N,/VRES*%
X164430000Y-101960000D02*
X163304700Y-101960000D01*
X155155000Y-112306000D02*
X155155000Y-111180700D01*
X155155000Y-111180700D02*
X163304700Y-103031000D01*
X163304700Y-103031000D02*
X163304700Y-101960000D01*
%TO.N,Net-(R8-Pad2)*%
X140190000Y-98590000D02*
X140190000Y-97464700D01*
X140190000Y-97464700D02*
X141401800Y-96252900D01*
X141401800Y-96252900D02*
X141401800Y-87938700D01*
X141401800Y-87938700D02*
X139134700Y-85671600D01*
X139134700Y-85671600D02*
X139134700Y-51772300D01*
X139134700Y-51772300D02*
X145036200Y-45870800D01*
X145036200Y-45870800D02*
X160753300Y-45870800D01*
X160753300Y-45870800D02*
X167640000Y-52757500D01*
%TO.N,Net-(R10-Pad2)*%
X140110000Y-112180000D02*
X138984700Y-112180000D01*
X138984700Y-112180000D02*
X132234700Y-105430000D01*
X132234700Y-105430000D02*
X130030000Y-105430000D01*
%TD*%
M02*
