M48
; DRILL file {KiCad 5.1.7} date Sat Oct 24 15:52:32 2020
; FORMAT={-:-/ absolute / inch / decimal}
; #@! TF.CreationDate,2020-10-24T15:52:32+02:00
; #@! TF.GenerationSoftware,Kicad,Pcbnew,5.1.7
; #@! TF.FileFunction,Plated,1,2,PTH
FMAT,2
INCH
T1C0.0315
T2C0.0354
T3C0.0394
T4C0.0433
T5C0.0480
T6C0.0559
T7C0.0563
%
G90
G05
T1
X5.7244Y-2.1492
X6.1244Y-2.1492
X5.7303Y-1.8512
X6.1303Y-1.8512
X5.1263Y-2.1594
X5.5263Y-2.1594
X5.1252Y-2.7516
X5.5252Y-2.7516
X5.7085Y-4.4215
X6.1085Y-4.4215
X5.7085Y-3.8766
X6.1085Y-3.8766
X5.1193Y-4.1508
X5.5193Y-4.1508
X5.7244Y-2.7488
X6.1244Y-2.7488
X5.122Y-3.3213
X5.522Y-3.3213
X6.6016Y-2.3429
X7.0016Y-2.3429
X5.122Y-3.602
X5.522Y-3.602
X5.1248Y-2.4594
X5.5248Y-2.4594
X5.7085Y-4.1514
X6.1085Y-4.1514
X5.1252Y-1.8567
X5.5252Y-1.8567
X6.4736Y-3.3142
X6.4736Y-3.4142
X6.4736Y-3.5142
X6.4736Y-3.6142
X6.4736Y-3.7142
X6.4736Y-3.8142
X6.4736Y-3.9142
X6.4736Y-4.0142
X6.4736Y-4.1142
X6.7736Y-3.3142
X6.7736Y-3.4142
X6.7736Y-3.5142
X6.7736Y-3.6142
X6.7736Y-3.7142
X6.7736Y-3.8142
X6.7736Y-3.9142
X6.7736Y-4.0142
X6.7736Y-4.1142
X5.1193Y-3.8815
X5.5193Y-3.8815
X5.7182Y-3.0269
X6.1182Y-3.0269
X5.7222Y-2.4561
X6.1222Y-2.4561
X5.7132Y-3.3266
X6.1132Y-3.3266
X5.7132Y-3.6014
X6.1132Y-3.6014
X6.013Y-4.7705
X6.1114Y-4.7705
X5.1248Y-3.035
X5.5248Y-3.035
X5.1161Y-4.4165
X5.5161Y-4.4165
T2
X6.3142Y-2.3248
X6.4142Y-2.3248
T3
X6.7537Y-4.7933
X6.9506Y-4.7933
X6.5016Y-2.0771
X6.6Y-2.0771
X6.6984Y-2.0771
X6.5035Y-3.0114
X6.602Y-3.0114
X6.7004Y-3.0114
X6.7557Y-4.4736
X6.9525Y-4.4736
X6.3661Y-4.793
X6.5629Y-4.793
X6.368Y-4.4733
X6.5649Y-4.4733
T5
X7.2969Y-1.585
X7.3193Y-3.6354
X7.326Y-4.3283
X7.3193Y-2.5823
T6
X7.326Y-4.4504
X7.3193Y-2.7043
X7.2969Y-1.7071
X7.3193Y-3.7575
T7
X7.2969Y-2.0339
X7.3193Y-4.0843
X7.326Y-4.7772
X7.3193Y-3.0311
T4
G00X6.411Y-1.768
M15
G01X6.411Y-1.7956
M16
G05
G00X6.789Y-1.768
M15
G01X6.789Y-1.7956
M16
G05
G00X6.413Y-2.7024
M15
G01X6.413Y-2.7299
M16
G05
G00X6.7909Y-2.7024
M15
G01X6.7909Y-2.7299
M16
G05
T0
M30
