%TF.GenerationSoftware,KiCad,Pcbnew,5.1.6*%
%TF.CreationDate,2020-10-11T16:32:07+02:00*%
%TF.ProjectId,AS3320-VCF,41533333-3230-42d5-9643-462e6b696361,rev?*%
%TF.SameCoordinates,Original*%
%TF.FileFunction,Legend,Top*%
%TF.FilePolarity,Positive*%
%FSLAX46Y46*%
G04 Gerber Fmt 4.6, Leading zero omitted, Abs format (unit mm)*
G04 Created by KiCad (PCBNEW 5.1.6) date 2020-10-11 16:32:07*
%MOMM*%
%LPD*%
G01*
G04 APERTURE LIST*
%ADD10C,0.120000*%
%ADD11C,0.150000*%
G04 APERTURE END LIST*
D10*
%TO.C,R21*%
X176800000Y-59510000D02*
X176030000Y-59510000D01*
X168720000Y-59510000D02*
X169490000Y-59510000D01*
X176030000Y-58140000D02*
X169490000Y-58140000D01*
X176030000Y-60880000D02*
X176030000Y-58140000D01*
X169490000Y-60880000D02*
X176030000Y-60880000D01*
X169490000Y-58140000D02*
X169490000Y-60880000D01*
%TO.C,U1*%
X170890000Y-82850000D02*
X169240000Y-82850000D01*
X170890000Y-105830000D02*
X170890000Y-82850000D01*
X165590000Y-105830000D02*
X170890000Y-105830000D01*
X165590000Y-82850000D02*
X165590000Y-105830000D01*
X167240000Y-82850000D02*
X165590000Y-82850000D01*
X169240000Y-82850000D02*
G75*
G02*
X167240000Y-82850000I-1000000J0D01*
G01*
%TO.C,TP7*%
X147040000Y-118680000D02*
X147040000Y-123080000D01*
X142640000Y-118680000D02*
X147040000Y-118680000D01*
X142640000Y-123080000D02*
X142640000Y-118680000D01*
X147040000Y-123080000D02*
X142640000Y-123080000D01*
%TO.C,TP6*%
X133360000Y-123250000D02*
X133360000Y-118850000D01*
X137760000Y-123250000D02*
X133360000Y-123250000D01*
X137760000Y-118850000D02*
X137760000Y-123250000D01*
X133360000Y-118850000D02*
X137760000Y-118850000D01*
%TO.C,TP5*%
X187680000Y-80500000D02*
X187680000Y-84900000D01*
X183280000Y-80500000D02*
X187680000Y-80500000D01*
X183280000Y-84900000D02*
X183280000Y-80500000D01*
X187680000Y-84900000D02*
X183280000Y-84900000D01*
%TO.C,TP4*%
X151640000Y-42390000D02*
X151640000Y-37990000D01*
X156040000Y-42390000D02*
X151640000Y-42390000D01*
X156040000Y-37990000D02*
X156040000Y-42390000D01*
X151640000Y-37990000D02*
X156040000Y-37990000D01*
%TO.C,TP3*%
X140780000Y-42520000D02*
X140780000Y-38120000D01*
X145180000Y-42520000D02*
X140780000Y-42520000D01*
X145180000Y-38120000D02*
X145180000Y-42520000D01*
X140780000Y-38120000D02*
X145180000Y-38120000D01*
%TO.C,TP2*%
X129670000Y-42390000D02*
X129670000Y-37990000D01*
X134070000Y-42390000D02*
X129670000Y-42390000D01*
X134070000Y-37990000D02*
X134070000Y-42390000D01*
X129670000Y-37990000D02*
X134070000Y-37990000D01*
%TO.C,TP1*%
X187370000Y-56860000D02*
X187370000Y-61260000D01*
X182970000Y-56860000D02*
X187370000Y-56860000D01*
X182970000Y-61260000D02*
X182970000Y-56860000D01*
X187370000Y-61260000D02*
X182970000Y-61260000D01*
%TO.C,R7*%
X131910000Y-90120000D02*
X131910000Y-92860000D01*
X131910000Y-92860000D02*
X138450000Y-92860000D01*
X138450000Y-92860000D02*
X138450000Y-90120000D01*
X138450000Y-90120000D02*
X131910000Y-90120000D01*
X131140000Y-91490000D02*
X131910000Y-91490000D01*
X139220000Y-91490000D02*
X138450000Y-91490000D01*
%TO.C,R3*%
X131980000Y-61100000D02*
X131980000Y-63840000D01*
X131980000Y-63840000D02*
X138520000Y-63840000D01*
X138520000Y-63840000D02*
X138520000Y-61100000D01*
X138520000Y-61100000D02*
X131980000Y-61100000D01*
X131210000Y-62470000D02*
X131980000Y-62470000D01*
X139290000Y-62470000D02*
X138520000Y-62470000D01*
%TO.C,R2*%
X132018000Y-53478000D02*
X132018000Y-56218000D01*
X132018000Y-56218000D02*
X138558000Y-56218000D01*
X138558000Y-56218000D02*
X138558000Y-53478000D01*
X138558000Y-53478000D02*
X132018000Y-53478000D01*
X131248000Y-54848000D02*
X132018000Y-54848000D01*
X139328000Y-54848000D02*
X138558000Y-54848000D01*
%TO.C,R1*%
X131990000Y-45790000D02*
X131990000Y-48530000D01*
X131990000Y-48530000D02*
X138530000Y-48530000D01*
X138530000Y-48530000D02*
X138530000Y-45790000D01*
X138530000Y-45790000D02*
X131990000Y-45790000D01*
X131220000Y-47160000D02*
X131990000Y-47160000D01*
X139300000Y-47160000D02*
X138530000Y-47160000D01*
%TO.C,C5*%
X151425225Y-119445000D02*
X151425225Y-119945000D01*
X151175225Y-119695000D02*
X151675225Y-119695000D01*
X156581000Y-120886000D02*
X156581000Y-121454000D01*
X156541000Y-120652000D02*
X156541000Y-121688000D01*
X156501000Y-120493000D02*
X156501000Y-121847000D01*
X156461000Y-120365000D02*
X156461000Y-121975000D01*
X156421000Y-120255000D02*
X156421000Y-122085000D01*
X156381000Y-120159000D02*
X156381000Y-122181000D01*
X156341000Y-120072000D02*
X156341000Y-122268000D01*
X156301000Y-119992000D02*
X156301000Y-122348000D01*
X156261000Y-122210000D02*
X156261000Y-122421000D01*
X156261000Y-119919000D02*
X156261000Y-120130000D01*
X156221000Y-122210000D02*
X156221000Y-122489000D01*
X156221000Y-119851000D02*
X156221000Y-120130000D01*
X156181000Y-122210000D02*
X156181000Y-122553000D01*
X156181000Y-119787000D02*
X156181000Y-120130000D01*
X156141000Y-122210000D02*
X156141000Y-122613000D01*
X156141000Y-119727000D02*
X156141000Y-120130000D01*
X156101000Y-122210000D02*
X156101000Y-122670000D01*
X156101000Y-119670000D02*
X156101000Y-120130000D01*
X156061000Y-122210000D02*
X156061000Y-122724000D01*
X156061000Y-119616000D02*
X156061000Y-120130000D01*
X156021000Y-122210000D02*
X156021000Y-122775000D01*
X156021000Y-119565000D02*
X156021000Y-120130000D01*
X155981000Y-122210000D02*
X155981000Y-122823000D01*
X155981000Y-119517000D02*
X155981000Y-120130000D01*
X155941000Y-122210000D02*
X155941000Y-122869000D01*
X155941000Y-119471000D02*
X155941000Y-120130000D01*
X155901000Y-122210000D02*
X155901000Y-122913000D01*
X155901000Y-119427000D02*
X155901000Y-120130000D01*
X155861000Y-122210000D02*
X155861000Y-122955000D01*
X155861000Y-119385000D02*
X155861000Y-120130000D01*
X155821000Y-122210000D02*
X155821000Y-122996000D01*
X155821000Y-119344000D02*
X155821000Y-120130000D01*
X155781000Y-122210000D02*
X155781000Y-123034000D01*
X155781000Y-119306000D02*
X155781000Y-120130000D01*
X155741000Y-122210000D02*
X155741000Y-123071000D01*
X155741000Y-119269000D02*
X155741000Y-120130000D01*
X155701000Y-122210000D02*
X155701000Y-123107000D01*
X155701000Y-119233000D02*
X155701000Y-120130000D01*
X155661000Y-122210000D02*
X155661000Y-123141000D01*
X155661000Y-119199000D02*
X155661000Y-120130000D01*
X155621000Y-122210000D02*
X155621000Y-123174000D01*
X155621000Y-119166000D02*
X155621000Y-120130000D01*
X155581000Y-122210000D02*
X155581000Y-123205000D01*
X155581000Y-119135000D02*
X155581000Y-120130000D01*
X155541000Y-122210000D02*
X155541000Y-123235000D01*
X155541000Y-119105000D02*
X155541000Y-120130000D01*
X155501000Y-122210000D02*
X155501000Y-123265000D01*
X155501000Y-119075000D02*
X155501000Y-120130000D01*
X155461000Y-122210000D02*
X155461000Y-123292000D01*
X155461000Y-119048000D02*
X155461000Y-120130000D01*
X155421000Y-122210000D02*
X155421000Y-123319000D01*
X155421000Y-119021000D02*
X155421000Y-120130000D01*
X155381000Y-122210000D02*
X155381000Y-123345000D01*
X155381000Y-118995000D02*
X155381000Y-120130000D01*
X155341000Y-122210000D02*
X155341000Y-123370000D01*
X155341000Y-118970000D02*
X155341000Y-120130000D01*
X155301000Y-122210000D02*
X155301000Y-123394000D01*
X155301000Y-118946000D02*
X155301000Y-120130000D01*
X155261000Y-122210000D02*
X155261000Y-123417000D01*
X155261000Y-118923000D02*
X155261000Y-120130000D01*
X155221000Y-122210000D02*
X155221000Y-123438000D01*
X155221000Y-118902000D02*
X155221000Y-120130000D01*
X155181000Y-122210000D02*
X155181000Y-123460000D01*
X155181000Y-118880000D02*
X155181000Y-120130000D01*
X155141000Y-122210000D02*
X155141000Y-123480000D01*
X155141000Y-118860000D02*
X155141000Y-120130000D01*
X155101000Y-122210000D02*
X155101000Y-123499000D01*
X155101000Y-118841000D02*
X155101000Y-120130000D01*
X155061000Y-122210000D02*
X155061000Y-123518000D01*
X155061000Y-118822000D02*
X155061000Y-120130000D01*
X155021000Y-122210000D02*
X155021000Y-123535000D01*
X155021000Y-118805000D02*
X155021000Y-120130000D01*
X154981000Y-122210000D02*
X154981000Y-123552000D01*
X154981000Y-118788000D02*
X154981000Y-120130000D01*
X154941000Y-122210000D02*
X154941000Y-123568000D01*
X154941000Y-118772000D02*
X154941000Y-120130000D01*
X154901000Y-122210000D02*
X154901000Y-123584000D01*
X154901000Y-118756000D02*
X154901000Y-120130000D01*
X154861000Y-122210000D02*
X154861000Y-123598000D01*
X154861000Y-118742000D02*
X154861000Y-120130000D01*
X154821000Y-122210000D02*
X154821000Y-123612000D01*
X154821000Y-118728000D02*
X154821000Y-120130000D01*
X154781000Y-122210000D02*
X154781000Y-123625000D01*
X154781000Y-118715000D02*
X154781000Y-120130000D01*
X154741000Y-122210000D02*
X154741000Y-123638000D01*
X154741000Y-118702000D02*
X154741000Y-120130000D01*
X154701000Y-122210000D02*
X154701000Y-123650000D01*
X154701000Y-118690000D02*
X154701000Y-120130000D01*
X154660000Y-122210000D02*
X154660000Y-123661000D01*
X154660000Y-118679000D02*
X154660000Y-120130000D01*
X154620000Y-122210000D02*
X154620000Y-123671000D01*
X154620000Y-118669000D02*
X154620000Y-120130000D01*
X154580000Y-122210000D02*
X154580000Y-123681000D01*
X154580000Y-118659000D02*
X154580000Y-120130000D01*
X154540000Y-122210000D02*
X154540000Y-123690000D01*
X154540000Y-118650000D02*
X154540000Y-120130000D01*
X154500000Y-122210000D02*
X154500000Y-123698000D01*
X154500000Y-118642000D02*
X154500000Y-120130000D01*
X154460000Y-122210000D02*
X154460000Y-123706000D01*
X154460000Y-118634000D02*
X154460000Y-120130000D01*
X154420000Y-122210000D02*
X154420000Y-123713000D01*
X154420000Y-118627000D02*
X154420000Y-120130000D01*
X154380000Y-122210000D02*
X154380000Y-123720000D01*
X154380000Y-118620000D02*
X154380000Y-120130000D01*
X154340000Y-122210000D02*
X154340000Y-123726000D01*
X154340000Y-118614000D02*
X154340000Y-120130000D01*
X154300000Y-122210000D02*
X154300000Y-123731000D01*
X154300000Y-118609000D02*
X154300000Y-120130000D01*
X154260000Y-122210000D02*
X154260000Y-123735000D01*
X154260000Y-118605000D02*
X154260000Y-120130000D01*
X154220000Y-122210000D02*
X154220000Y-123739000D01*
X154220000Y-118601000D02*
X154220000Y-120130000D01*
X154180000Y-118597000D02*
X154180000Y-123743000D01*
X154140000Y-118594000D02*
X154140000Y-123746000D01*
X154100000Y-118592000D02*
X154100000Y-123748000D01*
X154060000Y-118591000D02*
X154060000Y-123749000D01*
X154020000Y-118590000D02*
X154020000Y-123750000D01*
X153980000Y-118590000D02*
X153980000Y-123750000D01*
X156600000Y-121170000D02*
G75*
G03*
X156600000Y-121170000I-2620000J0D01*
G01*
%TO.C,C1*%
X170174000Y-120380000D02*
X177914000Y-120380000D01*
X170174000Y-123120000D02*
X177914000Y-123120000D01*
X170174000Y-120380000D02*
X170174000Y-123120000D01*
X177914000Y-120380000D02*
X177914000Y-123120000D01*
%TO.C,C2*%
X160378000Y-112252000D02*
X168118000Y-112252000D01*
X160378000Y-114992000D02*
X168118000Y-114992000D01*
X160378000Y-112252000D02*
X160378000Y-114992000D01*
X168118000Y-112252000D02*
X168118000Y-114992000D01*
%TO.C,C3*%
X160328000Y-120372000D02*
X168068000Y-120372000D01*
X160328000Y-123112000D02*
X168068000Y-123112000D01*
X160328000Y-120372000D02*
X160328000Y-123112000D01*
X168068000Y-120372000D02*
X168068000Y-123112000D01*
%TO.C,C4*%
X170224000Y-112260000D02*
X177964000Y-112260000D01*
X170224000Y-115000000D02*
X177964000Y-115000000D01*
X170224000Y-112260000D02*
X170224000Y-115000000D01*
X177964000Y-112260000D02*
X177964000Y-115000000D01*
%TO.C,R9*%
X131840000Y-104060000D02*
X131840000Y-106800000D01*
X131840000Y-106800000D02*
X138380000Y-106800000D01*
X138380000Y-106800000D02*
X138380000Y-104060000D01*
X138380000Y-104060000D02*
X131840000Y-104060000D01*
X131070000Y-105430000D02*
X131840000Y-105430000D01*
X139150000Y-105430000D02*
X138380000Y-105430000D01*
%TO.C,R4*%
X131990000Y-68520000D02*
X131990000Y-71260000D01*
X131990000Y-71260000D02*
X138530000Y-71260000D01*
X138530000Y-71260000D02*
X138530000Y-68520000D01*
X138530000Y-68520000D02*
X131990000Y-68520000D01*
X131220000Y-69890000D02*
X131990000Y-69890000D01*
X139300000Y-69890000D02*
X138530000Y-69890000D01*
%TO.C,R5*%
X131980000Y-75720000D02*
X131980000Y-78460000D01*
X131980000Y-78460000D02*
X138520000Y-78460000D01*
X138520000Y-78460000D02*
X138520000Y-75720000D01*
X138520000Y-75720000D02*
X131980000Y-75720000D01*
X131210000Y-77090000D02*
X131980000Y-77090000D01*
X139290000Y-77090000D02*
X138520000Y-77090000D01*
%TO.C,R6*%
X131910000Y-82990000D02*
X131910000Y-85730000D01*
X131910000Y-85730000D02*
X138450000Y-85730000D01*
X138450000Y-85730000D02*
X138450000Y-82990000D01*
X138450000Y-82990000D02*
X131910000Y-82990000D01*
X131140000Y-84360000D02*
X131910000Y-84360000D01*
X139220000Y-84360000D02*
X138450000Y-84360000D01*
%TO.C,R8*%
X131840000Y-97220000D02*
X131840000Y-99960000D01*
X131840000Y-99960000D02*
X138380000Y-99960000D01*
X138380000Y-99960000D02*
X138380000Y-97220000D01*
X138380000Y-97220000D02*
X131840000Y-97220000D01*
X131070000Y-98590000D02*
X131840000Y-98590000D01*
X139150000Y-98590000D02*
X138380000Y-98590000D01*
%TO.C,R10*%
X131760000Y-110810000D02*
X131760000Y-113550000D01*
X131760000Y-113550000D02*
X138300000Y-113550000D01*
X138300000Y-113550000D02*
X138300000Y-110810000D01*
X138300000Y-110810000D02*
X131760000Y-110810000D01*
X130990000Y-112180000D02*
X131760000Y-112180000D01*
X139070000Y-112180000D02*
X138300000Y-112180000D01*
%TO.C,R11*%
X147360000Y-45650000D02*
X147360000Y-48390000D01*
X147360000Y-48390000D02*
X153900000Y-48390000D01*
X153900000Y-48390000D02*
X153900000Y-45650000D01*
X153900000Y-45650000D02*
X147360000Y-45650000D01*
X146590000Y-47020000D02*
X147360000Y-47020000D01*
X154670000Y-47020000D02*
X153900000Y-47020000D01*
%TO.C,R12*%
X147210000Y-53220000D02*
X147210000Y-55960000D01*
X147210000Y-55960000D02*
X153750000Y-55960000D01*
X153750000Y-55960000D02*
X153750000Y-53220000D01*
X153750000Y-53220000D02*
X147210000Y-53220000D01*
X146440000Y-54590000D02*
X147210000Y-54590000D01*
X154520000Y-54590000D02*
X153750000Y-54590000D01*
%TO.C,R13*%
X147154000Y-61016000D02*
X147154000Y-63756000D01*
X147154000Y-63756000D02*
X153694000Y-63756000D01*
X153694000Y-63756000D02*
X153694000Y-61016000D01*
X153694000Y-61016000D02*
X147154000Y-61016000D01*
X146384000Y-62386000D02*
X147154000Y-62386000D01*
X154464000Y-62386000D02*
X153694000Y-62386000D01*
%TO.C,R14*%
X147210000Y-68450000D02*
X147210000Y-71190000D01*
X147210000Y-71190000D02*
X153750000Y-71190000D01*
X153750000Y-71190000D02*
X153750000Y-68450000D01*
X153750000Y-68450000D02*
X147210000Y-68450000D01*
X146440000Y-69820000D02*
X147210000Y-69820000D01*
X154520000Y-69820000D02*
X153750000Y-69820000D01*
%TO.C,R15*%
X147052000Y-75512000D02*
X147052000Y-78252000D01*
X147052000Y-78252000D02*
X153592000Y-78252000D01*
X153592000Y-78252000D02*
X153592000Y-75512000D01*
X153592000Y-75512000D02*
X147052000Y-75512000D01*
X146282000Y-76882000D02*
X147052000Y-76882000D01*
X154362000Y-76882000D02*
X153592000Y-76882000D01*
%TO.C,R16*%
X146925000Y-83126000D02*
X146925000Y-85866000D01*
X146925000Y-85866000D02*
X153465000Y-85866000D01*
X153465000Y-85866000D02*
X153465000Y-83126000D01*
X153465000Y-83126000D02*
X146925000Y-83126000D01*
X146155000Y-84496000D02*
X146925000Y-84496000D01*
X154235000Y-84496000D02*
X153465000Y-84496000D01*
%TO.C,R17*%
X146925000Y-90106000D02*
X146925000Y-92846000D01*
X146925000Y-92846000D02*
X153465000Y-92846000D01*
X153465000Y-92846000D02*
X153465000Y-90106000D01*
X153465000Y-90106000D02*
X146925000Y-90106000D01*
X146155000Y-91476000D02*
X146925000Y-91476000D01*
X154235000Y-91476000D02*
X153465000Y-91476000D01*
%TO.C,R18*%
X146805000Y-97096000D02*
X146805000Y-99836000D01*
X146805000Y-99836000D02*
X153345000Y-99836000D01*
X153345000Y-99836000D02*
X153345000Y-97096000D01*
X153345000Y-97096000D02*
X146805000Y-97096000D01*
X146035000Y-98466000D02*
X146805000Y-98466000D01*
X154115000Y-98466000D02*
X153345000Y-98466000D01*
%TO.C,R19*%
X146805000Y-104076000D02*
X146805000Y-106816000D01*
X146805000Y-106816000D02*
X153345000Y-106816000D01*
X153345000Y-106816000D02*
X153345000Y-104076000D01*
X153345000Y-104076000D02*
X146805000Y-104076000D01*
X146035000Y-105446000D02*
X146805000Y-105446000D01*
X154115000Y-105446000D02*
X153345000Y-105446000D01*
%TO.C,R20*%
X146805000Y-110936000D02*
X146805000Y-113676000D01*
X146805000Y-113676000D02*
X153345000Y-113676000D01*
X153345000Y-113676000D02*
X153345000Y-110936000D01*
X153345000Y-110936000D02*
X146805000Y-110936000D01*
X146035000Y-112306000D02*
X146805000Y-112306000D01*
X154115000Y-112306000D02*
X153345000Y-112306000D01*
%TO.C,R21*%
D11*
X170974285Y-58962380D02*
X171593333Y-58962380D01*
X171260000Y-59343333D01*
X171402857Y-59343333D01*
X171498095Y-59390952D01*
X171545714Y-59438571D01*
X171593333Y-59533809D01*
X171593333Y-59771904D01*
X171545714Y-59867142D01*
X171498095Y-59914761D01*
X171402857Y-59962380D01*
X171117142Y-59962380D01*
X171021904Y-59914761D01*
X170974285Y-59867142D01*
X171926666Y-58962380D02*
X172545714Y-58962380D01*
X172212380Y-59343333D01*
X172355238Y-59343333D01*
X172450476Y-59390952D01*
X172498095Y-59438571D01*
X172545714Y-59533809D01*
X172545714Y-59771904D01*
X172498095Y-59867142D01*
X172450476Y-59914761D01*
X172355238Y-59962380D01*
X172069523Y-59962380D01*
X171974285Y-59914761D01*
X171926666Y-59867142D01*
X173164761Y-58962380D02*
X173260000Y-58962380D01*
X173355238Y-59010000D01*
X173402857Y-59057619D01*
X173450476Y-59152857D01*
X173498095Y-59343333D01*
X173498095Y-59581428D01*
X173450476Y-59771904D01*
X173402857Y-59867142D01*
X173355238Y-59914761D01*
X173260000Y-59962380D01*
X173164761Y-59962380D01*
X173069523Y-59914761D01*
X173021904Y-59867142D01*
X172974285Y-59771904D01*
X172926666Y-59581428D01*
X172926666Y-59343333D01*
X172974285Y-59152857D01*
X173021904Y-59057619D01*
X173069523Y-59010000D01*
X173164761Y-58962380D01*
X174498095Y-59962380D02*
X174164761Y-59486190D01*
X173926666Y-59962380D02*
X173926666Y-58962380D01*
X174307619Y-58962380D01*
X174402857Y-59010000D01*
X174450476Y-59057619D01*
X174498095Y-59152857D01*
X174498095Y-59295714D01*
X174450476Y-59390952D01*
X174402857Y-59438571D01*
X174307619Y-59486190D01*
X173926666Y-59486190D01*
X172117142Y-62502380D02*
X171783809Y-62026190D01*
X171545714Y-62502380D02*
X171545714Y-61502380D01*
X171926666Y-61502380D01*
X172021904Y-61550000D01*
X172069523Y-61597619D01*
X172117142Y-61692857D01*
X172117142Y-61835714D01*
X172069523Y-61930952D01*
X172021904Y-61978571D01*
X171926666Y-62026190D01*
X171545714Y-62026190D01*
X172498095Y-61597619D02*
X172545714Y-61550000D01*
X172640952Y-61502380D01*
X172879047Y-61502380D01*
X172974285Y-61550000D01*
X173021904Y-61597619D01*
X173069523Y-61692857D01*
X173069523Y-61788095D01*
X173021904Y-61930952D01*
X172450476Y-62502380D01*
X173069523Y-62502380D01*
X174021904Y-62502380D02*
X173450476Y-62502380D01*
X173736190Y-62502380D02*
X173736190Y-61502380D01*
X173640952Y-61645238D01*
X173545714Y-61740476D01*
X173450476Y-61788095D01*
%TO.C,U1*%
X167478095Y-81302380D02*
X167478095Y-82111904D01*
X167525714Y-82207142D01*
X167573333Y-82254761D01*
X167668571Y-82302380D01*
X167859047Y-82302380D01*
X167954285Y-82254761D01*
X168001904Y-82207142D01*
X168049523Y-82111904D01*
X168049523Y-81302380D01*
X169049523Y-82302380D02*
X168478095Y-82302380D01*
X168763809Y-82302380D02*
X168763809Y-81302380D01*
X168668571Y-81445238D01*
X168573333Y-81540476D01*
X168478095Y-81588095D01*
X165620952Y-106996666D02*
X166097142Y-106996666D01*
X165525714Y-107282380D02*
X165859047Y-106282380D01*
X166192380Y-107282380D01*
X166478095Y-107234761D02*
X166620952Y-107282380D01*
X166859047Y-107282380D01*
X166954285Y-107234761D01*
X167001904Y-107187142D01*
X167049523Y-107091904D01*
X167049523Y-106996666D01*
X167001904Y-106901428D01*
X166954285Y-106853809D01*
X166859047Y-106806190D01*
X166668571Y-106758571D01*
X166573333Y-106710952D01*
X166525714Y-106663333D01*
X166478095Y-106568095D01*
X166478095Y-106472857D01*
X166525714Y-106377619D01*
X166573333Y-106330000D01*
X166668571Y-106282380D01*
X166906666Y-106282380D01*
X167049523Y-106330000D01*
X167382857Y-106282380D02*
X168001904Y-106282380D01*
X167668571Y-106663333D01*
X167811428Y-106663333D01*
X167906666Y-106710952D01*
X167954285Y-106758571D01*
X168001904Y-106853809D01*
X168001904Y-107091904D01*
X167954285Y-107187142D01*
X167906666Y-107234761D01*
X167811428Y-107282380D01*
X167525714Y-107282380D01*
X167430476Y-107234761D01*
X167382857Y-107187142D01*
X168335238Y-106282380D02*
X168954285Y-106282380D01*
X168620952Y-106663333D01*
X168763809Y-106663333D01*
X168859047Y-106710952D01*
X168906666Y-106758571D01*
X168954285Y-106853809D01*
X168954285Y-107091904D01*
X168906666Y-107187142D01*
X168859047Y-107234761D01*
X168763809Y-107282380D01*
X168478095Y-107282380D01*
X168382857Y-107234761D01*
X168335238Y-107187142D01*
X169335238Y-106377619D02*
X169382857Y-106330000D01*
X169478095Y-106282380D01*
X169716190Y-106282380D01*
X169811428Y-106330000D01*
X169859047Y-106377619D01*
X169906666Y-106472857D01*
X169906666Y-106568095D01*
X169859047Y-106710952D01*
X169287619Y-107282380D01*
X169906666Y-107282380D01*
X170525714Y-106282380D02*
X170620952Y-106282380D01*
X170716190Y-106330000D01*
X170763809Y-106377619D01*
X170811428Y-106472857D01*
X170859047Y-106663333D01*
X170859047Y-106901428D01*
X170811428Y-107091904D01*
X170763809Y-107187142D01*
X170716190Y-107234761D01*
X170620952Y-107282380D01*
X170525714Y-107282380D01*
X170430476Y-107234761D01*
X170382857Y-107187142D01*
X170335238Y-107091904D01*
X170287619Y-106901428D01*
X170287619Y-106663333D01*
X170335238Y-106472857D01*
X170382857Y-106377619D01*
X170430476Y-106330000D01*
X170525714Y-106282380D01*
%TO.C,TP7*%
X143568095Y-117072380D02*
X144139523Y-117072380D01*
X143853809Y-118072380D02*
X143853809Y-117072380D01*
X144472857Y-118072380D02*
X144472857Y-117072380D01*
X144853809Y-117072380D01*
X144949047Y-117120000D01*
X144996666Y-117167619D01*
X145044285Y-117262857D01*
X145044285Y-117405714D01*
X144996666Y-117500952D01*
X144949047Y-117548571D01*
X144853809Y-117596190D01*
X144472857Y-117596190D01*
X145377619Y-117072380D02*
X146044285Y-117072380D01*
X145615714Y-118072380D01*
X142385238Y-123622380D02*
X142575714Y-123622380D01*
X142670952Y-123670000D01*
X142766190Y-123765238D01*
X142813809Y-123955714D01*
X142813809Y-124289047D01*
X142766190Y-124479523D01*
X142670952Y-124574761D01*
X142575714Y-124622380D01*
X142385238Y-124622380D01*
X142290000Y-124574761D01*
X142194761Y-124479523D01*
X142147142Y-124289047D01*
X142147142Y-123955714D01*
X142194761Y-123765238D01*
X142290000Y-123670000D01*
X142385238Y-123622380D01*
X143242380Y-123622380D02*
X143242380Y-124431904D01*
X143290000Y-124527142D01*
X143337619Y-124574761D01*
X143432857Y-124622380D01*
X143623333Y-124622380D01*
X143718571Y-124574761D01*
X143766190Y-124527142D01*
X143813809Y-124431904D01*
X143813809Y-123622380D01*
X144147142Y-123622380D02*
X144718571Y-123622380D01*
X144432857Y-124622380D02*
X144432857Y-123622380D01*
X145051904Y-124622380D02*
X145051904Y-123622380D01*
X145432857Y-123622380D01*
X145528095Y-123670000D01*
X145575714Y-123717619D01*
X145623333Y-123812857D01*
X145623333Y-123955714D01*
X145575714Y-124050952D01*
X145528095Y-124098571D01*
X145432857Y-124146190D01*
X145051904Y-124146190D01*
X146051904Y-123622380D02*
X146051904Y-124431904D01*
X146099523Y-124527142D01*
X146147142Y-124574761D01*
X146242380Y-124622380D01*
X146432857Y-124622380D01*
X146528095Y-124574761D01*
X146575714Y-124527142D01*
X146623333Y-124431904D01*
X146623333Y-123622380D01*
X146956666Y-123622380D02*
X147528095Y-123622380D01*
X147242380Y-124622380D02*
X147242380Y-123622380D01*
%TO.C,TP6*%
X134298095Y-117604380D02*
X134869523Y-117604380D01*
X134583809Y-118604380D02*
X134583809Y-117604380D01*
X135202857Y-118604380D02*
X135202857Y-117604380D01*
X135583809Y-117604380D01*
X135679047Y-117652000D01*
X135726666Y-117699619D01*
X135774285Y-117794857D01*
X135774285Y-117937714D01*
X135726666Y-118032952D01*
X135679047Y-118080571D01*
X135583809Y-118128190D01*
X135202857Y-118128190D01*
X136631428Y-117604380D02*
X136440952Y-117604380D01*
X136345714Y-117652000D01*
X136298095Y-117699619D01*
X136202857Y-117842476D01*
X136155238Y-118032952D01*
X136155238Y-118413904D01*
X136202857Y-118509142D01*
X136250476Y-118556761D01*
X136345714Y-118604380D01*
X136536190Y-118604380D01*
X136631428Y-118556761D01*
X136679047Y-118509142D01*
X136726666Y-118413904D01*
X136726666Y-118175809D01*
X136679047Y-118080571D01*
X136631428Y-118032952D01*
X136536190Y-117985333D01*
X136345714Y-117985333D01*
X136250476Y-118032952D01*
X136202857Y-118080571D01*
X136155238Y-118175809D01*
X133631428Y-124602380D02*
X133631428Y-123602380D01*
X134107619Y-124602380D02*
X134107619Y-123602380D01*
X134679047Y-124602380D01*
X134679047Y-123602380D01*
X135155238Y-124602380D02*
X135155238Y-123602380D01*
X135536190Y-123602380D01*
X135631428Y-123650000D01*
X135679047Y-123697619D01*
X135726666Y-123792857D01*
X135726666Y-123935714D01*
X135679047Y-124030952D01*
X135631428Y-124078571D01*
X135536190Y-124126190D01*
X135155238Y-124126190D01*
X136155238Y-123602380D02*
X136155238Y-124411904D01*
X136202857Y-124507142D01*
X136250476Y-124554761D01*
X136345714Y-124602380D01*
X136536190Y-124602380D01*
X136631428Y-124554761D01*
X136679047Y-124507142D01*
X136726666Y-124411904D01*
X136726666Y-123602380D01*
X137060000Y-123602380D02*
X137631428Y-123602380D01*
X137345714Y-124602380D02*
X137345714Y-123602380D01*
%TO.C,TP5*%
X184118095Y-78772380D02*
X184689523Y-78772380D01*
X184403809Y-79772380D02*
X184403809Y-78772380D01*
X185022857Y-79772380D02*
X185022857Y-78772380D01*
X185403809Y-78772380D01*
X185499047Y-78820000D01*
X185546666Y-78867619D01*
X185594285Y-78962857D01*
X185594285Y-79105714D01*
X185546666Y-79200952D01*
X185499047Y-79248571D01*
X185403809Y-79296190D01*
X185022857Y-79296190D01*
X186499047Y-78772380D02*
X186022857Y-78772380D01*
X185975238Y-79248571D01*
X186022857Y-79200952D01*
X186118095Y-79153333D01*
X186356190Y-79153333D01*
X186451428Y-79200952D01*
X186499047Y-79248571D01*
X186546666Y-79343809D01*
X186546666Y-79581904D01*
X186499047Y-79677142D01*
X186451428Y-79724761D01*
X186356190Y-79772380D01*
X186118095Y-79772380D01*
X186022857Y-79724761D01*
X185975238Y-79677142D01*
X182106190Y-86198571D02*
X181772857Y-86198571D01*
X181772857Y-86722380D02*
X181772857Y-85722380D01*
X182249047Y-85722380D01*
X183201428Y-86722380D02*
X182868095Y-86246190D01*
X182630000Y-86722380D02*
X182630000Y-85722380D01*
X183010952Y-85722380D01*
X183106190Y-85770000D01*
X183153809Y-85817619D01*
X183201428Y-85912857D01*
X183201428Y-86055714D01*
X183153809Y-86150952D01*
X183106190Y-86198571D01*
X183010952Y-86246190D01*
X182630000Y-86246190D01*
X183630000Y-86198571D02*
X183963333Y-86198571D01*
X184106190Y-86722380D02*
X183630000Y-86722380D01*
X183630000Y-85722380D01*
X184106190Y-85722380D01*
X185201428Y-86817619D02*
X185106190Y-86770000D01*
X185010952Y-86674761D01*
X184868095Y-86531904D01*
X184772857Y-86484285D01*
X184677619Y-86484285D01*
X184725238Y-86722380D02*
X184630000Y-86674761D01*
X184534761Y-86579523D01*
X184487142Y-86389047D01*
X184487142Y-86055714D01*
X184534761Y-85865238D01*
X184630000Y-85770000D01*
X184725238Y-85722380D01*
X184915714Y-85722380D01*
X185010952Y-85770000D01*
X185106190Y-85865238D01*
X185153809Y-86055714D01*
X185153809Y-86389047D01*
X185106190Y-86579523D01*
X185010952Y-86674761D01*
X184915714Y-86722380D01*
X184725238Y-86722380D01*
X185344285Y-86817619D02*
X186106190Y-86817619D01*
X186344285Y-86722380D02*
X186344285Y-85722380D01*
X186915714Y-86722380D01*
X186915714Y-85722380D01*
X187249047Y-85722380D02*
X187820476Y-85722380D01*
X187534761Y-86722380D02*
X187534761Y-85722380D01*
X188725238Y-86722380D02*
X188391904Y-86246190D01*
X188153809Y-86722380D02*
X188153809Y-85722380D01*
X188534761Y-85722380D01*
X188630000Y-85770000D01*
X188677619Y-85817619D01*
X188725238Y-85912857D01*
X188725238Y-86055714D01*
X188677619Y-86150952D01*
X188630000Y-86198571D01*
X188534761Y-86246190D01*
X188153809Y-86246190D01*
X189630000Y-86722380D02*
X189153809Y-86722380D01*
X189153809Y-85722380D01*
%TO.C,TP4*%
X152578095Y-36744380D02*
X153149523Y-36744380D01*
X152863809Y-37744380D02*
X152863809Y-36744380D01*
X153482857Y-37744380D02*
X153482857Y-36744380D01*
X153863809Y-36744380D01*
X153959047Y-36792000D01*
X154006666Y-36839619D01*
X154054285Y-36934857D01*
X154054285Y-37077714D01*
X154006666Y-37172952D01*
X153959047Y-37220571D01*
X153863809Y-37268190D01*
X153482857Y-37268190D01*
X154911428Y-37077714D02*
X154911428Y-37744380D01*
X154673333Y-36696761D02*
X154435238Y-37411047D01*
X155054285Y-37411047D01*
X152078095Y-43361428D02*
X152840000Y-43361428D01*
X153840000Y-43742380D02*
X153268571Y-43742380D01*
X153554285Y-43742380D02*
X153554285Y-42742380D01*
X153459047Y-42885238D01*
X153363809Y-42980476D01*
X153268571Y-43028095D01*
X154220952Y-42837619D02*
X154268571Y-42790000D01*
X154363809Y-42742380D01*
X154601904Y-42742380D01*
X154697142Y-42790000D01*
X154744761Y-42837619D01*
X154792380Y-42932857D01*
X154792380Y-43028095D01*
X154744761Y-43170952D01*
X154173333Y-43742380D01*
X154792380Y-43742380D01*
X155078095Y-42742380D02*
X155411428Y-43742380D01*
X155744761Y-42742380D01*
%TO.C,TP3*%
X141718095Y-36874380D02*
X142289523Y-36874380D01*
X142003809Y-37874380D02*
X142003809Y-36874380D01*
X142622857Y-37874380D02*
X142622857Y-36874380D01*
X143003809Y-36874380D01*
X143099047Y-36922000D01*
X143146666Y-36969619D01*
X143194285Y-37064857D01*
X143194285Y-37207714D01*
X143146666Y-37302952D01*
X143099047Y-37350571D01*
X143003809Y-37398190D01*
X142622857Y-37398190D01*
X143527619Y-36874380D02*
X144146666Y-36874380D01*
X143813333Y-37255333D01*
X143956190Y-37255333D01*
X144051428Y-37302952D01*
X144099047Y-37350571D01*
X144146666Y-37445809D01*
X144146666Y-37683904D01*
X144099047Y-37779142D01*
X144051428Y-37826761D01*
X143956190Y-37874380D01*
X143670476Y-37874380D01*
X143575238Y-37826761D01*
X143527619Y-37779142D01*
X142218095Y-42920000D02*
X142122857Y-42872380D01*
X141980000Y-42872380D01*
X141837142Y-42920000D01*
X141741904Y-43015238D01*
X141694285Y-43110476D01*
X141646666Y-43300952D01*
X141646666Y-43443809D01*
X141694285Y-43634285D01*
X141741904Y-43729523D01*
X141837142Y-43824761D01*
X141980000Y-43872380D01*
X142075238Y-43872380D01*
X142218095Y-43824761D01*
X142265714Y-43777142D01*
X142265714Y-43443809D01*
X142075238Y-43443809D01*
X142694285Y-43872380D02*
X142694285Y-42872380D01*
X143265714Y-43872380D01*
X143265714Y-42872380D01*
X143741904Y-43872380D02*
X143741904Y-42872380D01*
X143980000Y-42872380D01*
X144122857Y-42920000D01*
X144218095Y-43015238D01*
X144265714Y-43110476D01*
X144313333Y-43300952D01*
X144313333Y-43443809D01*
X144265714Y-43634285D01*
X144218095Y-43729523D01*
X144122857Y-43824761D01*
X143980000Y-43872380D01*
X143741904Y-43872380D01*
%TO.C,TP2*%
X130608095Y-36744380D02*
X131179523Y-36744380D01*
X130893809Y-37744380D02*
X130893809Y-36744380D01*
X131512857Y-37744380D02*
X131512857Y-36744380D01*
X131893809Y-36744380D01*
X131989047Y-36792000D01*
X132036666Y-36839619D01*
X132084285Y-36934857D01*
X132084285Y-37077714D01*
X132036666Y-37172952D01*
X131989047Y-37220571D01*
X131893809Y-37268190D01*
X131512857Y-37268190D01*
X132465238Y-36839619D02*
X132512857Y-36792000D01*
X132608095Y-36744380D01*
X132846190Y-36744380D01*
X132941428Y-36792000D01*
X132989047Y-36839619D01*
X133036666Y-36934857D01*
X133036666Y-37030095D01*
X132989047Y-37172952D01*
X132417619Y-37744380D01*
X133036666Y-37744380D01*
X130108095Y-43361428D02*
X130870000Y-43361428D01*
X130489047Y-43742380D02*
X130489047Y-42980476D01*
X131870000Y-43742380D02*
X131298571Y-43742380D01*
X131584285Y-43742380D02*
X131584285Y-42742380D01*
X131489047Y-42885238D01*
X131393809Y-42980476D01*
X131298571Y-43028095D01*
X132250952Y-42837619D02*
X132298571Y-42790000D01*
X132393809Y-42742380D01*
X132631904Y-42742380D01*
X132727142Y-42790000D01*
X132774761Y-42837619D01*
X132822380Y-42932857D01*
X132822380Y-43028095D01*
X132774761Y-43170952D01*
X132203333Y-43742380D01*
X132822380Y-43742380D01*
X133108095Y-42742380D02*
X133441428Y-43742380D01*
X133774761Y-42742380D01*
%TO.C,TP1*%
X184118095Y-55292380D02*
X184689523Y-55292380D01*
X184403809Y-56292380D02*
X184403809Y-55292380D01*
X185022857Y-56292380D02*
X185022857Y-55292380D01*
X185403809Y-55292380D01*
X185499047Y-55340000D01*
X185546666Y-55387619D01*
X185594285Y-55482857D01*
X185594285Y-55625714D01*
X185546666Y-55720952D01*
X185499047Y-55768571D01*
X185403809Y-55816190D01*
X185022857Y-55816190D01*
X186546666Y-56292380D02*
X185975238Y-56292380D01*
X186260952Y-56292380D02*
X186260952Y-55292380D01*
X186165714Y-55435238D01*
X186070476Y-55530476D01*
X185975238Y-55578095D01*
X182844285Y-62982380D02*
X182510952Y-62506190D01*
X182272857Y-62982380D02*
X182272857Y-61982380D01*
X182653809Y-61982380D01*
X182749047Y-62030000D01*
X182796666Y-62077619D01*
X182844285Y-62172857D01*
X182844285Y-62315714D01*
X182796666Y-62410952D01*
X182749047Y-62458571D01*
X182653809Y-62506190D01*
X182272857Y-62506190D01*
X183272857Y-62458571D02*
X183606190Y-62458571D01*
X183749047Y-62982380D02*
X183272857Y-62982380D01*
X183272857Y-61982380D01*
X183749047Y-61982380D01*
X184130000Y-62934761D02*
X184272857Y-62982380D01*
X184510952Y-62982380D01*
X184606190Y-62934761D01*
X184653809Y-62887142D01*
X184701428Y-62791904D01*
X184701428Y-62696666D01*
X184653809Y-62601428D01*
X184606190Y-62553809D01*
X184510952Y-62506190D01*
X184320476Y-62458571D01*
X184225238Y-62410952D01*
X184177619Y-62363333D01*
X184130000Y-62268095D01*
X184130000Y-62172857D01*
X184177619Y-62077619D01*
X184225238Y-62030000D01*
X184320476Y-61982380D01*
X184558571Y-61982380D01*
X184701428Y-62030000D01*
X184891904Y-63077619D02*
X185653809Y-63077619D01*
X186463333Y-62887142D02*
X186415714Y-62934761D01*
X186272857Y-62982380D01*
X186177619Y-62982380D01*
X186034761Y-62934761D01*
X185939523Y-62839523D01*
X185891904Y-62744285D01*
X185844285Y-62553809D01*
X185844285Y-62410952D01*
X185891904Y-62220476D01*
X185939523Y-62125238D01*
X186034761Y-62030000D01*
X186177619Y-61982380D01*
X186272857Y-61982380D01*
X186415714Y-62030000D01*
X186463333Y-62077619D01*
X186749047Y-61982380D02*
X187320476Y-61982380D01*
X187034761Y-62982380D02*
X187034761Y-61982380D01*
X188225238Y-62982380D02*
X187891904Y-62506190D01*
X187653809Y-62982380D02*
X187653809Y-61982380D01*
X188034761Y-61982380D01*
X188130000Y-62030000D01*
X188177619Y-62077619D01*
X188225238Y-62172857D01*
X188225238Y-62315714D01*
X188177619Y-62410952D01*
X188130000Y-62458571D01*
X188034761Y-62506190D01*
X187653809Y-62506190D01*
X189130000Y-62982380D02*
X188653809Y-62982380D01*
X188653809Y-61982380D01*
%TO.C,R7*%
X134441904Y-90942380D02*
X133965714Y-90942380D01*
X133918095Y-91418571D01*
X133965714Y-91370952D01*
X134060952Y-91323333D01*
X134299047Y-91323333D01*
X134394285Y-91370952D01*
X134441904Y-91418571D01*
X134489523Y-91513809D01*
X134489523Y-91751904D01*
X134441904Y-91847142D01*
X134394285Y-91894761D01*
X134299047Y-91942380D01*
X134060952Y-91942380D01*
X133965714Y-91894761D01*
X133918095Y-91847142D01*
X135108571Y-90942380D02*
X135203809Y-90942380D01*
X135299047Y-90990000D01*
X135346666Y-91037619D01*
X135394285Y-91132857D01*
X135441904Y-91323333D01*
X135441904Y-91561428D01*
X135394285Y-91751904D01*
X135346666Y-91847142D01*
X135299047Y-91894761D01*
X135203809Y-91942380D01*
X135108571Y-91942380D01*
X135013333Y-91894761D01*
X134965714Y-91847142D01*
X134918095Y-91751904D01*
X134870476Y-91561428D01*
X134870476Y-91323333D01*
X134918095Y-91132857D01*
X134965714Y-91037619D01*
X135013333Y-90990000D01*
X135108571Y-90942380D01*
X135870476Y-91942380D02*
X135870476Y-90942380D01*
X136441904Y-91942380D02*
X136013333Y-91370952D01*
X136441904Y-90942380D02*
X135870476Y-91513809D01*
X135013333Y-94482380D02*
X134680000Y-94006190D01*
X134441904Y-94482380D02*
X134441904Y-93482380D01*
X134822857Y-93482380D01*
X134918095Y-93530000D01*
X134965714Y-93577619D01*
X135013333Y-93672857D01*
X135013333Y-93815714D01*
X134965714Y-93910952D01*
X134918095Y-93958571D01*
X134822857Y-94006190D01*
X134441904Y-94006190D01*
X135346666Y-93482380D02*
X136013333Y-93482380D01*
X135584761Y-94482380D01*
%TO.C,R3*%
X134583904Y-61983380D02*
X134107714Y-61983380D01*
X134060095Y-62459571D01*
X134107714Y-62411952D01*
X134202952Y-62364333D01*
X134441047Y-62364333D01*
X134536285Y-62411952D01*
X134583904Y-62459571D01*
X134631523Y-62554809D01*
X134631523Y-62792904D01*
X134583904Y-62888142D01*
X134536285Y-62935761D01*
X134441047Y-62983380D01*
X134202952Y-62983380D01*
X134107714Y-62935761D01*
X134060095Y-62888142D01*
X135250571Y-61983380D02*
X135345809Y-61983380D01*
X135441047Y-62031000D01*
X135488666Y-62078619D01*
X135536285Y-62173857D01*
X135583904Y-62364333D01*
X135583904Y-62602428D01*
X135536285Y-62792904D01*
X135488666Y-62888142D01*
X135441047Y-62935761D01*
X135345809Y-62983380D01*
X135250571Y-62983380D01*
X135155333Y-62935761D01*
X135107714Y-62888142D01*
X135060095Y-62792904D01*
X135012476Y-62602428D01*
X135012476Y-62364333D01*
X135060095Y-62173857D01*
X135107714Y-62078619D01*
X135155333Y-62031000D01*
X135250571Y-61983380D01*
X136012476Y-62983380D02*
X136012476Y-61983380D01*
X136583904Y-62983380D02*
X136155333Y-62411952D01*
X136583904Y-61983380D02*
X136012476Y-62554809D01*
X135085333Y-65463380D02*
X134752000Y-64987190D01*
X134513904Y-65463380D02*
X134513904Y-64463380D01*
X134894857Y-64463380D01*
X134990095Y-64511000D01*
X135037714Y-64558619D01*
X135085333Y-64653857D01*
X135085333Y-64796714D01*
X135037714Y-64891952D01*
X134990095Y-64939571D01*
X134894857Y-64987190D01*
X134513904Y-64987190D01*
X135418666Y-64463380D02*
X136037714Y-64463380D01*
X135704380Y-64844333D01*
X135847238Y-64844333D01*
X135942476Y-64891952D01*
X135990095Y-64939571D01*
X136037714Y-65034809D01*
X136037714Y-65272904D01*
X135990095Y-65368142D01*
X135942476Y-65415761D01*
X135847238Y-65463380D01*
X135561523Y-65463380D01*
X135466285Y-65415761D01*
X135418666Y-65368142D01*
%TO.C,R2*%
X133980476Y-54322380D02*
X134647142Y-54322380D01*
X134218571Y-55322380D01*
X134980476Y-54417619D02*
X135028095Y-54370000D01*
X135123333Y-54322380D01*
X135361428Y-54322380D01*
X135456666Y-54370000D01*
X135504285Y-54417619D01*
X135551904Y-54512857D01*
X135551904Y-54608095D01*
X135504285Y-54750952D01*
X134932857Y-55322380D01*
X135551904Y-55322380D01*
X135980476Y-55322380D02*
X135980476Y-54322380D01*
X136551904Y-55322380D02*
X136123333Y-54750952D01*
X136551904Y-54322380D02*
X135980476Y-54893809D01*
X135193333Y-57952380D02*
X134860000Y-57476190D01*
X134621904Y-57952380D02*
X134621904Y-56952380D01*
X135002857Y-56952380D01*
X135098095Y-57000000D01*
X135145714Y-57047619D01*
X135193333Y-57142857D01*
X135193333Y-57285714D01*
X135145714Y-57380952D01*
X135098095Y-57428571D01*
X135002857Y-57476190D01*
X134621904Y-57476190D01*
X135574285Y-57047619D02*
X135621904Y-57000000D01*
X135717142Y-56952380D01*
X135955238Y-56952380D01*
X136050476Y-57000000D01*
X136098095Y-57047619D01*
X136145714Y-57142857D01*
X136145714Y-57238095D01*
X136098095Y-57380952D01*
X135526666Y-57952380D01*
X136145714Y-57952380D01*
%TO.C,R1*%
X133424285Y-46652380D02*
X134043333Y-46652380D01*
X133710000Y-47033333D01*
X133852857Y-47033333D01*
X133948095Y-47080952D01*
X133995714Y-47128571D01*
X134043333Y-47223809D01*
X134043333Y-47461904D01*
X133995714Y-47557142D01*
X133948095Y-47604761D01*
X133852857Y-47652380D01*
X133567142Y-47652380D01*
X133471904Y-47604761D01*
X133424285Y-47557142D01*
X134376666Y-46652380D02*
X134995714Y-46652380D01*
X134662380Y-47033333D01*
X134805238Y-47033333D01*
X134900476Y-47080952D01*
X134948095Y-47128571D01*
X134995714Y-47223809D01*
X134995714Y-47461904D01*
X134948095Y-47557142D01*
X134900476Y-47604761D01*
X134805238Y-47652380D01*
X134519523Y-47652380D01*
X134424285Y-47604761D01*
X134376666Y-47557142D01*
X135614761Y-46652380D02*
X135710000Y-46652380D01*
X135805238Y-46700000D01*
X135852857Y-46747619D01*
X135900476Y-46842857D01*
X135948095Y-47033333D01*
X135948095Y-47271428D01*
X135900476Y-47461904D01*
X135852857Y-47557142D01*
X135805238Y-47604761D01*
X135710000Y-47652380D01*
X135614761Y-47652380D01*
X135519523Y-47604761D01*
X135471904Y-47557142D01*
X135424285Y-47461904D01*
X135376666Y-47271428D01*
X135376666Y-47033333D01*
X135424285Y-46842857D01*
X135471904Y-46747619D01*
X135519523Y-46700000D01*
X135614761Y-46652380D01*
X136948095Y-47652380D02*
X136614761Y-47176190D01*
X136376666Y-47652380D02*
X136376666Y-46652380D01*
X136757619Y-46652380D01*
X136852857Y-46700000D01*
X136900476Y-46747619D01*
X136948095Y-46842857D01*
X136948095Y-46985714D01*
X136900476Y-47080952D01*
X136852857Y-47128571D01*
X136757619Y-47176190D01*
X136376666Y-47176190D01*
X135193333Y-50352380D02*
X134860000Y-49876190D01*
X134621904Y-50352380D02*
X134621904Y-49352380D01*
X135002857Y-49352380D01*
X135098095Y-49400000D01*
X135145714Y-49447619D01*
X135193333Y-49542857D01*
X135193333Y-49685714D01*
X135145714Y-49780952D01*
X135098095Y-49828571D01*
X135002857Y-49876190D01*
X134621904Y-49876190D01*
X136145714Y-50352380D02*
X135574285Y-50352380D01*
X135860000Y-50352380D02*
X135860000Y-49352380D01*
X135764761Y-49495238D01*
X135669523Y-49590476D01*
X135574285Y-49638095D01*
%TO.C,C5*%
X153813333Y-117777142D02*
X153765714Y-117824761D01*
X153622857Y-117872380D01*
X153527619Y-117872380D01*
X153384761Y-117824761D01*
X153289523Y-117729523D01*
X153241904Y-117634285D01*
X153194285Y-117443809D01*
X153194285Y-117300952D01*
X153241904Y-117110476D01*
X153289523Y-117015238D01*
X153384761Y-116920000D01*
X153527619Y-116872380D01*
X153622857Y-116872380D01*
X153765714Y-116920000D01*
X153813333Y-116967619D01*
X154718095Y-116872380D02*
X154241904Y-116872380D01*
X154194285Y-117348571D01*
X154241904Y-117300952D01*
X154337142Y-117253333D01*
X154575238Y-117253333D01*
X154670476Y-117300952D01*
X154718095Y-117348571D01*
X154765714Y-117443809D01*
X154765714Y-117681904D01*
X154718095Y-117777142D01*
X154670476Y-117824761D01*
X154575238Y-117872380D01*
X154337142Y-117872380D01*
X154241904Y-117824761D01*
X154194285Y-117777142D01*
%TO.C,C1*%
X171917333Y-123742380D02*
X172536380Y-123742380D01*
X172203047Y-124123333D01*
X172345904Y-124123333D01*
X172441142Y-124170952D01*
X172488761Y-124218571D01*
X172536380Y-124313809D01*
X172536380Y-124551904D01*
X172488761Y-124647142D01*
X172441142Y-124694761D01*
X172345904Y-124742380D01*
X172060190Y-124742380D01*
X171964952Y-124694761D01*
X171917333Y-124647142D01*
X173155428Y-123742380D02*
X173250666Y-123742380D01*
X173345904Y-123790000D01*
X173393523Y-123837619D01*
X173441142Y-123932857D01*
X173488761Y-124123333D01*
X173488761Y-124361428D01*
X173441142Y-124551904D01*
X173393523Y-124647142D01*
X173345904Y-124694761D01*
X173250666Y-124742380D01*
X173155428Y-124742380D01*
X173060190Y-124694761D01*
X173012571Y-124647142D01*
X172964952Y-124551904D01*
X172917333Y-124361428D01*
X172917333Y-124123333D01*
X172964952Y-123932857D01*
X173012571Y-123837619D01*
X173060190Y-123790000D01*
X173155428Y-123742380D01*
X174107809Y-123742380D02*
X174203047Y-123742380D01*
X174298285Y-123790000D01*
X174345904Y-123837619D01*
X174393523Y-123932857D01*
X174441142Y-124123333D01*
X174441142Y-124361428D01*
X174393523Y-124551904D01*
X174345904Y-124647142D01*
X174298285Y-124694761D01*
X174203047Y-124742380D01*
X174107809Y-124742380D01*
X174012571Y-124694761D01*
X173964952Y-124647142D01*
X173917333Y-124551904D01*
X173869714Y-124361428D01*
X173869714Y-124123333D01*
X173917333Y-123932857D01*
X173964952Y-123837619D01*
X174012571Y-123790000D01*
X174107809Y-123742380D01*
X174869714Y-124075714D02*
X174869714Y-125075714D01*
X174869714Y-124123333D02*
X174964952Y-124075714D01*
X175155428Y-124075714D01*
X175250666Y-124123333D01*
X175298285Y-124170952D01*
X175345904Y-124266190D01*
X175345904Y-124551904D01*
X175298285Y-124647142D01*
X175250666Y-124694761D01*
X175155428Y-124742380D01*
X174964952Y-124742380D01*
X174869714Y-124694761D01*
X176107809Y-124218571D02*
X175774476Y-124218571D01*
X175774476Y-124742380D02*
X175774476Y-123742380D01*
X176250666Y-123742380D01*
X173917333Y-119567142D02*
X173869714Y-119614761D01*
X173726857Y-119662380D01*
X173631619Y-119662380D01*
X173488761Y-119614761D01*
X173393523Y-119519523D01*
X173345904Y-119424285D01*
X173298285Y-119233809D01*
X173298285Y-119090952D01*
X173345904Y-118900476D01*
X173393523Y-118805238D01*
X173488761Y-118710000D01*
X173631619Y-118662380D01*
X173726857Y-118662380D01*
X173869714Y-118710000D01*
X173917333Y-118757619D01*
X174869714Y-119662380D02*
X174298285Y-119662380D01*
X174584000Y-119662380D02*
X174584000Y-118662380D01*
X174488761Y-118805238D01*
X174393523Y-118900476D01*
X174298285Y-118948095D01*
%TO.C,C2*%
X162121333Y-115614380D02*
X162740380Y-115614380D01*
X162407047Y-115995333D01*
X162549904Y-115995333D01*
X162645142Y-116042952D01*
X162692761Y-116090571D01*
X162740380Y-116185809D01*
X162740380Y-116423904D01*
X162692761Y-116519142D01*
X162645142Y-116566761D01*
X162549904Y-116614380D01*
X162264190Y-116614380D01*
X162168952Y-116566761D01*
X162121333Y-116519142D01*
X163359428Y-115614380D02*
X163454666Y-115614380D01*
X163549904Y-115662000D01*
X163597523Y-115709619D01*
X163645142Y-115804857D01*
X163692761Y-115995333D01*
X163692761Y-116233428D01*
X163645142Y-116423904D01*
X163597523Y-116519142D01*
X163549904Y-116566761D01*
X163454666Y-116614380D01*
X163359428Y-116614380D01*
X163264190Y-116566761D01*
X163216571Y-116519142D01*
X163168952Y-116423904D01*
X163121333Y-116233428D01*
X163121333Y-115995333D01*
X163168952Y-115804857D01*
X163216571Y-115709619D01*
X163264190Y-115662000D01*
X163359428Y-115614380D01*
X164311809Y-115614380D02*
X164407047Y-115614380D01*
X164502285Y-115662000D01*
X164549904Y-115709619D01*
X164597523Y-115804857D01*
X164645142Y-115995333D01*
X164645142Y-116233428D01*
X164597523Y-116423904D01*
X164549904Y-116519142D01*
X164502285Y-116566761D01*
X164407047Y-116614380D01*
X164311809Y-116614380D01*
X164216571Y-116566761D01*
X164168952Y-116519142D01*
X164121333Y-116423904D01*
X164073714Y-116233428D01*
X164073714Y-115995333D01*
X164121333Y-115804857D01*
X164168952Y-115709619D01*
X164216571Y-115662000D01*
X164311809Y-115614380D01*
X165073714Y-115947714D02*
X165073714Y-116947714D01*
X165073714Y-115995333D02*
X165168952Y-115947714D01*
X165359428Y-115947714D01*
X165454666Y-115995333D01*
X165502285Y-116042952D01*
X165549904Y-116138190D01*
X165549904Y-116423904D01*
X165502285Y-116519142D01*
X165454666Y-116566761D01*
X165359428Y-116614380D01*
X165168952Y-116614380D01*
X165073714Y-116566761D01*
X166311809Y-116090571D02*
X165978476Y-116090571D01*
X165978476Y-116614380D02*
X165978476Y-115614380D01*
X166454666Y-115614380D01*
X164121333Y-111439142D02*
X164073714Y-111486761D01*
X163930857Y-111534380D01*
X163835619Y-111534380D01*
X163692761Y-111486761D01*
X163597523Y-111391523D01*
X163549904Y-111296285D01*
X163502285Y-111105809D01*
X163502285Y-110962952D01*
X163549904Y-110772476D01*
X163597523Y-110677238D01*
X163692761Y-110582000D01*
X163835619Y-110534380D01*
X163930857Y-110534380D01*
X164073714Y-110582000D01*
X164121333Y-110629619D01*
X164502285Y-110629619D02*
X164549904Y-110582000D01*
X164645142Y-110534380D01*
X164883238Y-110534380D01*
X164978476Y-110582000D01*
X165026095Y-110629619D01*
X165073714Y-110724857D01*
X165073714Y-110820095D01*
X165026095Y-110962952D01*
X164454666Y-111534380D01*
X165073714Y-111534380D01*
%TO.C,C3*%
X162071333Y-123734380D02*
X162690380Y-123734380D01*
X162357047Y-124115333D01*
X162499904Y-124115333D01*
X162595142Y-124162952D01*
X162642761Y-124210571D01*
X162690380Y-124305809D01*
X162690380Y-124543904D01*
X162642761Y-124639142D01*
X162595142Y-124686761D01*
X162499904Y-124734380D01*
X162214190Y-124734380D01*
X162118952Y-124686761D01*
X162071333Y-124639142D01*
X163309428Y-123734380D02*
X163404666Y-123734380D01*
X163499904Y-123782000D01*
X163547523Y-123829619D01*
X163595142Y-123924857D01*
X163642761Y-124115333D01*
X163642761Y-124353428D01*
X163595142Y-124543904D01*
X163547523Y-124639142D01*
X163499904Y-124686761D01*
X163404666Y-124734380D01*
X163309428Y-124734380D01*
X163214190Y-124686761D01*
X163166571Y-124639142D01*
X163118952Y-124543904D01*
X163071333Y-124353428D01*
X163071333Y-124115333D01*
X163118952Y-123924857D01*
X163166571Y-123829619D01*
X163214190Y-123782000D01*
X163309428Y-123734380D01*
X164261809Y-123734380D02*
X164357047Y-123734380D01*
X164452285Y-123782000D01*
X164499904Y-123829619D01*
X164547523Y-123924857D01*
X164595142Y-124115333D01*
X164595142Y-124353428D01*
X164547523Y-124543904D01*
X164499904Y-124639142D01*
X164452285Y-124686761D01*
X164357047Y-124734380D01*
X164261809Y-124734380D01*
X164166571Y-124686761D01*
X164118952Y-124639142D01*
X164071333Y-124543904D01*
X164023714Y-124353428D01*
X164023714Y-124115333D01*
X164071333Y-123924857D01*
X164118952Y-123829619D01*
X164166571Y-123782000D01*
X164261809Y-123734380D01*
X165023714Y-124067714D02*
X165023714Y-125067714D01*
X165023714Y-124115333D02*
X165118952Y-124067714D01*
X165309428Y-124067714D01*
X165404666Y-124115333D01*
X165452285Y-124162952D01*
X165499904Y-124258190D01*
X165499904Y-124543904D01*
X165452285Y-124639142D01*
X165404666Y-124686761D01*
X165309428Y-124734380D01*
X165118952Y-124734380D01*
X165023714Y-124686761D01*
X166261809Y-124210571D02*
X165928476Y-124210571D01*
X165928476Y-124734380D02*
X165928476Y-123734380D01*
X166404666Y-123734380D01*
X164071333Y-119559142D02*
X164023714Y-119606761D01*
X163880857Y-119654380D01*
X163785619Y-119654380D01*
X163642761Y-119606761D01*
X163547523Y-119511523D01*
X163499904Y-119416285D01*
X163452285Y-119225809D01*
X163452285Y-119082952D01*
X163499904Y-118892476D01*
X163547523Y-118797238D01*
X163642761Y-118702000D01*
X163785619Y-118654380D01*
X163880857Y-118654380D01*
X164023714Y-118702000D01*
X164071333Y-118749619D01*
X164404666Y-118654380D02*
X165023714Y-118654380D01*
X164690380Y-119035333D01*
X164833238Y-119035333D01*
X164928476Y-119082952D01*
X164976095Y-119130571D01*
X165023714Y-119225809D01*
X165023714Y-119463904D01*
X164976095Y-119559142D01*
X164928476Y-119606761D01*
X164833238Y-119654380D01*
X164547523Y-119654380D01*
X164452285Y-119606761D01*
X164404666Y-119559142D01*
%TO.C,C4*%
X171967333Y-115622380D02*
X172586380Y-115622380D01*
X172253047Y-116003333D01*
X172395904Y-116003333D01*
X172491142Y-116050952D01*
X172538761Y-116098571D01*
X172586380Y-116193809D01*
X172586380Y-116431904D01*
X172538761Y-116527142D01*
X172491142Y-116574761D01*
X172395904Y-116622380D01*
X172110190Y-116622380D01*
X172014952Y-116574761D01*
X171967333Y-116527142D01*
X173205428Y-115622380D02*
X173300666Y-115622380D01*
X173395904Y-115670000D01*
X173443523Y-115717619D01*
X173491142Y-115812857D01*
X173538761Y-116003333D01*
X173538761Y-116241428D01*
X173491142Y-116431904D01*
X173443523Y-116527142D01*
X173395904Y-116574761D01*
X173300666Y-116622380D01*
X173205428Y-116622380D01*
X173110190Y-116574761D01*
X173062571Y-116527142D01*
X173014952Y-116431904D01*
X172967333Y-116241428D01*
X172967333Y-116003333D01*
X173014952Y-115812857D01*
X173062571Y-115717619D01*
X173110190Y-115670000D01*
X173205428Y-115622380D01*
X174157809Y-115622380D02*
X174253047Y-115622380D01*
X174348285Y-115670000D01*
X174395904Y-115717619D01*
X174443523Y-115812857D01*
X174491142Y-116003333D01*
X174491142Y-116241428D01*
X174443523Y-116431904D01*
X174395904Y-116527142D01*
X174348285Y-116574761D01*
X174253047Y-116622380D01*
X174157809Y-116622380D01*
X174062571Y-116574761D01*
X174014952Y-116527142D01*
X173967333Y-116431904D01*
X173919714Y-116241428D01*
X173919714Y-116003333D01*
X173967333Y-115812857D01*
X174014952Y-115717619D01*
X174062571Y-115670000D01*
X174157809Y-115622380D01*
X174919714Y-115955714D02*
X174919714Y-116955714D01*
X174919714Y-116003333D02*
X175014952Y-115955714D01*
X175205428Y-115955714D01*
X175300666Y-116003333D01*
X175348285Y-116050952D01*
X175395904Y-116146190D01*
X175395904Y-116431904D01*
X175348285Y-116527142D01*
X175300666Y-116574761D01*
X175205428Y-116622380D01*
X175014952Y-116622380D01*
X174919714Y-116574761D01*
X176157809Y-116098571D02*
X175824476Y-116098571D01*
X175824476Y-116622380D02*
X175824476Y-115622380D01*
X176300666Y-115622380D01*
X173967333Y-111447142D02*
X173919714Y-111494761D01*
X173776857Y-111542380D01*
X173681619Y-111542380D01*
X173538761Y-111494761D01*
X173443523Y-111399523D01*
X173395904Y-111304285D01*
X173348285Y-111113809D01*
X173348285Y-110970952D01*
X173395904Y-110780476D01*
X173443523Y-110685238D01*
X173538761Y-110590000D01*
X173681619Y-110542380D01*
X173776857Y-110542380D01*
X173919714Y-110590000D01*
X173967333Y-110637619D01*
X174824476Y-110875714D02*
X174824476Y-111542380D01*
X174586380Y-110494761D02*
X174348285Y-111209047D01*
X174967333Y-111209047D01*
%TO.C,R9*%
X133976333Y-105882380D02*
X133404904Y-105882380D01*
X133690619Y-105882380D02*
X133690619Y-104882380D01*
X133595380Y-105025238D01*
X133500142Y-105120476D01*
X133404904Y-105168095D01*
X134595380Y-104882380D02*
X134690619Y-104882380D01*
X134785857Y-104930000D01*
X134833476Y-104977619D01*
X134881095Y-105072857D01*
X134928714Y-105263333D01*
X134928714Y-105501428D01*
X134881095Y-105691904D01*
X134833476Y-105787142D01*
X134785857Y-105834761D01*
X134690619Y-105882380D01*
X134595380Y-105882380D01*
X134500142Y-105834761D01*
X134452523Y-105787142D01*
X134404904Y-105691904D01*
X134357285Y-105501428D01*
X134357285Y-105263333D01*
X134404904Y-105072857D01*
X134452523Y-104977619D01*
X134500142Y-104930000D01*
X134595380Y-104882380D01*
X135547761Y-104882380D02*
X135643000Y-104882380D01*
X135738238Y-104930000D01*
X135785857Y-104977619D01*
X135833476Y-105072857D01*
X135881095Y-105263333D01*
X135881095Y-105501428D01*
X135833476Y-105691904D01*
X135785857Y-105787142D01*
X135738238Y-105834761D01*
X135643000Y-105882380D01*
X135547761Y-105882380D01*
X135452523Y-105834761D01*
X135404904Y-105787142D01*
X135357285Y-105691904D01*
X135309666Y-105501428D01*
X135309666Y-105263333D01*
X135357285Y-105072857D01*
X135404904Y-104977619D01*
X135452523Y-104930000D01*
X135547761Y-104882380D01*
X136309666Y-105882380D02*
X136309666Y-104882380D01*
X136881095Y-105882380D02*
X136452523Y-105310952D01*
X136881095Y-104882380D02*
X136309666Y-105453809D01*
X134943333Y-108422380D02*
X134610000Y-107946190D01*
X134371904Y-108422380D02*
X134371904Y-107422380D01*
X134752857Y-107422380D01*
X134848095Y-107470000D01*
X134895714Y-107517619D01*
X134943333Y-107612857D01*
X134943333Y-107755714D01*
X134895714Y-107850952D01*
X134848095Y-107898571D01*
X134752857Y-107946190D01*
X134371904Y-107946190D01*
X135419523Y-108422380D02*
X135610000Y-108422380D01*
X135705238Y-108374761D01*
X135752857Y-108327142D01*
X135848095Y-108184285D01*
X135895714Y-107993809D01*
X135895714Y-107612857D01*
X135848095Y-107517619D01*
X135800476Y-107470000D01*
X135705238Y-107422380D01*
X135514761Y-107422380D01*
X135419523Y-107470000D01*
X135371904Y-107517619D01*
X135324285Y-107612857D01*
X135324285Y-107850952D01*
X135371904Y-107946190D01*
X135419523Y-107993809D01*
X135514761Y-108041428D01*
X135705238Y-108041428D01*
X135800476Y-107993809D01*
X135848095Y-107946190D01*
X135895714Y-107850952D01*
%TO.C,R4*%
X133551904Y-69467619D02*
X133599523Y-69420000D01*
X133694761Y-69372380D01*
X133932857Y-69372380D01*
X134028095Y-69420000D01*
X134075714Y-69467619D01*
X134123333Y-69562857D01*
X134123333Y-69658095D01*
X134075714Y-69800952D01*
X133504285Y-70372380D01*
X134123333Y-70372380D01*
X134504285Y-69467619D02*
X134551904Y-69420000D01*
X134647142Y-69372380D01*
X134885238Y-69372380D01*
X134980476Y-69420000D01*
X135028095Y-69467619D01*
X135075714Y-69562857D01*
X135075714Y-69658095D01*
X135028095Y-69800952D01*
X134456666Y-70372380D01*
X135075714Y-70372380D01*
X135694761Y-69372380D02*
X135790000Y-69372380D01*
X135885238Y-69420000D01*
X135932857Y-69467619D01*
X135980476Y-69562857D01*
X136028095Y-69753333D01*
X136028095Y-69991428D01*
X135980476Y-70181904D01*
X135932857Y-70277142D01*
X135885238Y-70324761D01*
X135790000Y-70372380D01*
X135694761Y-70372380D01*
X135599523Y-70324761D01*
X135551904Y-70277142D01*
X135504285Y-70181904D01*
X135456666Y-69991428D01*
X135456666Y-69753333D01*
X135504285Y-69562857D01*
X135551904Y-69467619D01*
X135599523Y-69420000D01*
X135694761Y-69372380D01*
X136456666Y-70372380D02*
X136456666Y-69372380D01*
X137028095Y-70372380D02*
X136599523Y-69800952D01*
X137028095Y-69372380D02*
X136456666Y-69943809D01*
X135263333Y-73012380D02*
X134930000Y-72536190D01*
X134691904Y-73012380D02*
X134691904Y-72012380D01*
X135072857Y-72012380D01*
X135168095Y-72060000D01*
X135215714Y-72107619D01*
X135263333Y-72202857D01*
X135263333Y-72345714D01*
X135215714Y-72440952D01*
X135168095Y-72488571D01*
X135072857Y-72536190D01*
X134691904Y-72536190D01*
X136120476Y-72345714D02*
X136120476Y-73012380D01*
X135882380Y-71964761D02*
X135644285Y-72679047D01*
X136263333Y-72679047D01*
%TO.C,R5*%
X133511904Y-76637619D02*
X133559523Y-76590000D01*
X133654761Y-76542380D01*
X133892857Y-76542380D01*
X133988095Y-76590000D01*
X134035714Y-76637619D01*
X134083333Y-76732857D01*
X134083333Y-76828095D01*
X134035714Y-76970952D01*
X133464285Y-77542380D01*
X134083333Y-77542380D01*
X134464285Y-76637619D02*
X134511904Y-76590000D01*
X134607142Y-76542380D01*
X134845238Y-76542380D01*
X134940476Y-76590000D01*
X134988095Y-76637619D01*
X135035714Y-76732857D01*
X135035714Y-76828095D01*
X134988095Y-76970952D01*
X134416666Y-77542380D01*
X135035714Y-77542380D01*
X135654761Y-76542380D02*
X135750000Y-76542380D01*
X135845238Y-76590000D01*
X135892857Y-76637619D01*
X135940476Y-76732857D01*
X135988095Y-76923333D01*
X135988095Y-77161428D01*
X135940476Y-77351904D01*
X135892857Y-77447142D01*
X135845238Y-77494761D01*
X135750000Y-77542380D01*
X135654761Y-77542380D01*
X135559523Y-77494761D01*
X135511904Y-77447142D01*
X135464285Y-77351904D01*
X135416666Y-77161428D01*
X135416666Y-76923333D01*
X135464285Y-76732857D01*
X135511904Y-76637619D01*
X135559523Y-76590000D01*
X135654761Y-76542380D01*
X136416666Y-77542380D02*
X136416666Y-76542380D01*
X136988095Y-77542380D02*
X136559523Y-76970952D01*
X136988095Y-76542380D02*
X136416666Y-77113809D01*
X135083333Y-80082380D02*
X134750000Y-79606190D01*
X134511904Y-80082380D02*
X134511904Y-79082380D01*
X134892857Y-79082380D01*
X134988095Y-79130000D01*
X135035714Y-79177619D01*
X135083333Y-79272857D01*
X135083333Y-79415714D01*
X135035714Y-79510952D01*
X134988095Y-79558571D01*
X134892857Y-79606190D01*
X134511904Y-79606190D01*
X135988095Y-79082380D02*
X135511904Y-79082380D01*
X135464285Y-79558571D01*
X135511904Y-79510952D01*
X135607142Y-79463333D01*
X135845238Y-79463333D01*
X135940476Y-79510952D01*
X135988095Y-79558571D01*
X136035714Y-79653809D01*
X136035714Y-79891904D01*
X135988095Y-79987142D01*
X135940476Y-80034761D01*
X135845238Y-80082380D01*
X135607142Y-80082380D01*
X135511904Y-80034761D01*
X135464285Y-79987142D01*
%TO.C,R6*%
X133441904Y-83907619D02*
X133489523Y-83860000D01*
X133584761Y-83812380D01*
X133822857Y-83812380D01*
X133918095Y-83860000D01*
X133965714Y-83907619D01*
X134013333Y-84002857D01*
X134013333Y-84098095D01*
X133965714Y-84240952D01*
X133394285Y-84812380D01*
X134013333Y-84812380D01*
X134394285Y-83907619D02*
X134441904Y-83860000D01*
X134537142Y-83812380D01*
X134775238Y-83812380D01*
X134870476Y-83860000D01*
X134918095Y-83907619D01*
X134965714Y-84002857D01*
X134965714Y-84098095D01*
X134918095Y-84240952D01*
X134346666Y-84812380D01*
X134965714Y-84812380D01*
X135584761Y-83812380D02*
X135680000Y-83812380D01*
X135775238Y-83860000D01*
X135822857Y-83907619D01*
X135870476Y-84002857D01*
X135918095Y-84193333D01*
X135918095Y-84431428D01*
X135870476Y-84621904D01*
X135822857Y-84717142D01*
X135775238Y-84764761D01*
X135680000Y-84812380D01*
X135584761Y-84812380D01*
X135489523Y-84764761D01*
X135441904Y-84717142D01*
X135394285Y-84621904D01*
X135346666Y-84431428D01*
X135346666Y-84193333D01*
X135394285Y-84002857D01*
X135441904Y-83907619D01*
X135489523Y-83860000D01*
X135584761Y-83812380D01*
X136346666Y-84812380D02*
X136346666Y-83812380D01*
X136918095Y-84812380D02*
X136489523Y-84240952D01*
X136918095Y-83812380D02*
X136346666Y-84383809D01*
X135013333Y-87352380D02*
X134680000Y-86876190D01*
X134441904Y-87352380D02*
X134441904Y-86352380D01*
X134822857Y-86352380D01*
X134918095Y-86400000D01*
X134965714Y-86447619D01*
X135013333Y-86542857D01*
X135013333Y-86685714D01*
X134965714Y-86780952D01*
X134918095Y-86828571D01*
X134822857Y-86876190D01*
X134441904Y-86876190D01*
X135870476Y-86352380D02*
X135680000Y-86352380D01*
X135584761Y-86400000D01*
X135537142Y-86447619D01*
X135441904Y-86590476D01*
X135394285Y-86780952D01*
X135394285Y-87161904D01*
X135441904Y-87257142D01*
X135489523Y-87304761D01*
X135584761Y-87352380D01*
X135775238Y-87352380D01*
X135870476Y-87304761D01*
X135918095Y-87257142D01*
X135965714Y-87161904D01*
X135965714Y-86923809D01*
X135918095Y-86828571D01*
X135870476Y-86780952D01*
X135775238Y-86733333D01*
X135584761Y-86733333D01*
X135489523Y-86780952D01*
X135441904Y-86828571D01*
X135394285Y-86923809D01*
%TO.C,R8*%
X133943333Y-99042380D02*
X133371904Y-99042380D01*
X133657619Y-99042380D02*
X133657619Y-98042380D01*
X133562380Y-98185238D01*
X133467142Y-98280476D01*
X133371904Y-98328095D01*
X134562380Y-98042380D02*
X134657619Y-98042380D01*
X134752857Y-98090000D01*
X134800476Y-98137619D01*
X134848095Y-98232857D01*
X134895714Y-98423333D01*
X134895714Y-98661428D01*
X134848095Y-98851904D01*
X134800476Y-98947142D01*
X134752857Y-98994761D01*
X134657619Y-99042380D01*
X134562380Y-99042380D01*
X134467142Y-98994761D01*
X134419523Y-98947142D01*
X134371904Y-98851904D01*
X134324285Y-98661428D01*
X134324285Y-98423333D01*
X134371904Y-98232857D01*
X134419523Y-98137619D01*
X134467142Y-98090000D01*
X134562380Y-98042380D01*
X135514761Y-98042380D02*
X135610000Y-98042380D01*
X135705238Y-98090000D01*
X135752857Y-98137619D01*
X135800476Y-98232857D01*
X135848095Y-98423333D01*
X135848095Y-98661428D01*
X135800476Y-98851904D01*
X135752857Y-98947142D01*
X135705238Y-98994761D01*
X135610000Y-99042380D01*
X135514761Y-99042380D01*
X135419523Y-98994761D01*
X135371904Y-98947142D01*
X135324285Y-98851904D01*
X135276666Y-98661428D01*
X135276666Y-98423333D01*
X135324285Y-98232857D01*
X135371904Y-98137619D01*
X135419523Y-98090000D01*
X135514761Y-98042380D01*
X136276666Y-99042380D02*
X136276666Y-98042380D01*
X136848095Y-99042380D02*
X136419523Y-98470952D01*
X136848095Y-98042380D02*
X136276666Y-98613809D01*
X134943333Y-101582380D02*
X134610000Y-101106190D01*
X134371904Y-101582380D02*
X134371904Y-100582380D01*
X134752857Y-100582380D01*
X134848095Y-100630000D01*
X134895714Y-100677619D01*
X134943333Y-100772857D01*
X134943333Y-100915714D01*
X134895714Y-101010952D01*
X134848095Y-101058571D01*
X134752857Y-101106190D01*
X134371904Y-101106190D01*
X135514761Y-101010952D02*
X135419523Y-100963333D01*
X135371904Y-100915714D01*
X135324285Y-100820476D01*
X135324285Y-100772857D01*
X135371904Y-100677619D01*
X135419523Y-100630000D01*
X135514761Y-100582380D01*
X135705238Y-100582380D01*
X135800476Y-100630000D01*
X135848095Y-100677619D01*
X135895714Y-100772857D01*
X135895714Y-100820476D01*
X135848095Y-100915714D01*
X135800476Y-100963333D01*
X135705238Y-101010952D01*
X135514761Y-101010952D01*
X135419523Y-101058571D01*
X135371904Y-101106190D01*
X135324285Y-101201428D01*
X135324285Y-101391904D01*
X135371904Y-101487142D01*
X135419523Y-101534761D01*
X135514761Y-101582380D01*
X135705238Y-101582380D01*
X135800476Y-101534761D01*
X135848095Y-101487142D01*
X135895714Y-101391904D01*
X135895714Y-101201428D01*
X135848095Y-101106190D01*
X135800476Y-101058571D01*
X135705238Y-101010952D01*
%TO.C,R10*%
X134339523Y-112632380D02*
X133768095Y-112632380D01*
X134053809Y-112632380D02*
X134053809Y-111632380D01*
X133958571Y-111775238D01*
X133863333Y-111870476D01*
X133768095Y-111918095D01*
X134768095Y-112632380D02*
X134768095Y-111632380D01*
X135339523Y-112632380D02*
X134910952Y-112060952D01*
X135339523Y-111632380D02*
X134768095Y-112203809D01*
X135910952Y-112060952D02*
X135815714Y-112013333D01*
X135768095Y-111965714D01*
X135720476Y-111870476D01*
X135720476Y-111822857D01*
X135768095Y-111727619D01*
X135815714Y-111680000D01*
X135910952Y-111632380D01*
X136101428Y-111632380D01*
X136196666Y-111680000D01*
X136244285Y-111727619D01*
X136291904Y-111822857D01*
X136291904Y-111870476D01*
X136244285Y-111965714D01*
X136196666Y-112013333D01*
X136101428Y-112060952D01*
X135910952Y-112060952D01*
X135815714Y-112108571D01*
X135768095Y-112156190D01*
X135720476Y-112251428D01*
X135720476Y-112441904D01*
X135768095Y-112537142D01*
X135815714Y-112584761D01*
X135910952Y-112632380D01*
X136101428Y-112632380D01*
X136196666Y-112584761D01*
X136244285Y-112537142D01*
X136291904Y-112441904D01*
X136291904Y-112251428D01*
X136244285Y-112156190D01*
X136196666Y-112108571D01*
X136101428Y-112060952D01*
X134387142Y-115172380D02*
X134053809Y-114696190D01*
X133815714Y-115172380D02*
X133815714Y-114172380D01*
X134196666Y-114172380D01*
X134291904Y-114220000D01*
X134339523Y-114267619D01*
X134387142Y-114362857D01*
X134387142Y-114505714D01*
X134339523Y-114600952D01*
X134291904Y-114648571D01*
X134196666Y-114696190D01*
X133815714Y-114696190D01*
X135339523Y-115172380D02*
X134768095Y-115172380D01*
X135053809Y-115172380D02*
X135053809Y-114172380D01*
X134958571Y-114315238D01*
X134863333Y-114410476D01*
X134768095Y-114458095D01*
X135958571Y-114172380D02*
X136053809Y-114172380D01*
X136149047Y-114220000D01*
X136196666Y-114267619D01*
X136244285Y-114362857D01*
X136291904Y-114553333D01*
X136291904Y-114791428D01*
X136244285Y-114981904D01*
X136196666Y-115077142D01*
X136149047Y-115124761D01*
X136053809Y-115172380D01*
X135958571Y-115172380D01*
X135863333Y-115124761D01*
X135815714Y-115077142D01*
X135768095Y-114981904D01*
X135720476Y-114791428D01*
X135720476Y-114553333D01*
X135768095Y-114362857D01*
X135815714Y-114267619D01*
X135863333Y-114220000D01*
X135958571Y-114172380D01*
%TO.C,R11*%
X149463333Y-47472380D02*
X149653809Y-47472380D01*
X149749047Y-47424761D01*
X149796666Y-47377142D01*
X149891904Y-47234285D01*
X149939523Y-47043809D01*
X149939523Y-46662857D01*
X149891904Y-46567619D01*
X149844285Y-46520000D01*
X149749047Y-46472380D01*
X149558571Y-46472380D01*
X149463333Y-46520000D01*
X149415714Y-46567619D01*
X149368095Y-46662857D01*
X149368095Y-46900952D01*
X149415714Y-46996190D01*
X149463333Y-47043809D01*
X149558571Y-47091428D01*
X149749047Y-47091428D01*
X149844285Y-47043809D01*
X149891904Y-46996190D01*
X149939523Y-46900952D01*
X150891904Y-47472380D02*
X150320476Y-47472380D01*
X150606190Y-47472380D02*
X150606190Y-46472380D01*
X150510952Y-46615238D01*
X150415714Y-46710476D01*
X150320476Y-46758095D01*
X151320476Y-47472380D02*
X151320476Y-46472380D01*
X151891904Y-47472380D02*
X151463333Y-46900952D01*
X151891904Y-46472380D02*
X151320476Y-47043809D01*
X149987142Y-50012380D02*
X149653809Y-49536190D01*
X149415714Y-50012380D02*
X149415714Y-49012380D01*
X149796666Y-49012380D01*
X149891904Y-49060000D01*
X149939523Y-49107619D01*
X149987142Y-49202857D01*
X149987142Y-49345714D01*
X149939523Y-49440952D01*
X149891904Y-49488571D01*
X149796666Y-49536190D01*
X149415714Y-49536190D01*
X150939523Y-50012380D02*
X150368095Y-50012380D01*
X150653809Y-50012380D02*
X150653809Y-49012380D01*
X150558571Y-49155238D01*
X150463333Y-49250476D01*
X150368095Y-49298095D01*
X151891904Y-50012380D02*
X151320476Y-50012380D01*
X151606190Y-50012380D02*
X151606190Y-49012380D01*
X151510952Y-49155238D01*
X151415714Y-49250476D01*
X151320476Y-49298095D01*
%TO.C,R12*%
X149313333Y-55042380D02*
X148741904Y-55042380D01*
X149027619Y-55042380D02*
X149027619Y-54042380D01*
X148932380Y-54185238D01*
X148837142Y-54280476D01*
X148741904Y-54328095D01*
X149932380Y-54042380D02*
X150027619Y-54042380D01*
X150122857Y-54090000D01*
X150170476Y-54137619D01*
X150218095Y-54232857D01*
X150265714Y-54423333D01*
X150265714Y-54661428D01*
X150218095Y-54851904D01*
X150170476Y-54947142D01*
X150122857Y-54994761D01*
X150027619Y-55042380D01*
X149932380Y-55042380D01*
X149837142Y-54994761D01*
X149789523Y-54947142D01*
X149741904Y-54851904D01*
X149694285Y-54661428D01*
X149694285Y-54423333D01*
X149741904Y-54232857D01*
X149789523Y-54137619D01*
X149837142Y-54090000D01*
X149932380Y-54042380D01*
X150884761Y-54042380D02*
X150980000Y-54042380D01*
X151075238Y-54090000D01*
X151122857Y-54137619D01*
X151170476Y-54232857D01*
X151218095Y-54423333D01*
X151218095Y-54661428D01*
X151170476Y-54851904D01*
X151122857Y-54947142D01*
X151075238Y-54994761D01*
X150980000Y-55042380D01*
X150884761Y-55042380D01*
X150789523Y-54994761D01*
X150741904Y-54947142D01*
X150694285Y-54851904D01*
X150646666Y-54661428D01*
X150646666Y-54423333D01*
X150694285Y-54232857D01*
X150741904Y-54137619D01*
X150789523Y-54090000D01*
X150884761Y-54042380D01*
X151646666Y-55042380D02*
X151646666Y-54042380D01*
X152218095Y-55042380D02*
X151789523Y-54470952D01*
X152218095Y-54042380D02*
X151646666Y-54613809D01*
X149837142Y-57582380D02*
X149503809Y-57106190D01*
X149265714Y-57582380D02*
X149265714Y-56582380D01*
X149646666Y-56582380D01*
X149741904Y-56630000D01*
X149789523Y-56677619D01*
X149837142Y-56772857D01*
X149837142Y-56915714D01*
X149789523Y-57010952D01*
X149741904Y-57058571D01*
X149646666Y-57106190D01*
X149265714Y-57106190D01*
X150789523Y-57582380D02*
X150218095Y-57582380D01*
X150503809Y-57582380D02*
X150503809Y-56582380D01*
X150408571Y-56725238D01*
X150313333Y-56820476D01*
X150218095Y-56868095D01*
X151170476Y-56677619D02*
X151218095Y-56630000D01*
X151313333Y-56582380D01*
X151551428Y-56582380D01*
X151646666Y-56630000D01*
X151694285Y-56677619D01*
X151741904Y-56772857D01*
X151741904Y-56868095D01*
X151694285Y-57010952D01*
X151122857Y-57582380D01*
X151741904Y-57582380D01*
%TO.C,R13*%
X149257333Y-62838380D02*
X149447809Y-62838380D01*
X149543047Y-62790761D01*
X149590666Y-62743142D01*
X149685904Y-62600285D01*
X149733523Y-62409809D01*
X149733523Y-62028857D01*
X149685904Y-61933619D01*
X149638285Y-61886000D01*
X149543047Y-61838380D01*
X149352571Y-61838380D01*
X149257333Y-61886000D01*
X149209714Y-61933619D01*
X149162095Y-62028857D01*
X149162095Y-62266952D01*
X149209714Y-62362190D01*
X149257333Y-62409809D01*
X149352571Y-62457428D01*
X149543047Y-62457428D01*
X149638285Y-62409809D01*
X149685904Y-62362190D01*
X149733523Y-62266952D01*
X150685904Y-62838380D02*
X150114476Y-62838380D01*
X150400190Y-62838380D02*
X150400190Y-61838380D01*
X150304952Y-61981238D01*
X150209714Y-62076476D01*
X150114476Y-62124095D01*
X151114476Y-62838380D02*
X151114476Y-61838380D01*
X151685904Y-62838380D02*
X151257333Y-62266952D01*
X151685904Y-61838380D02*
X151114476Y-62409809D01*
X149781142Y-65378380D02*
X149447809Y-64902190D01*
X149209714Y-65378380D02*
X149209714Y-64378380D01*
X149590666Y-64378380D01*
X149685904Y-64426000D01*
X149733523Y-64473619D01*
X149781142Y-64568857D01*
X149781142Y-64711714D01*
X149733523Y-64806952D01*
X149685904Y-64854571D01*
X149590666Y-64902190D01*
X149209714Y-64902190D01*
X150733523Y-65378380D02*
X150162095Y-65378380D01*
X150447809Y-65378380D02*
X150447809Y-64378380D01*
X150352571Y-64521238D01*
X150257333Y-64616476D01*
X150162095Y-64664095D01*
X151066857Y-64378380D02*
X151685904Y-64378380D01*
X151352571Y-64759333D01*
X151495428Y-64759333D01*
X151590666Y-64806952D01*
X151638285Y-64854571D01*
X151685904Y-64949809D01*
X151685904Y-65187904D01*
X151638285Y-65283142D01*
X151590666Y-65330761D01*
X151495428Y-65378380D01*
X151209714Y-65378380D01*
X151114476Y-65330761D01*
X151066857Y-65283142D01*
%TO.C,R14*%
X149313333Y-70272380D02*
X148741904Y-70272380D01*
X149027619Y-70272380D02*
X149027619Y-69272380D01*
X148932380Y-69415238D01*
X148837142Y-69510476D01*
X148741904Y-69558095D01*
X149932380Y-69272380D02*
X150027619Y-69272380D01*
X150122857Y-69320000D01*
X150170476Y-69367619D01*
X150218095Y-69462857D01*
X150265714Y-69653333D01*
X150265714Y-69891428D01*
X150218095Y-70081904D01*
X150170476Y-70177142D01*
X150122857Y-70224761D01*
X150027619Y-70272380D01*
X149932380Y-70272380D01*
X149837142Y-70224761D01*
X149789523Y-70177142D01*
X149741904Y-70081904D01*
X149694285Y-69891428D01*
X149694285Y-69653333D01*
X149741904Y-69462857D01*
X149789523Y-69367619D01*
X149837142Y-69320000D01*
X149932380Y-69272380D01*
X150884761Y-69272380D02*
X150980000Y-69272380D01*
X151075238Y-69320000D01*
X151122857Y-69367619D01*
X151170476Y-69462857D01*
X151218095Y-69653333D01*
X151218095Y-69891428D01*
X151170476Y-70081904D01*
X151122857Y-70177142D01*
X151075238Y-70224761D01*
X150980000Y-70272380D01*
X150884761Y-70272380D01*
X150789523Y-70224761D01*
X150741904Y-70177142D01*
X150694285Y-70081904D01*
X150646666Y-69891428D01*
X150646666Y-69653333D01*
X150694285Y-69462857D01*
X150741904Y-69367619D01*
X150789523Y-69320000D01*
X150884761Y-69272380D01*
X151646666Y-70272380D02*
X151646666Y-69272380D01*
X152218095Y-70272380D02*
X151789523Y-69700952D01*
X152218095Y-69272380D02*
X151646666Y-69843809D01*
X149837142Y-72812380D02*
X149503809Y-72336190D01*
X149265714Y-72812380D02*
X149265714Y-71812380D01*
X149646666Y-71812380D01*
X149741904Y-71860000D01*
X149789523Y-71907619D01*
X149837142Y-72002857D01*
X149837142Y-72145714D01*
X149789523Y-72240952D01*
X149741904Y-72288571D01*
X149646666Y-72336190D01*
X149265714Y-72336190D01*
X150789523Y-72812380D02*
X150218095Y-72812380D01*
X150503809Y-72812380D02*
X150503809Y-71812380D01*
X150408571Y-71955238D01*
X150313333Y-72050476D01*
X150218095Y-72098095D01*
X151646666Y-72145714D02*
X151646666Y-72812380D01*
X151408571Y-71764761D02*
X151170476Y-72479047D01*
X151789523Y-72479047D01*
%TO.C,R15*%
X149155333Y-77334380D02*
X149345809Y-77334380D01*
X149441047Y-77286761D01*
X149488666Y-77239142D01*
X149583904Y-77096285D01*
X149631523Y-76905809D01*
X149631523Y-76524857D01*
X149583904Y-76429619D01*
X149536285Y-76382000D01*
X149441047Y-76334380D01*
X149250571Y-76334380D01*
X149155333Y-76382000D01*
X149107714Y-76429619D01*
X149060095Y-76524857D01*
X149060095Y-76762952D01*
X149107714Y-76858190D01*
X149155333Y-76905809D01*
X149250571Y-76953428D01*
X149441047Y-76953428D01*
X149536285Y-76905809D01*
X149583904Y-76858190D01*
X149631523Y-76762952D01*
X150583904Y-77334380D02*
X150012476Y-77334380D01*
X150298190Y-77334380D02*
X150298190Y-76334380D01*
X150202952Y-76477238D01*
X150107714Y-76572476D01*
X150012476Y-76620095D01*
X151012476Y-77334380D02*
X151012476Y-76334380D01*
X151583904Y-77334380D02*
X151155333Y-76762952D01*
X151583904Y-76334380D02*
X151012476Y-76905809D01*
X149679142Y-79874380D02*
X149345809Y-79398190D01*
X149107714Y-79874380D02*
X149107714Y-78874380D01*
X149488666Y-78874380D01*
X149583904Y-78922000D01*
X149631523Y-78969619D01*
X149679142Y-79064857D01*
X149679142Y-79207714D01*
X149631523Y-79302952D01*
X149583904Y-79350571D01*
X149488666Y-79398190D01*
X149107714Y-79398190D01*
X150631523Y-79874380D02*
X150060095Y-79874380D01*
X150345809Y-79874380D02*
X150345809Y-78874380D01*
X150250571Y-79017238D01*
X150155333Y-79112476D01*
X150060095Y-79160095D01*
X151536285Y-78874380D02*
X151060095Y-78874380D01*
X151012476Y-79350571D01*
X151060095Y-79302952D01*
X151155333Y-79255333D01*
X151393428Y-79255333D01*
X151488666Y-79302952D01*
X151536285Y-79350571D01*
X151583904Y-79445809D01*
X151583904Y-79683904D01*
X151536285Y-79779142D01*
X151488666Y-79826761D01*
X151393428Y-79874380D01*
X151155333Y-79874380D01*
X151060095Y-79826761D01*
X151012476Y-79779142D01*
%TO.C,R16*%
X149028333Y-84948380D02*
X148456904Y-84948380D01*
X148742619Y-84948380D02*
X148742619Y-83948380D01*
X148647380Y-84091238D01*
X148552142Y-84186476D01*
X148456904Y-84234095D01*
X149647380Y-83948380D02*
X149742619Y-83948380D01*
X149837857Y-83996000D01*
X149885476Y-84043619D01*
X149933095Y-84138857D01*
X149980714Y-84329333D01*
X149980714Y-84567428D01*
X149933095Y-84757904D01*
X149885476Y-84853142D01*
X149837857Y-84900761D01*
X149742619Y-84948380D01*
X149647380Y-84948380D01*
X149552142Y-84900761D01*
X149504523Y-84853142D01*
X149456904Y-84757904D01*
X149409285Y-84567428D01*
X149409285Y-84329333D01*
X149456904Y-84138857D01*
X149504523Y-84043619D01*
X149552142Y-83996000D01*
X149647380Y-83948380D01*
X150599761Y-83948380D02*
X150695000Y-83948380D01*
X150790238Y-83996000D01*
X150837857Y-84043619D01*
X150885476Y-84138857D01*
X150933095Y-84329333D01*
X150933095Y-84567428D01*
X150885476Y-84757904D01*
X150837857Y-84853142D01*
X150790238Y-84900761D01*
X150695000Y-84948380D01*
X150599761Y-84948380D01*
X150504523Y-84900761D01*
X150456904Y-84853142D01*
X150409285Y-84757904D01*
X150361666Y-84567428D01*
X150361666Y-84329333D01*
X150409285Y-84138857D01*
X150456904Y-84043619D01*
X150504523Y-83996000D01*
X150599761Y-83948380D01*
X151361666Y-84948380D02*
X151361666Y-83948380D01*
X151933095Y-84948380D02*
X151504523Y-84376952D01*
X151933095Y-83948380D02*
X151361666Y-84519809D01*
X149552142Y-87488380D02*
X149218809Y-87012190D01*
X148980714Y-87488380D02*
X148980714Y-86488380D01*
X149361666Y-86488380D01*
X149456904Y-86536000D01*
X149504523Y-86583619D01*
X149552142Y-86678857D01*
X149552142Y-86821714D01*
X149504523Y-86916952D01*
X149456904Y-86964571D01*
X149361666Y-87012190D01*
X148980714Y-87012190D01*
X150504523Y-87488380D02*
X149933095Y-87488380D01*
X150218809Y-87488380D02*
X150218809Y-86488380D01*
X150123571Y-86631238D01*
X150028333Y-86726476D01*
X149933095Y-86774095D01*
X151361666Y-86488380D02*
X151171190Y-86488380D01*
X151075952Y-86536000D01*
X151028333Y-86583619D01*
X150933095Y-86726476D01*
X150885476Y-86916952D01*
X150885476Y-87297904D01*
X150933095Y-87393142D01*
X150980714Y-87440761D01*
X151075952Y-87488380D01*
X151266428Y-87488380D01*
X151361666Y-87440761D01*
X151409285Y-87393142D01*
X151456904Y-87297904D01*
X151456904Y-87059809D01*
X151409285Y-86964571D01*
X151361666Y-86916952D01*
X151266428Y-86869333D01*
X151075952Y-86869333D01*
X150980714Y-86916952D01*
X150933095Y-86964571D01*
X150885476Y-87059809D01*
%TO.C,R17*%
X149028333Y-91928380D02*
X149218809Y-91928380D01*
X149314047Y-91880761D01*
X149361666Y-91833142D01*
X149456904Y-91690285D01*
X149504523Y-91499809D01*
X149504523Y-91118857D01*
X149456904Y-91023619D01*
X149409285Y-90976000D01*
X149314047Y-90928380D01*
X149123571Y-90928380D01*
X149028333Y-90976000D01*
X148980714Y-91023619D01*
X148933095Y-91118857D01*
X148933095Y-91356952D01*
X148980714Y-91452190D01*
X149028333Y-91499809D01*
X149123571Y-91547428D01*
X149314047Y-91547428D01*
X149409285Y-91499809D01*
X149456904Y-91452190D01*
X149504523Y-91356952D01*
X150456904Y-91928380D02*
X149885476Y-91928380D01*
X150171190Y-91928380D02*
X150171190Y-90928380D01*
X150075952Y-91071238D01*
X149980714Y-91166476D01*
X149885476Y-91214095D01*
X150885476Y-91928380D02*
X150885476Y-90928380D01*
X151456904Y-91928380D02*
X151028333Y-91356952D01*
X151456904Y-90928380D02*
X150885476Y-91499809D01*
X149552142Y-94468380D02*
X149218809Y-93992190D01*
X148980714Y-94468380D02*
X148980714Y-93468380D01*
X149361666Y-93468380D01*
X149456904Y-93516000D01*
X149504523Y-93563619D01*
X149552142Y-93658857D01*
X149552142Y-93801714D01*
X149504523Y-93896952D01*
X149456904Y-93944571D01*
X149361666Y-93992190D01*
X148980714Y-93992190D01*
X150504523Y-94468380D02*
X149933095Y-94468380D01*
X150218809Y-94468380D02*
X150218809Y-93468380D01*
X150123571Y-93611238D01*
X150028333Y-93706476D01*
X149933095Y-93754095D01*
X150837857Y-93468380D02*
X151504523Y-93468380D01*
X151075952Y-94468380D01*
%TO.C,R18*%
X148908333Y-98918380D02*
X148336904Y-98918380D01*
X148622619Y-98918380D02*
X148622619Y-97918380D01*
X148527380Y-98061238D01*
X148432142Y-98156476D01*
X148336904Y-98204095D01*
X149527380Y-97918380D02*
X149622619Y-97918380D01*
X149717857Y-97966000D01*
X149765476Y-98013619D01*
X149813095Y-98108857D01*
X149860714Y-98299333D01*
X149860714Y-98537428D01*
X149813095Y-98727904D01*
X149765476Y-98823142D01*
X149717857Y-98870761D01*
X149622619Y-98918380D01*
X149527380Y-98918380D01*
X149432142Y-98870761D01*
X149384523Y-98823142D01*
X149336904Y-98727904D01*
X149289285Y-98537428D01*
X149289285Y-98299333D01*
X149336904Y-98108857D01*
X149384523Y-98013619D01*
X149432142Y-97966000D01*
X149527380Y-97918380D01*
X150479761Y-97918380D02*
X150575000Y-97918380D01*
X150670238Y-97966000D01*
X150717857Y-98013619D01*
X150765476Y-98108857D01*
X150813095Y-98299333D01*
X150813095Y-98537428D01*
X150765476Y-98727904D01*
X150717857Y-98823142D01*
X150670238Y-98870761D01*
X150575000Y-98918380D01*
X150479761Y-98918380D01*
X150384523Y-98870761D01*
X150336904Y-98823142D01*
X150289285Y-98727904D01*
X150241666Y-98537428D01*
X150241666Y-98299333D01*
X150289285Y-98108857D01*
X150336904Y-98013619D01*
X150384523Y-97966000D01*
X150479761Y-97918380D01*
X151241666Y-98918380D02*
X151241666Y-97918380D01*
X151813095Y-98918380D02*
X151384523Y-98346952D01*
X151813095Y-97918380D02*
X151241666Y-98489809D01*
X149432142Y-101458380D02*
X149098809Y-100982190D01*
X148860714Y-101458380D02*
X148860714Y-100458380D01*
X149241666Y-100458380D01*
X149336904Y-100506000D01*
X149384523Y-100553619D01*
X149432142Y-100648857D01*
X149432142Y-100791714D01*
X149384523Y-100886952D01*
X149336904Y-100934571D01*
X149241666Y-100982190D01*
X148860714Y-100982190D01*
X150384523Y-101458380D02*
X149813095Y-101458380D01*
X150098809Y-101458380D02*
X150098809Y-100458380D01*
X150003571Y-100601238D01*
X149908333Y-100696476D01*
X149813095Y-100744095D01*
X150955952Y-100886952D02*
X150860714Y-100839333D01*
X150813095Y-100791714D01*
X150765476Y-100696476D01*
X150765476Y-100648857D01*
X150813095Y-100553619D01*
X150860714Y-100506000D01*
X150955952Y-100458380D01*
X151146428Y-100458380D01*
X151241666Y-100506000D01*
X151289285Y-100553619D01*
X151336904Y-100648857D01*
X151336904Y-100696476D01*
X151289285Y-100791714D01*
X151241666Y-100839333D01*
X151146428Y-100886952D01*
X150955952Y-100886952D01*
X150860714Y-100934571D01*
X150813095Y-100982190D01*
X150765476Y-101077428D01*
X150765476Y-101267904D01*
X150813095Y-101363142D01*
X150860714Y-101410761D01*
X150955952Y-101458380D01*
X151146428Y-101458380D01*
X151241666Y-101410761D01*
X151289285Y-101363142D01*
X151336904Y-101267904D01*
X151336904Y-101077428D01*
X151289285Y-100982190D01*
X151241666Y-100934571D01*
X151146428Y-100886952D01*
%TO.C,R19*%
X149384523Y-105898380D02*
X148813095Y-105898380D01*
X149098809Y-105898380D02*
X149098809Y-104898380D01*
X149003571Y-105041238D01*
X148908333Y-105136476D01*
X148813095Y-105184095D01*
X149813095Y-105898380D02*
X149813095Y-104898380D01*
X150384523Y-105898380D02*
X149955952Y-105326952D01*
X150384523Y-104898380D02*
X149813095Y-105469809D01*
X150955952Y-105326952D02*
X150860714Y-105279333D01*
X150813095Y-105231714D01*
X150765476Y-105136476D01*
X150765476Y-105088857D01*
X150813095Y-104993619D01*
X150860714Y-104946000D01*
X150955952Y-104898380D01*
X151146428Y-104898380D01*
X151241666Y-104946000D01*
X151289285Y-104993619D01*
X151336904Y-105088857D01*
X151336904Y-105136476D01*
X151289285Y-105231714D01*
X151241666Y-105279333D01*
X151146428Y-105326952D01*
X150955952Y-105326952D01*
X150860714Y-105374571D01*
X150813095Y-105422190D01*
X150765476Y-105517428D01*
X150765476Y-105707904D01*
X150813095Y-105803142D01*
X150860714Y-105850761D01*
X150955952Y-105898380D01*
X151146428Y-105898380D01*
X151241666Y-105850761D01*
X151289285Y-105803142D01*
X151336904Y-105707904D01*
X151336904Y-105517428D01*
X151289285Y-105422190D01*
X151241666Y-105374571D01*
X151146428Y-105326952D01*
X149432142Y-108438380D02*
X149098809Y-107962190D01*
X148860714Y-108438380D02*
X148860714Y-107438380D01*
X149241666Y-107438380D01*
X149336904Y-107486000D01*
X149384523Y-107533619D01*
X149432142Y-107628857D01*
X149432142Y-107771714D01*
X149384523Y-107866952D01*
X149336904Y-107914571D01*
X149241666Y-107962190D01*
X148860714Y-107962190D01*
X150384523Y-108438380D02*
X149813095Y-108438380D01*
X150098809Y-108438380D02*
X150098809Y-107438380D01*
X150003571Y-107581238D01*
X149908333Y-107676476D01*
X149813095Y-107724095D01*
X150860714Y-108438380D02*
X151051190Y-108438380D01*
X151146428Y-108390761D01*
X151194047Y-108343142D01*
X151289285Y-108200285D01*
X151336904Y-108009809D01*
X151336904Y-107628857D01*
X151289285Y-107533619D01*
X151241666Y-107486000D01*
X151146428Y-107438380D01*
X150955952Y-107438380D01*
X150860714Y-107486000D01*
X150813095Y-107533619D01*
X150765476Y-107628857D01*
X150765476Y-107866952D01*
X150813095Y-107962190D01*
X150860714Y-108009809D01*
X150955952Y-108057428D01*
X151146428Y-108057428D01*
X151241666Y-108009809D01*
X151289285Y-107962190D01*
X151336904Y-107866952D01*
%TO.C,R20*%
X149336904Y-111758380D02*
X148860714Y-111758380D01*
X148813095Y-112234571D01*
X148860714Y-112186952D01*
X148955952Y-112139333D01*
X149194047Y-112139333D01*
X149289285Y-112186952D01*
X149336904Y-112234571D01*
X149384523Y-112329809D01*
X149384523Y-112567904D01*
X149336904Y-112663142D01*
X149289285Y-112710761D01*
X149194047Y-112758380D01*
X148955952Y-112758380D01*
X148860714Y-112710761D01*
X148813095Y-112663142D01*
X150336904Y-112758380D02*
X149765476Y-112758380D01*
X150051190Y-112758380D02*
X150051190Y-111758380D01*
X149955952Y-111901238D01*
X149860714Y-111996476D01*
X149765476Y-112044095D01*
X150765476Y-112758380D02*
X150765476Y-111758380D01*
X151336904Y-112758380D02*
X150908333Y-112186952D01*
X151336904Y-111758380D02*
X150765476Y-112329809D01*
X149432142Y-115298380D02*
X149098809Y-114822190D01*
X148860714Y-115298380D02*
X148860714Y-114298380D01*
X149241666Y-114298380D01*
X149336904Y-114346000D01*
X149384523Y-114393619D01*
X149432142Y-114488857D01*
X149432142Y-114631714D01*
X149384523Y-114726952D01*
X149336904Y-114774571D01*
X149241666Y-114822190D01*
X148860714Y-114822190D01*
X149813095Y-114393619D02*
X149860714Y-114346000D01*
X149955952Y-114298380D01*
X150194047Y-114298380D01*
X150289285Y-114346000D01*
X150336904Y-114393619D01*
X150384523Y-114488857D01*
X150384523Y-114584095D01*
X150336904Y-114726952D01*
X149765476Y-115298380D01*
X150384523Y-115298380D01*
X151003571Y-114298380D02*
X151098809Y-114298380D01*
X151194047Y-114346000D01*
X151241666Y-114393619D01*
X151289285Y-114488857D01*
X151336904Y-114679333D01*
X151336904Y-114917428D01*
X151289285Y-115107904D01*
X151241666Y-115203142D01*
X151194047Y-115250761D01*
X151098809Y-115298380D01*
X151003571Y-115298380D01*
X150908333Y-115250761D01*
X150860714Y-115203142D01*
X150813095Y-115107904D01*
X150765476Y-114917428D01*
X150765476Y-114679333D01*
X150813095Y-114488857D01*
X150860714Y-114393619D01*
X150908333Y-114346000D01*
X151003571Y-114298380D01*
%TD*%
M02*
