%TF.GenerationSoftware,KiCad,Pcbnew,5.1.6*%
%TF.CreationDate,2020-10-11T16:32:07+02:00*%
%TF.ProjectId,AS3320-VCF,41533333-3230-42d5-9643-462e6b696361,rev?*%
%TF.SameCoordinates,Original*%
%TF.FileFunction,Legend,Bot*%
%TF.FilePolarity,Positive*%
%FSLAX46Y46*%
G04 Gerber Fmt 4.6, Leading zero omitted, Abs format (unit mm)*
G04 Created by KiCad (PCBNEW 5.1.6) date 2020-10-11 16:32:07*
%MOMM*%
%LPD*%
G01*
G04 APERTURE LIST*
%ADD10C,0.120000*%
%ADD11C,0.150000*%
G04 APERTURE END LIST*
D10*
%TO.C,D1*%
X158660000Y-59049538D02*
G75*
G03*
X164210000Y-60594830I2990000J-462D01*
G01*
X158660000Y-59050462D02*
G75*
G02*
X164210000Y-57505170I2990000J462D01*
G01*
X164150000Y-59050000D02*
G75*
G03*
X164150000Y-59050000I-2500000J0D01*
G01*
X164210000Y-57505000D02*
X164210000Y-60595000D01*
%TO.C,RV2*%
X166030000Y-75610000D02*
X166860000Y-75610000D01*
X168480000Y-75610000D02*
X169010000Y-75610000D01*
X171380000Y-75610000D02*
X172560000Y-75610000D01*
X162820000Y-75610000D02*
X162820000Y-70890000D01*
X172560000Y-67080000D02*
X172560000Y-64020000D01*
X172570000Y-75610000D02*
X172570000Y-70890000D01*
X162820000Y-67080000D02*
X162820000Y-64020000D01*
X162820000Y-75610000D02*
X164310000Y-75610000D01*
X162820000Y-64020000D02*
X172560000Y-64020000D01*
%TO.C,RV1*%
X165980000Y-51877500D02*
X166810000Y-51877500D01*
X168430000Y-51877500D02*
X168960000Y-51877500D01*
X171330000Y-51877500D02*
X172510000Y-51877500D01*
X162770000Y-51877500D02*
X162770000Y-47157500D01*
X172510000Y-43347500D02*
X172510000Y-40287500D01*
X172520000Y-51877500D02*
X172520000Y-47157500D01*
X162770000Y-43347500D02*
X162770000Y-40287500D01*
X162770000Y-51877500D02*
X164260000Y-51877500D01*
X162770000Y-40287500D02*
X172510000Y-40287500D01*
%TO.C,J4*%
X186730000Y-88820000D02*
X185870000Y-88820000D01*
X186730000Y-88820000D02*
X186730000Y-89620000D01*
X187470000Y-96300000D02*
G75*
G03*
X187470000Y-96300000I-1800000J0D01*
G01*
X186020000Y-91800000D02*
X190170000Y-91800000D01*
X181170000Y-91800000D02*
X185320000Y-91800000D01*
X186170000Y-102300000D02*
X190170000Y-102300000D01*
X181170000Y-102300000D02*
X185170000Y-102300000D01*
X181170000Y-91800000D02*
X181170000Y-102300000D01*
X190170000Y-91800000D02*
X190170000Y-102300000D01*
%TO.C,J3*%
X186640000Y-64900000D02*
X185780000Y-64900000D01*
X186640000Y-64900000D02*
X186640000Y-65700000D01*
X187380000Y-72380000D02*
G75*
G03*
X187380000Y-72380000I-1800000J0D01*
G01*
X185930000Y-67880000D02*
X190080000Y-67880000D01*
X181080000Y-67880000D02*
X185230000Y-67880000D01*
X186080000Y-78380000D02*
X190080000Y-78380000D01*
X181080000Y-78380000D02*
X185080000Y-78380000D01*
X181080000Y-67880000D02*
X181080000Y-78380000D01*
X190080000Y-67880000D02*
X190080000Y-78380000D01*
%TO.C,J2*%
X186580000Y-40380000D02*
X185720000Y-40380000D01*
X186580000Y-40380000D02*
X186580000Y-41180000D01*
X187320000Y-47860000D02*
G75*
G03*
X187320000Y-47860000I-1800000J0D01*
G01*
X185870000Y-43360000D02*
X190020000Y-43360000D01*
X181020000Y-43360000D02*
X185170000Y-43360000D01*
X186020000Y-53860000D02*
X190020000Y-53860000D01*
X181020000Y-53860000D02*
X185020000Y-53860000D01*
X181020000Y-43360000D02*
X181020000Y-53860000D01*
X190020000Y-43360000D02*
X190020000Y-53860000D01*
%TO.C,J1*%
X187010000Y-107040000D02*
X186150000Y-107040000D01*
X187010000Y-107040000D02*
X187010000Y-107840000D01*
X187750000Y-114520000D02*
G75*
G03*
X187750000Y-114520000I-1800000J0D01*
G01*
X186300000Y-110020000D02*
X190450000Y-110020000D01*
X181450000Y-110020000D02*
X185600000Y-110020000D01*
X186450000Y-120520000D02*
X190450000Y-120520000D01*
X181450000Y-120520000D02*
X185450000Y-120520000D01*
X181450000Y-110020000D02*
X181450000Y-120520000D01*
X190450000Y-110020000D02*
X190450000Y-120520000D01*
%TO.C,D1*%
D11*
X162388095Y-55542380D02*
X162388095Y-54542380D01*
X162150000Y-54542380D01*
X162007142Y-54590000D01*
X161911904Y-54685238D01*
X161864285Y-54780476D01*
X161816666Y-54970952D01*
X161816666Y-55113809D01*
X161864285Y-55304285D01*
X161911904Y-55399523D01*
X162007142Y-55494761D01*
X162150000Y-55542380D01*
X162388095Y-55542380D01*
X160864285Y-55542380D02*
X161435714Y-55542380D01*
X161150000Y-55542380D02*
X161150000Y-54542380D01*
X161245238Y-54685238D01*
X161340476Y-54780476D01*
X161435714Y-54828095D01*
X162292857Y-63462380D02*
X162769047Y-63462380D01*
X162769047Y-62462380D01*
X161959523Y-62938571D02*
X161626190Y-62938571D01*
X161483333Y-63462380D02*
X161959523Y-63462380D01*
X161959523Y-62462380D01*
X161483333Y-62462380D01*
X161054761Y-63462380D02*
X161054761Y-62462380D01*
X160816666Y-62462380D01*
X160673809Y-62510000D01*
X160578571Y-62605238D01*
X160530952Y-62700476D01*
X160483333Y-62890952D01*
X160483333Y-63033809D01*
X160530952Y-63224285D01*
X160578571Y-63319523D01*
X160673809Y-63414761D01*
X160816666Y-63462380D01*
X161054761Y-63462380D01*
%TO.C,RV2*%
X175282380Y-69184761D02*
X174806190Y-68851428D01*
X175282380Y-68613333D02*
X174282380Y-68613333D01*
X174282380Y-68994285D01*
X174330000Y-69089523D01*
X174377619Y-69137142D01*
X174472857Y-69184761D01*
X174615714Y-69184761D01*
X174710952Y-69137142D01*
X174758571Y-69089523D01*
X174806190Y-68994285D01*
X174806190Y-68613333D01*
X174282380Y-69470476D02*
X175282380Y-69803809D01*
X174282380Y-70137142D01*
X174377619Y-70422857D02*
X174330000Y-70470476D01*
X174282380Y-70565714D01*
X174282380Y-70803809D01*
X174330000Y-70899047D01*
X174377619Y-70946666D01*
X174472857Y-70994285D01*
X174568095Y-70994285D01*
X174710952Y-70946666D01*
X175282380Y-70375238D01*
X175282380Y-70994285D01*
X160782380Y-75323333D02*
X160782380Y-74751904D01*
X160782380Y-75037619D02*
X159782380Y-75037619D01*
X159925238Y-74942380D01*
X160020476Y-74847142D01*
X160068095Y-74751904D01*
X159782380Y-75942380D02*
X159782380Y-76037619D01*
X159830000Y-76132857D01*
X159877619Y-76180476D01*
X159972857Y-76228095D01*
X160163333Y-76275714D01*
X160401428Y-76275714D01*
X160591904Y-76228095D01*
X160687142Y-76180476D01*
X160734761Y-76132857D01*
X160782380Y-76037619D01*
X160782380Y-75942380D01*
X160734761Y-75847142D01*
X160687142Y-75799523D01*
X160591904Y-75751904D01*
X160401428Y-75704285D01*
X160163333Y-75704285D01*
X159972857Y-75751904D01*
X159877619Y-75799523D01*
X159830000Y-75847142D01*
X159782380Y-75942380D01*
X159782380Y-76894761D02*
X159782380Y-76990000D01*
X159830000Y-77085238D01*
X159877619Y-77132857D01*
X159972857Y-77180476D01*
X160163333Y-77228095D01*
X160401428Y-77228095D01*
X160591904Y-77180476D01*
X160687142Y-77132857D01*
X160734761Y-77085238D01*
X160782380Y-76990000D01*
X160782380Y-76894761D01*
X160734761Y-76799523D01*
X160687142Y-76751904D01*
X160591904Y-76704285D01*
X160401428Y-76656666D01*
X160163333Y-76656666D01*
X159972857Y-76704285D01*
X159877619Y-76751904D01*
X159830000Y-76799523D01*
X159782380Y-76894761D01*
X160782380Y-77656666D02*
X159782380Y-77656666D01*
X160782380Y-78228095D02*
X160210952Y-77799523D01*
X159782380Y-78228095D02*
X160353809Y-77656666D01*
%TO.C,RV1*%
X175232380Y-45452261D02*
X174756190Y-45118928D01*
X175232380Y-44880833D02*
X174232380Y-44880833D01*
X174232380Y-45261785D01*
X174280000Y-45357023D01*
X174327619Y-45404642D01*
X174422857Y-45452261D01*
X174565714Y-45452261D01*
X174660952Y-45404642D01*
X174708571Y-45357023D01*
X174756190Y-45261785D01*
X174756190Y-44880833D01*
X174232380Y-45737976D02*
X175232380Y-46071309D01*
X174232380Y-46404642D01*
X175232380Y-47261785D02*
X175232380Y-46690357D01*
X175232380Y-46976071D02*
X174232380Y-46976071D01*
X174375238Y-46880833D01*
X174470476Y-46785595D01*
X174518095Y-46690357D01*
X160732380Y-51590833D02*
X160732380Y-51019404D01*
X160732380Y-51305119D02*
X159732380Y-51305119D01*
X159875238Y-51209880D01*
X159970476Y-51114642D01*
X160018095Y-51019404D01*
X159732380Y-52209880D02*
X159732380Y-52305119D01*
X159780000Y-52400357D01*
X159827619Y-52447976D01*
X159922857Y-52495595D01*
X160113333Y-52543214D01*
X160351428Y-52543214D01*
X160541904Y-52495595D01*
X160637142Y-52447976D01*
X160684761Y-52400357D01*
X160732380Y-52305119D01*
X160732380Y-52209880D01*
X160684761Y-52114642D01*
X160637142Y-52067023D01*
X160541904Y-52019404D01*
X160351428Y-51971785D01*
X160113333Y-51971785D01*
X159922857Y-52019404D01*
X159827619Y-52067023D01*
X159780000Y-52114642D01*
X159732380Y-52209880D01*
X159732380Y-53162261D02*
X159732380Y-53257500D01*
X159780000Y-53352738D01*
X159827619Y-53400357D01*
X159922857Y-53447976D01*
X160113333Y-53495595D01*
X160351428Y-53495595D01*
X160541904Y-53447976D01*
X160637142Y-53400357D01*
X160684761Y-53352738D01*
X160732380Y-53257500D01*
X160732380Y-53162261D01*
X160684761Y-53067023D01*
X160637142Y-53019404D01*
X160541904Y-52971785D01*
X160351428Y-52924166D01*
X160113333Y-52924166D01*
X159922857Y-52971785D01*
X159827619Y-53019404D01*
X159780000Y-53067023D01*
X159732380Y-53162261D01*
X160732380Y-53924166D02*
X159732380Y-53924166D01*
X160732380Y-54495595D02*
X160160952Y-54067023D01*
X159732380Y-54495595D02*
X160303809Y-53924166D01*
%TO.C,J4*%
X190033333Y-90352380D02*
X190033333Y-91066666D01*
X190080952Y-91209523D01*
X190176190Y-91304761D01*
X190319047Y-91352380D01*
X190414285Y-91352380D01*
X189128571Y-90685714D02*
X189128571Y-91352380D01*
X189366666Y-90304761D02*
X189604761Y-91019047D01*
X188985714Y-91019047D01*
X190838095Y-103986666D02*
X190361904Y-103986666D01*
X190933333Y-104272380D02*
X190600000Y-103272380D01*
X190266666Y-104272380D01*
X189933333Y-103272380D02*
X189933333Y-104081904D01*
X189885714Y-104177142D01*
X189838095Y-104224761D01*
X189742857Y-104272380D01*
X189552380Y-104272380D01*
X189457142Y-104224761D01*
X189409523Y-104177142D01*
X189361904Y-104081904D01*
X189361904Y-103272380D01*
X188885714Y-104272380D02*
X188885714Y-103272380D01*
X188647619Y-103272380D01*
X188504761Y-103320000D01*
X188409523Y-103415238D01*
X188361904Y-103510476D01*
X188314285Y-103700952D01*
X188314285Y-103843809D01*
X188361904Y-104034285D01*
X188409523Y-104129523D01*
X188504761Y-104224761D01*
X188647619Y-104272380D01*
X188885714Y-104272380D01*
X187885714Y-104272380D02*
X187885714Y-103272380D01*
X187219047Y-103272380D02*
X187028571Y-103272380D01*
X186933333Y-103320000D01*
X186838095Y-103415238D01*
X186790476Y-103605714D01*
X186790476Y-103939047D01*
X186838095Y-104129523D01*
X186933333Y-104224761D01*
X187028571Y-104272380D01*
X187219047Y-104272380D01*
X187314285Y-104224761D01*
X187409523Y-104129523D01*
X187457142Y-103939047D01*
X187457142Y-103605714D01*
X187409523Y-103415238D01*
X187314285Y-103320000D01*
X187219047Y-103272380D01*
X185409523Y-103272380D02*
X185219047Y-103272380D01*
X185123809Y-103320000D01*
X185028571Y-103415238D01*
X184980952Y-103605714D01*
X184980952Y-103939047D01*
X185028571Y-104129523D01*
X185123809Y-104224761D01*
X185219047Y-104272380D01*
X185409523Y-104272380D01*
X185504761Y-104224761D01*
X185600000Y-104129523D01*
X185647619Y-103939047D01*
X185647619Y-103605714D01*
X185600000Y-103415238D01*
X185504761Y-103320000D01*
X185409523Y-103272380D01*
X184552380Y-103272380D02*
X184552380Y-104081904D01*
X184504761Y-104177142D01*
X184457142Y-104224761D01*
X184361904Y-104272380D01*
X184171428Y-104272380D01*
X184076190Y-104224761D01*
X184028571Y-104177142D01*
X183980952Y-104081904D01*
X183980952Y-103272380D01*
X183647619Y-103272380D02*
X183076190Y-103272380D01*
X183361904Y-104272380D02*
X183361904Y-103272380D01*
X182742857Y-104272380D02*
X182742857Y-103272380D01*
X182361904Y-103272380D01*
X182266666Y-103320000D01*
X182219047Y-103367619D01*
X182171428Y-103462857D01*
X182171428Y-103605714D01*
X182219047Y-103700952D01*
X182266666Y-103748571D01*
X182361904Y-103796190D01*
X182742857Y-103796190D01*
X181742857Y-103272380D02*
X181742857Y-104081904D01*
X181695238Y-104177142D01*
X181647619Y-104224761D01*
X181552380Y-104272380D01*
X181361904Y-104272380D01*
X181266666Y-104224761D01*
X181219047Y-104177142D01*
X181171428Y-104081904D01*
X181171428Y-103272380D01*
X180838095Y-103272380D02*
X180266666Y-103272380D01*
X180552380Y-104272380D02*
X180552380Y-103272380D01*
%TO.C,J3*%
X189943333Y-66432380D02*
X189943333Y-67146666D01*
X189990952Y-67289523D01*
X190086190Y-67384761D01*
X190229047Y-67432380D01*
X190324285Y-67432380D01*
X189562380Y-66432380D02*
X188943333Y-66432380D01*
X189276666Y-66813333D01*
X189133809Y-66813333D01*
X189038571Y-66860952D01*
X188990952Y-66908571D01*
X188943333Y-67003809D01*
X188943333Y-67241904D01*
X188990952Y-67337142D01*
X189038571Y-67384761D01*
X189133809Y-67432380D01*
X189419523Y-67432380D01*
X189514761Y-67384761D01*
X189562380Y-67337142D01*
X179248571Y-65370476D02*
X179248571Y-65037142D01*
X179772380Y-65037142D02*
X178772380Y-65037142D01*
X178772380Y-65513333D01*
X179772380Y-66465714D02*
X179296190Y-66132380D01*
X179772380Y-65894285D02*
X178772380Y-65894285D01*
X178772380Y-66275238D01*
X178820000Y-66370476D01*
X178867619Y-66418095D01*
X178962857Y-66465714D01*
X179105714Y-66465714D01*
X179200952Y-66418095D01*
X179248571Y-66370476D01*
X179296190Y-66275238D01*
X179296190Y-65894285D01*
X179248571Y-66894285D02*
X179248571Y-67227619D01*
X179772380Y-67370476D02*
X179772380Y-66894285D01*
X178772380Y-66894285D01*
X178772380Y-67370476D01*
X179867619Y-68465714D02*
X179820000Y-68370476D01*
X179724761Y-68275238D01*
X179581904Y-68132380D01*
X179534285Y-68037142D01*
X179534285Y-67941904D01*
X179772380Y-67989523D02*
X179724761Y-67894285D01*
X179629523Y-67799047D01*
X179439047Y-67751428D01*
X179105714Y-67751428D01*
X178915238Y-67799047D01*
X178820000Y-67894285D01*
X178772380Y-67989523D01*
X178772380Y-68180000D01*
X178820000Y-68275238D01*
X178915238Y-68370476D01*
X179105714Y-68418095D01*
X179439047Y-68418095D01*
X179629523Y-68370476D01*
X179724761Y-68275238D01*
X179772380Y-68180000D01*
X179772380Y-67989523D01*
X179677142Y-70180000D02*
X179724761Y-70132380D01*
X179772380Y-69989523D01*
X179772380Y-69894285D01*
X179724761Y-69751428D01*
X179629523Y-69656190D01*
X179534285Y-69608571D01*
X179343809Y-69560952D01*
X179200952Y-69560952D01*
X179010476Y-69608571D01*
X178915238Y-69656190D01*
X178820000Y-69751428D01*
X178772380Y-69894285D01*
X178772380Y-69989523D01*
X178820000Y-70132380D01*
X178867619Y-70180000D01*
X179772380Y-70608571D02*
X178772380Y-70608571D01*
X179772380Y-71180000D01*
X178772380Y-71180000D01*
X178772380Y-71513333D02*
X178772380Y-72084761D01*
X179772380Y-71799047D02*
X178772380Y-71799047D01*
X179772380Y-72894285D02*
X179772380Y-72418095D01*
X178772380Y-72418095D01*
X179677142Y-73227619D02*
X179724761Y-73275238D01*
X179772380Y-73227619D01*
X179724761Y-73180000D01*
X179677142Y-73227619D01*
X179772380Y-73227619D01*
X179772380Y-74465714D02*
X178772380Y-74465714D01*
X179772380Y-74941904D02*
X178772380Y-74941904D01*
X179772380Y-75513333D01*
X178772380Y-75513333D01*
X179772380Y-75989523D02*
X178772380Y-75989523D01*
X178772380Y-76370476D01*
X178820000Y-76465714D01*
X178867619Y-76513333D01*
X178962857Y-76560952D01*
X179105714Y-76560952D01*
X179200952Y-76513333D01*
X179248571Y-76465714D01*
X179296190Y-76370476D01*
X179296190Y-75989523D01*
X178772380Y-76989523D02*
X179581904Y-76989523D01*
X179677142Y-77037142D01*
X179724761Y-77084761D01*
X179772380Y-77180000D01*
X179772380Y-77370476D01*
X179724761Y-77465714D01*
X179677142Y-77513333D01*
X179581904Y-77560952D01*
X178772380Y-77560952D01*
X178772380Y-77894285D02*
X178772380Y-78465714D01*
X179772380Y-78180000D02*
X178772380Y-78180000D01*
%TO.C,J2*%
X189883333Y-41912380D02*
X189883333Y-42626666D01*
X189930952Y-42769523D01*
X190026190Y-42864761D01*
X190169047Y-42912380D01*
X190264285Y-42912380D01*
X189454761Y-42007619D02*
X189407142Y-41960000D01*
X189311904Y-41912380D01*
X189073809Y-41912380D01*
X188978571Y-41960000D01*
X188930952Y-42007619D01*
X188883333Y-42102857D01*
X188883333Y-42198095D01*
X188930952Y-42340952D01*
X189502380Y-42912380D01*
X188883333Y-42912380D01*
X179852380Y-38992380D02*
X179376190Y-38659047D01*
X179852380Y-38420952D02*
X178852380Y-38420952D01*
X178852380Y-38801904D01*
X178900000Y-38897142D01*
X178947619Y-38944761D01*
X179042857Y-38992380D01*
X179185714Y-38992380D01*
X179280952Y-38944761D01*
X179328571Y-38897142D01*
X179376190Y-38801904D01*
X179376190Y-38420952D01*
X179328571Y-39420952D02*
X179328571Y-39754285D01*
X179852380Y-39897142D02*
X179852380Y-39420952D01*
X178852380Y-39420952D01*
X178852380Y-39897142D01*
X179804761Y-40278095D02*
X179852380Y-40420952D01*
X179852380Y-40659047D01*
X179804761Y-40754285D01*
X179757142Y-40801904D01*
X179661904Y-40849523D01*
X179566666Y-40849523D01*
X179471428Y-40801904D01*
X179423809Y-40754285D01*
X179376190Y-40659047D01*
X179328571Y-40468571D01*
X179280952Y-40373333D01*
X179233333Y-40325714D01*
X179138095Y-40278095D01*
X179042857Y-40278095D01*
X178947619Y-40325714D01*
X178900000Y-40373333D01*
X178852380Y-40468571D01*
X178852380Y-40706666D01*
X178900000Y-40849523D01*
X178852380Y-41468571D02*
X178852380Y-41659047D01*
X178900000Y-41754285D01*
X178995238Y-41849523D01*
X179185714Y-41897142D01*
X179519047Y-41897142D01*
X179709523Y-41849523D01*
X179804761Y-41754285D01*
X179852380Y-41659047D01*
X179852380Y-41468571D01*
X179804761Y-41373333D01*
X179709523Y-41278095D01*
X179519047Y-41230476D01*
X179185714Y-41230476D01*
X178995238Y-41278095D01*
X178900000Y-41373333D01*
X178852380Y-41468571D01*
X179852380Y-42325714D02*
X178852380Y-42325714D01*
X179852380Y-42897142D01*
X178852380Y-42897142D01*
X179566666Y-43325714D02*
X179566666Y-43801904D01*
X179852380Y-43230476D02*
X178852380Y-43563809D01*
X179852380Y-43897142D01*
X179852380Y-44230476D02*
X178852380Y-44230476D01*
X179852380Y-44801904D01*
X178852380Y-44801904D01*
X179757142Y-45849523D02*
X179804761Y-45801904D01*
X179852380Y-45659047D01*
X179852380Y-45563809D01*
X179804761Y-45420952D01*
X179709523Y-45325714D01*
X179614285Y-45278095D01*
X179423809Y-45230476D01*
X179280952Y-45230476D01*
X179090476Y-45278095D01*
X178995238Y-45325714D01*
X178900000Y-45420952D01*
X178852380Y-45563809D01*
X178852380Y-45659047D01*
X178900000Y-45801904D01*
X178947619Y-45849523D01*
X179328571Y-46278095D02*
X179328571Y-46611428D01*
X179852380Y-46754285D02*
X179852380Y-46278095D01*
X178852380Y-46278095D01*
X178852380Y-46754285D01*
X179757142Y-48516190D02*
X179804761Y-48468571D01*
X179852380Y-48325714D01*
X179852380Y-48230476D01*
X179804761Y-48087619D01*
X179709523Y-47992380D01*
X179614285Y-47944761D01*
X179423809Y-47897142D01*
X179280952Y-47897142D01*
X179090476Y-47944761D01*
X178995238Y-47992380D01*
X178900000Y-48087619D01*
X178852380Y-48230476D01*
X178852380Y-48325714D01*
X178900000Y-48468571D01*
X178947619Y-48516190D01*
X179852380Y-48944761D02*
X178852380Y-48944761D01*
X179852380Y-49516190D01*
X178852380Y-49516190D01*
X178852380Y-49849523D02*
X178852380Y-50420952D01*
X179852380Y-50135238D02*
X178852380Y-50135238D01*
X179852380Y-51230476D02*
X179852380Y-50754285D01*
X178852380Y-50754285D01*
X179757142Y-51563809D02*
X179804761Y-51611428D01*
X179852380Y-51563809D01*
X179804761Y-51516190D01*
X179757142Y-51563809D01*
X179852380Y-51563809D01*
X179852380Y-52801904D02*
X178852380Y-52801904D01*
X179852380Y-53278095D02*
X178852380Y-53278095D01*
X179852380Y-53849523D01*
X178852380Y-53849523D01*
X179852380Y-54325714D02*
X178852380Y-54325714D01*
X178852380Y-54706666D01*
X178900000Y-54801904D01*
X178947619Y-54849523D01*
X179042857Y-54897142D01*
X179185714Y-54897142D01*
X179280952Y-54849523D01*
X179328571Y-54801904D01*
X179376190Y-54706666D01*
X179376190Y-54325714D01*
X178852380Y-55325714D02*
X179661904Y-55325714D01*
X179757142Y-55373333D01*
X179804761Y-55420952D01*
X179852380Y-55516190D01*
X179852380Y-55706666D01*
X179804761Y-55801904D01*
X179757142Y-55849523D01*
X179661904Y-55897142D01*
X178852380Y-55897142D01*
X178852380Y-56230476D02*
X178852380Y-56801904D01*
X179852380Y-56516190D02*
X178852380Y-56516190D01*
%TO.C,J1*%
X190313333Y-108572380D02*
X190313333Y-109286666D01*
X190360952Y-109429523D01*
X190456190Y-109524761D01*
X190599047Y-109572380D01*
X190694285Y-109572380D01*
X189313333Y-109572380D02*
X189884761Y-109572380D01*
X189599047Y-109572380D02*
X189599047Y-108572380D01*
X189694285Y-108715238D01*
X189789523Y-108810476D01*
X189884761Y-108858095D01*
X190571428Y-122396666D02*
X190095238Y-122396666D01*
X190666666Y-122682380D02*
X190333333Y-121682380D01*
X190000000Y-122682380D01*
X189666666Y-121682380D02*
X189666666Y-122491904D01*
X189619047Y-122587142D01*
X189571428Y-122634761D01*
X189476190Y-122682380D01*
X189285714Y-122682380D01*
X189190476Y-122634761D01*
X189142857Y-122587142D01*
X189095238Y-122491904D01*
X189095238Y-121682380D01*
X188619047Y-122682380D02*
X188619047Y-121682380D01*
X188380952Y-121682380D01*
X188238095Y-121730000D01*
X188142857Y-121825238D01*
X188095238Y-121920476D01*
X188047619Y-122110952D01*
X188047619Y-122253809D01*
X188095238Y-122444285D01*
X188142857Y-122539523D01*
X188238095Y-122634761D01*
X188380952Y-122682380D01*
X188619047Y-122682380D01*
X187619047Y-122682380D02*
X187619047Y-121682380D01*
X186952380Y-121682380D02*
X186761904Y-121682380D01*
X186666666Y-121730000D01*
X186571428Y-121825238D01*
X186523809Y-122015714D01*
X186523809Y-122349047D01*
X186571428Y-122539523D01*
X186666666Y-122634761D01*
X186761904Y-122682380D01*
X186952380Y-122682380D01*
X187047619Y-122634761D01*
X187142857Y-122539523D01*
X187190476Y-122349047D01*
X187190476Y-122015714D01*
X187142857Y-121825238D01*
X187047619Y-121730000D01*
X186952380Y-121682380D01*
X185333333Y-122682380D02*
X185333333Y-121682380D01*
X184857142Y-122682380D02*
X184857142Y-121682380D01*
X184285714Y-122682380D01*
X184285714Y-121682380D01*
X183809523Y-122682380D02*
X183809523Y-121682380D01*
X183428571Y-121682380D01*
X183333333Y-121730000D01*
X183285714Y-121777619D01*
X183238095Y-121872857D01*
X183238095Y-122015714D01*
X183285714Y-122110952D01*
X183333333Y-122158571D01*
X183428571Y-122206190D01*
X183809523Y-122206190D01*
X182809523Y-121682380D02*
X182809523Y-122491904D01*
X182761904Y-122587142D01*
X182714285Y-122634761D01*
X182619047Y-122682380D01*
X182428571Y-122682380D01*
X182333333Y-122634761D01*
X182285714Y-122587142D01*
X182238095Y-122491904D01*
X182238095Y-121682380D01*
X181904761Y-121682380D02*
X181333333Y-121682380D01*
X181619047Y-122682380D02*
X181619047Y-121682380D01*
%TD*%
M02*
