M48
; DRILL file {KiCad 5.1.6} date Sun Sep 27 13:31:53 2020
; FORMAT={-:-/ absolute / inch / decimal}
; #@! TF.CreationDate,2020-09-27T13:31:53+02:00
; #@! TF.GenerationSoftware,Kicad,Pcbnew,5.1.6
; #@! TF.FileFunction,Plated,1,2,PTH
FMAT,2
INCH
T1C0.0157
T2C0.0315
T3C0.0394
T4C0.0472
T5C0.0512
T6C0.0630
%
G90
G05
T1
X5.7367Y-2.9191
X6.8749Y-3.8566
T2
X6.1487Y-3.2
X6.5487Y-3.2
X7.275Y-3.94
X7.675Y-3.94
X7.275Y-3.44
X7.675Y-3.44
X6.15Y-2.68
X6.55Y-2.68
X7.28Y-2.68
X7.68Y-2.68
X7.275Y-3.19
X7.675Y-3.19
X6.145Y-3.95
X6.545Y-3.95
X6.71Y-3.94
X7.11Y-3.94
X7.275Y-3.69
X7.675Y-3.69
X6.71Y-3.44
X7.11Y-3.44
X6.71Y-2.94
X7.11Y-2.94
X5.8866Y-3.85
X5.985Y-3.85
X6.71Y-3.19
X7.11Y-3.19
X6.145Y-2.94
X6.545Y-2.94
X6.145Y-3.7
X6.545Y-3.7
X6.71Y-2.68
X7.11Y-2.68
X6.15Y-3.45
X6.55Y-3.45
X7.275Y-2.94
X7.675Y-2.94
X5.67Y-2.68
X5.67Y-2.78
X5.67Y-2.88
X5.67Y-2.98
X5.67Y-3.08
X5.67Y-3.18
X5.67Y-3.28
X5.67Y-3.38
X5.67Y-3.48
X5.97Y-2.68
X5.97Y-2.78
X5.97Y-2.88
X5.97Y-2.98
X5.97Y-3.08
X5.97Y-3.18
X5.97Y-3.28
X5.97Y-3.38
X5.97Y-3.48
X6.71Y-3.69
X7.11Y-3.69
T3
X5.1255Y-4.0721
X5.3224Y-4.0721
X5.5131Y-3.8145
X5.71Y-3.8145
X5.5131Y-4.0724
X5.71Y-4.0724
X5.1255Y-3.8143
X5.3224Y-3.8143
T4
X6.4227Y-4.3632
X7.7711Y-4.3632
X7.1Y-4.3675
X5.7711Y-4.3632
T5
X5.1013Y-3.3934
X5.495Y-3.295
X5.495Y-3.4919
X5.1063Y-2.8284
X5.5Y-2.73
X5.5Y-2.9269
T6
X6.2227Y-4.5884
X7.5711Y-4.5884
X6.9Y-4.5927
X5.5711Y-4.5884
T0
M30
