%TF.GenerationSoftware,KiCad,Pcbnew,5.1.6*%
%TF.CreationDate,2020-09-27T13:31:50+02:00*%
%TF.ProjectId,AS3320-VCF,41533333-3230-42d5-9643-462e6b696361,rev?*%
%TF.SameCoordinates,Original*%
%TF.FileFunction,Soldermask,Bot*%
%TF.FilePolarity,Negative*%
%FSLAX46Y46*%
G04 Gerber Fmt 4.6, Leading zero omitted, Abs format (unit mm)*
G04 Created by KiCad (PCBNEW 5.1.6) date 2020-09-27 13:31:50*
%MOMM*%
%LPD*%
G01*
G04 APERTURE LIST*
%ADD10C,1.700000*%
%ADD11R,1.700000X1.700000*%
%ADD12C,2.440000*%
%ADD13O,1.700000X1.700000*%
%ADD14C,2.200000*%
%ADD15C,3.500000*%
%ADD16C,3.100000*%
%ADD17C,2.100000*%
G04 APERTURE END LIST*
D10*
%TO.C,C5*%
X152019000Y-97790000D03*
D11*
X149519000Y-97790000D03*
%TD*%
D12*
%TO.C,RV1*%
X139573000Y-83693000D03*
X129573000Y-86193000D03*
X139573000Y-88693000D03*
%TD*%
%TO.C,RV2*%
X139700000Y-69342000D03*
X129700000Y-71842000D03*
X139700000Y-74342000D03*
%TD*%
D13*
%TO.C,U1*%
X151638000Y-68072000D03*
X144018000Y-88392000D03*
X151638000Y-70612000D03*
X144018000Y-85852000D03*
X151638000Y-73152000D03*
X144018000Y-83312000D03*
X151638000Y-75692000D03*
X144018000Y-80772000D03*
X151638000Y-78232000D03*
X144018000Y-78232000D03*
X151638000Y-80772000D03*
X144018000Y-75692000D03*
X151638000Y-83312000D03*
X144018000Y-73152000D03*
X151638000Y-85852000D03*
X144018000Y-70612000D03*
X151638000Y-88392000D03*
D11*
X144018000Y-68072000D03*
%TD*%
D14*
%TO.C,J2*%
X150396000Y-112736000D03*
D10*
X143406000Y-122896000D03*
D15*
X141506000Y-116546000D03*
D16*
X146586000Y-110826000D03*
%TD*%
D14*
%TO.C,J3*%
X166946000Y-112736000D03*
D10*
X159956000Y-122896000D03*
D15*
X158056000Y-116546000D03*
D16*
X163136000Y-110826000D03*
%TD*%
D14*
%TO.C,J1*%
X201196000Y-112736000D03*
D10*
X194206000Y-122896000D03*
D15*
X192306000Y-116546000D03*
D16*
X197386000Y-110826000D03*
%TD*%
D17*
%TO.C,C1*%
X140034000Y-103440000D03*
X145034000Y-103440000D03*
%TD*%
%TO.C,C2*%
X130188000Y-96882000D03*
X135188000Y-96882000D03*
%TD*%
%TO.C,C3*%
X135188000Y-103432000D03*
X130188000Y-103432000D03*
%TD*%
%TO.C,C4*%
X145034000Y-96889500D03*
X140034000Y-96889500D03*
%TD*%
D10*
%TO.C,R1*%
X156210000Y-68072000D03*
D13*
X166370000Y-68072000D03*
%TD*%
%TO.C,R2*%
X166243000Y-74676000D03*
D10*
X156083000Y-74676000D03*
%TD*%
D13*
%TO.C,R3*%
X166337000Y-81280000D03*
D10*
X156177000Y-81280000D03*
%TD*%
D13*
%TO.C,R4*%
X166370000Y-87630000D03*
D10*
X156210000Y-87630000D03*
%TD*%
%TO.C,R5*%
X156083000Y-93980000D03*
D13*
X166243000Y-93980000D03*
%TD*%
%TO.C,R6*%
X166243000Y-100330000D03*
D10*
X156083000Y-100330000D03*
%TD*%
%TO.C,R7*%
X170434000Y-68072000D03*
D13*
X180594000Y-68072000D03*
%TD*%
%TO.C,R8*%
X180594000Y-74676000D03*
D10*
X170434000Y-74676000D03*
%TD*%
D13*
%TO.C,R9*%
X180594000Y-81026000D03*
D10*
X170434000Y-81026000D03*
%TD*%
%TO.C,R10*%
X170434000Y-87376000D03*
D13*
X180594000Y-87376000D03*
%TD*%
D10*
%TO.C,R11*%
X170434000Y-93726000D03*
D13*
X180594000Y-93726000D03*
%TD*%
%TO.C,R12*%
X180594000Y-100076000D03*
D10*
X170434000Y-100076000D03*
%TD*%
%TO.C,R13*%
X184912000Y-68072000D03*
D13*
X195072000Y-68072000D03*
%TD*%
%TO.C,R14*%
X194945000Y-74676000D03*
D10*
X184785000Y-74676000D03*
%TD*%
%TO.C,R15*%
X184785000Y-81026000D03*
D13*
X194945000Y-81026000D03*
%TD*%
%TO.C,R16*%
X194945000Y-87376000D03*
D10*
X184785000Y-87376000D03*
%TD*%
%TO.C,R17*%
X184785000Y-93726000D03*
D13*
X194945000Y-93726000D03*
%TD*%
D10*
%TO.C,R18*%
X184785000Y-100076000D03*
D13*
X194945000Y-100076000D03*
%TD*%
D16*
%TO.C,J4*%
X180340000Y-110934000D03*
D15*
X175260000Y-116654000D03*
D10*
X177160000Y-123004000D03*
D14*
X184150000Y-112844000D03*
%TD*%
M02*
