%TF.GenerationSoftware,KiCad,Pcbnew,5.1.7*%
%TF.CreationDate,2020-10-24T15:52:28+02:00*%
%TF.ProjectId,AS3320-VCF,41533333-3230-42d5-9643-462e6b696361,rev?*%
%TF.SameCoordinates,Original*%
%TF.FileFunction,Legend,Bot*%
%TF.FilePolarity,Positive*%
%FSLAX46Y46*%
G04 Gerber Fmt 4.6, Leading zero omitted, Abs format (unit mm)*
G04 Created by KiCad (PCBNEW 5.1.7) date 2020-10-24 15:52:28*
%MOMM*%
%LPD*%
G01*
G04 APERTURE LIST*
%ADD10C,0.120000*%
%ADD11C,0.150000*%
G04 APERTURE END LIST*
D10*
%TO.C,J4*%
X190410000Y-94320000D02*
X190410000Y-104820000D01*
X181410000Y-94320000D02*
X181410000Y-104820000D01*
X181410000Y-104820000D02*
X185410000Y-104820000D01*
X186410000Y-104820000D02*
X190410000Y-104820000D01*
X181410000Y-94320000D02*
X185560000Y-94320000D01*
X186260000Y-94320000D02*
X190410000Y-94320000D01*
X187710000Y-98820000D02*
G75*
G03*
X187710000Y-98820000I-1800000J0D01*
G01*
X186970000Y-91340000D02*
X186970000Y-92140000D01*
X186970000Y-91340000D02*
X186110000Y-91340000D01*
%TO.C,J3*%
X190410000Y-67570000D02*
X190410000Y-78070000D01*
X181410000Y-67570000D02*
X181410000Y-78070000D01*
X181410000Y-78070000D02*
X185410000Y-78070000D01*
X186410000Y-78070000D02*
X190410000Y-78070000D01*
X181410000Y-67570000D02*
X185560000Y-67570000D01*
X186260000Y-67570000D02*
X190410000Y-67570000D01*
X187710000Y-72070000D02*
G75*
G03*
X187710000Y-72070000I-1800000J0D01*
G01*
X186970000Y-64590000D02*
X186970000Y-65390000D01*
X186970000Y-64590000D02*
X186110000Y-64590000D01*
%TO.C,J2*%
X189840000Y-42240000D02*
X189840000Y-52740000D01*
X180840000Y-42240000D02*
X180840000Y-52740000D01*
X180840000Y-52740000D02*
X184840000Y-52740000D01*
X185840000Y-52740000D02*
X189840000Y-52740000D01*
X180840000Y-42240000D02*
X184990000Y-42240000D01*
X185690000Y-42240000D02*
X189840000Y-42240000D01*
X187140000Y-46740000D02*
G75*
G03*
X187140000Y-46740000I-1800000J0D01*
G01*
X186400000Y-39260000D02*
X186400000Y-40060000D01*
X186400000Y-39260000D02*
X185540000Y-39260000D01*
%TO.C,J1*%
X190580000Y-111920000D02*
X190580000Y-122420000D01*
X181580000Y-111920000D02*
X181580000Y-122420000D01*
X181580000Y-122420000D02*
X185580000Y-122420000D01*
X186580000Y-122420000D02*
X190580000Y-122420000D01*
X181580000Y-111920000D02*
X185730000Y-111920000D01*
X186430000Y-111920000D02*
X190580000Y-111920000D01*
X187880000Y-116420000D02*
G75*
G03*
X187880000Y-116420000I-1800000J0D01*
G01*
X187140000Y-108940000D02*
X187140000Y-109740000D01*
X187140000Y-108940000D02*
X186280000Y-108940000D01*
%TO.C,D1*%
X164150000Y-59050000D02*
G75*
G03*
X164150000Y-59050000I-2500000J0D01*
G01*
X164210000Y-57505000D02*
X164210000Y-60595000D01*
X158660000Y-59049538D02*
G75*
G03*
X164210000Y-60594830I2990000J-462D01*
G01*
X158660000Y-59050462D02*
G75*
G02*
X164210000Y-57505170I2990000J462D01*
G01*
%TO.C,RV2*%
X166030000Y-75610000D02*
X166860000Y-75610000D01*
X168480000Y-75610000D02*
X169010000Y-75610000D01*
X171380000Y-75610000D02*
X172560000Y-75610000D01*
X162820000Y-75610000D02*
X162820000Y-70890000D01*
X172560000Y-67080000D02*
X172560000Y-64020000D01*
X172570000Y-75610000D02*
X172570000Y-70890000D01*
X162820000Y-67080000D02*
X162820000Y-64020000D01*
X162820000Y-75610000D02*
X164310000Y-75610000D01*
X162820000Y-64020000D02*
X172560000Y-64020000D01*
%TO.C,RV1*%
X165980000Y-51877500D02*
X166810000Y-51877500D01*
X168430000Y-51877500D02*
X168960000Y-51877500D01*
X171330000Y-51877500D02*
X172510000Y-51877500D01*
X162770000Y-51877500D02*
X162770000Y-47157500D01*
X172510000Y-43347500D02*
X172510000Y-40287500D01*
X172520000Y-51877500D02*
X172520000Y-47157500D01*
X162770000Y-43347500D02*
X162770000Y-40287500D01*
X162770000Y-51877500D02*
X164260000Y-51877500D01*
X162770000Y-40287500D02*
X172510000Y-40287500D01*
%TO.C,J4*%
D11*
X190273333Y-92872380D02*
X190273333Y-93586666D01*
X190320952Y-93729523D01*
X190416190Y-93824761D01*
X190559047Y-93872380D01*
X190654285Y-93872380D01*
X189368571Y-93205714D02*
X189368571Y-93872380D01*
X189606666Y-92824761D02*
X189844761Y-93539047D01*
X189225714Y-93539047D01*
%TO.C,J3*%
X190273333Y-66122380D02*
X190273333Y-66836666D01*
X190320952Y-66979523D01*
X190416190Y-67074761D01*
X190559047Y-67122380D01*
X190654285Y-67122380D01*
X189892380Y-66122380D02*
X189273333Y-66122380D01*
X189606666Y-66503333D01*
X189463809Y-66503333D01*
X189368571Y-66550952D01*
X189320952Y-66598571D01*
X189273333Y-66693809D01*
X189273333Y-66931904D01*
X189320952Y-67027142D01*
X189368571Y-67074761D01*
X189463809Y-67122380D01*
X189749523Y-67122380D01*
X189844761Y-67074761D01*
X189892380Y-67027142D01*
%TO.C,J2*%
X189703333Y-40792380D02*
X189703333Y-41506666D01*
X189750952Y-41649523D01*
X189846190Y-41744761D01*
X189989047Y-41792380D01*
X190084285Y-41792380D01*
X189274761Y-40887619D02*
X189227142Y-40840000D01*
X189131904Y-40792380D01*
X188893809Y-40792380D01*
X188798571Y-40840000D01*
X188750952Y-40887619D01*
X188703333Y-40982857D01*
X188703333Y-41078095D01*
X188750952Y-41220952D01*
X189322380Y-41792380D01*
X188703333Y-41792380D01*
%TO.C,J1*%
X190443333Y-110472380D02*
X190443333Y-111186666D01*
X190490952Y-111329523D01*
X190586190Y-111424761D01*
X190729047Y-111472380D01*
X190824285Y-111472380D01*
X189443333Y-111472380D02*
X190014761Y-111472380D01*
X189729047Y-111472380D02*
X189729047Y-110472380D01*
X189824285Y-110615238D01*
X189919523Y-110710476D01*
X190014761Y-110758095D01*
%TO.C,D1*%
X162388095Y-55542380D02*
X162388095Y-54542380D01*
X162150000Y-54542380D01*
X162007142Y-54590000D01*
X161911904Y-54685238D01*
X161864285Y-54780476D01*
X161816666Y-54970952D01*
X161816666Y-55113809D01*
X161864285Y-55304285D01*
X161911904Y-55399523D01*
X162007142Y-55494761D01*
X162150000Y-55542380D01*
X162388095Y-55542380D01*
X160864285Y-55542380D02*
X161435714Y-55542380D01*
X161150000Y-55542380D02*
X161150000Y-54542380D01*
X161245238Y-54685238D01*
X161340476Y-54780476D01*
X161435714Y-54828095D01*
X162292857Y-63462380D02*
X162769047Y-63462380D01*
X162769047Y-62462380D01*
X161959523Y-62938571D02*
X161626190Y-62938571D01*
X161483333Y-63462380D02*
X161959523Y-63462380D01*
X161959523Y-62462380D01*
X161483333Y-62462380D01*
X161054761Y-63462380D02*
X161054761Y-62462380D01*
X160816666Y-62462380D01*
X160673809Y-62510000D01*
X160578571Y-62605238D01*
X160530952Y-62700476D01*
X160483333Y-62890952D01*
X160483333Y-63033809D01*
X160530952Y-63224285D01*
X160578571Y-63319523D01*
X160673809Y-63414761D01*
X160816666Y-63462380D01*
X161054761Y-63462380D01*
%TO.C,RV2*%
X175282380Y-69184761D02*
X174806190Y-68851428D01*
X175282380Y-68613333D02*
X174282380Y-68613333D01*
X174282380Y-68994285D01*
X174330000Y-69089523D01*
X174377619Y-69137142D01*
X174472857Y-69184761D01*
X174615714Y-69184761D01*
X174710952Y-69137142D01*
X174758571Y-69089523D01*
X174806190Y-68994285D01*
X174806190Y-68613333D01*
X174282380Y-69470476D02*
X175282380Y-69803809D01*
X174282380Y-70137142D01*
X174377619Y-70422857D02*
X174330000Y-70470476D01*
X174282380Y-70565714D01*
X174282380Y-70803809D01*
X174330000Y-70899047D01*
X174377619Y-70946666D01*
X174472857Y-70994285D01*
X174568095Y-70994285D01*
X174710952Y-70946666D01*
X175282380Y-70375238D01*
X175282380Y-70994285D01*
X160782380Y-75323333D02*
X160782380Y-74751904D01*
X160782380Y-75037619D02*
X159782380Y-75037619D01*
X159925238Y-74942380D01*
X160020476Y-74847142D01*
X160068095Y-74751904D01*
X159782380Y-75942380D02*
X159782380Y-76037619D01*
X159830000Y-76132857D01*
X159877619Y-76180476D01*
X159972857Y-76228095D01*
X160163333Y-76275714D01*
X160401428Y-76275714D01*
X160591904Y-76228095D01*
X160687142Y-76180476D01*
X160734761Y-76132857D01*
X160782380Y-76037619D01*
X160782380Y-75942380D01*
X160734761Y-75847142D01*
X160687142Y-75799523D01*
X160591904Y-75751904D01*
X160401428Y-75704285D01*
X160163333Y-75704285D01*
X159972857Y-75751904D01*
X159877619Y-75799523D01*
X159830000Y-75847142D01*
X159782380Y-75942380D01*
X159782380Y-76894761D02*
X159782380Y-76990000D01*
X159830000Y-77085238D01*
X159877619Y-77132857D01*
X159972857Y-77180476D01*
X160163333Y-77228095D01*
X160401428Y-77228095D01*
X160591904Y-77180476D01*
X160687142Y-77132857D01*
X160734761Y-77085238D01*
X160782380Y-76990000D01*
X160782380Y-76894761D01*
X160734761Y-76799523D01*
X160687142Y-76751904D01*
X160591904Y-76704285D01*
X160401428Y-76656666D01*
X160163333Y-76656666D01*
X159972857Y-76704285D01*
X159877619Y-76751904D01*
X159830000Y-76799523D01*
X159782380Y-76894761D01*
X160782380Y-77656666D02*
X159782380Y-77656666D01*
X160782380Y-78228095D02*
X160210952Y-77799523D01*
X159782380Y-78228095D02*
X160353809Y-77656666D01*
%TO.C,RV1*%
X175232380Y-45452261D02*
X174756190Y-45118928D01*
X175232380Y-44880833D02*
X174232380Y-44880833D01*
X174232380Y-45261785D01*
X174280000Y-45357023D01*
X174327619Y-45404642D01*
X174422857Y-45452261D01*
X174565714Y-45452261D01*
X174660952Y-45404642D01*
X174708571Y-45357023D01*
X174756190Y-45261785D01*
X174756190Y-44880833D01*
X174232380Y-45737976D02*
X175232380Y-46071309D01*
X174232380Y-46404642D01*
X175232380Y-47261785D02*
X175232380Y-46690357D01*
X175232380Y-46976071D02*
X174232380Y-46976071D01*
X174375238Y-46880833D01*
X174470476Y-46785595D01*
X174518095Y-46690357D01*
X160732380Y-51590833D02*
X160732380Y-51019404D01*
X160732380Y-51305119D02*
X159732380Y-51305119D01*
X159875238Y-51209880D01*
X159970476Y-51114642D01*
X160018095Y-51019404D01*
X159732380Y-52209880D02*
X159732380Y-52305119D01*
X159780000Y-52400357D01*
X159827619Y-52447976D01*
X159922857Y-52495595D01*
X160113333Y-52543214D01*
X160351428Y-52543214D01*
X160541904Y-52495595D01*
X160637142Y-52447976D01*
X160684761Y-52400357D01*
X160732380Y-52305119D01*
X160732380Y-52209880D01*
X160684761Y-52114642D01*
X160637142Y-52067023D01*
X160541904Y-52019404D01*
X160351428Y-51971785D01*
X160113333Y-51971785D01*
X159922857Y-52019404D01*
X159827619Y-52067023D01*
X159780000Y-52114642D01*
X159732380Y-52209880D01*
X159732380Y-53162261D02*
X159732380Y-53257500D01*
X159780000Y-53352738D01*
X159827619Y-53400357D01*
X159922857Y-53447976D01*
X160113333Y-53495595D01*
X160351428Y-53495595D01*
X160541904Y-53447976D01*
X160637142Y-53400357D01*
X160684761Y-53352738D01*
X160732380Y-53257500D01*
X160732380Y-53162261D01*
X160684761Y-53067023D01*
X160637142Y-53019404D01*
X160541904Y-52971785D01*
X160351428Y-52924166D01*
X160113333Y-52924166D01*
X159922857Y-52971785D01*
X159827619Y-53019404D01*
X159780000Y-53067023D01*
X159732380Y-53162261D01*
X160732380Y-53924166D02*
X159732380Y-53924166D01*
X160732380Y-54495595D02*
X160160952Y-54067023D01*
X159732380Y-54495595D02*
X160303809Y-53924166D01*
%TD*%
M02*
