%TF.GenerationSoftware,KiCad,Pcbnew,5.1.7*%
%TF.CreationDate,2020-11-08T18:38:21+01:00*%
%TF.ProjectId,AS3320-VCF,41533333-3230-42d5-9643-462e6b696361,rev?*%
%TF.SameCoordinates,Original*%
%TF.FileFunction,Soldermask,Bot*%
%TF.FilePolarity,Negative*%
%FSLAX46Y46*%
G04 Gerber Fmt 4.6, Leading zero omitted, Abs format (unit mm)*
G04 Created by KiCad (PCBNEW 5.1.7) date 2020-11-08 18:38:21*
%MOMM*%
%LPD*%
G01*
G04 APERTURE LIST*
%ADD10O,7.500000X3.300000*%
%ADD11O,1.700000X1.700000*%
%ADD12O,2.820000X3.340000*%
%ADD13C,1.900000*%
%ADD14C,1.700000*%
%ADD15C,2.230000*%
%ADD16C,2.100000*%
%ADD17O,1.800000X1.800000*%
G04 APERTURE END LIST*
D10*
%TO.C,TOP_RIGHT_MOUNT*%
X165970000Y-28770000D03*
%TD*%
%TO.C,TOP_LEFT_MOUNT*%
X109200000Y-28770000D03*
%TD*%
%TO.C,BOTTOM_LEFT_MOUNT*%
X109060000Y-153840000D03*
%TD*%
%TO.C,BOTTOM_RIGHT_MOUNT*%
X166090000Y-153980000D03*
%TD*%
D11*
%TO.C,U1*%
X126780000Y-54830000D03*
X147100000Y-62450000D03*
X129320000Y-54830000D03*
X144560000Y-62450000D03*
X131860000Y-54830000D03*
X142020000Y-62450000D03*
X134400000Y-54830000D03*
X139480000Y-62450000D03*
X136940000Y-54830000D03*
X136940000Y-62450000D03*
X139480000Y-54830000D03*
X134400000Y-62450000D03*
X142020000Y-54830000D03*
X131860000Y-62450000D03*
X144560000Y-54830000D03*
X129320000Y-62450000D03*
X147100000Y-54830000D03*
G36*
G01*
X127580000Y-63300000D02*
X125980000Y-63300000D01*
G75*
G02*
X125930000Y-63250000I0J50000D01*
G01*
X125930000Y-61650000D01*
G75*
G02*
X125980000Y-61600000I50000J0D01*
G01*
X127580000Y-61600000D01*
G75*
G02*
X127630000Y-61650000I0J-50000D01*
G01*
X127630000Y-63250000D01*
G75*
G02*
X127580000Y-63300000I-50000J0D01*
G01*
G37*
%TD*%
D12*
%TO.C,RV2*%
X142940000Y-40100000D03*
X133340000Y-40100000D03*
D13*
X135640000Y-47600000D03*
X138140000Y-47600000D03*
G36*
G01*
X139690000Y-48500000D02*
X139690000Y-46700000D01*
G75*
G02*
X139740000Y-46650000I50000J0D01*
G01*
X141540000Y-46650000D01*
G75*
G02*
X141590000Y-46700000I0J-50000D01*
G01*
X141590000Y-48500000D01*
G75*
G02*
X141540000Y-48550000I-50000J0D01*
G01*
X139740000Y-48550000D01*
G75*
G02*
X139690000Y-48500000I0J50000D01*
G01*
G37*
%TD*%
D12*
%TO.C,RV1*%
X142810000Y-73750000D03*
X133210000Y-73750000D03*
D13*
X135510000Y-81250000D03*
X138010000Y-81250000D03*
G36*
G01*
X139560000Y-82150000D02*
X139560000Y-80350000D01*
G75*
G02*
X139610000Y-80300000I50000J0D01*
G01*
X141410000Y-80300000D01*
G75*
G02*
X141460000Y-80350000I0J-50000D01*
G01*
X141460000Y-82150000D01*
G75*
G02*
X141410000Y-82200000I-50000J0D01*
G01*
X139610000Y-82200000D01*
G75*
G02*
X139560000Y-82150000I0J50000D01*
G01*
G37*
%TD*%
D14*
%TO.C,R21*%
X158020000Y-127770000D03*
D11*
X168180000Y-127770000D03*
%TD*%
D14*
%TO.C,R20*%
X157955000Y-121306000D03*
D11*
X168115000Y-121306000D03*
%TD*%
D14*
%TO.C,R19*%
X157955000Y-114446000D03*
D11*
X168115000Y-114446000D03*
%TD*%
D14*
%TO.C,R18*%
X157955000Y-107466000D03*
D11*
X168115000Y-107466000D03*
%TD*%
D14*
%TO.C,R17*%
X158075000Y-100476000D03*
D11*
X168235000Y-100476000D03*
%TD*%
D14*
%TO.C,R16*%
X158075000Y-93496000D03*
D11*
X168235000Y-93496000D03*
%TD*%
D14*
%TO.C,R15*%
X158202000Y-85882000D03*
D11*
X168362000Y-85882000D03*
%TD*%
D14*
%TO.C,R14*%
X158360000Y-78820000D03*
D11*
X168520000Y-78820000D03*
%TD*%
D14*
%TO.C,R13*%
X158304000Y-71386000D03*
D11*
X168464000Y-71386000D03*
%TD*%
D14*
%TO.C,R12*%
X158360000Y-63590000D03*
D11*
X168520000Y-63590000D03*
%TD*%
D14*
%TO.C,R11*%
X158510000Y-56020000D03*
D11*
X168670000Y-56020000D03*
%TD*%
D14*
%TO.C,R10*%
X107150000Y-121970000D03*
D11*
X117310000Y-121970000D03*
%TD*%
D14*
%TO.C,R9*%
X107230000Y-115220000D03*
D11*
X117390000Y-115220000D03*
%TD*%
D14*
%TO.C,R8*%
X107230000Y-108380000D03*
D11*
X117390000Y-108380000D03*
%TD*%
D14*
%TO.C,R7*%
X107300000Y-101280000D03*
D11*
X117460000Y-101280000D03*
%TD*%
D14*
%TO.C,R6*%
X107300000Y-94150000D03*
D11*
X117460000Y-94150000D03*
%TD*%
D14*
%TO.C,R5*%
X107370000Y-86880000D03*
D11*
X117530000Y-86880000D03*
%TD*%
D14*
%TO.C,R4*%
X107380000Y-79680000D03*
D11*
X117540000Y-79680000D03*
%TD*%
D14*
%TO.C,R3*%
X107370000Y-72260000D03*
D11*
X117530000Y-72260000D03*
%TD*%
D14*
%TO.C,R2*%
X107408000Y-64638000D03*
D11*
X117568000Y-64638000D03*
%TD*%
D14*
%TO.C,R1*%
X107380000Y-56950000D03*
D11*
X117540000Y-56950000D03*
%TD*%
D15*
%TO.C,J4*%
X129880000Y-119350000D03*
G36*
G01*
X128865000Y-108865000D02*
X128865000Y-107035000D01*
G75*
G02*
X128915000Y-106985000I50000J0D01*
G01*
X130845000Y-106985000D01*
G75*
G02*
X130895000Y-107035000I0J-50000D01*
G01*
X130895000Y-108865000D01*
G75*
G02*
X130845000Y-108915000I-50000J0D01*
G01*
X128915000Y-108915000D01*
G75*
G02*
X128865000Y-108865000I0J50000D01*
G01*
G37*
X129880000Y-111050000D03*
%TD*%
%TO.C,J3*%
X147490000Y-92810000D03*
G36*
G01*
X146475000Y-90625000D02*
X146475000Y-88795000D01*
G75*
G02*
X146525000Y-88745000I50000J0D01*
G01*
X148455000Y-88745000D01*
G75*
G02*
X148505000Y-88795000I0J-50000D01*
G01*
X148505000Y-90625000D01*
G75*
G02*
X148455000Y-90675000I-50000J0D01*
G01*
X146525000Y-90675000D01*
G75*
G02*
X146475000Y-90625000I0J50000D01*
G01*
G37*
X147490000Y-101110000D03*
%TD*%
%TO.C,J2*%
X129880000Y-101110000D03*
G36*
G01*
X128865000Y-90625000D02*
X128865000Y-88795000D01*
G75*
G02*
X128915000Y-88745000I50000J0D01*
G01*
X130845000Y-88745000D01*
G75*
G02*
X130895000Y-88795000I0J-50000D01*
G01*
X130895000Y-90625000D01*
G75*
G02*
X130845000Y-90675000I-50000J0D01*
G01*
X128915000Y-90675000D01*
G75*
G02*
X128865000Y-90625000I0J50000D01*
G01*
G37*
X129880000Y-92810000D03*
%TD*%
%TO.C,J1*%
X147160000Y-119270000D03*
G36*
G01*
X146145000Y-108785000D02*
X146145000Y-106955000D01*
G75*
G02*
X146195000Y-106905000I50000J0D01*
G01*
X148125000Y-106905000D01*
G75*
G02*
X148175000Y-106955000I0J-50000D01*
G01*
X148175000Y-108785000D01*
G75*
G02*
X148125000Y-108835000I-50000J0D01*
G01*
X146195000Y-108835000D01*
G75*
G02*
X146145000Y-108785000I0J50000D01*
G01*
G37*
X147160000Y-110970000D03*
%TD*%
D13*
%TO.C,D1*%
X111220000Y-41440000D03*
G36*
G01*
X114710000Y-40540000D02*
X114710000Y-42340000D01*
G75*
G02*
X114660000Y-42390000I-50000J0D01*
G01*
X112860000Y-42390000D01*
G75*
G02*
X112810000Y-42340000I0J50000D01*
G01*
X112810000Y-40540000D01*
G75*
G02*
X112860000Y-40490000I50000J0D01*
G01*
X114660000Y-40490000D01*
G75*
G02*
X114710000Y-40540000I0J-50000D01*
G01*
G37*
%TD*%
D14*
%TO.C,C5*%
X140480000Y-128670000D03*
G36*
G01*
X137130000Y-129470000D02*
X137130000Y-127870000D01*
G75*
G02*
X137180000Y-127820000I50000J0D01*
G01*
X138780000Y-127820000D01*
G75*
G02*
X138830000Y-127870000I0J-50000D01*
G01*
X138830000Y-129470000D01*
G75*
G02*
X138780000Y-129520000I-50000J0D01*
G01*
X137180000Y-129520000D01*
G75*
G02*
X137130000Y-129470000I0J50000D01*
G01*
G37*
%TD*%
D16*
%TO.C,C4*%
X161034000Y-137900000D03*
X156034000Y-137900000D03*
%TD*%
%TO.C,C3*%
X151138000Y-146012000D03*
X146138000Y-146012000D03*
%TD*%
%TO.C,C2*%
X151188000Y-137892000D03*
X146188000Y-137892000D03*
%TD*%
%TO.C,C1*%
X160984000Y-146020000D03*
X155984000Y-146020000D03*
%TD*%
D17*
%TO.C,J5*%
X162490000Y-38740000D03*
X165030000Y-38740000D03*
X162490000Y-41280000D03*
X165030000Y-41280000D03*
X162490000Y-43820000D03*
X165030000Y-43820000D03*
X162490000Y-46360000D03*
X165030000Y-46360000D03*
X162490000Y-48900000D03*
G36*
G01*
X165930000Y-48050000D02*
X165930000Y-49750000D01*
G75*
G02*
X165880000Y-49800000I-50000J0D01*
G01*
X164180000Y-49800000D01*
G75*
G02*
X164130000Y-49750000I0J50000D01*
G01*
X164130000Y-48050000D01*
G75*
G02*
X164180000Y-48000000I50000J0D01*
G01*
X165880000Y-48000000D01*
G75*
G02*
X165930000Y-48050000I0J-50000D01*
G01*
G37*
%TD*%
D14*
%TO.C,C7*%
X151570000Y-45410000D03*
G36*
G01*
X154920000Y-44610000D02*
X154920000Y-46210000D01*
G75*
G02*
X154870000Y-46260000I-50000J0D01*
G01*
X153270000Y-46260000D01*
G75*
G02*
X153220000Y-46210000I0J50000D01*
G01*
X153220000Y-44610000D01*
G75*
G02*
X153270000Y-44560000I50000J0D01*
G01*
X154870000Y-44560000D01*
G75*
G02*
X154920000Y-44610000I0J-50000D01*
G01*
G37*
%TD*%
%TO.C,C6*%
X147140000Y-128690000D03*
G36*
G01*
X150490000Y-127890000D02*
X150490000Y-129490000D01*
G75*
G02*
X150440000Y-129540000I-50000J0D01*
G01*
X148840000Y-129540000D01*
G75*
G02*
X148790000Y-129490000I0J50000D01*
G01*
X148790000Y-127890000D01*
G75*
G02*
X148840000Y-127840000I50000J0D01*
G01*
X150440000Y-127840000D01*
G75*
G02*
X150490000Y-127890000I0J-50000D01*
G01*
G37*
%TD*%
M02*
