%TF.GenerationSoftware,KiCad,Pcbnew,5.1.7*%
%TF.CreationDate,2020-10-24T15:52:28+02:00*%
%TF.ProjectId,AS3320-VCF,41533333-3230-42d5-9643-462e6b696361,rev?*%
%TF.SameCoordinates,Original*%
%TF.FileFunction,Copper,L1,Top*%
%TF.FilePolarity,Positive*%
%FSLAX46Y46*%
G04 Gerber Fmt 4.6, Leading zero omitted, Abs format (unit mm)*
G04 Created by KiCad (PCBNEW 5.1.7) date 2020-10-24 15:52:28*
%MOMM*%
%LPD*%
G01*
G04 APERTURE LIST*
%TA.AperFunction,ComponentPad*%
%ADD10C,2.130000*%
%TD*%
%TA.AperFunction,ComponentPad*%
%ADD11R,1.930000X1.830000*%
%TD*%
%TA.AperFunction,ComponentPad*%
%ADD12C,1.600000*%
%TD*%
%TA.AperFunction,ComponentPad*%
%ADD13O,1.600000X1.600000*%
%TD*%
%TA.AperFunction,ComponentPad*%
%ADD14C,1.800000*%
%TD*%
%TA.AperFunction,ComponentPad*%
%ADD15R,1.800000X1.800000*%
%TD*%
%TA.AperFunction,ComponentPad*%
%ADD16R,1.600000X1.600000*%
%TD*%
%TA.AperFunction,SMDPad,CuDef*%
%ADD17R,4.000000X4.000000*%
%TD*%
%TA.AperFunction,ComponentPad*%
%ADD18O,2.720000X3.240000*%
%TD*%
%TA.AperFunction,ComponentPad*%
%ADD19C,2.000000*%
%TD*%
%TA.AperFunction,Conductor*%
%ADD20C,0.250000*%
%TD*%
G04 APERTURE END LIST*
D10*
%TO.P,J4,T*%
%TO.N,/SIGNAL_OUTPUT*%
X185910000Y-103740000D03*
D11*
%TO.P,J4,S*%
%TO.N,GND*%
X185910000Y-92340000D03*
D10*
%TO.P,J4,TN*%
%TO.N,N/C*%
X185910000Y-95440000D03*
%TD*%
%TO.P,J3,T*%
%TO.N,/FREQ_CTRL_INPUT*%
X185910000Y-76990000D03*
D11*
%TO.P,J3,S*%
%TO.N,GND*%
X185910000Y-65590000D03*
D10*
%TO.P,J3,TN*%
%TO.N,N/C*%
X185910000Y-68690000D03*
%TD*%
%TO.P,J2,T*%
%TO.N,/RESONANCE_CTRL_INPUT*%
X185340000Y-51660000D03*
D11*
%TO.P,J2,S*%
%TO.N,GND*%
X185340000Y-40260000D03*
D10*
%TO.P,J2,TN*%
%TO.N,N/C*%
X185340000Y-43360000D03*
%TD*%
%TO.P,J1,T*%
%TO.N,/SIGNAL_INPUT*%
X186080000Y-121340000D03*
D11*
%TO.P,J1,S*%
%TO.N,GND*%
X186080000Y-109940000D03*
D10*
%TO.P,J1,TN*%
%TO.N,N/C*%
X186080000Y-113040000D03*
%TD*%
D12*
%TO.P,R21,1*%
%TO.N,Net-(D1-Pad2)*%
X167680000Y-59510000D03*
D13*
%TO.P,R21,2*%
%TO.N,+12V*%
X177840000Y-59510000D03*
%TD*%
D14*
%TO.P,D1,2*%
%TO.N,Net-(D1-Pad2)*%
X160380000Y-59050000D03*
D15*
%TO.P,D1,1*%
%TO.N,GND*%
X162920000Y-59050000D03*
%TD*%
D13*
%TO.P,U1,18*%
%TO.N,Net-(R17-Pad1)*%
X172050000Y-84180000D03*
%TO.P,U1,9*%
%TO.N,Net-(R8-Pad1)*%
X164430000Y-104500000D03*
%TO.P,U1,17*%
%TO.N,Net-(R15-Pad1)*%
X172050000Y-86720000D03*
%TO.P,U1,8*%
%TO.N,/VRES*%
X164430000Y-101960000D03*
%TO.P,U1,16*%
%TO.N,Net-(C2-Pad1)*%
X172050000Y-89260000D03*
%TO.P,U1,7*%
%TO.N,/OUT1*%
X164430000Y-99420000D03*
%TO.P,U1,15*%
%TO.N,/OUT3*%
X172050000Y-91800000D03*
%TO.P,U1,6*%
%TO.N,/OUT2*%
X164430000Y-96880000D03*
%TO.P,U1,14*%
%TO.N,+12V*%
X172050000Y-94340000D03*
%TO.P,U1,5*%
%TO.N,Net-(C3-Pad2)*%
X164430000Y-94340000D03*
%TO.P,U1,13*%
%TO.N,Net-(R19-Pad1)*%
X172050000Y-96880000D03*
%TO.P,U1,4*%
%TO.N,Net-(C1-Pad2)*%
X164430000Y-91800000D03*
%TO.P,U1,12*%
%TO.N,Net-(R10-Pad2)*%
X172050000Y-99420000D03*
%TO.P,U1,3*%
%TO.N,GND*%
X164430000Y-89260000D03*
%TO.P,U1,11*%
%TO.N,Net-(C4-Pad1)*%
X172050000Y-101960000D03*
%TO.P,U1,2*%
%TO.N,Net-(R13-Pad1)*%
X164430000Y-86720000D03*
%TO.P,U1,10*%
%TO.N,/OUT4*%
X172050000Y-104500000D03*
D16*
%TO.P,U1,1*%
%TO.N,Net-(R11-Pad1)*%
X164430000Y-84180000D03*
%TD*%
D17*
%TO.P,TP7,1*%
%TO.N,/SIGNAL_OUTPUT*%
X144840000Y-120880000D03*
%TD*%
%TO.P,TP6,1*%
%TO.N,/SIGNAL_INPUT*%
X135560000Y-121050000D03*
%TD*%
%TO.P,TP5,1*%
%TO.N,/FREQ_CTRL_INPUT*%
X185670000Y-84940000D03*
%TD*%
%TO.P,TP4,1*%
%TO.N,-12V*%
X153840000Y-40190000D03*
%TD*%
%TO.P,TP3,1*%
%TO.N,GND*%
X142980000Y-40320000D03*
%TD*%
%TO.P,TP2,1*%
%TO.N,+12V*%
X131870000Y-40190000D03*
%TD*%
%TO.P,TP1,1*%
%TO.N,/RESONANCE_CTRL_INPUT*%
X185580000Y-59440000D03*
%TD*%
D18*
%TO.P,RV2,*%
%TO.N,*%
X172490000Y-68990000D03*
X162890000Y-68990000D03*
D14*
%TO.P,RV2,3*%
%TO.N,Net-(R7-Pad1)*%
X165190000Y-76490000D03*
%TO.P,RV2,2*%
%TO.N,/FREQ_CTRL_INPUT*%
X167690000Y-76490000D03*
D15*
%TO.P,RV2,1*%
%TO.N,Net-(R3-Pad1)*%
X170190000Y-76490000D03*
%TD*%
D18*
%TO.P,RV1,*%
%TO.N,*%
X172440000Y-45257500D03*
X162840000Y-45257500D03*
D14*
%TO.P,RV1,3*%
%TO.N,Net-(R1-Pad2)*%
X165140000Y-52757500D03*
%TO.P,RV1,2*%
%TO.N,/RESONANCE_CTRL_INPUT*%
X167640000Y-52757500D03*
D15*
%TO.P,RV1,1*%
%TO.N,Net-(R2-Pad2)*%
X170140000Y-52757500D03*
%TD*%
D12*
%TO.P,R7,1*%
%TO.N,Net-(R7-Pad1)*%
X130100000Y-91490000D03*
D13*
%TO.P,R7,2*%
%TO.N,+12V*%
X140260000Y-91490000D03*
%TD*%
D12*
%TO.P,R3,1*%
%TO.N,Net-(R3-Pad1)*%
X130170000Y-62470000D03*
D13*
%TO.P,R3,2*%
%TO.N,-12V*%
X140330000Y-62470000D03*
%TD*%
D12*
%TO.P,R2,1*%
%TO.N,+12V*%
X130208000Y-54848000D03*
D13*
%TO.P,R2,2*%
%TO.N,Net-(R2-Pad2)*%
X140368000Y-54848000D03*
%TD*%
D12*
%TO.P,R1,1*%
%TO.N,-12V*%
X130180000Y-47160000D03*
D13*
%TO.P,R1,2*%
%TO.N,Net-(R1-Pad2)*%
X140340000Y-47160000D03*
%TD*%
D12*
%TO.P,C5,2*%
%TO.N,/SIGNAL_OUTPUT*%
X155230000Y-121170000D03*
D16*
%TO.P,C5,1*%
%TO.N,/OUT4*%
X152730000Y-121170000D03*
%TD*%
D19*
%TO.P,C1,2*%
%TO.N,Net-(C1-Pad2)*%
X176544000Y-121750000D03*
%TO.P,C1,1*%
%TO.N,GND*%
X171544000Y-121750000D03*
%TD*%
%TO.P,C2,2*%
%TO.N,GND*%
X166748000Y-113622000D03*
%TO.P,C2,1*%
%TO.N,Net-(C2-Pad1)*%
X161748000Y-113622000D03*
%TD*%
%TO.P,C3,2*%
%TO.N,Net-(C3-Pad2)*%
X166698000Y-121742000D03*
%TO.P,C3,1*%
%TO.N,GND*%
X161698000Y-121742000D03*
%TD*%
%TO.P,C4,2*%
%TO.N,GND*%
X176594000Y-113630000D03*
%TO.P,C4,1*%
%TO.N,Net-(C4-Pad1)*%
X171594000Y-113630000D03*
%TD*%
D12*
%TO.P,R9,1*%
%TO.N,Net-(R10-Pad2)*%
X130030000Y-105430000D03*
D13*
%TO.P,R9,2*%
%TO.N,/FREQ_CTRL_INPUT*%
X140190000Y-105430000D03*
%TD*%
D12*
%TO.P,R4,1*%
%TO.N,Net-(R13-Pad1)*%
X130180000Y-69890000D03*
D13*
%TO.P,R4,2*%
%TO.N,-12V*%
X140340000Y-69890000D03*
%TD*%
D12*
%TO.P,R5,1*%
%TO.N,Net-(R15-Pad1)*%
X130170000Y-77090000D03*
D13*
%TO.P,R5,2*%
%TO.N,-12V*%
X140330000Y-77090000D03*
%TD*%
D12*
%TO.P,R6,1*%
%TO.N,Net-(R17-Pad1)*%
X130100000Y-84360000D03*
D13*
%TO.P,R6,2*%
%TO.N,-12V*%
X140260000Y-84360000D03*
%TD*%
D12*
%TO.P,R8,1*%
%TO.N,Net-(R8-Pad1)*%
X130030000Y-98590000D03*
D13*
%TO.P,R8,2*%
%TO.N,/RESONANCE_CTRL_INPUT*%
X140190000Y-98590000D03*
%TD*%
D12*
%TO.P,R10,1*%
%TO.N,GND*%
X129950000Y-112180000D03*
D13*
%TO.P,R10,2*%
%TO.N,Net-(R10-Pad2)*%
X140110000Y-112180000D03*
%TD*%
D12*
%TO.P,R11,1*%
%TO.N,Net-(R11-Pad1)*%
X145550000Y-47020000D03*
D13*
%TO.P,R11,2*%
%TO.N,/SIGNAL_INPUT*%
X155710000Y-47020000D03*
%TD*%
D12*
%TO.P,R12,1*%
%TO.N,Net-(R11-Pad1)*%
X145400000Y-54590000D03*
D13*
%TO.P,R12,2*%
%TO.N,/OUT1*%
X155560000Y-54590000D03*
%TD*%
D12*
%TO.P,R13,1*%
%TO.N,Net-(R13-Pad1)*%
X145344000Y-62386000D03*
D13*
%TO.P,R13,2*%
%TO.N,/OUT1*%
X155504000Y-62386000D03*
%TD*%
D12*
%TO.P,R14,1*%
%TO.N,Net-(R13-Pad1)*%
X145400000Y-69820000D03*
D13*
%TO.P,R14,2*%
%TO.N,/OUT2*%
X155560000Y-69820000D03*
%TD*%
D12*
%TO.P,R15,1*%
%TO.N,Net-(R15-Pad1)*%
X145242000Y-76882000D03*
D13*
%TO.P,R15,2*%
%TO.N,/OUT2*%
X155402000Y-76882000D03*
%TD*%
D12*
%TO.P,R16,1*%
%TO.N,Net-(R15-Pad1)*%
X145115000Y-84496000D03*
D13*
%TO.P,R16,2*%
%TO.N,/OUT3*%
X155275000Y-84496000D03*
%TD*%
D12*
%TO.P,R17,1*%
%TO.N,Net-(R17-Pad1)*%
X145115000Y-91476000D03*
D13*
%TO.P,R17,2*%
%TO.N,/OUT3*%
X155275000Y-91476000D03*
%TD*%
D12*
%TO.P,R18,1*%
%TO.N,Net-(R17-Pad1)*%
X144995000Y-98466000D03*
D13*
%TO.P,R18,2*%
%TO.N,/OUT4*%
X155155000Y-98466000D03*
%TD*%
D12*
%TO.P,R19,1*%
%TO.N,Net-(R19-Pad1)*%
X144995000Y-105446000D03*
D13*
%TO.P,R19,2*%
%TO.N,-12V*%
X155155000Y-105446000D03*
%TD*%
D12*
%TO.P,R20,1*%
%TO.N,/SIGNAL_OUTPUT*%
X144995000Y-112306000D03*
D13*
%TO.P,R20,2*%
%TO.N,/VRES*%
X155155000Y-112306000D03*
%TD*%
D20*
%TO.N,GND*%
X186080000Y-109940000D02*
X186080000Y-108699700D01*
X186080000Y-108699700D02*
X187301900Y-107477800D01*
X187301900Y-107477800D02*
X187301900Y-94817200D01*
X187301900Y-94817200D02*
X186065000Y-93580300D01*
X186065000Y-93580300D02*
X185910000Y-93580300D01*
X176594000Y-113630000D02*
X180284000Y-109940000D01*
X180284000Y-109940000D02*
X186080000Y-109940000D01*
X185910000Y-92340000D02*
X185910000Y-93580300D01*
X185502300Y-89617200D02*
X188013400Y-87106100D01*
X188013400Y-87106100D02*
X188013400Y-68778700D01*
X188013400Y-68778700D02*
X186065000Y-66830300D01*
X186065000Y-66830300D02*
X185910000Y-66830300D01*
X165555300Y-89260000D02*
X166680600Y-88134700D01*
X166680600Y-88134700D02*
X184019800Y-88134700D01*
X184019800Y-88134700D02*
X185502300Y-89617200D01*
X185910000Y-91099700D02*
X185502300Y-90692000D01*
X185502300Y-90692000D02*
X185502300Y-89617200D01*
X185910000Y-65590000D02*
X185910000Y-66830300D01*
X164430000Y-89260000D02*
X165555300Y-89260000D01*
X185910000Y-92340000D02*
X185910000Y-91099700D01*
X162920000Y-59050000D02*
X164145300Y-59050000D01*
X164145300Y-59050000D02*
X170685300Y-65590000D01*
X170685300Y-65590000D02*
X185910000Y-65590000D01*
X185340000Y-40260000D02*
X185340000Y-39019700D01*
X142980000Y-40320000D02*
X145305300Y-40320000D01*
X145305300Y-40320000D02*
X147760700Y-37864600D01*
X147760700Y-37864600D02*
X184184900Y-37864600D01*
X184184900Y-37864600D02*
X185340000Y-39019700D01*
X161698000Y-121742000D02*
X163049900Y-123093900D01*
X163049900Y-123093900D02*
X170200100Y-123093900D01*
X170200100Y-123093900D02*
X171544000Y-121750000D01*
%TO.N,Net-(C2-Pad1)*%
X161748000Y-113622000D02*
X164532000Y-113622000D01*
X164532000Y-113622000D02*
X173627000Y-104527000D01*
X173627000Y-104527000D02*
X173627000Y-91680900D01*
X173627000Y-91680900D02*
X172331400Y-90385300D01*
X172331400Y-90385300D02*
X172050000Y-90385300D01*
X172050000Y-89260000D02*
X172050000Y-90385300D01*
%TO.N,/OUT4*%
X172050000Y-104500000D02*
X172050000Y-103374700D01*
X155155000Y-98466000D02*
X156280300Y-98466000D01*
X156280300Y-98466000D02*
X156458100Y-98288200D01*
X156458100Y-98288200D02*
X172542200Y-98288200D01*
X172542200Y-98288200D02*
X173175300Y-98921300D01*
X173175300Y-98921300D02*
X173175300Y-102530800D01*
X173175300Y-102530800D02*
X172331400Y-103374700D01*
X172331400Y-103374700D02*
X172050000Y-103374700D01*
%TO.N,-12V*%
X134422600Y-51402600D02*
X130180000Y-47160000D01*
X140330000Y-62470000D02*
X140330000Y-57310000D01*
X140330000Y-57310000D02*
X134422600Y-51402600D01*
X134422600Y-51402600D02*
X141543000Y-44282200D01*
X141543000Y-44282200D02*
X147422500Y-44282200D01*
X147422500Y-44282200D02*
X151514700Y-40190000D01*
X153840000Y-40190000D02*
X151514700Y-40190000D01*
%TO.N,+12V*%
X172050000Y-94340000D02*
X170924700Y-94340000D01*
X140260000Y-91490000D02*
X141385300Y-91490000D01*
X141385300Y-91490000D02*
X143110000Y-93214700D01*
X143110000Y-93214700D02*
X169799400Y-93214700D01*
X169799400Y-93214700D02*
X170924700Y-94340000D01*
X130208000Y-54848000D02*
X129025900Y-53665900D01*
X129025900Y-53665900D02*
X129025900Y-45359400D01*
X129025900Y-45359400D02*
X131870000Y-42515300D01*
X131870000Y-40190000D02*
X131870000Y-42515300D01*
%TO.N,/OUT3*%
X172050000Y-91800000D02*
X170924700Y-91800000D01*
X155275000Y-91476000D02*
X156400300Y-91476000D01*
X156400300Y-91476000D02*
X157201600Y-90674700D01*
X157201600Y-90674700D02*
X169799400Y-90674700D01*
X169799400Y-90674700D02*
X170924700Y-91800000D01*
%TO.N,/OUT1*%
X155560000Y-54590000D02*
X155560000Y-55715300D01*
X155504000Y-62386000D02*
X155504000Y-55771300D01*
X155504000Y-55771300D02*
X155560000Y-55715300D01*
%TO.N,Net-(R13-Pad1)*%
X130180000Y-69890000D02*
X131308200Y-68761800D01*
X131308200Y-68761800D02*
X144341800Y-68761800D01*
X144341800Y-68761800D02*
X145400000Y-69820000D01*
%TO.N,Net-(R15-Pad1)*%
X172050000Y-86720000D02*
X172050000Y-85594700D01*
X145115000Y-84496000D02*
X146558000Y-83053000D01*
X146558000Y-83053000D02*
X172532500Y-83053000D01*
X172532500Y-83053000D02*
X173175300Y-83695800D01*
X173175300Y-83695800D02*
X173175300Y-84750800D01*
X173175300Y-84750800D02*
X172331400Y-85594700D01*
X172331400Y-85594700D02*
X172050000Y-85594700D01*
X145242000Y-76882000D02*
X144286600Y-75926600D01*
X144286600Y-75926600D02*
X131333400Y-75926600D01*
X131333400Y-75926600D02*
X130170000Y-77090000D01*
%TO.N,/FREQ_CTRL_INPUT*%
X185670000Y-84940000D02*
X185670000Y-82614700D01*
X185127000Y-77773000D02*
X185910000Y-76990000D01*
X167690000Y-76490000D02*
X168973000Y-77773000D01*
X168973000Y-77773000D02*
X185127000Y-77773000D01*
X185670000Y-82614700D02*
X185127000Y-82071700D01*
X185127000Y-82071700D02*
X185127000Y-77773000D01*
X140190000Y-104304700D02*
X139017300Y-103132000D01*
X139017300Y-103132000D02*
X139017300Y-88971500D01*
X139017300Y-88971500D02*
X149036900Y-78951900D01*
X149036900Y-78951900D02*
X165228100Y-78951900D01*
X165228100Y-78951900D02*
X167690000Y-76490000D01*
X140190000Y-105430000D02*
X140190000Y-104304700D01*
%TO.N,Net-(R2-Pad2)*%
X170140000Y-52757500D02*
X168914700Y-52757500D01*
X140368000Y-54848000D02*
X141493300Y-54848000D01*
X141493300Y-54848000D02*
X142939700Y-53401600D01*
X142939700Y-53401600D02*
X156104100Y-53401600D01*
X156104100Y-53401600D02*
X156685300Y-53982800D01*
X156685300Y-53982800D02*
X168149000Y-53982800D01*
X168149000Y-53982800D02*
X168914700Y-53217100D01*
X168914700Y-53217100D02*
X168914700Y-52757500D01*
%TO.N,Net-(R17-Pad1)*%
X172050000Y-84180000D02*
X170924700Y-84180000D01*
X145115000Y-91476000D02*
X150877000Y-85714000D01*
X150877000Y-85714000D02*
X159521200Y-85714000D01*
X159521200Y-85714000D02*
X159929900Y-85305300D01*
X159929900Y-85305300D02*
X169799400Y-85305300D01*
X169799400Y-85305300D02*
X170924700Y-84180000D01*
%TO.N,/SIGNAL_OUTPUT*%
X155230000Y-121170000D02*
X160165700Y-116234300D01*
X160165700Y-116234300D02*
X166091000Y-116234300D01*
X166091000Y-116234300D02*
X178585300Y-103740000D01*
X178585300Y-103740000D02*
X185910000Y-103740000D01*
X147165300Y-120880000D02*
X148580700Y-122295400D01*
X148580700Y-122295400D02*
X154104600Y-122295400D01*
X154104600Y-122295400D02*
X155230000Y-121170000D01*
X144840000Y-120880000D02*
X144840000Y-118554700D01*
X144995000Y-112306000D02*
X144995000Y-118399700D01*
X144995000Y-118399700D02*
X144840000Y-118554700D01*
X144840000Y-120880000D02*
X147165300Y-120880000D01*
%TO.N,/SIGNAL_INPUT*%
X135560000Y-121050000D02*
X137885300Y-121050000D01*
X186080000Y-121340000D02*
X183873000Y-123547000D01*
X183873000Y-123547000D02*
X140382300Y-123547000D01*
X140382300Y-123547000D02*
X137885300Y-121050000D01*
%TO.N,Net-(R1-Pad2)*%
X140340000Y-47160000D02*
X141465300Y-47160000D01*
X141465300Y-47160000D02*
X147062800Y-52757500D01*
X147062800Y-52757500D02*
X165140000Y-52757500D01*
%TO.N,Net-(R3-Pad1)*%
X170190000Y-76490000D02*
X168964700Y-76490000D01*
X130170000Y-62470000D02*
X134805300Y-67105300D01*
X134805300Y-67105300D02*
X158344000Y-67105300D01*
X158344000Y-67105300D02*
X166503400Y-75264700D01*
X166503400Y-75264700D02*
X168199000Y-75264700D01*
X168199000Y-75264700D02*
X168964700Y-76030400D01*
X168964700Y-76030400D02*
X168964700Y-76490000D01*
%TO.N,Net-(R7-Pad1)*%
X130100000Y-91490000D02*
X143213600Y-78376400D01*
X143213600Y-78376400D02*
X163303600Y-78376400D01*
X163303600Y-78376400D02*
X165190000Y-76490000D01*
%TO.N,Net-(R8-Pad1)*%
X164430000Y-104500000D02*
X163304700Y-104500000D01*
X130030000Y-98590000D02*
X138034700Y-106594700D01*
X138034700Y-106594700D02*
X161210000Y-106594700D01*
X161210000Y-106594700D02*
X163304700Y-104500000D01*
%TO.N,Net-(R10-Pad2)*%
X172050000Y-99420000D02*
X170924700Y-99420000D01*
X140110000Y-112180000D02*
X141235300Y-112180000D01*
X141235300Y-112180000D02*
X142360600Y-111054700D01*
X142360600Y-111054700D02*
X159571300Y-111054700D01*
X159571300Y-111054700D02*
X170924700Y-99701300D01*
X170924700Y-99701300D02*
X170924700Y-99420000D01*
%TO.N,Net-(R19-Pad1)*%
X172050000Y-96880000D02*
X170924700Y-96880000D01*
X144995000Y-105446000D02*
X154686300Y-95754700D01*
X154686300Y-95754700D02*
X169799400Y-95754700D01*
X169799400Y-95754700D02*
X170924700Y-96880000D01*
%TO.N,Net-(D1-Pad2)*%
X160380000Y-59050000D02*
X161605400Y-57824600D01*
X161605400Y-57824600D02*
X165994600Y-57824600D01*
X165994600Y-57824600D02*
X167680000Y-59510000D01*
%TO.N,/RESONANCE_CTRL_INPUT*%
X185340000Y-51660000D02*
X185580000Y-51900000D01*
X185580000Y-51900000D02*
X185580000Y-59440000D01*
X167640000Y-52757500D02*
X168904900Y-51492600D01*
X168904900Y-51492600D02*
X185172600Y-51492600D01*
X185172600Y-51492600D02*
X185340000Y-51660000D01*
%TD*%
M02*
