%TF.GenerationSoftware,KiCad,Pcbnew,5.1.7*%
%TF.CreationDate,2020-11-08T18:38:21+01:00*%
%TF.ProjectId,AS3320-VCF,41533333-3230-42d5-9643-462e6b696361,rev?*%
%TF.SameCoordinates,Original*%
%TF.FileFunction,Copper,L2,Bot*%
%TF.FilePolarity,Positive*%
%FSLAX46Y46*%
G04 Gerber Fmt 4.6, Leading zero omitted, Abs format (unit mm)*
G04 Created by KiCad (PCBNEW 5.1.7) date 2020-11-08 18:38:21*
%MOMM*%
%LPD*%
G01*
G04 APERTURE LIST*
%TA.AperFunction,ComponentPad*%
%ADD10O,1.600000X1.600000*%
%TD*%
%TA.AperFunction,ComponentPad*%
%ADD11R,1.600000X1.600000*%
%TD*%
%TA.AperFunction,ComponentPad*%
%ADD12O,2.720000X3.240000*%
%TD*%
%TA.AperFunction,ComponentPad*%
%ADD13C,1.800000*%
%TD*%
%TA.AperFunction,ComponentPad*%
%ADD14R,1.800000X1.800000*%
%TD*%
%TA.AperFunction,ComponentPad*%
%ADD15C,1.600000*%
%TD*%
%TA.AperFunction,ComponentPad*%
%ADD16C,2.130000*%
%TD*%
%TA.AperFunction,ComponentPad*%
%ADD17R,1.930000X1.830000*%
%TD*%
%TA.AperFunction,ComponentPad*%
%ADD18C,2.000000*%
%TD*%
%TA.AperFunction,ComponentPad*%
%ADD19O,1.700000X1.700000*%
%TD*%
%TA.AperFunction,ComponentPad*%
%ADD20R,1.700000X1.700000*%
%TD*%
%TA.AperFunction,ViaPad*%
%ADD21C,0.800000*%
%TD*%
%TA.AperFunction,Conductor*%
%ADD22C,0.250000*%
%TD*%
G04 APERTURE END LIST*
D10*
%TO.P,U1,18*%
%TO.N,Net-(R17-Pad1)*%
X126780000Y-54830000D03*
%TO.P,U1,9*%
%TO.N,Net-(R8-Pad1)*%
X147100000Y-62450000D03*
%TO.P,U1,17*%
%TO.N,Net-(R15-Pad1)*%
X129320000Y-54830000D03*
%TO.P,U1,8*%
%TO.N,/VRES*%
X144560000Y-62450000D03*
%TO.P,U1,16*%
%TO.N,Net-(C2-Pad1)*%
X131860000Y-54830000D03*
%TO.P,U1,7*%
%TO.N,/OUT1*%
X142020000Y-62450000D03*
%TO.P,U1,15*%
%TO.N,/OUT3*%
X134400000Y-54830000D03*
%TO.P,U1,6*%
%TO.N,/OUT2*%
X139480000Y-62450000D03*
%TO.P,U1,14*%
%TO.N,+12V*%
X136940000Y-54830000D03*
%TO.P,U1,5*%
%TO.N,Net-(C3-Pad2)*%
X136940000Y-62450000D03*
%TO.P,U1,13*%
%TO.N,Net-(R19-Pad1)*%
X139480000Y-54830000D03*
%TO.P,U1,4*%
%TO.N,Net-(C1-Pad2)*%
X134400000Y-62450000D03*
%TO.P,U1,12*%
%TO.N,Net-(R10-Pad2)*%
X142020000Y-54830000D03*
%TO.P,U1,3*%
%TO.N,GND*%
X131860000Y-62450000D03*
%TO.P,U1,11*%
%TO.N,Net-(C4-Pad1)*%
X144560000Y-54830000D03*
%TO.P,U1,2*%
%TO.N,Net-(R13-Pad1)*%
X129320000Y-62450000D03*
%TO.P,U1,10*%
%TO.N,/OUT4*%
X147100000Y-54830000D03*
D11*
%TO.P,U1,1*%
%TO.N,Net-(R11-Pad1)*%
X126780000Y-62450000D03*
%TD*%
D12*
%TO.P,RV2,*%
%TO.N,*%
X142940000Y-40100000D03*
X133340000Y-40100000D03*
D13*
%TO.P,RV2,3*%
%TO.N,Net-(R7-Pad1)*%
X135640000Y-47600000D03*
%TO.P,RV2,2*%
%TO.N,/FREQ_CTRL_INPUT*%
X138140000Y-47600000D03*
D14*
%TO.P,RV2,1*%
%TO.N,Net-(R3-Pad1)*%
X140640000Y-47600000D03*
%TD*%
D12*
%TO.P,RV1,*%
%TO.N,*%
X142810000Y-73750000D03*
X133210000Y-73750000D03*
D13*
%TO.P,RV1,3*%
%TO.N,Net-(R1-Pad2)*%
X135510000Y-81250000D03*
%TO.P,RV1,2*%
%TO.N,/RESONANCE_CTRL_INPUT*%
X138010000Y-81250000D03*
D14*
%TO.P,RV1,1*%
%TO.N,Net-(R2-Pad2)*%
X140510000Y-81250000D03*
%TD*%
D15*
%TO.P,R21,1*%
%TO.N,Net-(D1-Pad2)*%
X158020000Y-127770000D03*
D10*
%TO.P,R21,2*%
%TO.N,+12V*%
X168180000Y-127770000D03*
%TD*%
D15*
%TO.P,R20,1*%
%TO.N,/SIGNAL_OUTPUT*%
X157955000Y-121306000D03*
D10*
%TO.P,R20,2*%
%TO.N,/VRES*%
X168115000Y-121306000D03*
%TD*%
D15*
%TO.P,R19,1*%
%TO.N,Net-(R19-Pad1)*%
X157955000Y-114446000D03*
D10*
%TO.P,R19,2*%
%TO.N,-12V*%
X168115000Y-114446000D03*
%TD*%
D15*
%TO.P,R18,1*%
%TO.N,Net-(R17-Pad1)*%
X157955000Y-107466000D03*
D10*
%TO.P,R18,2*%
%TO.N,/OUT4*%
X168115000Y-107466000D03*
%TD*%
D15*
%TO.P,R17,1*%
%TO.N,Net-(R17-Pad1)*%
X158075000Y-100476000D03*
D10*
%TO.P,R17,2*%
%TO.N,/OUT3*%
X168235000Y-100476000D03*
%TD*%
D15*
%TO.P,R16,1*%
%TO.N,Net-(R15-Pad1)*%
X158075000Y-93496000D03*
D10*
%TO.P,R16,2*%
%TO.N,/OUT3*%
X168235000Y-93496000D03*
%TD*%
D15*
%TO.P,R15,1*%
%TO.N,Net-(R15-Pad1)*%
X158202000Y-85882000D03*
D10*
%TO.P,R15,2*%
%TO.N,/OUT2*%
X168362000Y-85882000D03*
%TD*%
D15*
%TO.P,R14,1*%
%TO.N,Net-(R13-Pad1)*%
X158360000Y-78820000D03*
D10*
%TO.P,R14,2*%
%TO.N,/OUT2*%
X168520000Y-78820000D03*
%TD*%
D15*
%TO.P,R13,1*%
%TO.N,Net-(R13-Pad1)*%
X158304000Y-71386000D03*
D10*
%TO.P,R13,2*%
%TO.N,/OUT1*%
X168464000Y-71386000D03*
%TD*%
D15*
%TO.P,R12,1*%
%TO.N,Net-(R11-Pad1)*%
X158360000Y-63590000D03*
D10*
%TO.P,R12,2*%
%TO.N,/OUT1*%
X168520000Y-63590000D03*
%TD*%
D15*
%TO.P,R11,1*%
%TO.N,Net-(R11-Pad1)*%
X158510000Y-56020000D03*
D10*
%TO.P,R11,2*%
%TO.N,/SIGNAL_INPUT*%
X168670000Y-56020000D03*
%TD*%
D15*
%TO.P,R10,1*%
%TO.N,GND*%
X107150000Y-121970000D03*
D10*
%TO.P,R10,2*%
%TO.N,Net-(R10-Pad2)*%
X117310000Y-121970000D03*
%TD*%
D15*
%TO.P,R9,1*%
%TO.N,Net-(R10-Pad2)*%
X107230000Y-115220000D03*
D10*
%TO.P,R9,2*%
%TO.N,/FREQ_CTRL_INPUT*%
X117390000Y-115220000D03*
%TD*%
D15*
%TO.P,R8,1*%
%TO.N,Net-(R8-Pad1)*%
X107230000Y-108380000D03*
D10*
%TO.P,R8,2*%
%TO.N,/RESONANCE_CTRL_INPUT*%
X117390000Y-108380000D03*
%TD*%
D15*
%TO.P,R7,1*%
%TO.N,Net-(R7-Pad1)*%
X107300000Y-101280000D03*
D10*
%TO.P,R7,2*%
%TO.N,+12V*%
X117460000Y-101280000D03*
%TD*%
D15*
%TO.P,R6,1*%
%TO.N,Net-(R17-Pad1)*%
X107300000Y-94150000D03*
D10*
%TO.P,R6,2*%
%TO.N,-12V*%
X117460000Y-94150000D03*
%TD*%
D15*
%TO.P,R5,1*%
%TO.N,Net-(R15-Pad1)*%
X107370000Y-86880000D03*
D10*
%TO.P,R5,2*%
%TO.N,-12V*%
X117530000Y-86880000D03*
%TD*%
D15*
%TO.P,R4,1*%
%TO.N,Net-(R13-Pad1)*%
X107380000Y-79680000D03*
D10*
%TO.P,R4,2*%
%TO.N,-12V*%
X117540000Y-79680000D03*
%TD*%
D15*
%TO.P,R3,1*%
%TO.N,Net-(R3-Pad1)*%
X107370000Y-72260000D03*
D10*
%TO.P,R3,2*%
%TO.N,-12V*%
X117530000Y-72260000D03*
%TD*%
D15*
%TO.P,R2,1*%
%TO.N,+12V*%
X107408000Y-64638000D03*
D10*
%TO.P,R2,2*%
%TO.N,Net-(R2-Pad2)*%
X117568000Y-64638000D03*
%TD*%
D15*
%TO.P,R1,1*%
%TO.N,-12V*%
X107380000Y-56950000D03*
D10*
%TO.P,R1,2*%
%TO.N,Net-(R1-Pad2)*%
X117540000Y-56950000D03*
%TD*%
D16*
%TO.P,J4,T*%
%TO.N,/SIGNAL_OUTPUT*%
X129880000Y-119350000D03*
D17*
%TO.P,J4,S*%
%TO.N,GND*%
X129880000Y-107950000D03*
D16*
%TO.P,J4,TN*%
%TO.N,N/C*%
X129880000Y-111050000D03*
%TD*%
%TO.P,J3,TN*%
%TO.N,N/C*%
X147490000Y-92810000D03*
D17*
%TO.P,J3,S*%
%TO.N,GND*%
X147490000Y-89710000D03*
D16*
%TO.P,J3,T*%
%TO.N,/FREQ_CTRL_INPUT*%
X147490000Y-101110000D03*
%TD*%
%TO.P,J2,T*%
%TO.N,/RESONANCE_CTRL_INPUT*%
X129880000Y-101110000D03*
D17*
%TO.P,J2,S*%
%TO.N,GND*%
X129880000Y-89710000D03*
D16*
%TO.P,J2,TN*%
%TO.N,N/C*%
X129880000Y-92810000D03*
%TD*%
%TO.P,J1,T*%
%TO.N,/SIGNAL_INPUT*%
X147160000Y-119270000D03*
D17*
%TO.P,J1,S*%
%TO.N,GND*%
X147160000Y-107870000D03*
D16*
%TO.P,J1,TN*%
%TO.N,N/C*%
X147160000Y-110970000D03*
%TD*%
D13*
%TO.P,D1,2*%
%TO.N,Net-(D1-Pad2)*%
X111220000Y-41440000D03*
D14*
%TO.P,D1,1*%
%TO.N,GND*%
X113760000Y-41440000D03*
%TD*%
D15*
%TO.P,C5,2*%
%TO.N,/SIGNAL_OUTPUT*%
X140480000Y-128670000D03*
D11*
%TO.P,C5,1*%
%TO.N,/OUT4*%
X137980000Y-128670000D03*
%TD*%
D18*
%TO.P,C4,2*%
%TO.N,GND*%
X161034000Y-137900000D03*
%TO.P,C4,1*%
%TO.N,Net-(C4-Pad1)*%
X156034000Y-137900000D03*
%TD*%
%TO.P,C3,2*%
%TO.N,Net-(C3-Pad2)*%
X151138000Y-146012000D03*
%TO.P,C3,1*%
%TO.N,GND*%
X146138000Y-146012000D03*
%TD*%
%TO.P,C2,2*%
%TO.N,GND*%
X151188000Y-137892000D03*
%TO.P,C2,1*%
%TO.N,Net-(C2-Pad1)*%
X146188000Y-137892000D03*
%TD*%
%TO.P,C1,2*%
%TO.N,Net-(C1-Pad2)*%
X160984000Y-146020000D03*
%TO.P,C1,1*%
%TO.N,GND*%
X155984000Y-146020000D03*
%TD*%
D19*
%TO.P,J5,10*%
%TO.N,-12V*%
X162490000Y-38740000D03*
%TO.P,J5,9*%
X165030000Y-38740000D03*
%TO.P,J5,8*%
%TO.N,GND*%
X162490000Y-41280000D03*
%TO.P,J5,7*%
X165030000Y-41280000D03*
%TO.P,J5,6*%
X162490000Y-43820000D03*
%TO.P,J5,5*%
X165030000Y-43820000D03*
%TO.P,J5,4*%
X162490000Y-46360000D03*
%TO.P,J5,3*%
X165030000Y-46360000D03*
%TO.P,J5,2*%
%TO.N,+12V*%
X162490000Y-48900000D03*
D20*
%TO.P,J5,1*%
X165030000Y-48900000D03*
%TD*%
D15*
%TO.P,C7,2*%
%TO.N,+12V*%
X151570000Y-45410000D03*
D11*
%TO.P,C7,1*%
%TO.N,GND*%
X154070000Y-45410000D03*
%TD*%
D15*
%TO.P,C6,2*%
%TO.N,GND*%
X147140000Y-128690000D03*
D11*
%TO.P,C6,1*%
%TO.N,-12V*%
X149640000Y-128690000D03*
%TD*%
D21*
%TO.N,Net-(D1-Pad2)*%
X142812700Y-135428900D03*
%TD*%
D22*
%TO.N,GND*%
X131860000Y-63575300D02*
X136760000Y-68475300D01*
X136760000Y-68475300D02*
X136760000Y-81744700D01*
X136760000Y-81744700D02*
X130035000Y-88469700D01*
X130035000Y-88469700D02*
X129880000Y-88469700D01*
X130734700Y-54248500D02*
X130734700Y-60199400D01*
X130734700Y-60199400D02*
X131860000Y-61324700D01*
X152944700Y-45410000D02*
X152944700Y-45691300D01*
X152944700Y-45691300D02*
X152055900Y-46580100D01*
X152055900Y-46580100D02*
X145082200Y-46580100D01*
X145082200Y-46580100D02*
X144849800Y-46347700D01*
X144849800Y-46347700D02*
X137630100Y-46347700D01*
X137630100Y-46347700D02*
X136914600Y-47063200D01*
X136914600Y-47063200D02*
X136914600Y-48068600D01*
X136914600Y-48068600D02*
X130734700Y-54248500D01*
X130734700Y-54248500D02*
X117926200Y-41440000D01*
X117926200Y-41440000D02*
X113760000Y-41440000D01*
X131860000Y-62450000D02*
X131860000Y-61324700D01*
X154070000Y-45410000D02*
X152944700Y-45410000D01*
X131860000Y-62450000D02*
X131860000Y-63575300D01*
X129880000Y-89710000D02*
X129880000Y-88469700D01*
X147160000Y-107870000D02*
X147160000Y-106629700D01*
X147490000Y-89710000D02*
X147490000Y-90950300D01*
X147490000Y-90950300D02*
X147335000Y-90950300D01*
X147335000Y-90950300D02*
X146051200Y-92234100D01*
X146051200Y-92234100D02*
X146051200Y-105520900D01*
X146051200Y-105520900D02*
X147160000Y-106629700D01*
X147140000Y-128690000D02*
X145756300Y-127306300D01*
X145756300Y-127306300D02*
X145756300Y-110359000D01*
X145756300Y-110359000D02*
X147005000Y-109110300D01*
X147005000Y-109110300D02*
X147160000Y-109110300D01*
X151188000Y-137892000D02*
X147140000Y-133844000D01*
X147140000Y-133844000D02*
X147140000Y-128690000D01*
X129880000Y-107950000D02*
X129880000Y-106709700D01*
X129880000Y-89710000D02*
X129880000Y-90950300D01*
X129880000Y-90950300D02*
X129725000Y-90950300D01*
X129725000Y-90950300D02*
X128488200Y-92187100D01*
X128488200Y-92187100D02*
X128488200Y-105317900D01*
X128488200Y-105317900D02*
X129880000Y-106709700D01*
X147160000Y-107870000D02*
X147160000Y-109110300D01*
X165030000Y-43820000D02*
X165030000Y-41280000D01*
X165030000Y-46360000D02*
X165030000Y-43820000D01*
%TO.N,Net-(C1-Pad2)*%
X134400000Y-63575300D02*
X137302500Y-66477800D01*
X137302500Y-66477800D02*
X137302500Y-72782700D01*
X137302500Y-72782700D02*
X143800300Y-79280500D01*
X143800300Y-79280500D02*
X143800300Y-140549400D01*
X143800300Y-140549400D02*
X150614200Y-147363300D01*
X150614200Y-147363300D02*
X159640700Y-147363300D01*
X159640700Y-147363300D02*
X160984000Y-146020000D01*
X134400000Y-62450000D02*
X134400000Y-63575300D01*
%TO.N,Net-(C2-Pad1)*%
X146188000Y-137892000D02*
X144780600Y-136484600D01*
X144780600Y-136484600D02*
X144780600Y-72825900D01*
X144780600Y-72825900D02*
X135670000Y-63715300D01*
X135670000Y-63715300D02*
X135670000Y-62101800D01*
X135670000Y-62101800D02*
X131860000Y-58291800D01*
X131860000Y-58291800D02*
X131860000Y-54830000D01*
%TO.N,Net-(C3-Pad2)*%
X151138000Y-146012000D02*
X151138000Y-139885000D01*
X151138000Y-139885000D02*
X145231000Y-133978000D01*
X145231000Y-133978000D02*
X145231000Y-71866300D01*
X145231000Y-71866300D02*
X136940000Y-63575300D01*
X136940000Y-62450000D02*
X136940000Y-63575300D01*
%TO.N,Net-(C4-Pad1)*%
X156034000Y-137900000D02*
X159212700Y-134721300D01*
X159212700Y-134721300D02*
X159212700Y-113079400D01*
X159212700Y-113079400D02*
X150904100Y-104770800D01*
X150904100Y-104770800D02*
X150904100Y-70594300D01*
X150904100Y-70594300D02*
X143434700Y-63124900D01*
X143434700Y-63124900D02*
X143434700Y-57080600D01*
X143434700Y-57080600D02*
X144560000Y-55955300D01*
X144560000Y-54830000D02*
X144560000Y-55955300D01*
%TO.N,/OUT4*%
X147100000Y-55955300D02*
X166166200Y-75021500D01*
X166166200Y-75021500D02*
X166166200Y-104391900D01*
X166166200Y-104391900D02*
X168115000Y-106340700D01*
X147100000Y-54830000D02*
X147100000Y-55955300D01*
X168115000Y-107466000D02*
X168115000Y-106340700D01*
%TO.N,-12V*%
X107380000Y-56950000D02*
X117530000Y-67100000D01*
X117530000Y-67100000D02*
X117530000Y-72260000D01*
X117530000Y-86880000D02*
X117530000Y-85754700D01*
X117530000Y-85754700D02*
X117540000Y-85744700D01*
X117540000Y-85744700D02*
X117540000Y-79680000D01*
%TO.N,+12V*%
X117460000Y-101280000D02*
X117460000Y-100154700D01*
X107408000Y-64638000D02*
X106244600Y-65801400D01*
X106244600Y-65801400D02*
X106244600Y-88939300D01*
X106244600Y-88939300D02*
X117460000Y-100154700D01*
X168180000Y-127770000D02*
X168180000Y-126644700D01*
X165030000Y-48900000D02*
X165030000Y-50075300D01*
X165030000Y-50075300D02*
X169844300Y-54889600D01*
X169844300Y-54889600D02*
X169844300Y-124980400D01*
X169844300Y-124980400D02*
X168180000Y-126644700D01*
%TO.N,/OUT2*%
X168520000Y-78820000D02*
X168520000Y-79945300D01*
X168520000Y-79945300D02*
X168362000Y-80103300D01*
X168362000Y-80103300D02*
X168362000Y-85882000D01*
%TO.N,/OUT3*%
X134400000Y-54830000D02*
X135525300Y-54830000D01*
X168235000Y-93496000D02*
X168235000Y-92370700D01*
X168235000Y-92370700D02*
X167109700Y-91245400D01*
X167109700Y-91245400D02*
X167109700Y-75328100D01*
X167109700Y-75328100D02*
X151312200Y-59530600D01*
X151312200Y-59530600D02*
X151312200Y-57436900D01*
X151312200Y-57436900D02*
X147580000Y-53704700D01*
X147580000Y-53704700D02*
X136369200Y-53704700D01*
X136369200Y-53704700D02*
X135525300Y-54548600D01*
X135525300Y-54548600D02*
X135525300Y-54830000D01*
X168235000Y-100476000D02*
X168235000Y-93496000D01*
%TO.N,/OUT1*%
X168520000Y-63590000D02*
X168520000Y-64715300D01*
X168520000Y-64715300D02*
X168464000Y-64771300D01*
X168464000Y-64771300D02*
X168464000Y-71386000D01*
%TO.N,Net-(R11-Pad1)*%
X158510000Y-56020000D02*
X158360000Y-56170000D01*
X158360000Y-56170000D02*
X158360000Y-63590000D01*
%TO.N,Net-(R13-Pad1)*%
X158360000Y-78820000D02*
X158360000Y-71442000D01*
X158360000Y-71442000D02*
X158304000Y-71386000D01*
%TO.N,Net-(R15-Pad1)*%
X129320000Y-54830000D02*
X128194700Y-54830000D01*
X107370000Y-86880000D02*
X118698400Y-75551600D01*
X118698400Y-75551600D02*
X118698400Y-59908600D01*
X118698400Y-59908600D02*
X116406800Y-57617000D01*
X116406800Y-57617000D02*
X116406800Y-56481400D01*
X116406800Y-56481400D02*
X117103500Y-55784700D01*
X117103500Y-55784700D02*
X126071100Y-55784700D01*
X126071100Y-55784700D02*
X126241700Y-55955300D01*
X126241700Y-55955300D02*
X127350800Y-55955300D01*
X127350800Y-55955300D02*
X128194700Y-55111400D01*
X128194700Y-55111400D02*
X128194700Y-54830000D01*
%TO.N,/FREQ_CTRL_INPUT*%
X147490000Y-101110000D02*
X148883400Y-99716600D01*
X148883400Y-99716600D02*
X148883400Y-73653600D01*
X148883400Y-73653600D02*
X138210000Y-62980200D01*
X138210000Y-62980200D02*
X138210000Y-61034600D01*
X138210000Y-61034600D02*
X133234500Y-56059100D01*
X133234500Y-56059100D02*
X133234500Y-52505500D01*
X133234500Y-52505500D02*
X138140000Y-47600000D01*
%TO.N,Net-(R17-Pad1)*%
X107300000Y-94150000D02*
X105782900Y-92632900D01*
X105782900Y-92632900D02*
X105782900Y-56938900D01*
X105782900Y-56938900D02*
X107891800Y-54830000D01*
X107891800Y-54830000D02*
X126780000Y-54830000D01*
%TO.N,/SIGNAL_OUTPUT*%
X140480000Y-128670000D02*
X131160000Y-119350000D01*
X131160000Y-119350000D02*
X129880000Y-119350000D01*
%TO.N,/VRES*%
X144560000Y-62450000D02*
X144560000Y-63575300D01*
X168115000Y-121306000D02*
X168115000Y-120180700D01*
X168115000Y-120180700D02*
X151354500Y-103420200D01*
X151354500Y-103420200D02*
X151354500Y-70369800D01*
X151354500Y-70369800D02*
X144560000Y-63575300D01*
%TO.N,Net-(R1-Pad2)*%
X117540000Y-56950000D02*
X117540000Y-58075300D01*
X117540000Y-58075300D02*
X130203800Y-70739100D01*
X130203800Y-70739100D02*
X130203800Y-75943800D01*
X130203800Y-75943800D02*
X135510000Y-81250000D01*
%TO.N,Net-(R10-Pad2)*%
X107230000Y-115220000D02*
X113980000Y-121970000D01*
X113980000Y-121970000D02*
X117310000Y-121970000D01*
%TO.N,Net-(R19-Pad1)*%
X157955000Y-114446000D02*
X150453700Y-106944700D01*
X150453700Y-106944700D02*
X150453700Y-74054000D01*
X150453700Y-74054000D02*
X140605300Y-64205600D01*
X140605300Y-64205600D02*
X140605300Y-57080600D01*
X140605300Y-57080600D02*
X139480000Y-55955300D01*
X139480000Y-54830000D02*
X139480000Y-55955300D01*
%TO.N,Net-(D1-Pad2)*%
X111220000Y-41440000D02*
X105332500Y-47327500D01*
X105332500Y-47327500D02*
X105332500Y-93794400D01*
X105332500Y-93794400D02*
X128248600Y-116710500D01*
X128248600Y-116710500D02*
X128248600Y-121006100D01*
X128248600Y-121006100D02*
X142671400Y-135428900D01*
X142671400Y-135428900D02*
X142812700Y-135428900D01*
%TO.N,/RESONANCE_CTRL_INPUT*%
X129880000Y-101110000D02*
X138010000Y-92980000D01*
X138010000Y-92980000D02*
X138010000Y-81250000D01*
%TD*%
M02*
