M48
; DRILL file {KiCad 5.1.7} date Sun Nov  8 18:38:23 2020
; FORMAT={-:-/ absolute / inch / decimal}
; #@! TF.CreationDate,2020-11-08T18:38:23+01:00
; #@! TF.GenerationSoftware,Kicad,Pcbnew,5.1.7
; #@! TF.FileFunction,Plated,1,2,PTH
FMAT,2
INCH
T1C0.0157
T2C0.0315
T3C0.0354
T4C0.0394
T5C0.0433
T6C0.0480
T7C0.0559
T8C0.0563
%
G90
G05
T1
X5.6225Y-5.3318
T2
X4.2276Y-2.2421
X4.6276Y-2.2421
X6.2187Y-4.2309
X6.6187Y-4.2309
X6.2187Y-4.7758
X6.6187Y-4.7758
X4.2244Y-3.7067
X4.6244Y-3.7067
X4.2287Y-2.5448
X4.6287Y-2.5448
X6.2346Y-3.1031
X6.6346Y-3.1031
X4.2272Y-3.4205
X4.6272Y-3.4205
X4.2244Y-3.9874
X4.6244Y-3.9874
X6.2406Y-2.2055
X6.6406Y-2.2055
X5.9673Y-1.7878
X6.0657Y-1.7878
X4.9913Y-2.1587
X4.9913Y-2.4587
X5.0913Y-2.1587
X5.0913Y-2.4587
X5.1913Y-2.1587
X5.1913Y-2.4587
X5.2913Y-2.1587
X5.2913Y-2.4587
X5.3913Y-2.1587
X5.3913Y-2.4587
X5.4913Y-2.1587
X5.4913Y-2.4587
X5.5913Y-2.1587
X5.5913Y-2.4587
X5.6913Y-2.1587
X5.6913Y-2.4587
X5.7913Y-2.1587
X5.7913Y-2.4587
X4.2185Y-4.802
X4.6185Y-4.802
X5.4323Y-5.0657
X5.5307Y-5.0657
X5.7929Y-5.0665
X5.8913Y-5.0665
X4.2276Y-3.137
X4.6276Y-3.137
X4.2272Y-2.8449
X4.6272Y-2.8449
X6.2234Y-3.9557
X6.6234Y-3.9557
X6.2284Y-3.3812
X6.6284Y-3.3812
X6.2324Y-2.8105
X6.6324Y-2.8105
X4.2217Y-4.5362
X4.6217Y-4.5362
X6.2346Y-2.5035
X6.6346Y-2.5035
X6.2234Y-3.6809
X6.6234Y-3.6809
X4.2217Y-4.2669
X4.6217Y-4.2669
X6.2187Y-4.5057
X6.6187Y-4.5057
X6.2213Y-5.0303
X6.6213Y-5.0303
T3
X4.3787Y-1.6315
X4.4787Y-1.6315
T4
X6.1431Y-5.4291
X6.3399Y-5.4291
X5.335Y-3.1988
X5.4335Y-3.1988
X5.5319Y-3.1988
X5.3402Y-1.874
X5.4386Y-1.874
X5.537Y-1.874
X6.3972Y-1.5252
X6.3972Y-1.6252
X6.3972Y-1.7252
X6.3972Y-1.8252
X6.3972Y-1.9252
X6.4972Y-1.5252
X6.4972Y-1.6252
X6.4972Y-1.7252
X6.4972Y-1.8252
X6.4972Y-1.9252
X6.1411Y-5.7488
X6.338Y-5.7488
X5.7554Y-5.4288
X5.9523Y-5.4288
X5.7535Y-5.7485
X5.9503Y-5.7485
T6
X5.1134Y-3.5319
X5.7937Y-4.2469
X5.8067Y-3.5319
X5.1134Y-4.25
T7
X5.1134Y-3.6539
X5.7937Y-4.3689
X5.8067Y-3.6539
X5.1134Y-4.372
T8
X5.1134Y-3.9807
X5.7937Y-4.6957
X5.8067Y-3.9807
X5.1134Y-4.6988
T5
G00X5.2445Y-2.8898
M15
G01X5.2445Y-2.9173
M16
G05
G00X5.6224Y-2.8898
M15
G01X5.6224Y-2.9173
M16
G05
G00X5.2496Y-1.565
M15
G01X5.2496Y-1.5925
M16
G05
G00X5.6276Y-1.565
M15
G01X5.6276Y-1.5925
M16
G05
T0
M30
