%TF.GenerationSoftware,KiCad,Pcbnew,5.1.8*%
%TF.CreationDate,2020-12-17T16:54:15+01:00*%
%TF.ProjectId,AS3320-VCF,41533333-3230-42d5-9643-462e6b696361,1*%
%TF.SameCoordinates,Original*%
%TF.FileFunction,Legend,Bot*%
%TF.FilePolarity,Positive*%
%FSLAX46Y46*%
G04 Gerber Fmt 4.6, Leading zero omitted, Abs format (unit mm)*
G04 Created by KiCad (PCBNEW 5.1.8) date 2020-12-17 16:54:15*
%MOMM*%
%LPD*%
G01*
G04 APERTURE LIST*
%ADD10C,0.120000*%
%ADD11C,0.150000*%
G04 APERTURE END LIST*
D10*
%TO.C,RV6*%
X144176000Y-46872000D02*
X145006000Y-46872000D01*
X146626000Y-46872000D02*
X147156000Y-46872000D01*
X149526000Y-46872000D02*
X150706000Y-46872000D01*
X140966000Y-46872000D02*
X140966000Y-42152000D01*
X150706000Y-38342000D02*
X150706000Y-35282000D01*
X150716000Y-46872000D02*
X150716000Y-42152000D01*
X140966000Y-38342000D02*
X140966000Y-35282000D01*
X140966000Y-46872000D02*
X142456000Y-46872000D01*
X140966000Y-35282000D02*
X150706000Y-35282000D01*
%TO.C,RV5*%
X144176000Y-62874000D02*
X145006000Y-62874000D01*
X146626000Y-62874000D02*
X147156000Y-62874000D01*
X149526000Y-62874000D02*
X150706000Y-62874000D01*
X140966000Y-62874000D02*
X140966000Y-58154000D01*
X150706000Y-54344000D02*
X150706000Y-51284000D01*
X150716000Y-62874000D02*
X150716000Y-58154000D01*
X140966000Y-54344000D02*
X140966000Y-51284000D01*
X140966000Y-62874000D02*
X142456000Y-62874000D01*
X140966000Y-51284000D02*
X150706000Y-51284000D01*
%TO.C,RES*%
X116328000Y-56110000D02*
X126068000Y-56110000D01*
X116328000Y-67700000D02*
X117818000Y-67700000D01*
X116328000Y-59170000D02*
X116328000Y-56110000D01*
X126078000Y-67700000D02*
X126078000Y-62980000D01*
X126068000Y-59170000D02*
X126068000Y-56110000D01*
X116328000Y-67700000D02*
X116328000Y-62980000D01*
X124888000Y-67700000D02*
X126068000Y-67700000D01*
X121988000Y-67700000D02*
X122518000Y-67700000D01*
X119538000Y-67700000D02*
X120368000Y-67700000D01*
%TO.C,FREQ*%
X116074000Y-35282000D02*
X125814000Y-35282000D01*
X116074000Y-46872000D02*
X117564000Y-46872000D01*
X116074000Y-38342000D02*
X116074000Y-35282000D01*
X125824000Y-46872000D02*
X125824000Y-42152000D01*
X125814000Y-38342000D02*
X125814000Y-35282000D01*
X116074000Y-46872000D02*
X116074000Y-42152000D01*
X124634000Y-46872000D02*
X125814000Y-46872000D01*
X121734000Y-46872000D02*
X122264000Y-46872000D01*
X119284000Y-46872000D02*
X120114000Y-46872000D01*
%TO.C,RV2*%
X116582000Y-85574000D02*
X126322000Y-85574000D01*
X116582000Y-97164000D02*
X118072000Y-97164000D01*
X116582000Y-88634000D02*
X116582000Y-85574000D01*
X126332000Y-97164000D02*
X126332000Y-92444000D01*
X126322000Y-88634000D02*
X126322000Y-85574000D01*
X116582000Y-97164000D02*
X116582000Y-92444000D01*
X125142000Y-97164000D02*
X126322000Y-97164000D01*
X122242000Y-97164000D02*
X122772000Y-97164000D01*
X119792000Y-97164000D02*
X120622000Y-97164000D01*
%TO.C,RV1*%
X131822000Y-112752000D02*
X141562000Y-112752000D01*
X131822000Y-124342000D02*
X133312000Y-124342000D01*
X131822000Y-115812000D02*
X131822000Y-112752000D01*
X141572000Y-124342000D02*
X141572000Y-119622000D01*
X141562000Y-115812000D02*
X141562000Y-112752000D01*
X131822000Y-124342000D02*
X131822000Y-119622000D01*
X140382000Y-124342000D02*
X141562000Y-124342000D01*
X137482000Y-124342000D02*
X138012000Y-124342000D01*
X135032000Y-124342000D02*
X135862000Y-124342000D01*
%TO.C,J8*%
X116006000Y-136346000D02*
X116006000Y-146846000D01*
X107006000Y-136346000D02*
X107006000Y-146846000D01*
X107006000Y-146846000D02*
X111006000Y-146846000D01*
X112006000Y-146846000D02*
X116006000Y-146846000D01*
X107006000Y-136346000D02*
X111156000Y-136346000D01*
X111856000Y-136346000D02*
X116006000Y-136346000D01*
X113306000Y-140846000D02*
G75*
G03*
X113306000Y-140846000I-1800000J0D01*
G01*
X112566000Y-133366000D02*
X112566000Y-134166000D01*
X112566000Y-133366000D02*
X111706000Y-133366000D01*
%TO.C,J6*%
X135680000Y-83836000D02*
X134820000Y-83836000D01*
X135680000Y-83836000D02*
X135680000Y-84636000D01*
X136420000Y-91316000D02*
G75*
G03*
X136420000Y-91316000I-1800000J0D01*
G01*
X134970000Y-86816000D02*
X139120000Y-86816000D01*
X130120000Y-86816000D02*
X134270000Y-86816000D01*
X135120000Y-97316000D02*
X139120000Y-97316000D01*
X130120000Y-97316000D02*
X134120000Y-97316000D01*
X130120000Y-86816000D02*
X130120000Y-97316000D01*
X139120000Y-86816000D02*
X139120000Y-97316000D01*
%TO.C,J5*%
X167568000Y-136346000D02*
X167568000Y-146846000D01*
X158568000Y-136346000D02*
X158568000Y-146846000D01*
X158568000Y-146846000D02*
X162568000Y-146846000D01*
X163568000Y-146846000D02*
X167568000Y-146846000D01*
X158568000Y-136346000D02*
X162718000Y-136346000D01*
X163418000Y-136346000D02*
X167568000Y-136346000D01*
X164868000Y-140846000D02*
G75*
G03*
X164868000Y-140846000I-1800000J0D01*
G01*
X164128000Y-133366000D02*
X164128000Y-134166000D01*
X164128000Y-133366000D02*
X163268000Y-133366000D01*
%TO.C,J4*%
X150666000Y-111014000D02*
X149806000Y-111014000D01*
X150666000Y-111014000D02*
X150666000Y-111814000D01*
X151406000Y-118494000D02*
G75*
G03*
X151406000Y-118494000I-1800000J0D01*
G01*
X149956000Y-113994000D02*
X154106000Y-113994000D01*
X145106000Y-113994000D02*
X149256000Y-113994000D01*
X150106000Y-124494000D02*
X154106000Y-124494000D01*
X145106000Y-124494000D02*
X149106000Y-124494000D01*
X145106000Y-113994000D02*
X145106000Y-124494000D01*
X154106000Y-113994000D02*
X154106000Y-124494000D01*
%TO.C,J3*%
X163504000Y-36778000D02*
X163504000Y-47278000D01*
X154504000Y-36778000D02*
X154504000Y-47278000D01*
X154504000Y-47278000D02*
X158504000Y-47278000D01*
X159504000Y-47278000D02*
X163504000Y-47278000D01*
X154504000Y-36778000D02*
X158654000Y-36778000D01*
X159354000Y-36778000D02*
X163504000Y-36778000D01*
X160804000Y-41278000D02*
G75*
G03*
X160804000Y-41278000I-1800000J0D01*
G01*
X160064000Y-33798000D02*
X160064000Y-34598000D01*
X160064000Y-33798000D02*
X159204000Y-33798000D01*
%TO.C,J2*%
X163504000Y-52526000D02*
X163504000Y-63026000D01*
X154504000Y-52526000D02*
X154504000Y-63026000D01*
X154504000Y-63026000D02*
X158504000Y-63026000D01*
X159504000Y-63026000D02*
X163504000Y-63026000D01*
X154504000Y-52526000D02*
X158654000Y-52526000D01*
X159354000Y-52526000D02*
X163504000Y-52526000D01*
X160804000Y-57026000D02*
G75*
G03*
X160804000Y-57026000I-1800000J0D01*
G01*
X160064000Y-49546000D02*
X160064000Y-50346000D01*
X160064000Y-49546000D02*
X159204000Y-49546000D01*
%TO.C,J1*%
X160064000Y-65548000D02*
X159204000Y-65548000D01*
X160064000Y-65548000D02*
X160064000Y-66348000D01*
X160804000Y-73028000D02*
G75*
G03*
X160804000Y-73028000I-1800000J0D01*
G01*
X159354000Y-68528000D02*
X163504000Y-68528000D01*
X154504000Y-68528000D02*
X158654000Y-68528000D01*
X159504000Y-79028000D02*
X163504000Y-79028000D01*
X154504000Y-79028000D02*
X158504000Y-79028000D01*
X154504000Y-68528000D02*
X154504000Y-79028000D01*
X163504000Y-68528000D02*
X163504000Y-79028000D01*
%TO.C,D1*%
X107965000Y-35945000D02*
X110250000Y-35945000D01*
X107965000Y-37415000D02*
X107965000Y-35945000D01*
X110250000Y-37415000D02*
X107965000Y-37415000D01*
%TO.C,RV6*%
D11*
X153428380Y-40446761D02*
X152952190Y-40113428D01*
X153428380Y-39875333D02*
X152428380Y-39875333D01*
X152428380Y-40256285D01*
X152476000Y-40351523D01*
X152523619Y-40399142D01*
X152618857Y-40446761D01*
X152761714Y-40446761D01*
X152856952Y-40399142D01*
X152904571Y-40351523D01*
X152952190Y-40256285D01*
X152952190Y-39875333D01*
X152428380Y-40732476D02*
X153428380Y-41065809D01*
X152428380Y-41399142D01*
X152428380Y-42161047D02*
X152428380Y-41970571D01*
X152476000Y-41875333D01*
X152523619Y-41827714D01*
X152666476Y-41732476D01*
X152856952Y-41684857D01*
X153237904Y-41684857D01*
X153333142Y-41732476D01*
X153380761Y-41780095D01*
X153428380Y-41875333D01*
X153428380Y-42065809D01*
X153380761Y-42161047D01*
X153333142Y-42208666D01*
X153237904Y-42256285D01*
X152999809Y-42256285D01*
X152904571Y-42208666D01*
X152856952Y-42161047D01*
X152809333Y-42065809D01*
X152809333Y-41875333D01*
X152856952Y-41780095D01*
X152904571Y-41732476D01*
X152999809Y-41684857D01*
X138928380Y-46585333D02*
X138928380Y-46013904D01*
X138928380Y-46299619D02*
X137928380Y-46299619D01*
X138071238Y-46204380D01*
X138166476Y-46109142D01*
X138214095Y-46013904D01*
X137928380Y-47204380D02*
X137928380Y-47299619D01*
X137976000Y-47394857D01*
X138023619Y-47442476D01*
X138118857Y-47490095D01*
X138309333Y-47537714D01*
X138547428Y-47537714D01*
X138737904Y-47490095D01*
X138833142Y-47442476D01*
X138880761Y-47394857D01*
X138928380Y-47299619D01*
X138928380Y-47204380D01*
X138880761Y-47109142D01*
X138833142Y-47061523D01*
X138737904Y-47013904D01*
X138547428Y-46966285D01*
X138309333Y-46966285D01*
X138118857Y-47013904D01*
X138023619Y-47061523D01*
X137976000Y-47109142D01*
X137928380Y-47204380D01*
X137928380Y-48156761D02*
X137928380Y-48252000D01*
X137976000Y-48347238D01*
X138023619Y-48394857D01*
X138118857Y-48442476D01*
X138309333Y-48490095D01*
X138547428Y-48490095D01*
X138737904Y-48442476D01*
X138833142Y-48394857D01*
X138880761Y-48347238D01*
X138928380Y-48252000D01*
X138928380Y-48156761D01*
X138880761Y-48061523D01*
X138833142Y-48013904D01*
X138737904Y-47966285D01*
X138547428Y-47918666D01*
X138309333Y-47918666D01*
X138118857Y-47966285D01*
X138023619Y-48013904D01*
X137976000Y-48061523D01*
X137928380Y-48156761D01*
X138928380Y-48918666D02*
X137928380Y-48918666D01*
X138928380Y-49490095D02*
X138356952Y-49061523D01*
X137928380Y-49490095D02*
X138499809Y-48918666D01*
%TO.C,RV5*%
X153428380Y-56448761D02*
X152952190Y-56115428D01*
X153428380Y-55877333D02*
X152428380Y-55877333D01*
X152428380Y-56258285D01*
X152476000Y-56353523D01*
X152523619Y-56401142D01*
X152618857Y-56448761D01*
X152761714Y-56448761D01*
X152856952Y-56401142D01*
X152904571Y-56353523D01*
X152952190Y-56258285D01*
X152952190Y-55877333D01*
X152428380Y-56734476D02*
X153428380Y-57067809D01*
X152428380Y-57401142D01*
X152428380Y-58210666D02*
X152428380Y-57734476D01*
X152904571Y-57686857D01*
X152856952Y-57734476D01*
X152809333Y-57829714D01*
X152809333Y-58067809D01*
X152856952Y-58163047D01*
X152904571Y-58210666D01*
X152999809Y-58258285D01*
X153237904Y-58258285D01*
X153333142Y-58210666D01*
X153380761Y-58163047D01*
X153428380Y-58067809D01*
X153428380Y-57829714D01*
X153380761Y-57734476D01*
X153333142Y-57686857D01*
X138928380Y-62587333D02*
X138928380Y-62015904D01*
X138928380Y-62301619D02*
X137928380Y-62301619D01*
X138071238Y-62206380D01*
X138166476Y-62111142D01*
X138214095Y-62015904D01*
X137928380Y-63206380D02*
X137928380Y-63301619D01*
X137976000Y-63396857D01*
X138023619Y-63444476D01*
X138118857Y-63492095D01*
X138309333Y-63539714D01*
X138547428Y-63539714D01*
X138737904Y-63492095D01*
X138833142Y-63444476D01*
X138880761Y-63396857D01*
X138928380Y-63301619D01*
X138928380Y-63206380D01*
X138880761Y-63111142D01*
X138833142Y-63063523D01*
X138737904Y-63015904D01*
X138547428Y-62968285D01*
X138309333Y-62968285D01*
X138118857Y-63015904D01*
X138023619Y-63063523D01*
X137976000Y-63111142D01*
X137928380Y-63206380D01*
X137928380Y-64158761D02*
X137928380Y-64254000D01*
X137976000Y-64349238D01*
X138023619Y-64396857D01*
X138118857Y-64444476D01*
X138309333Y-64492095D01*
X138547428Y-64492095D01*
X138737904Y-64444476D01*
X138833142Y-64396857D01*
X138880761Y-64349238D01*
X138928380Y-64254000D01*
X138928380Y-64158761D01*
X138880761Y-64063523D01*
X138833142Y-64015904D01*
X138737904Y-63968285D01*
X138547428Y-63920666D01*
X138309333Y-63920666D01*
X138118857Y-63968285D01*
X138023619Y-64015904D01*
X137976000Y-64063523D01*
X137928380Y-64158761D01*
X138928380Y-64920666D02*
X137928380Y-64920666D01*
X138928380Y-65492095D02*
X138356952Y-65063523D01*
X137928380Y-65492095D02*
X138499809Y-64920666D01*
%TO.C,RES*%
X121888095Y-54752761D02*
X122554761Y-53800380D01*
X123030952Y-54752761D02*
X123030952Y-52752761D01*
X122269047Y-52752761D01*
X122078571Y-52848000D01*
X121983333Y-52943238D01*
X121888095Y-53133714D01*
X121888095Y-53419428D01*
X121983333Y-53609904D01*
X122078571Y-53705142D01*
X122269047Y-53800380D01*
X123030952Y-53800380D01*
X121030952Y-53705142D02*
X120364285Y-53705142D01*
X120078571Y-54752761D02*
X121030952Y-54752761D01*
X121030952Y-52752761D01*
X120078571Y-52752761D01*
X119316666Y-54657523D02*
X119030952Y-54752761D01*
X118554761Y-54752761D01*
X118364285Y-54657523D01*
X118269047Y-54562285D01*
X118173809Y-54371809D01*
X118173809Y-54181333D01*
X118269047Y-53990857D01*
X118364285Y-53895619D01*
X118554761Y-53800380D01*
X118935714Y-53705142D01*
X119126190Y-53609904D01*
X119221428Y-53514666D01*
X119316666Y-53324190D01*
X119316666Y-53133714D01*
X119221428Y-52943238D01*
X119126190Y-52848000D01*
X118935714Y-52752761D01*
X118459523Y-52752761D01*
X118173809Y-52848000D01*
X114290380Y-66080000D02*
X114290380Y-65508571D01*
X114290380Y-65794285D02*
X113290380Y-65794285D01*
X113433238Y-65699047D01*
X113528476Y-65603809D01*
X113576095Y-65508571D01*
X113290380Y-66699047D02*
X113290380Y-66794285D01*
X113338000Y-66889523D01*
X113385619Y-66937142D01*
X113480857Y-66984761D01*
X113671333Y-67032380D01*
X113909428Y-67032380D01*
X114099904Y-66984761D01*
X114195142Y-66937142D01*
X114242761Y-66889523D01*
X114290380Y-66794285D01*
X114290380Y-66699047D01*
X114242761Y-66603809D01*
X114195142Y-66556190D01*
X114099904Y-66508571D01*
X113909428Y-66460952D01*
X113671333Y-66460952D01*
X113480857Y-66508571D01*
X113385619Y-66556190D01*
X113338000Y-66603809D01*
X113290380Y-66699047D01*
X113290380Y-67651428D02*
X113290380Y-67746666D01*
X113338000Y-67841904D01*
X113385619Y-67889523D01*
X113480857Y-67937142D01*
X113671333Y-67984761D01*
X113909428Y-67984761D01*
X114099904Y-67937142D01*
X114195142Y-67889523D01*
X114242761Y-67841904D01*
X114290380Y-67746666D01*
X114290380Y-67651428D01*
X114242761Y-67556190D01*
X114195142Y-67508571D01*
X114099904Y-67460952D01*
X113909428Y-67413333D01*
X113671333Y-67413333D01*
X113480857Y-67460952D01*
X113385619Y-67508571D01*
X113338000Y-67556190D01*
X113290380Y-67651428D01*
X114290380Y-68413333D02*
X113290380Y-68413333D01*
X114290380Y-68984761D02*
X113718952Y-68556190D01*
X113290380Y-68984761D02*
X113861809Y-68413333D01*
X114290380Y-70318095D02*
X114242761Y-70222857D01*
X114147523Y-70175238D01*
X113290380Y-70175238D01*
X114290380Y-70699047D02*
X113623714Y-70699047D01*
X113290380Y-70699047D02*
X113338000Y-70651428D01*
X113385619Y-70699047D01*
X113338000Y-70746666D01*
X113290380Y-70699047D01*
X113385619Y-70699047D01*
X113623714Y-71175238D02*
X114290380Y-71175238D01*
X113718952Y-71175238D02*
X113671333Y-71222857D01*
X113623714Y-71318095D01*
X113623714Y-71460952D01*
X113671333Y-71556190D01*
X113766571Y-71603809D01*
X114290380Y-71603809D01*
%TO.C,FREQ*%
X123570666Y-33131142D02*
X124237333Y-33131142D01*
X124237333Y-34178761D02*
X124237333Y-32178761D01*
X123284952Y-32178761D01*
X121380190Y-34178761D02*
X122046857Y-33226380D01*
X122523047Y-34178761D02*
X122523047Y-32178761D01*
X121761142Y-32178761D01*
X121570666Y-32274000D01*
X121475428Y-32369238D01*
X121380190Y-32559714D01*
X121380190Y-32845428D01*
X121475428Y-33035904D01*
X121570666Y-33131142D01*
X121761142Y-33226380D01*
X122523047Y-33226380D01*
X120523047Y-33131142D02*
X119856380Y-33131142D01*
X119570666Y-34178761D02*
X120523047Y-34178761D01*
X120523047Y-32178761D01*
X119570666Y-32178761D01*
X117380190Y-34369238D02*
X117570666Y-34274000D01*
X117761142Y-34083523D01*
X118046857Y-33797809D01*
X118237333Y-33702571D01*
X118427809Y-33702571D01*
X118332571Y-34178761D02*
X118523047Y-34083523D01*
X118713523Y-33893047D01*
X118808761Y-33512095D01*
X118808761Y-32845428D01*
X118713523Y-32464476D01*
X118523047Y-32274000D01*
X118332571Y-32178761D01*
X117951619Y-32178761D01*
X117761142Y-32274000D01*
X117570666Y-32464476D01*
X117475428Y-32845428D01*
X117475428Y-33512095D01*
X117570666Y-33893047D01*
X117761142Y-34083523D01*
X117951619Y-34178761D01*
X118332571Y-34178761D01*
X114036380Y-45252000D02*
X114036380Y-44680571D01*
X114036380Y-44966285D02*
X113036380Y-44966285D01*
X113179238Y-44871047D01*
X113274476Y-44775809D01*
X113322095Y-44680571D01*
X113036380Y-45871047D02*
X113036380Y-45966285D01*
X113084000Y-46061523D01*
X113131619Y-46109142D01*
X113226857Y-46156761D01*
X113417333Y-46204380D01*
X113655428Y-46204380D01*
X113845904Y-46156761D01*
X113941142Y-46109142D01*
X113988761Y-46061523D01*
X114036380Y-45966285D01*
X114036380Y-45871047D01*
X113988761Y-45775809D01*
X113941142Y-45728190D01*
X113845904Y-45680571D01*
X113655428Y-45632952D01*
X113417333Y-45632952D01*
X113226857Y-45680571D01*
X113131619Y-45728190D01*
X113084000Y-45775809D01*
X113036380Y-45871047D01*
X113036380Y-46823428D02*
X113036380Y-46918666D01*
X113084000Y-47013904D01*
X113131619Y-47061523D01*
X113226857Y-47109142D01*
X113417333Y-47156761D01*
X113655428Y-47156761D01*
X113845904Y-47109142D01*
X113941142Y-47061523D01*
X113988761Y-47013904D01*
X114036380Y-46918666D01*
X114036380Y-46823428D01*
X113988761Y-46728190D01*
X113941142Y-46680571D01*
X113845904Y-46632952D01*
X113655428Y-46585333D01*
X113417333Y-46585333D01*
X113226857Y-46632952D01*
X113131619Y-46680571D01*
X113084000Y-46728190D01*
X113036380Y-46823428D01*
X114036380Y-47585333D02*
X113036380Y-47585333D01*
X114036380Y-48156761D02*
X113464952Y-47728190D01*
X113036380Y-48156761D02*
X113607809Y-47585333D01*
X114036380Y-49490095D02*
X113988761Y-49394857D01*
X113893523Y-49347238D01*
X113036380Y-49347238D01*
X114036380Y-49871047D02*
X113369714Y-49871047D01*
X113036380Y-49871047D02*
X113084000Y-49823428D01*
X113131619Y-49871047D01*
X113084000Y-49918666D01*
X113036380Y-49871047D01*
X113131619Y-49871047D01*
X113369714Y-50347238D02*
X114036380Y-50347238D01*
X113464952Y-50347238D02*
X113417333Y-50394857D01*
X113369714Y-50490095D01*
X113369714Y-50632952D01*
X113417333Y-50728190D01*
X113512571Y-50775809D01*
X114036380Y-50775809D01*
%TO.C,RV2*%
X129044380Y-90738761D02*
X128568190Y-90405428D01*
X129044380Y-90167333D02*
X128044380Y-90167333D01*
X128044380Y-90548285D01*
X128092000Y-90643523D01*
X128139619Y-90691142D01*
X128234857Y-90738761D01*
X128377714Y-90738761D01*
X128472952Y-90691142D01*
X128520571Y-90643523D01*
X128568190Y-90548285D01*
X128568190Y-90167333D01*
X128044380Y-91024476D02*
X129044380Y-91357809D01*
X128044380Y-91691142D01*
X128139619Y-91976857D02*
X128092000Y-92024476D01*
X128044380Y-92119714D01*
X128044380Y-92357809D01*
X128092000Y-92453047D01*
X128139619Y-92500666D01*
X128234857Y-92548285D01*
X128330095Y-92548285D01*
X128472952Y-92500666D01*
X129044380Y-91929238D01*
X129044380Y-92548285D01*
X114544380Y-95544000D02*
X114544380Y-94972571D01*
X114544380Y-95258285D02*
X113544380Y-95258285D01*
X113687238Y-95163047D01*
X113782476Y-95067809D01*
X113830095Y-94972571D01*
X113544380Y-96163047D02*
X113544380Y-96258285D01*
X113592000Y-96353523D01*
X113639619Y-96401142D01*
X113734857Y-96448761D01*
X113925333Y-96496380D01*
X114163428Y-96496380D01*
X114353904Y-96448761D01*
X114449142Y-96401142D01*
X114496761Y-96353523D01*
X114544380Y-96258285D01*
X114544380Y-96163047D01*
X114496761Y-96067809D01*
X114449142Y-96020190D01*
X114353904Y-95972571D01*
X114163428Y-95924952D01*
X113925333Y-95924952D01*
X113734857Y-95972571D01*
X113639619Y-96020190D01*
X113592000Y-96067809D01*
X113544380Y-96163047D01*
X113544380Y-97115428D02*
X113544380Y-97210666D01*
X113592000Y-97305904D01*
X113639619Y-97353523D01*
X113734857Y-97401142D01*
X113925333Y-97448761D01*
X114163428Y-97448761D01*
X114353904Y-97401142D01*
X114449142Y-97353523D01*
X114496761Y-97305904D01*
X114544380Y-97210666D01*
X114544380Y-97115428D01*
X114496761Y-97020190D01*
X114449142Y-96972571D01*
X114353904Y-96924952D01*
X114163428Y-96877333D01*
X113925333Y-96877333D01*
X113734857Y-96924952D01*
X113639619Y-96972571D01*
X113592000Y-97020190D01*
X113544380Y-97115428D01*
X114544380Y-97877333D02*
X113544380Y-97877333D01*
X114544380Y-98448761D02*
X113972952Y-98020190D01*
X113544380Y-98448761D02*
X114115809Y-97877333D01*
X114544380Y-99782095D02*
X114496761Y-99686857D01*
X114401523Y-99639238D01*
X113544380Y-99639238D01*
X114544380Y-100163047D02*
X113877714Y-100163047D01*
X113544380Y-100163047D02*
X113592000Y-100115428D01*
X113639619Y-100163047D01*
X113592000Y-100210666D01*
X113544380Y-100163047D01*
X113639619Y-100163047D01*
X113877714Y-100639238D02*
X114544380Y-100639238D01*
X113972952Y-100639238D02*
X113925333Y-100686857D01*
X113877714Y-100782095D01*
X113877714Y-100924952D01*
X113925333Y-101020190D01*
X114020571Y-101067809D01*
X114544380Y-101067809D01*
%TO.C,RV1*%
X144284380Y-117916761D02*
X143808190Y-117583428D01*
X144284380Y-117345333D02*
X143284380Y-117345333D01*
X143284380Y-117726285D01*
X143332000Y-117821523D01*
X143379619Y-117869142D01*
X143474857Y-117916761D01*
X143617714Y-117916761D01*
X143712952Y-117869142D01*
X143760571Y-117821523D01*
X143808190Y-117726285D01*
X143808190Y-117345333D01*
X143284380Y-118202476D02*
X144284380Y-118535809D01*
X143284380Y-118869142D01*
X144284380Y-119726285D02*
X144284380Y-119154857D01*
X144284380Y-119440571D02*
X143284380Y-119440571D01*
X143427238Y-119345333D01*
X143522476Y-119250095D01*
X143570095Y-119154857D01*
X129784380Y-124055333D02*
X129784380Y-123483904D01*
X129784380Y-123769619D02*
X128784380Y-123769619D01*
X128927238Y-123674380D01*
X129022476Y-123579142D01*
X129070095Y-123483904D01*
X128784380Y-124674380D02*
X128784380Y-124769619D01*
X128832000Y-124864857D01*
X128879619Y-124912476D01*
X128974857Y-124960095D01*
X129165333Y-125007714D01*
X129403428Y-125007714D01*
X129593904Y-124960095D01*
X129689142Y-124912476D01*
X129736761Y-124864857D01*
X129784380Y-124769619D01*
X129784380Y-124674380D01*
X129736761Y-124579142D01*
X129689142Y-124531523D01*
X129593904Y-124483904D01*
X129403428Y-124436285D01*
X129165333Y-124436285D01*
X128974857Y-124483904D01*
X128879619Y-124531523D01*
X128832000Y-124579142D01*
X128784380Y-124674380D01*
X128784380Y-125626761D02*
X128784380Y-125722000D01*
X128832000Y-125817238D01*
X128879619Y-125864857D01*
X128974857Y-125912476D01*
X129165333Y-125960095D01*
X129403428Y-125960095D01*
X129593904Y-125912476D01*
X129689142Y-125864857D01*
X129736761Y-125817238D01*
X129784380Y-125722000D01*
X129784380Y-125626761D01*
X129736761Y-125531523D01*
X129689142Y-125483904D01*
X129593904Y-125436285D01*
X129403428Y-125388666D01*
X129165333Y-125388666D01*
X128974857Y-125436285D01*
X128879619Y-125483904D01*
X128832000Y-125531523D01*
X128784380Y-125626761D01*
X129784380Y-126388666D02*
X128784380Y-126388666D01*
X129784380Y-126960095D02*
X129212952Y-126531523D01*
X128784380Y-126960095D02*
X129355809Y-126388666D01*
%TO.C,J8*%
X115869333Y-134898380D02*
X115869333Y-135612666D01*
X115916952Y-135755523D01*
X116012190Y-135850761D01*
X116155047Y-135898380D01*
X116250285Y-135898380D01*
X115250285Y-135326952D02*
X115345523Y-135279333D01*
X115393142Y-135231714D01*
X115440761Y-135136476D01*
X115440761Y-135088857D01*
X115393142Y-134993619D01*
X115345523Y-134946000D01*
X115250285Y-134898380D01*
X115059809Y-134898380D01*
X114964571Y-134946000D01*
X114916952Y-134993619D01*
X114869333Y-135088857D01*
X114869333Y-135136476D01*
X114916952Y-135231714D01*
X114964571Y-135279333D01*
X115059809Y-135326952D01*
X115250285Y-135326952D01*
X115345523Y-135374571D01*
X115393142Y-135422190D01*
X115440761Y-135517428D01*
X115440761Y-135707904D01*
X115393142Y-135803142D01*
X115345523Y-135850761D01*
X115250285Y-135898380D01*
X115059809Y-135898380D01*
X114964571Y-135850761D01*
X114916952Y-135803142D01*
X114869333Y-135707904D01*
X114869333Y-135517428D01*
X114916952Y-135422190D01*
X114964571Y-135374571D01*
X115059809Y-135326952D01*
X124776190Y-131651333D02*
X123823809Y-131651333D01*
X124966666Y-132222761D02*
X124300000Y-130222761D01*
X123633333Y-132222761D01*
X122966666Y-130222761D02*
X122966666Y-131841809D01*
X122871428Y-132032285D01*
X122776190Y-132127523D01*
X122585714Y-132222761D01*
X122204761Y-132222761D01*
X122014285Y-132127523D01*
X121919047Y-132032285D01*
X121823809Y-131841809D01*
X121823809Y-130222761D01*
X120871428Y-132222761D02*
X120871428Y-130222761D01*
X120395238Y-130222761D01*
X120109523Y-130318000D01*
X119919047Y-130508476D01*
X119823809Y-130698952D01*
X119728571Y-131079904D01*
X119728571Y-131365619D01*
X119823809Y-131746571D01*
X119919047Y-131937047D01*
X120109523Y-132127523D01*
X120395238Y-132222761D01*
X120871428Y-132222761D01*
X118871428Y-132222761D02*
X118871428Y-130222761D01*
X117538095Y-130222761D02*
X117157142Y-130222761D01*
X116966666Y-130318000D01*
X116776190Y-130508476D01*
X116680952Y-130889428D01*
X116680952Y-131556095D01*
X116776190Y-131937047D01*
X116966666Y-132127523D01*
X117157142Y-132222761D01*
X117538095Y-132222761D01*
X117728571Y-132127523D01*
X117919047Y-131937047D01*
X118014285Y-131556095D01*
X118014285Y-130889428D01*
X117919047Y-130508476D01*
X117728571Y-130318000D01*
X117538095Y-130222761D01*
X116300000Y-132413238D02*
X114776190Y-132413238D01*
X113919047Y-130222761D02*
X113538095Y-130222761D01*
X113347619Y-130318000D01*
X113157142Y-130508476D01*
X113061904Y-130889428D01*
X113061904Y-131556095D01*
X113157142Y-131937047D01*
X113347619Y-132127523D01*
X113538095Y-132222761D01*
X113919047Y-132222761D01*
X114109523Y-132127523D01*
X114300000Y-131937047D01*
X114395238Y-131556095D01*
X114395238Y-130889428D01*
X114300000Y-130508476D01*
X114109523Y-130318000D01*
X113919047Y-130222761D01*
X112204761Y-130222761D02*
X112204761Y-131841809D01*
X112109523Y-132032285D01*
X112014285Y-132127523D01*
X111823809Y-132222761D01*
X111442857Y-132222761D01*
X111252380Y-132127523D01*
X111157142Y-132032285D01*
X111061904Y-131841809D01*
X111061904Y-130222761D01*
X110395238Y-130222761D02*
X109252380Y-130222761D01*
X109823809Y-132222761D02*
X109823809Y-130222761D01*
X108585714Y-132222761D02*
X108585714Y-130222761D01*
X107823809Y-130222761D01*
X107633333Y-130318000D01*
X107538095Y-130413238D01*
X107442857Y-130603714D01*
X107442857Y-130889428D01*
X107538095Y-131079904D01*
X107633333Y-131175142D01*
X107823809Y-131270380D01*
X108585714Y-131270380D01*
X106585714Y-130222761D02*
X106585714Y-131841809D01*
X106490476Y-132032285D01*
X106395238Y-132127523D01*
X106204761Y-132222761D01*
X105823809Y-132222761D01*
X105633333Y-132127523D01*
X105538095Y-132032285D01*
X105442857Y-131841809D01*
X105442857Y-130222761D01*
X104776190Y-130222761D02*
X103633333Y-130222761D01*
X104204761Y-132222761D02*
X104204761Y-130222761D01*
%TO.C,J6*%
X138983333Y-85368380D02*
X138983333Y-86082666D01*
X139030952Y-86225523D01*
X139126190Y-86320761D01*
X139269047Y-86368380D01*
X139364285Y-86368380D01*
X138078571Y-85368380D02*
X138269047Y-85368380D01*
X138364285Y-85416000D01*
X138411904Y-85463619D01*
X138507142Y-85606476D01*
X138554761Y-85796952D01*
X138554761Y-86177904D01*
X138507142Y-86273142D01*
X138459523Y-86320761D01*
X138364285Y-86368380D01*
X138173809Y-86368380D01*
X138078571Y-86320761D01*
X138030952Y-86273142D01*
X137983333Y-86177904D01*
X137983333Y-85939809D01*
X138030952Y-85844571D01*
X138078571Y-85796952D01*
X138173809Y-85749333D01*
X138364285Y-85749333D01*
X138459523Y-85796952D01*
X138507142Y-85844571D01*
X138554761Y-85939809D01*
X140905714Y-82756285D02*
X141000952Y-82851523D01*
X141286666Y-82946761D01*
X141477142Y-82946761D01*
X141762857Y-82851523D01*
X141953333Y-82661047D01*
X142048571Y-82470571D01*
X142143809Y-82089619D01*
X142143809Y-81803904D01*
X142048571Y-81422952D01*
X141953333Y-81232476D01*
X141762857Y-81042000D01*
X141477142Y-80946761D01*
X141286666Y-80946761D01*
X141000952Y-81042000D01*
X140905714Y-81137238D01*
X140334285Y-80946761D02*
X139667619Y-82946761D01*
X139000952Y-80946761D01*
X138429523Y-81137238D02*
X138334285Y-81042000D01*
X138143809Y-80946761D01*
X137667619Y-80946761D01*
X137477142Y-81042000D01*
X137381904Y-81137238D01*
X137286666Y-81327714D01*
X137286666Y-81518190D01*
X137381904Y-81803904D01*
X138524761Y-82946761D01*
X137286666Y-82946761D01*
X136905714Y-83137238D02*
X135381904Y-83137238D01*
X134905714Y-82946761D02*
X134905714Y-80946761D01*
X133953333Y-82946761D02*
X133953333Y-80946761D01*
X132810476Y-82946761D01*
X132810476Y-80946761D01*
X131858095Y-82946761D02*
X131858095Y-80946761D01*
X131096190Y-80946761D01*
X130905714Y-81042000D01*
X130810476Y-81137238D01*
X130715238Y-81327714D01*
X130715238Y-81613428D01*
X130810476Y-81803904D01*
X130905714Y-81899142D01*
X131096190Y-81994380D01*
X131858095Y-81994380D01*
X129858095Y-80946761D02*
X129858095Y-82565809D01*
X129762857Y-82756285D01*
X129667619Y-82851523D01*
X129477142Y-82946761D01*
X129096190Y-82946761D01*
X128905714Y-82851523D01*
X128810476Y-82756285D01*
X128715238Y-82565809D01*
X128715238Y-80946761D01*
X128048571Y-80946761D02*
X126905714Y-80946761D01*
X127477142Y-82946761D02*
X127477142Y-80946761D01*
%TO.C,J5*%
X167431333Y-134898380D02*
X167431333Y-135612666D01*
X167478952Y-135755523D01*
X167574190Y-135850761D01*
X167717047Y-135898380D01*
X167812285Y-135898380D01*
X166478952Y-134898380D02*
X166955142Y-134898380D01*
X167002761Y-135374571D01*
X166955142Y-135326952D01*
X166859904Y-135279333D01*
X166621809Y-135279333D01*
X166526571Y-135326952D01*
X166478952Y-135374571D01*
X166431333Y-135469809D01*
X166431333Y-135707904D01*
X166478952Y-135803142D01*
X166526571Y-135850761D01*
X166621809Y-135898380D01*
X166859904Y-135898380D01*
X166955142Y-135850761D01*
X167002761Y-135803142D01*
X170020095Y-132222761D02*
X171162952Y-132222761D01*
X170591523Y-132222761D02*
X170591523Y-130222761D01*
X170782000Y-130508476D01*
X170972476Y-130698952D01*
X171162952Y-130794190D01*
X169448666Y-130222761D02*
X168782000Y-132222761D01*
X168115333Y-130222761D01*
X166020095Y-130127523D02*
X167734380Y-132698952D01*
X164972476Y-130222761D02*
X164591523Y-130222761D01*
X164401047Y-130318000D01*
X164210571Y-130508476D01*
X164115333Y-130889428D01*
X164115333Y-131556095D01*
X164210571Y-131937047D01*
X164401047Y-132127523D01*
X164591523Y-132222761D01*
X164972476Y-132222761D01*
X165162952Y-132127523D01*
X165353428Y-131937047D01*
X165448666Y-131556095D01*
X165448666Y-130889428D01*
X165353428Y-130508476D01*
X165162952Y-130318000D01*
X164972476Y-130222761D01*
X162115333Y-132032285D02*
X162210571Y-132127523D01*
X162496285Y-132222761D01*
X162686761Y-132222761D01*
X162972476Y-132127523D01*
X163162952Y-131937047D01*
X163258190Y-131746571D01*
X163353428Y-131365619D01*
X163353428Y-131079904D01*
X163258190Y-130698952D01*
X163162952Y-130508476D01*
X162972476Y-130318000D01*
X162686761Y-130222761D01*
X162496285Y-130222761D01*
X162210571Y-130318000D01*
X162115333Y-130413238D01*
X161543904Y-130222761D02*
X160401047Y-130222761D01*
X160972476Y-132222761D02*
X160972476Y-130222761D01*
X160210571Y-132413238D02*
X158686761Y-132413238D01*
X158210571Y-132222761D02*
X158210571Y-130222761D01*
X157258190Y-132222761D02*
X157258190Y-130222761D01*
X156115333Y-132222761D01*
X156115333Y-130222761D01*
X155162952Y-132222761D02*
X155162952Y-130222761D01*
X154401047Y-130222761D01*
X154210571Y-130318000D01*
X154115333Y-130413238D01*
X154020095Y-130603714D01*
X154020095Y-130889428D01*
X154115333Y-131079904D01*
X154210571Y-131175142D01*
X154401047Y-131270380D01*
X155162952Y-131270380D01*
X153162952Y-130222761D02*
X153162952Y-131841809D01*
X153067714Y-132032285D01*
X152972476Y-132127523D01*
X152782000Y-132222761D01*
X152401047Y-132222761D01*
X152210571Y-132127523D01*
X152115333Y-132032285D01*
X152020095Y-131841809D01*
X152020095Y-130222761D01*
X151353428Y-130222761D02*
X150210571Y-130222761D01*
X150782000Y-132222761D02*
X150782000Y-130222761D01*
%TO.C,J4*%
X153969333Y-112546380D02*
X153969333Y-113260666D01*
X154016952Y-113403523D01*
X154112190Y-113498761D01*
X154255047Y-113546380D01*
X154350285Y-113546380D01*
X153064571Y-112879714D02*
X153064571Y-113546380D01*
X153302666Y-112498761D02*
X153540761Y-113213047D01*
X152921714Y-113213047D01*
X155939333Y-109870761D02*
X156606000Y-108918380D01*
X157082190Y-109870761D02*
X157082190Y-107870761D01*
X156320285Y-107870761D01*
X156129809Y-107966000D01*
X156034571Y-108061238D01*
X155939333Y-108251714D01*
X155939333Y-108537428D01*
X156034571Y-108727904D01*
X156129809Y-108823142D01*
X156320285Y-108918380D01*
X157082190Y-108918380D01*
X155082190Y-108823142D02*
X154415523Y-108823142D01*
X154129809Y-109870761D02*
X155082190Y-109870761D01*
X155082190Y-107870761D01*
X154129809Y-107870761D01*
X153367904Y-109775523D02*
X153082190Y-109870761D01*
X152606000Y-109870761D01*
X152415523Y-109775523D01*
X152320285Y-109680285D01*
X152225047Y-109489809D01*
X152225047Y-109299333D01*
X152320285Y-109108857D01*
X152415523Y-109013619D01*
X152606000Y-108918380D01*
X152986952Y-108823142D01*
X153177428Y-108727904D01*
X153272666Y-108632666D01*
X153367904Y-108442190D01*
X153367904Y-108251714D01*
X153272666Y-108061238D01*
X153177428Y-107966000D01*
X152986952Y-107870761D01*
X152510761Y-107870761D01*
X152225047Y-107966000D01*
X151844095Y-110061238D02*
X150320285Y-110061238D01*
X149844095Y-109870761D02*
X149844095Y-107870761D01*
X148891714Y-109870761D02*
X148891714Y-107870761D01*
X147748857Y-109870761D01*
X147748857Y-107870761D01*
X146796476Y-109870761D02*
X146796476Y-107870761D01*
X146034571Y-107870761D01*
X145844095Y-107966000D01*
X145748857Y-108061238D01*
X145653619Y-108251714D01*
X145653619Y-108537428D01*
X145748857Y-108727904D01*
X145844095Y-108823142D01*
X146034571Y-108918380D01*
X146796476Y-108918380D01*
X144796476Y-107870761D02*
X144796476Y-109489809D01*
X144701238Y-109680285D01*
X144606000Y-109775523D01*
X144415523Y-109870761D01*
X144034571Y-109870761D01*
X143844095Y-109775523D01*
X143748857Y-109680285D01*
X143653619Y-109489809D01*
X143653619Y-107870761D01*
X142986952Y-107870761D02*
X141844095Y-107870761D01*
X142415523Y-109870761D02*
X142415523Y-107870761D01*
%TO.C,J3*%
X163367333Y-35330380D02*
X163367333Y-36044666D01*
X163414952Y-36187523D01*
X163510190Y-36282761D01*
X163653047Y-36330380D01*
X163748285Y-36330380D01*
X162986380Y-35330380D02*
X162367333Y-35330380D01*
X162700666Y-35711333D01*
X162557809Y-35711333D01*
X162462571Y-35758952D01*
X162414952Y-35806571D01*
X162367333Y-35901809D01*
X162367333Y-36139904D01*
X162414952Y-36235142D01*
X162462571Y-36282761D01*
X162557809Y-36330380D01*
X162843523Y-36330380D01*
X162938761Y-36282761D01*
X162986380Y-36235142D01*
X167322571Y-41290761D02*
X168465428Y-41290761D01*
X167894000Y-41290761D02*
X167894000Y-39290761D01*
X168084476Y-39576476D01*
X168274952Y-39766952D01*
X168465428Y-39862190D01*
%TO.C,J2*%
X163367333Y-51078380D02*
X163367333Y-51792666D01*
X163414952Y-51935523D01*
X163510190Y-52030761D01*
X163653047Y-52078380D01*
X163748285Y-52078380D01*
X162938761Y-51173619D02*
X162891142Y-51126000D01*
X162795904Y-51078380D01*
X162557809Y-51078380D01*
X162462571Y-51126000D01*
X162414952Y-51173619D01*
X162367333Y-51268857D01*
X162367333Y-51364095D01*
X162414952Y-51506952D01*
X162986380Y-52078380D01*
X162367333Y-52078380D01*
X168465428Y-56245238D02*
X168370190Y-56150000D01*
X168179714Y-56054761D01*
X167703523Y-56054761D01*
X167513047Y-56150000D01*
X167417809Y-56245238D01*
X167322571Y-56435714D01*
X167322571Y-56626190D01*
X167417809Y-56911904D01*
X168560666Y-58054761D01*
X167322571Y-58054761D01*
%TO.C,J1*%
X163367333Y-67080380D02*
X163367333Y-67794666D01*
X163414952Y-67937523D01*
X163510190Y-68032761D01*
X163653047Y-68080380D01*
X163748285Y-68080380D01*
X162367333Y-68080380D02*
X162938761Y-68080380D01*
X162653047Y-68080380D02*
X162653047Y-67080380D01*
X162748285Y-67223238D01*
X162843523Y-67318476D01*
X162938761Y-67366095D01*
X168560666Y-71548761D02*
X167322571Y-71548761D01*
X167989238Y-72310666D01*
X167703523Y-72310666D01*
X167513047Y-72405904D01*
X167417809Y-72501142D01*
X167322571Y-72691619D01*
X167322571Y-73167809D01*
X167417809Y-73358285D01*
X167513047Y-73453523D01*
X167703523Y-73548761D01*
X168274952Y-73548761D01*
X168465428Y-73453523D01*
X168560666Y-73358285D01*
%TO.C,D1*%
X110188095Y-38562380D02*
X110188095Y-37562380D01*
X109950000Y-37562380D01*
X109807142Y-37610000D01*
X109711904Y-37705238D01*
X109664285Y-37800476D01*
X109616666Y-37990952D01*
X109616666Y-38133809D01*
X109664285Y-38324285D01*
X109711904Y-38419523D01*
X109807142Y-38514761D01*
X109950000Y-38562380D01*
X110188095Y-38562380D01*
X108664285Y-38562380D02*
X109235714Y-38562380D01*
X108950000Y-38562380D02*
X108950000Y-37562380D01*
X109045238Y-37705238D01*
X109140476Y-37800476D01*
X109235714Y-37848095D01*
X112914285Y-35222571D02*
X112914285Y-33722571D01*
X112342857Y-33722571D01*
X112200000Y-33794000D01*
X112128571Y-33865428D01*
X112057142Y-34008285D01*
X112057142Y-34222571D01*
X112128571Y-34365428D01*
X112200000Y-34436857D01*
X112342857Y-34508285D01*
X112914285Y-34508285D01*
X111128571Y-33722571D02*
X110842857Y-33722571D01*
X110700000Y-33794000D01*
X110557142Y-33936857D01*
X110485714Y-34222571D01*
X110485714Y-34722571D01*
X110557142Y-35008285D01*
X110700000Y-35151142D01*
X110842857Y-35222571D01*
X111128571Y-35222571D01*
X111271428Y-35151142D01*
X111414285Y-35008285D01*
X111485714Y-34722571D01*
X111485714Y-34222571D01*
X111414285Y-33936857D01*
X111271428Y-33794000D01*
X111128571Y-33722571D01*
X109985714Y-33722571D02*
X109628571Y-35222571D01*
X109342857Y-34151142D01*
X109057142Y-35222571D01*
X108700000Y-33722571D01*
X108128571Y-34436857D02*
X107628571Y-34436857D01*
X107414285Y-35222571D02*
X108128571Y-35222571D01*
X108128571Y-33722571D01*
X107414285Y-33722571D01*
X105914285Y-35222571D02*
X106414285Y-34508285D01*
X106771428Y-35222571D02*
X106771428Y-33722571D01*
X106200000Y-33722571D01*
X106057142Y-33794000D01*
X105985714Y-33865428D01*
X105914285Y-34008285D01*
X105914285Y-34222571D01*
X105985714Y-34365428D01*
X106057142Y-34436857D01*
X106200000Y-34508285D01*
X106771428Y-34508285D01*
%TD*%
M02*
