M48
METRIC,TZ
T1C0.400
T2C0.660
T3C0.800
T4C0.890
T5C1.000
T6C1.100
T7C1.220
T8C1.420
T9C1.430
%
G90
G05
T1
X107163Y-51460
X109753Y-85925
X109780Y-102034
X111283Y-117094
X118246Y-104605
X119543Y-119115
X121091Y-114526
X126453Y-67844
X126521Y-123313
X126721Y-119125
X127719Y-69023
X128296Y-140054
X130565Y-104167
X131887Y-101650
X136196Y-82578
X139033Y-69342
X143908Y-98104
X151084Y-91774
T2
X106934Y-78486
X109474Y-75946
X112014Y-78486
X124714Y-78486
X127254Y-75946
X129794Y-78486
X116078Y-78486
X118618Y-75946
X121158Y-78486
T3
X131064Y-129540
X131064Y-132080
X131064Y-134620
X131064Y-137160
X131064Y-139700
X131064Y-142240
X131064Y-144780
X131064Y-147320
X131064Y-149860
X138684Y-129540
X138684Y-132080
X138684Y-134620
X138684Y-137160
X138684Y-139700
X138684Y-142240
X138684Y-144780
X138684Y-147320
X138684Y-149860
X145034Y-83820
X145034Y-86360
X145034Y-88900
X145034Y-91440
X152654Y-83820
X152654Y-86360
X152654Y-88900
X152654Y-91440
X143256Y-130048
X145756Y-130048
X132374Y-40640
X134874Y-40640
X162052Y-84328
X162052Y-86868
X162052Y-89408
X162052Y-91948
X169672Y-84328
X169672Y-86868
X169672Y-89408
X169672Y-91948
T4
X164100Y-114808
X164100Y-117348
X164100Y-119888
X164100Y-122428
X164100Y-124968
X166640Y-114808
X166640Y-117348
X166640Y-119888
X166640Y-122428
X166640Y-124968
T5
X134192Y-125222
X136692Y-125222
X139192Y-125222
X143336Y-63754
X145836Y-63754
X148336Y-63754
X143336Y-47752
X145836Y-47752
X148336Y-47752
X118444Y-47752
X120944Y-47752
X123444Y-47752
X118952Y-98044
X121452Y-98044
X123952Y-98044
X118698Y-68580
X121198Y-68580
X123698Y-68580
T7
X134620Y-84836
X159004Y-34798
X111506Y-134366
X159004Y-66548
X159004Y-50546
X149606Y-112014
X163068Y-134366
T8
X159004Y-53646
X149606Y-115114
X163068Y-137466
X134620Y-87936
X159004Y-37898
X111506Y-137466
X159004Y-69648
T9
X159004Y-61946
X149606Y-123414
X163068Y-145766
X134620Y-96236
X159004Y-46198
X111506Y-145766
X159004Y-77948
T6
G00X131892Y-117372
M15
G01X131892Y-118072
M16
G05
G00X141492Y-117372
M15
G01X141492Y-118072
M16
G05
G00X141036Y-55904
M15
G01X141036Y-56604
M16
G05
G00X150636Y-55904
M15
G01X150636Y-56604
M16
G05
G00X141036Y-39902
M15
G01X141036Y-40602
M16
G05
G00X150636Y-39902
M15
G01X150636Y-40602
M16
G05
G00X116144Y-39902
M15
G01X116144Y-40602
M16
G05
G00X125744Y-39902
M15
G01X125744Y-40602
M16
G05
G00X116652Y-90194
M15
G01X116652Y-90894
M16
G05
G00X126252Y-90194
M15
G01X126252Y-90894
M16
G05
G00X116398Y-60730
M15
G01X116398Y-61430
M16
G05
G00X125998Y-60730
M15
G01X125998Y-61430
M16
G05
T0
M30
