%TF.GenerationSoftware,KiCad,Pcbnew,5.1.7*%
%TF.CreationDate,2020-10-24T15:52:28+02:00*%
%TF.ProjectId,AS3320-VCF,41533333-3230-42d5-9643-462e6b696361,rev?*%
%TF.SameCoordinates,Original*%
%TF.FileFunction,Copper,L2,Bot*%
%TF.FilePolarity,Positive*%
%FSLAX46Y46*%
G04 Gerber Fmt 4.6, Leading zero omitted, Abs format (unit mm)*
G04 Created by KiCad (PCBNEW 5.1.7) date 2020-10-24 15:52:28*
%MOMM*%
%LPD*%
G01*
G04 APERTURE LIST*
%TA.AperFunction,ComponentPad*%
%ADD10C,2.130000*%
%TD*%
%TA.AperFunction,ComponentPad*%
%ADD11R,1.930000X1.830000*%
%TD*%
%TA.AperFunction,ComponentPad*%
%ADD12C,1.600000*%
%TD*%
%TA.AperFunction,ComponentPad*%
%ADD13O,1.600000X1.600000*%
%TD*%
%TA.AperFunction,ComponentPad*%
%ADD14C,1.800000*%
%TD*%
%TA.AperFunction,ComponentPad*%
%ADD15R,1.800000X1.800000*%
%TD*%
%TA.AperFunction,ComponentPad*%
%ADD16R,1.600000X1.600000*%
%TD*%
%TA.AperFunction,ComponentPad*%
%ADD17O,2.720000X3.240000*%
%TD*%
%TA.AperFunction,ComponentPad*%
%ADD18C,2.000000*%
%TD*%
%TA.AperFunction,Conductor*%
%ADD19C,0.250000*%
%TD*%
G04 APERTURE END LIST*
D10*
%TO.P,J4,T*%
%TO.N,/SIGNAL_OUTPUT*%
X185910000Y-103740000D03*
D11*
%TO.P,J4,S*%
%TO.N,GND*%
X185910000Y-92340000D03*
D10*
%TO.P,J4,TN*%
%TO.N,N/C*%
X185910000Y-95440000D03*
%TD*%
%TO.P,J3,T*%
%TO.N,/FREQ_CTRL_INPUT*%
X185910000Y-76990000D03*
D11*
%TO.P,J3,S*%
%TO.N,GND*%
X185910000Y-65590000D03*
D10*
%TO.P,J3,TN*%
%TO.N,N/C*%
X185910000Y-68690000D03*
%TD*%
%TO.P,J2,T*%
%TO.N,/RESONANCE_CTRL_INPUT*%
X185340000Y-51660000D03*
D11*
%TO.P,J2,S*%
%TO.N,GND*%
X185340000Y-40260000D03*
D10*
%TO.P,J2,TN*%
%TO.N,N/C*%
X185340000Y-43360000D03*
%TD*%
%TO.P,J1,T*%
%TO.N,/SIGNAL_INPUT*%
X186080000Y-121340000D03*
D11*
%TO.P,J1,S*%
%TO.N,GND*%
X186080000Y-109940000D03*
D10*
%TO.P,J1,TN*%
%TO.N,N/C*%
X186080000Y-113040000D03*
%TD*%
D12*
%TO.P,R21,1*%
%TO.N,Net-(D1-Pad2)*%
X167680000Y-59510000D03*
D13*
%TO.P,R21,2*%
%TO.N,+12V*%
X177840000Y-59510000D03*
%TD*%
D14*
%TO.P,D1,2*%
%TO.N,Net-(D1-Pad2)*%
X160380000Y-59050000D03*
D15*
%TO.P,D1,1*%
%TO.N,GND*%
X162920000Y-59050000D03*
%TD*%
D13*
%TO.P,U1,18*%
%TO.N,Net-(R17-Pad1)*%
X172050000Y-84180000D03*
%TO.P,U1,9*%
%TO.N,Net-(R8-Pad1)*%
X164430000Y-104500000D03*
%TO.P,U1,17*%
%TO.N,Net-(R15-Pad1)*%
X172050000Y-86720000D03*
%TO.P,U1,8*%
%TO.N,/VRES*%
X164430000Y-101960000D03*
%TO.P,U1,16*%
%TO.N,Net-(C2-Pad1)*%
X172050000Y-89260000D03*
%TO.P,U1,7*%
%TO.N,/OUT1*%
X164430000Y-99420000D03*
%TO.P,U1,15*%
%TO.N,/OUT3*%
X172050000Y-91800000D03*
%TO.P,U1,6*%
%TO.N,/OUT2*%
X164430000Y-96880000D03*
%TO.P,U1,14*%
%TO.N,+12V*%
X172050000Y-94340000D03*
%TO.P,U1,5*%
%TO.N,Net-(C3-Pad2)*%
X164430000Y-94340000D03*
%TO.P,U1,13*%
%TO.N,Net-(R19-Pad1)*%
X172050000Y-96880000D03*
%TO.P,U1,4*%
%TO.N,Net-(C1-Pad2)*%
X164430000Y-91800000D03*
%TO.P,U1,12*%
%TO.N,Net-(R10-Pad2)*%
X172050000Y-99420000D03*
%TO.P,U1,3*%
%TO.N,GND*%
X164430000Y-89260000D03*
%TO.P,U1,11*%
%TO.N,Net-(C4-Pad1)*%
X172050000Y-101960000D03*
%TO.P,U1,2*%
%TO.N,Net-(R13-Pad1)*%
X164430000Y-86720000D03*
%TO.P,U1,10*%
%TO.N,/OUT4*%
X172050000Y-104500000D03*
D16*
%TO.P,U1,1*%
%TO.N,Net-(R11-Pad1)*%
X164430000Y-84180000D03*
%TD*%
D17*
%TO.P,RV2,*%
%TO.N,*%
X172490000Y-68990000D03*
X162890000Y-68990000D03*
D14*
%TO.P,RV2,3*%
%TO.N,Net-(R7-Pad1)*%
X165190000Y-76490000D03*
%TO.P,RV2,2*%
%TO.N,/FREQ_CTRL_INPUT*%
X167690000Y-76490000D03*
D15*
%TO.P,RV2,1*%
%TO.N,Net-(R3-Pad1)*%
X170190000Y-76490000D03*
%TD*%
D17*
%TO.P,RV1,*%
%TO.N,*%
X172440000Y-45257500D03*
X162840000Y-45257500D03*
D14*
%TO.P,RV1,3*%
%TO.N,Net-(R1-Pad2)*%
X165140000Y-52757500D03*
%TO.P,RV1,2*%
%TO.N,/RESONANCE_CTRL_INPUT*%
X167640000Y-52757500D03*
D15*
%TO.P,RV1,1*%
%TO.N,Net-(R2-Pad2)*%
X170140000Y-52757500D03*
%TD*%
D12*
%TO.P,R7,1*%
%TO.N,Net-(R7-Pad1)*%
X130100000Y-91490000D03*
D13*
%TO.P,R7,2*%
%TO.N,+12V*%
X140260000Y-91490000D03*
%TD*%
D12*
%TO.P,R3,1*%
%TO.N,Net-(R3-Pad1)*%
X130170000Y-62470000D03*
D13*
%TO.P,R3,2*%
%TO.N,-12V*%
X140330000Y-62470000D03*
%TD*%
D12*
%TO.P,R2,1*%
%TO.N,+12V*%
X130208000Y-54848000D03*
D13*
%TO.P,R2,2*%
%TO.N,Net-(R2-Pad2)*%
X140368000Y-54848000D03*
%TD*%
D12*
%TO.P,R1,1*%
%TO.N,-12V*%
X130180000Y-47160000D03*
D13*
%TO.P,R1,2*%
%TO.N,Net-(R1-Pad2)*%
X140340000Y-47160000D03*
%TD*%
D12*
%TO.P,C5,2*%
%TO.N,/SIGNAL_OUTPUT*%
X155230000Y-121170000D03*
D16*
%TO.P,C5,1*%
%TO.N,/OUT4*%
X152730000Y-121170000D03*
%TD*%
D18*
%TO.P,C1,2*%
%TO.N,Net-(C1-Pad2)*%
X176544000Y-121750000D03*
%TO.P,C1,1*%
%TO.N,GND*%
X171544000Y-121750000D03*
%TD*%
%TO.P,C2,2*%
%TO.N,GND*%
X166748000Y-113622000D03*
%TO.P,C2,1*%
%TO.N,Net-(C2-Pad1)*%
X161748000Y-113622000D03*
%TD*%
%TO.P,C3,2*%
%TO.N,Net-(C3-Pad2)*%
X166698000Y-121742000D03*
%TO.P,C3,1*%
%TO.N,GND*%
X161698000Y-121742000D03*
%TD*%
%TO.P,C4,2*%
%TO.N,GND*%
X176594000Y-113630000D03*
%TO.P,C4,1*%
%TO.N,Net-(C4-Pad1)*%
X171594000Y-113630000D03*
%TD*%
D12*
%TO.P,R9,1*%
%TO.N,Net-(R10-Pad2)*%
X130030000Y-105430000D03*
D13*
%TO.P,R9,2*%
%TO.N,/FREQ_CTRL_INPUT*%
X140190000Y-105430000D03*
%TD*%
D12*
%TO.P,R4,1*%
%TO.N,Net-(R13-Pad1)*%
X130180000Y-69890000D03*
D13*
%TO.P,R4,2*%
%TO.N,-12V*%
X140340000Y-69890000D03*
%TD*%
D12*
%TO.P,R5,1*%
%TO.N,Net-(R15-Pad1)*%
X130170000Y-77090000D03*
D13*
%TO.P,R5,2*%
%TO.N,-12V*%
X140330000Y-77090000D03*
%TD*%
D12*
%TO.P,R6,1*%
%TO.N,Net-(R17-Pad1)*%
X130100000Y-84360000D03*
D13*
%TO.P,R6,2*%
%TO.N,-12V*%
X140260000Y-84360000D03*
%TD*%
D12*
%TO.P,R8,1*%
%TO.N,Net-(R8-Pad1)*%
X130030000Y-98590000D03*
D13*
%TO.P,R8,2*%
%TO.N,/RESONANCE_CTRL_INPUT*%
X140190000Y-98590000D03*
%TD*%
D12*
%TO.P,R10,1*%
%TO.N,GND*%
X129950000Y-112180000D03*
D13*
%TO.P,R10,2*%
%TO.N,Net-(R10-Pad2)*%
X140110000Y-112180000D03*
%TD*%
D12*
%TO.P,R11,1*%
%TO.N,Net-(R11-Pad1)*%
X145550000Y-47020000D03*
D13*
%TO.P,R11,2*%
%TO.N,/SIGNAL_INPUT*%
X155710000Y-47020000D03*
%TD*%
D12*
%TO.P,R12,1*%
%TO.N,Net-(R11-Pad1)*%
X145400000Y-54590000D03*
D13*
%TO.P,R12,2*%
%TO.N,/OUT1*%
X155560000Y-54590000D03*
%TD*%
D12*
%TO.P,R13,1*%
%TO.N,Net-(R13-Pad1)*%
X145344000Y-62386000D03*
D13*
%TO.P,R13,2*%
%TO.N,/OUT1*%
X155504000Y-62386000D03*
%TD*%
D12*
%TO.P,R14,1*%
%TO.N,Net-(R13-Pad1)*%
X145400000Y-69820000D03*
D13*
%TO.P,R14,2*%
%TO.N,/OUT2*%
X155560000Y-69820000D03*
%TD*%
D12*
%TO.P,R15,1*%
%TO.N,Net-(R15-Pad1)*%
X145242000Y-76882000D03*
D13*
%TO.P,R15,2*%
%TO.N,/OUT2*%
X155402000Y-76882000D03*
%TD*%
D12*
%TO.P,R16,1*%
%TO.N,Net-(R15-Pad1)*%
X145115000Y-84496000D03*
D13*
%TO.P,R16,2*%
%TO.N,/OUT3*%
X155275000Y-84496000D03*
%TD*%
D12*
%TO.P,R17,1*%
%TO.N,Net-(R17-Pad1)*%
X145115000Y-91476000D03*
D13*
%TO.P,R17,2*%
%TO.N,/OUT3*%
X155275000Y-91476000D03*
%TD*%
D12*
%TO.P,R18,1*%
%TO.N,Net-(R17-Pad1)*%
X144995000Y-98466000D03*
D13*
%TO.P,R18,2*%
%TO.N,/OUT4*%
X155155000Y-98466000D03*
%TD*%
D12*
%TO.P,R19,1*%
%TO.N,Net-(R19-Pad1)*%
X144995000Y-105446000D03*
D13*
%TO.P,R19,2*%
%TO.N,-12V*%
X155155000Y-105446000D03*
%TD*%
D12*
%TO.P,R20,1*%
%TO.N,/SIGNAL_OUTPUT*%
X144995000Y-112306000D03*
D13*
%TO.P,R20,2*%
%TO.N,/VRES*%
X155155000Y-112306000D03*
%TD*%
D19*
%TO.N,GND*%
X185340000Y-40260000D02*
X185340000Y-41500300D01*
X185910000Y-65590000D02*
X185910000Y-64349700D01*
X185910000Y-64349700D02*
X186764700Y-63495000D01*
X186764700Y-63495000D02*
X186764700Y-42770000D01*
X186764700Y-42770000D02*
X185495000Y-41500300D01*
X185495000Y-41500300D02*
X185340000Y-41500300D01*
X161698000Y-121742000D02*
X166748000Y-116692000D01*
X166748000Y-116692000D02*
X166748000Y-113622000D01*
X129950000Y-112180000D02*
X140073600Y-122303600D01*
X140073600Y-122303600D02*
X161136400Y-122303600D01*
X161136400Y-122303600D02*
X161698000Y-121742000D01*
X176594000Y-113630000D02*
X171544000Y-118680000D01*
X171544000Y-118680000D02*
X171544000Y-121750000D01*
%TO.N,Net-(C1-Pad2)*%
X164430000Y-92925300D02*
X164711400Y-92925300D01*
X164711400Y-92925300D02*
X165555300Y-93769200D01*
X165555300Y-93769200D02*
X165555300Y-94522800D01*
X165555300Y-94522800D02*
X171722500Y-100690000D01*
X171722500Y-100690000D02*
X172418000Y-100690000D01*
X172418000Y-100690000D02*
X177979100Y-106251100D01*
X177979100Y-106251100D02*
X177979100Y-120314900D01*
X177979100Y-120314900D02*
X176544000Y-121750000D01*
X164430000Y-91800000D02*
X164430000Y-92925300D01*
%TO.N,Net-(C3-Pad2)*%
X164430000Y-94340000D02*
X164430000Y-95465300D01*
X166698000Y-121742000D02*
X168080300Y-120359700D01*
X168080300Y-120359700D02*
X168080300Y-98834300D01*
X168080300Y-98834300D02*
X164711300Y-95465300D01*
X164711300Y-95465300D02*
X164430000Y-95465300D01*
%TO.N,Net-(C4-Pad1)*%
X172050000Y-101960000D02*
X172050000Y-103085300D01*
X171594000Y-113630000D02*
X170924700Y-112960700D01*
X170924700Y-112960700D02*
X170924700Y-103929200D01*
X170924700Y-103929200D02*
X171768600Y-103085300D01*
X171768600Y-103085300D02*
X172050000Y-103085300D01*
%TO.N,/OUT4*%
X155155000Y-98466000D02*
X155155000Y-99591300D01*
X152730000Y-121170000D02*
X152730000Y-102016300D01*
X152730000Y-102016300D02*
X155155000Y-99591300D01*
%TO.N,-12V*%
X140330000Y-84360000D02*
X140260000Y-84360000D01*
X155155000Y-104320700D02*
X156333800Y-103141900D01*
X156333800Y-103141900D02*
X156333800Y-98041600D01*
X156333800Y-98041600D02*
X142652200Y-84360000D01*
X142652200Y-84360000D02*
X140330000Y-84360000D01*
X140330000Y-84360000D02*
X140330000Y-78215300D01*
X140330000Y-77090000D02*
X140330000Y-78215300D01*
X155155000Y-105446000D02*
X155155000Y-104320700D01*
X140330000Y-69890000D02*
X140330000Y-62470000D01*
X140330000Y-77090000D02*
X140330000Y-69890000D01*
X140340000Y-69890000D02*
X140330000Y-69890000D01*
%TO.N,+12V*%
X130208000Y-54848000D02*
X138684400Y-63324400D01*
X138684400Y-63324400D02*
X138684400Y-88789100D01*
X138684400Y-88789100D02*
X140260000Y-90364700D01*
X172050000Y-94340000D02*
X172050000Y-93214700D01*
X172050000Y-93214700D02*
X172331300Y-93214700D01*
X172331300Y-93214700D02*
X177840000Y-87706000D01*
X177840000Y-87706000D02*
X177840000Y-59510000D01*
X140260000Y-91490000D02*
X140260000Y-90364700D01*
%TO.N,/OUT2*%
X164430000Y-96880000D02*
X164430000Y-98005300D01*
X155402000Y-76882000D02*
X155402000Y-78007300D01*
X155402000Y-78007300D02*
X162700100Y-85305400D01*
X162700100Y-85305400D02*
X164616000Y-85305400D01*
X164616000Y-85305400D02*
X165599900Y-86289300D01*
X165599900Y-86289300D02*
X165599900Y-87181200D01*
X165599900Y-87181200D02*
X164860400Y-87920700D01*
X164860400Y-87920700D02*
X164089200Y-87920700D01*
X164089200Y-87920700D02*
X162847000Y-89162900D01*
X162847000Y-89162900D02*
X162847000Y-99457000D01*
X162847000Y-99457000D02*
X163976400Y-100586400D01*
X163976400Y-100586400D02*
X164872300Y-100586400D01*
X164872300Y-100586400D02*
X165555300Y-99903400D01*
X165555300Y-99903400D02*
X165555300Y-98849200D01*
X165555300Y-98849200D02*
X164711400Y-98005300D01*
X164711400Y-98005300D02*
X164430000Y-98005300D01*
X155560000Y-70945300D02*
X155402000Y-71103300D01*
X155402000Y-71103300D02*
X155402000Y-76882000D01*
X155560000Y-69820000D02*
X155560000Y-70945300D01*
%TO.N,/OUT3*%
X155275000Y-91476000D02*
X155275000Y-84496000D01*
%TO.N,/OUT1*%
X155504000Y-62386000D02*
X155504000Y-63511300D01*
X155504000Y-63511300D02*
X161122800Y-69130100D01*
X161122800Y-69130100D02*
X161122800Y-76849600D01*
X161122800Y-76849600D02*
X166054100Y-81780900D01*
X166054100Y-81780900D02*
X166054100Y-89276700D01*
X166054100Y-89276700D02*
X164800800Y-90530000D01*
X164800800Y-90530000D02*
X164052600Y-90530000D01*
X164052600Y-90530000D02*
X163297400Y-91285200D01*
X163297400Y-91285200D02*
X163297400Y-98287400D01*
X163297400Y-98287400D02*
X164430000Y-99420000D01*
%TO.N,Net-(R11-Pad1)*%
X145400000Y-54590000D02*
X156703000Y-65893000D01*
X156703000Y-65893000D02*
X156703000Y-75327700D01*
X156703000Y-75327700D02*
X164430000Y-83054700D01*
X164430000Y-84180000D02*
X164430000Y-83054700D01*
X145400000Y-54590000D02*
X145550000Y-54440000D01*
X145550000Y-54440000D02*
X145550000Y-47020000D01*
%TO.N,Net-(R13-Pad1)*%
X145400000Y-69820000D02*
X162300000Y-86720000D01*
X162300000Y-86720000D02*
X164430000Y-86720000D01*
X145344000Y-62386000D02*
X145344000Y-69764000D01*
X145344000Y-69764000D02*
X145400000Y-69820000D01*
%TO.N,Net-(R15-Pad1)*%
X145115000Y-84496000D02*
X145115000Y-77009000D01*
X145115000Y-77009000D02*
X145242000Y-76882000D01*
%TO.N,Net-(R17-Pad1)*%
X144995000Y-98466000D02*
X143726500Y-99734500D01*
X143726500Y-99734500D02*
X139660200Y-99734500D01*
X139660200Y-99734500D02*
X136104600Y-96178900D01*
X136104600Y-96178900D02*
X136104600Y-90364600D01*
X136104600Y-90364600D02*
X130100000Y-84360000D01*
X145115000Y-91476000D02*
X145115000Y-98346000D01*
X145115000Y-98346000D02*
X144995000Y-98466000D01*
%TO.N,/SIGNAL_INPUT*%
X155710000Y-47020000D02*
X155710000Y-48145300D01*
X155710000Y-48145300D02*
X166440000Y-58875300D01*
X166440000Y-58875300D02*
X166440000Y-77650900D01*
X166440000Y-77650900D02*
X170051200Y-81262100D01*
X170051200Y-81262100D02*
X170051200Y-93971900D01*
X170051200Y-93971900D02*
X171689300Y-95610000D01*
X171689300Y-95610000D02*
X172432300Y-95610000D01*
X172432300Y-95610000D02*
X181900800Y-105078500D01*
X181900800Y-105078500D02*
X181900800Y-117160800D01*
X181900800Y-117160800D02*
X186080000Y-121340000D01*
%TO.N,/VRES*%
X164430000Y-101960000D02*
X163304700Y-101960000D01*
X155155000Y-112306000D02*
X155155000Y-111180700D01*
X155155000Y-111180700D02*
X163304700Y-103031000D01*
X163304700Y-103031000D02*
X163304700Y-101960000D01*
%TO.N,Net-(R10-Pad2)*%
X140110000Y-112180000D02*
X138984700Y-112180000D01*
X138984700Y-112180000D02*
X132234700Y-105430000D01*
X132234700Y-105430000D02*
X130030000Y-105430000D01*
%TO.N,/RESONANCE_CTRL_INPUT*%
X140190000Y-98590000D02*
X140190000Y-97464700D01*
X140190000Y-97464700D02*
X141401800Y-96252900D01*
X141401800Y-96252900D02*
X141401800Y-89881800D01*
X141401800Y-89881800D02*
X139134700Y-87614700D01*
X139134700Y-87614700D02*
X139134700Y-51772300D01*
X139134700Y-51772300D02*
X145036200Y-45870800D01*
X145036200Y-45870800D02*
X160753300Y-45870800D01*
X160753300Y-45870800D02*
X167640000Y-52757500D01*
%TD*%
M02*
