%TF.GenerationSoftware,KiCad,Pcbnew,5.1.8*%
%TF.CreationDate,2020-12-17T16:54:15+01:00*%
%TF.ProjectId,AS3320-VCF,41533333-3230-42d5-9643-462e6b696361,1*%
%TF.SameCoordinates,Original*%
%TF.FileFunction,Legend,Top*%
%TF.FilePolarity,Positive*%
%FSLAX46Y46*%
G04 Gerber Fmt 4.6, Leading zero omitted, Abs format (unit mm)*
G04 Created by KiCad (PCBNEW 5.1.8) date 2020-12-17 16:54:15*
%MOMM*%
%LPD*%
G01*
G04 APERTURE LIST*
%ADD10C,0.300000*%
%ADD11C,0.120000*%
%ADD12C,0.127000*%
%ADD13C,0.150000*%
%ADD14C,0.015000*%
%ADD15C,0.250000*%
G04 APERTURE END LIST*
D10*
X138092571Y-76138857D02*
X136592571Y-76138857D01*
X137664000Y-75638857D01*
X136592571Y-75138857D01*
X138092571Y-75138857D01*
X137664000Y-74496000D02*
X137664000Y-73781714D01*
X138092571Y-74638857D02*
X136592571Y-74138857D01*
X138092571Y-73638857D01*
X138092571Y-73138857D02*
X136592571Y-73138857D01*
X138092571Y-72281714D02*
X137235428Y-72924571D01*
X136592571Y-72281714D02*
X137449714Y-73138857D01*
X137306857Y-71638857D02*
X137306857Y-71138857D01*
X138092571Y-70924571D02*
X138092571Y-71638857D01*
X136592571Y-71638857D01*
X136592571Y-70924571D01*
X138021142Y-69210285D02*
X138092571Y-68996000D01*
X138092571Y-68638857D01*
X138021142Y-68496000D01*
X137949714Y-68424571D01*
X137806857Y-68353142D01*
X137664000Y-68353142D01*
X137521142Y-68424571D01*
X137449714Y-68496000D01*
X137378285Y-68638857D01*
X137306857Y-68924571D01*
X137235428Y-69067428D01*
X137164000Y-69138857D01*
X137021142Y-69210285D01*
X136878285Y-69210285D01*
X136735428Y-69138857D01*
X136664000Y-69067428D01*
X136592571Y-68924571D01*
X136592571Y-68567428D01*
X136664000Y-68353142D01*
X137378285Y-67424571D02*
X138092571Y-67424571D01*
X136592571Y-67924571D02*
X137378285Y-67424571D01*
X136592571Y-66924571D01*
X138092571Y-66424571D02*
X136592571Y-66424571D01*
X138092571Y-65567428D01*
X136592571Y-65567428D01*
X136592571Y-65067428D02*
X136592571Y-64210285D01*
X138092571Y-64638857D02*
X136592571Y-64638857D01*
X138092571Y-63710285D02*
X136592571Y-63710285D01*
X137306857Y-63710285D02*
X137306857Y-62853142D01*
X138092571Y-62853142D02*
X136592571Y-62853142D01*
X138021142Y-62210285D02*
X138092571Y-61996000D01*
X138092571Y-61638857D01*
X138021142Y-61496000D01*
X137949714Y-61424571D01*
X137806857Y-61353142D01*
X137664000Y-61353142D01*
X137521142Y-61424571D01*
X137449714Y-61496000D01*
X137378285Y-61638857D01*
X137306857Y-61924571D01*
X137235428Y-62067428D01*
X137164000Y-62138857D01*
X137021142Y-62210285D01*
X136878285Y-62210285D01*
X136735428Y-62138857D01*
X136664000Y-62067428D01*
X136592571Y-61924571D01*
X136592571Y-61567428D01*
X136664000Y-61353142D01*
X138092571Y-59567428D02*
X136592571Y-59567428D01*
X138092571Y-58710285D01*
X136592571Y-58710285D01*
X136592571Y-57710285D02*
X136592571Y-57424571D01*
X136664000Y-57281714D01*
X136806857Y-57138857D01*
X137092571Y-57067428D01*
X137592571Y-57067428D01*
X137878285Y-57138857D01*
X138021142Y-57281714D01*
X138092571Y-57424571D01*
X138092571Y-57710285D01*
X138021142Y-57853142D01*
X137878285Y-57996000D01*
X137592571Y-58067428D01*
X137092571Y-58067428D01*
X136806857Y-57996000D01*
X136664000Y-57853142D01*
X136592571Y-57710285D01*
X136592571Y-56638857D02*
X136592571Y-55781714D01*
X138092571Y-56210285D02*
X136592571Y-56210285D01*
X136592571Y-54281714D02*
X138092571Y-53924571D01*
X137021142Y-53638857D01*
X138092571Y-53353142D01*
X136592571Y-52996000D01*
X137664000Y-52496000D02*
X137664000Y-51781714D01*
X138092571Y-52638857D02*
X136592571Y-52138857D01*
X138092571Y-51638857D01*
X138092571Y-50281714D02*
X137378285Y-50781714D01*
X138092571Y-51138857D02*
X136592571Y-51138857D01*
X136592571Y-50567428D01*
X136664000Y-50424571D01*
X136735428Y-50353142D01*
X136878285Y-50281714D01*
X137092571Y-50281714D01*
X137235428Y-50353142D01*
X137306857Y-50424571D01*
X137378285Y-50567428D01*
X137378285Y-51138857D01*
X156912571Y-117838000D02*
X156912571Y-116980857D01*
X158412571Y-117409428D02*
X156912571Y-117409428D01*
X158412571Y-116480857D02*
X156912571Y-116480857D01*
X157626857Y-116480857D02*
X157626857Y-115623714D01*
X158412571Y-115623714D02*
X156912571Y-115623714D01*
X158412571Y-114909428D02*
X156912571Y-114909428D01*
X158341142Y-114266571D02*
X158412571Y-114052285D01*
X158412571Y-113695142D01*
X158341142Y-113552285D01*
X158269714Y-113480857D01*
X158126857Y-113409428D01*
X157984000Y-113409428D01*
X157841142Y-113480857D01*
X157769714Y-113552285D01*
X157698285Y-113695142D01*
X157626857Y-113980857D01*
X157555428Y-114123714D01*
X157484000Y-114195142D01*
X157341142Y-114266571D01*
X157198285Y-114266571D01*
X157055428Y-114195142D01*
X156984000Y-114123714D01*
X156912571Y-113980857D01*
X156912571Y-113623714D01*
X156984000Y-113409428D01*
X158412571Y-111623714D02*
X156912571Y-111623714D01*
X157984000Y-111123714D01*
X156912571Y-110623714D01*
X158412571Y-110623714D01*
X157984000Y-109980857D02*
X157984000Y-109266571D01*
X158412571Y-110123714D02*
X156912571Y-109623714D01*
X158412571Y-109123714D01*
X158269714Y-107766571D02*
X158341142Y-107838000D01*
X158412571Y-108052285D01*
X158412571Y-108195142D01*
X158341142Y-108409428D01*
X158198285Y-108552285D01*
X158055428Y-108623714D01*
X157769714Y-108695142D01*
X157555428Y-108695142D01*
X157269714Y-108623714D01*
X157126857Y-108552285D01*
X156984000Y-108409428D01*
X156912571Y-108195142D01*
X156912571Y-108052285D01*
X156984000Y-107838000D01*
X157055428Y-107766571D01*
X158412571Y-107123714D02*
X156912571Y-107123714D01*
X157626857Y-107123714D02*
X157626857Y-106266571D01*
X158412571Y-106266571D02*
X156912571Y-106266571D01*
X158412571Y-105552285D02*
X156912571Y-105552285D01*
X158412571Y-104838000D02*
X156912571Y-104838000D01*
X158412571Y-103980857D01*
X156912571Y-103980857D01*
X157626857Y-103266571D02*
X157626857Y-102766571D01*
X158412571Y-102552285D02*
X158412571Y-103266571D01*
X156912571Y-103266571D01*
X156912571Y-102552285D01*
X158412571Y-100766571D02*
X156912571Y-100766571D01*
X158412571Y-99909428D02*
X157555428Y-100552285D01*
X156912571Y-99909428D02*
X157769714Y-100766571D01*
X158412571Y-99266571D02*
X156912571Y-99266571D01*
X158412571Y-97838000D02*
X158412571Y-98552285D01*
X156912571Y-98552285D01*
X158412571Y-96623714D02*
X158412571Y-97338000D01*
X156912571Y-97338000D01*
X158341142Y-96195142D02*
X158412571Y-95980857D01*
X158412571Y-95623714D01*
X158341142Y-95480857D01*
X158269714Y-95409428D01*
X158126857Y-95338000D01*
X157984000Y-95338000D01*
X157841142Y-95409428D01*
X157769714Y-95480857D01*
X157698285Y-95623714D01*
X157626857Y-95909428D01*
X157555428Y-96052285D01*
X157484000Y-96123714D01*
X157341142Y-96195142D01*
X157198285Y-96195142D01*
X157055428Y-96123714D01*
X156984000Y-96052285D01*
X156912571Y-95909428D01*
X156912571Y-95552285D01*
X156984000Y-95338000D01*
X157626857Y-93052285D02*
X157626857Y-93552285D01*
X158412571Y-93552285D02*
X156912571Y-93552285D01*
X156912571Y-92838000D01*
X157984000Y-92338000D02*
X157984000Y-91623714D01*
X158412571Y-92480857D02*
X156912571Y-91980857D01*
X158412571Y-91480857D01*
X158341142Y-91052285D02*
X158412571Y-90838000D01*
X158412571Y-90480857D01*
X158341142Y-90338000D01*
X158269714Y-90266571D01*
X158126857Y-90195142D01*
X157984000Y-90195142D01*
X157841142Y-90266571D01*
X157769714Y-90338000D01*
X157698285Y-90480857D01*
X157626857Y-90766571D01*
X157555428Y-90909428D01*
X157484000Y-90980857D01*
X157341142Y-91052285D01*
X157198285Y-91052285D01*
X157055428Y-90980857D01*
X156984000Y-90909428D01*
X156912571Y-90766571D01*
X156912571Y-90409428D01*
X156984000Y-90195142D01*
X158269714Y-88695142D02*
X158341142Y-88766571D01*
X158412571Y-88980857D01*
X158412571Y-89123714D01*
X158341142Y-89338000D01*
X158198285Y-89480857D01*
X158055428Y-89552285D01*
X157769714Y-89623714D01*
X157555428Y-89623714D01*
X157269714Y-89552285D01*
X157126857Y-89480857D01*
X156984000Y-89338000D01*
X156912571Y-89123714D01*
X156912571Y-88980857D01*
X156984000Y-88766571D01*
X157055428Y-88695142D01*
X158412571Y-88052285D02*
X156912571Y-88052285D01*
X158341142Y-87409428D02*
X158412571Y-87195142D01*
X158412571Y-86838000D01*
X158341142Y-86695142D01*
X158269714Y-86623714D01*
X158126857Y-86552285D01*
X157984000Y-86552285D01*
X157841142Y-86623714D01*
X157769714Y-86695142D01*
X157698285Y-86838000D01*
X157626857Y-87123714D01*
X157555428Y-87266571D01*
X157484000Y-87338000D01*
X157341142Y-87409428D01*
X157198285Y-87409428D01*
X157055428Y-87338000D01*
X156984000Y-87266571D01*
X156912571Y-87123714D01*
X156912571Y-86766571D01*
X156984000Y-86552285D01*
X156912571Y-86123714D02*
X156912571Y-85266571D01*
X158412571Y-85695142D02*
X156912571Y-85695142D01*
X158341142Y-84838000D02*
X158412571Y-84623714D01*
X158412571Y-84266571D01*
X158341142Y-84123714D01*
X158269714Y-84052285D01*
X158126857Y-83980857D01*
X157984000Y-83980857D01*
X157841142Y-84052285D01*
X157769714Y-84123714D01*
X157698285Y-84266571D01*
X157626857Y-84552285D01*
X157555428Y-84695142D01*
X157484000Y-84766571D01*
X157341142Y-84838000D01*
X157198285Y-84838000D01*
X157055428Y-84766571D01*
X156984000Y-84695142D01*
X156912571Y-84552285D01*
X156912571Y-84195142D01*
X156984000Y-83980857D01*
X115649142Y-140790285D02*
X115720571Y-140576000D01*
X115720571Y-140218857D01*
X115649142Y-140076000D01*
X115577714Y-140004571D01*
X115434857Y-139933142D01*
X115292000Y-139933142D01*
X115149142Y-140004571D01*
X115077714Y-140076000D01*
X115006285Y-140218857D01*
X114934857Y-140504571D01*
X114863428Y-140647428D01*
X114792000Y-140718857D01*
X114649142Y-140790285D01*
X114506285Y-140790285D01*
X114363428Y-140718857D01*
X114292000Y-140647428D01*
X114220571Y-140504571D01*
X114220571Y-140147428D01*
X114292000Y-139933142D01*
X114934857Y-139290285D02*
X114934857Y-138790285D01*
X115720571Y-138576000D02*
X115720571Y-139290285D01*
X114220571Y-139290285D01*
X114220571Y-138576000D01*
X115292000Y-138004571D02*
X115292000Y-137290285D01*
X115720571Y-138147428D02*
X114220571Y-137647428D01*
X115720571Y-137147428D01*
X114220571Y-136861714D02*
X114220571Y-136004571D01*
X115720571Y-136433142D02*
X114220571Y-136433142D01*
X114220571Y-135718857D02*
X114220571Y-134861714D01*
X115720571Y-135290285D02*
X114220571Y-135290285D01*
X115720571Y-133647428D02*
X115720571Y-134361714D01*
X114220571Y-134361714D01*
X114934857Y-133147428D02*
X114934857Y-132647428D01*
X115720571Y-132433142D02*
X115720571Y-133147428D01*
X114220571Y-133147428D01*
X114220571Y-132433142D01*
X115649142Y-130718857D02*
X115720571Y-130504571D01*
X115720571Y-130147428D01*
X115649142Y-130004571D01*
X115577714Y-129933142D01*
X115434857Y-129861714D01*
X115292000Y-129861714D01*
X115149142Y-129933142D01*
X115077714Y-130004571D01*
X115006285Y-130147428D01*
X114934857Y-130433142D01*
X114863428Y-130576000D01*
X114792000Y-130647428D01*
X114649142Y-130718857D01*
X114506285Y-130718857D01*
X114363428Y-130647428D01*
X114292000Y-130576000D01*
X114220571Y-130433142D01*
X114220571Y-130076000D01*
X114292000Y-129861714D01*
X115006285Y-128933142D02*
X115720571Y-128933142D01*
X114220571Y-129433142D02*
X115006285Y-128933142D01*
X114220571Y-128433142D01*
X115720571Y-127933142D02*
X114220571Y-127933142D01*
X115720571Y-127076000D01*
X114220571Y-127076000D01*
X114220571Y-126576000D02*
X114220571Y-125718857D01*
X115720571Y-126147428D02*
X114220571Y-126147428D01*
X115720571Y-125218857D02*
X114220571Y-125218857D01*
X114934857Y-125218857D02*
X114934857Y-124361714D01*
X115720571Y-124361714D02*
X114220571Y-124361714D01*
X115649142Y-123718857D02*
X115720571Y-123504571D01*
X115720571Y-123147428D01*
X115649142Y-123004571D01*
X115577714Y-122933142D01*
X115434857Y-122861714D01*
X115292000Y-122861714D01*
X115149142Y-122933142D01*
X115077714Y-123004571D01*
X115006285Y-123147428D01*
X114934857Y-123433142D01*
X114863428Y-123576000D01*
X114792000Y-123647428D01*
X114649142Y-123718857D01*
X114506285Y-123718857D01*
X114363428Y-123647428D01*
X114292000Y-123576000D01*
X114220571Y-123433142D01*
X114220571Y-123076000D01*
X114292000Y-122861714D01*
X118199142Y-137576000D02*
X118270571Y-137361714D01*
X118270571Y-137004571D01*
X118199142Y-136861714D01*
X118127714Y-136790285D01*
X117984857Y-136718857D01*
X117842000Y-136718857D01*
X117699142Y-136790285D01*
X117627714Y-136861714D01*
X117556285Y-137004571D01*
X117484857Y-137290285D01*
X117413428Y-137433142D01*
X117342000Y-137504571D01*
X117199142Y-137576000D01*
X117056285Y-137576000D01*
X116913428Y-137504571D01*
X116842000Y-137433142D01*
X116770571Y-137290285D01*
X116770571Y-136933142D01*
X116842000Y-136718857D01*
X118199142Y-136147428D02*
X118270571Y-135933142D01*
X118270571Y-135576000D01*
X118199142Y-135433142D01*
X118127714Y-135361714D01*
X117984857Y-135290285D01*
X117842000Y-135290285D01*
X117699142Y-135361714D01*
X117627714Y-135433142D01*
X117556285Y-135576000D01*
X117484857Y-135861714D01*
X117413428Y-136004571D01*
X117342000Y-136076000D01*
X117199142Y-136147428D01*
X117056285Y-136147428D01*
X116913428Y-136076000D01*
X116842000Y-136004571D01*
X116770571Y-135861714D01*
X116770571Y-135504571D01*
X116842000Y-135290285D01*
X117699142Y-134647428D02*
X117699142Y-133504571D01*
X116770571Y-133004571D02*
X118270571Y-132504571D01*
X116770571Y-132004571D01*
X118127714Y-130647428D02*
X118199142Y-130718857D01*
X118270571Y-130933142D01*
X118270571Y-131076000D01*
X118199142Y-131290285D01*
X118056285Y-131433142D01*
X117913428Y-131504571D01*
X117627714Y-131576000D01*
X117413428Y-131576000D01*
X117127714Y-131504571D01*
X116984857Y-131433142D01*
X116842000Y-131290285D01*
X116770571Y-131076000D01*
X116770571Y-130933142D01*
X116842000Y-130718857D01*
X116913428Y-130647428D01*
X117484857Y-129504571D02*
X117484857Y-130004571D01*
X118270571Y-130004571D02*
X116770571Y-130004571D01*
X116770571Y-129290285D01*
X117699142Y-128718857D02*
X117699142Y-127576000D01*
X118270571Y-126076000D02*
X118270571Y-126933142D01*
X118270571Y-126504571D02*
X116770571Y-126504571D01*
X116984857Y-126647428D01*
X117127714Y-126790285D01*
X117199142Y-126933142D01*
X120820571Y-142826000D02*
X120106285Y-143326000D01*
X120820571Y-143683142D02*
X119320571Y-143683142D01*
X119320571Y-143111714D01*
X119392000Y-142968857D01*
X119463428Y-142897428D01*
X119606285Y-142826000D01*
X119820571Y-142826000D01*
X119963428Y-142897428D01*
X120034857Y-142968857D01*
X120106285Y-143111714D01*
X120106285Y-143683142D01*
X120034857Y-142183142D02*
X120034857Y-141683142D01*
X120820571Y-141468857D02*
X120820571Y-142183142D01*
X119320571Y-142183142D01*
X119320571Y-141468857D01*
X119320571Y-141040285D02*
X120820571Y-140540285D01*
X119320571Y-140040285D01*
X120677714Y-139540285D02*
X120749142Y-139468857D01*
X120820571Y-139540285D01*
X120749142Y-139611714D01*
X120677714Y-139540285D01*
X120820571Y-139540285D01*
X119463428Y-137754571D02*
X119392000Y-137683142D01*
X119320571Y-137540285D01*
X119320571Y-137183142D01*
X119392000Y-137040285D01*
X119463428Y-136968857D01*
X119606285Y-136897428D01*
X119749142Y-136897428D01*
X119963428Y-136968857D01*
X120820571Y-137826000D01*
X120820571Y-136897428D01*
X120749142Y-136183142D02*
X120820571Y-136183142D01*
X120963428Y-136254571D01*
X121034857Y-136326000D01*
X119463428Y-134468857D02*
X119392000Y-134397428D01*
X119320571Y-134254571D01*
X119320571Y-133897428D01*
X119392000Y-133754571D01*
X119463428Y-133683142D01*
X119606285Y-133611714D01*
X119749142Y-133611714D01*
X119963428Y-133683142D01*
X120820571Y-134540285D01*
X120820571Y-133611714D01*
X119320571Y-132683142D02*
X119320571Y-132540285D01*
X119392000Y-132397428D01*
X119463428Y-132326000D01*
X119606285Y-132254571D01*
X119892000Y-132183142D01*
X120249142Y-132183142D01*
X120534857Y-132254571D01*
X120677714Y-132326000D01*
X120749142Y-132397428D01*
X120820571Y-132540285D01*
X120820571Y-132683142D01*
X120749142Y-132826000D01*
X120677714Y-132897428D01*
X120534857Y-132968857D01*
X120249142Y-133040285D01*
X119892000Y-133040285D01*
X119606285Y-132968857D01*
X119463428Y-132897428D01*
X119392000Y-132826000D01*
X119320571Y-132683142D01*
X119463428Y-131611714D02*
X119392000Y-131540285D01*
X119320571Y-131397428D01*
X119320571Y-131040285D01*
X119392000Y-130897428D01*
X119463428Y-130826000D01*
X119606285Y-130754571D01*
X119749142Y-130754571D01*
X119963428Y-130826000D01*
X120820571Y-131683142D01*
X120820571Y-130754571D01*
X119320571Y-129826000D02*
X119320571Y-129683142D01*
X119392000Y-129540285D01*
X119463428Y-129468857D01*
X119606285Y-129397428D01*
X119892000Y-129326000D01*
X120249142Y-129326000D01*
X120534857Y-129397428D01*
X120677714Y-129468857D01*
X120749142Y-129540285D01*
X120820571Y-129683142D01*
X120820571Y-129826000D01*
X120749142Y-129968857D01*
X120677714Y-130040285D01*
X120534857Y-130111714D01*
X120249142Y-130183142D01*
X119892000Y-130183142D01*
X119606285Y-130111714D01*
X119463428Y-130040285D01*
X119392000Y-129968857D01*
X119320571Y-129826000D01*
X120249142Y-128683142D02*
X120249142Y-127540285D01*
X120820571Y-126040285D02*
X120820571Y-126897428D01*
X120820571Y-126468857D02*
X119320571Y-126468857D01*
X119534857Y-126611714D01*
X119677714Y-126754571D01*
X119749142Y-126897428D01*
X119463428Y-125468857D02*
X119392000Y-125397428D01*
X119320571Y-125254571D01*
X119320571Y-124897428D01*
X119392000Y-124754571D01*
X119463428Y-124683142D01*
X119606285Y-124611714D01*
X119749142Y-124611714D01*
X119963428Y-124683142D01*
X120820571Y-125540285D01*
X120820571Y-124611714D01*
X120249142Y-123968857D02*
X120249142Y-122826000D01*
X119320571Y-121826000D02*
X119320571Y-121683142D01*
X119392000Y-121540285D01*
X119463428Y-121468857D01*
X119606285Y-121397428D01*
X119892000Y-121326000D01*
X120249142Y-121326000D01*
X120534857Y-121397428D01*
X120677714Y-121468857D01*
X120749142Y-121540285D01*
X120820571Y-121683142D01*
X120820571Y-121826000D01*
X120749142Y-121968857D01*
X120677714Y-122040285D01*
X120534857Y-122111714D01*
X120249142Y-122183142D01*
X119892000Y-122183142D01*
X119606285Y-122111714D01*
X119463428Y-122040285D01*
X119392000Y-121968857D01*
X119320571Y-121826000D01*
X119320571Y-120826000D02*
X119320571Y-119826000D01*
X120820571Y-120468857D01*
X123370571Y-149004571D02*
X121870571Y-149004571D01*
X121870571Y-148647428D01*
X121942000Y-148433142D01*
X122084857Y-148290285D01*
X122227714Y-148218857D01*
X122513428Y-148147428D01*
X122727714Y-148147428D01*
X123013428Y-148218857D01*
X123156285Y-148290285D01*
X123299142Y-148433142D01*
X123370571Y-148647428D01*
X123370571Y-149004571D01*
X122584857Y-147504571D02*
X122584857Y-147004571D01*
X123370571Y-146790285D02*
X123370571Y-147504571D01*
X121870571Y-147504571D01*
X121870571Y-146790285D01*
X123299142Y-146218857D02*
X123370571Y-146004571D01*
X123370571Y-145647428D01*
X123299142Y-145504571D01*
X123227714Y-145433142D01*
X123084857Y-145361714D01*
X122942000Y-145361714D01*
X122799142Y-145433142D01*
X122727714Y-145504571D01*
X122656285Y-145647428D01*
X122584857Y-145933142D01*
X122513428Y-146076000D01*
X122442000Y-146147428D01*
X122299142Y-146218857D01*
X122156285Y-146218857D01*
X122013428Y-146147428D01*
X121942000Y-146076000D01*
X121870571Y-145933142D01*
X121870571Y-145576000D01*
X121942000Y-145361714D01*
X123370571Y-144718857D02*
X121870571Y-144718857D01*
X121942000Y-143218857D02*
X121870571Y-143361714D01*
X121870571Y-143576000D01*
X121942000Y-143790285D01*
X122084857Y-143933142D01*
X122227714Y-144004571D01*
X122513428Y-144076000D01*
X122727714Y-144076000D01*
X123013428Y-144004571D01*
X123156285Y-143933142D01*
X123299142Y-143790285D01*
X123370571Y-143576000D01*
X123370571Y-143433142D01*
X123299142Y-143218857D01*
X123227714Y-143147428D01*
X122727714Y-143147428D01*
X122727714Y-143433142D01*
X123370571Y-142504571D02*
X121870571Y-142504571D01*
X123370571Y-141647428D01*
X121870571Y-141647428D01*
X122584857Y-140933142D02*
X122584857Y-140433142D01*
X123370571Y-140218857D02*
X123370571Y-140933142D01*
X121870571Y-140933142D01*
X121870571Y-140218857D01*
X123370571Y-139576000D02*
X121870571Y-139576000D01*
X121870571Y-139218857D01*
X121942000Y-139004571D01*
X122084857Y-138861714D01*
X122227714Y-138790285D01*
X122513428Y-138718857D01*
X122727714Y-138718857D01*
X123013428Y-138790285D01*
X123156285Y-138861714D01*
X123299142Y-139004571D01*
X123370571Y-139218857D01*
X123370571Y-139576000D01*
X122584857Y-136433142D02*
X122656285Y-136218857D01*
X122727714Y-136147428D01*
X122870571Y-136076000D01*
X123084857Y-136076000D01*
X123227714Y-136147428D01*
X123299142Y-136218857D01*
X123370571Y-136361714D01*
X123370571Y-136933142D01*
X121870571Y-136933142D01*
X121870571Y-136433142D01*
X121942000Y-136290285D01*
X122013428Y-136218857D01*
X122156285Y-136147428D01*
X122299142Y-136147428D01*
X122442000Y-136218857D01*
X122513428Y-136290285D01*
X122584857Y-136433142D01*
X122584857Y-136933142D01*
X122656285Y-135147428D02*
X123370571Y-135147428D01*
X121870571Y-135647428D02*
X122656285Y-135147428D01*
X121870571Y-134647428D01*
X123370571Y-133004571D02*
X121870571Y-133004571D01*
X123370571Y-132147428D01*
X121870571Y-132147428D01*
X122942000Y-131504571D02*
X122942000Y-130790285D01*
X123370571Y-131647428D02*
X121870571Y-131147428D01*
X123370571Y-130647428D01*
X121870571Y-130361714D02*
X121870571Y-129504571D01*
X123370571Y-129933142D02*
X121870571Y-129933142D01*
X123370571Y-129004571D02*
X121870571Y-129004571D01*
X122584857Y-129004571D02*
X122584857Y-128147428D01*
X123370571Y-128147428D02*
X121870571Y-128147428D01*
X122942000Y-127504571D02*
X122942000Y-126790285D01*
X123370571Y-127647428D02*
X121870571Y-127147428D01*
X123370571Y-126647428D01*
X123370571Y-126147428D02*
X121870571Y-126147428D01*
X123370571Y-125290285D01*
X121870571Y-125290285D01*
X123370571Y-124576000D02*
X121870571Y-124576000D01*
X122584857Y-123861714D02*
X122584857Y-123361714D01*
X123370571Y-123147428D02*
X123370571Y-123861714D01*
X121870571Y-123861714D01*
X121870571Y-123147428D01*
X123370571Y-121790285D02*
X123370571Y-122504571D01*
X121870571Y-122504571D01*
X123370571Y-120147428D02*
X121870571Y-120147428D01*
X122584857Y-120147428D02*
X122584857Y-119290285D01*
X123370571Y-119290285D02*
X121870571Y-119290285D01*
X121870571Y-118290285D02*
X121870571Y-118004571D01*
X121942000Y-117861714D01*
X122084857Y-117718857D01*
X122370571Y-117647428D01*
X122870571Y-117647428D01*
X123156285Y-117718857D01*
X123299142Y-117861714D01*
X123370571Y-118004571D01*
X123370571Y-118290285D01*
X123299142Y-118433142D01*
X123156285Y-118576000D01*
X122870571Y-118647428D01*
X122370571Y-118647428D01*
X122084857Y-118576000D01*
X121942000Y-118433142D01*
X121870571Y-118290285D01*
X121870571Y-117004571D02*
X123084857Y-117004571D01*
X123227714Y-116933142D01*
X123299142Y-116861714D01*
X123370571Y-116718857D01*
X123370571Y-116433142D01*
X123299142Y-116290285D01*
X123227714Y-116218857D01*
X123084857Y-116147428D01*
X121870571Y-116147428D01*
X123370571Y-115433142D02*
X121870571Y-115433142D01*
X123370571Y-114576000D02*
X122513428Y-115218857D01*
X121870571Y-114576000D02*
X122727714Y-115433142D01*
X125920571Y-143040285D02*
X124420571Y-143040285D01*
X125492000Y-142540285D01*
X124420571Y-142040285D01*
X125920571Y-142040285D01*
X125492000Y-141397428D02*
X125492000Y-140683142D01*
X125920571Y-141540285D02*
X124420571Y-141040285D01*
X125920571Y-140540285D01*
X125920571Y-140040285D02*
X124420571Y-140040285D01*
X124420571Y-139683142D01*
X124492000Y-139468857D01*
X124634857Y-139326000D01*
X124777714Y-139254571D01*
X125063428Y-139183142D01*
X125277714Y-139183142D01*
X125563428Y-139254571D01*
X125706285Y-139326000D01*
X125849142Y-139468857D01*
X125920571Y-139683142D01*
X125920571Y-140040285D01*
X125134857Y-138540285D02*
X125134857Y-138040285D01*
X125920571Y-137826000D02*
X125920571Y-138540285D01*
X124420571Y-138540285D01*
X124420571Y-137826000D01*
X124420571Y-136183142D02*
X125920571Y-135826000D01*
X124849142Y-135540285D01*
X125920571Y-135254571D01*
X124420571Y-134897428D01*
X125920571Y-134326000D02*
X124420571Y-134326000D01*
X124420571Y-133826000D02*
X124420571Y-132968857D01*
X125920571Y-133397428D02*
X124420571Y-133397428D01*
X125920571Y-132468857D02*
X124420571Y-132468857D01*
X125134857Y-132468857D02*
X125134857Y-131611714D01*
X125920571Y-131611714D02*
X124420571Y-131611714D01*
X125920571Y-129040285D02*
X125920571Y-129754571D01*
X124420571Y-129754571D01*
X124420571Y-128254571D02*
X124420571Y-127968857D01*
X124492000Y-127826000D01*
X124634857Y-127683142D01*
X124920571Y-127611714D01*
X125420571Y-127611714D01*
X125706285Y-127683142D01*
X125849142Y-127826000D01*
X125920571Y-127968857D01*
X125920571Y-128254571D01*
X125849142Y-128397428D01*
X125706285Y-128540285D01*
X125420571Y-128611714D01*
X124920571Y-128611714D01*
X124634857Y-128540285D01*
X124492000Y-128397428D01*
X124420571Y-128254571D01*
X124420571Y-127183142D02*
X125920571Y-126683142D01*
X124420571Y-126183142D01*
X125134857Y-125683142D02*
X125134857Y-125183142D01*
X125920571Y-124968857D02*
X125920571Y-125683142D01*
X124420571Y-125683142D01*
X124420571Y-124968857D01*
X124920571Y-122040285D02*
X125349142Y-123183142D01*
X125777714Y-122040285D01*
X124420571Y-121468857D02*
X124420571Y-120540285D01*
X124992000Y-121040285D01*
X124992000Y-120826000D01*
X125063428Y-120683142D01*
X125134857Y-120611714D01*
X125277714Y-120540285D01*
X125634857Y-120540285D01*
X125777714Y-120611714D01*
X125849142Y-120683142D01*
X125920571Y-120826000D01*
X125920571Y-121254571D01*
X125849142Y-121397428D01*
X125777714Y-121468857D01*
D11*
%TO.C,U3*%
X147844000Y-82490000D02*
X146194000Y-82490000D01*
X146194000Y-82490000D02*
X146194000Y-92770000D01*
X146194000Y-92770000D02*
X151494000Y-92770000D01*
X151494000Y-92770000D02*
X151494000Y-82490000D01*
X151494000Y-82490000D02*
X149844000Y-82490000D01*
X143704000Y-82430000D02*
X143704000Y-92830000D01*
X143704000Y-92830000D02*
X153984000Y-92830000D01*
X153984000Y-92830000D02*
X153984000Y-82430000D01*
X153984000Y-82430000D02*
X143704000Y-82430000D01*
X149844000Y-82490000D02*
G75*
G02*
X147844000Y-82490000I-1000000J0D01*
G01*
%TO.C,U2*%
X133874000Y-128210000D02*
X132224000Y-128210000D01*
X132224000Y-128210000D02*
X132224000Y-151190000D01*
X132224000Y-151190000D02*
X137524000Y-151190000D01*
X137524000Y-151190000D02*
X137524000Y-128210000D01*
X137524000Y-128210000D02*
X135874000Y-128210000D01*
X129734000Y-128150000D02*
X129734000Y-151250000D01*
X129734000Y-151250000D02*
X140014000Y-151250000D01*
X140014000Y-151250000D02*
X140014000Y-128150000D01*
X140014000Y-128150000D02*
X129734000Y-128150000D01*
X135874000Y-128210000D02*
G75*
G02*
X133874000Y-128210000I-1000000J0D01*
G01*
%TO.C,U1*%
X164862000Y-82998000D02*
X163212000Y-82998000D01*
X163212000Y-82998000D02*
X163212000Y-93278000D01*
X163212000Y-93278000D02*
X168512000Y-93278000D01*
X168512000Y-93278000D02*
X168512000Y-82998000D01*
X168512000Y-82998000D02*
X166862000Y-82998000D01*
X160722000Y-82938000D02*
X160722000Y-93338000D01*
X160722000Y-93338000D02*
X171002000Y-93338000D01*
X171002000Y-93338000D02*
X171002000Y-82938000D01*
X171002000Y-82938000D02*
X160722000Y-82938000D01*
X166862000Y-82998000D02*
G75*
G02*
X164862000Y-82998000I-1000000J0D01*
G01*
D10*
%TO.C,RV9*%
X114518000Y-78586000D02*
G75*
G03*
X114518000Y-78586000I-100000J0D01*
G01*
D12*
X121973000Y-75006000D02*
X121973000Y-79506000D01*
X121973000Y-79506000D02*
X115263000Y-79506000D01*
X115263000Y-79506000D02*
X115263000Y-75006000D01*
X115263000Y-75006000D02*
X121973000Y-75006000D01*
%TO.C,RV8*%
X123899000Y-75006000D02*
X130609000Y-75006000D01*
X123899000Y-79506000D02*
X123899000Y-75006000D01*
X130609000Y-79506000D02*
X123899000Y-79506000D01*
X130609000Y-75006000D02*
X130609000Y-79506000D01*
D10*
X123154000Y-78586000D02*
G75*
G03*
X123154000Y-78586000I-100000J0D01*
G01*
D12*
%TO.C,RV7*%
X106119000Y-75006000D02*
X112829000Y-75006000D01*
X106119000Y-79506000D02*
X106119000Y-75006000D01*
X112829000Y-79506000D02*
X106119000Y-79506000D01*
X112829000Y-75006000D02*
X112829000Y-79506000D01*
D10*
X105374000Y-78586000D02*
G75*
G03*
X105374000Y-78586000I-100000J0D01*
G01*
D11*
%TO.C,R33*%
X148427221Y-74674000D02*
X148752779Y-74674000D01*
X148427221Y-75694000D02*
X148752779Y-75694000D01*
%TO.C,R32*%
X148427221Y-68832000D02*
X148752779Y-68832000D01*
X148427221Y-69852000D02*
X148752779Y-69852000D01*
%TO.C,R31*%
X143164779Y-69852000D02*
X142839221Y-69852000D01*
X143164779Y-68832000D02*
X142839221Y-68832000D01*
%TO.C,R30*%
X150205221Y-96518000D02*
X150530779Y-96518000D01*
X150205221Y-97538000D02*
X150530779Y-97538000D01*
%TO.C,R29*%
X107787221Y-53850000D02*
X108112779Y-53850000D01*
X107787221Y-52830000D02*
X108112779Y-52830000D01*
%TO.C,R28*%
X144871221Y-143000000D02*
X145196779Y-143000000D01*
X144871221Y-144020000D02*
X145196779Y-144020000D01*
%TO.C,R27*%
X143627221Y-137158000D02*
X143952779Y-137158000D01*
X143627221Y-138178000D02*
X143952779Y-138178000D01*
%TO.C,R26*%
X109128779Y-103634000D02*
X108803221Y-103634000D01*
X109128779Y-102614000D02*
X108803221Y-102614000D01*
%TO.C,R25*%
X109154779Y-99062000D02*
X108829221Y-99062000D01*
X109154779Y-98042000D02*
X108829221Y-98042000D01*
%TO.C,R24*%
X154269221Y-127506000D02*
X154594779Y-127506000D01*
X154269221Y-128526000D02*
X154594779Y-128526000D01*
%TO.C,R23*%
X132197221Y-64514000D02*
X132522779Y-64514000D01*
X132197221Y-65534000D02*
X132522779Y-65534000D01*
%TO.C,R22*%
X122519221Y-108202000D02*
X122844779Y-108202000D01*
X122519221Y-109222000D02*
X122844779Y-109222000D01*
%TO.C,R21*%
X132171221Y-59688000D02*
X132496779Y-59688000D01*
X132171221Y-60708000D02*
X132496779Y-60708000D01*
%TO.C,R20*%
X145704779Y-97792000D02*
X145379221Y-97792000D01*
X145704779Y-96772000D02*
X145379221Y-96772000D01*
%TO.C,R19*%
X127345221Y-103376000D02*
X127670779Y-103376000D01*
X127345221Y-104396000D02*
X127670779Y-104396000D01*
%TO.C,R18*%
X132171221Y-54862000D02*
X132496779Y-54862000D01*
X132171221Y-55882000D02*
X132496779Y-55882000D01*
%TO.C,R17*%
X132171221Y-50036000D02*
X132496779Y-50036000D01*
X132171221Y-51056000D02*
X132496779Y-51056000D01*
%TO.C,R16*%
X137830779Y-103376000D02*
X137505221Y-103376000D01*
X137830779Y-104396000D02*
X137505221Y-104396000D01*
%TO.C,R15*%
X109031221Y-126490000D02*
X109356779Y-126490000D01*
X109031221Y-127510000D02*
X109356779Y-127510000D01*
%TO.C,R14*%
X108803221Y-84326000D02*
X109128779Y-84326000D01*
X108803221Y-85346000D02*
X109128779Y-85346000D01*
%TO.C,R13*%
X117693221Y-52068000D02*
X118018779Y-52068000D01*
X117693221Y-53088000D02*
X118018779Y-53088000D01*
%TO.C,R12*%
X124043221Y-52068000D02*
X124368779Y-52068000D01*
X124043221Y-53088000D02*
X124368779Y-53088000D01*
%TO.C,R11*%
X107787221Y-61974000D02*
X108112779Y-61974000D01*
X107787221Y-62994000D02*
X108112779Y-62994000D01*
%TO.C,R10*%
X107787221Y-48258000D02*
X108112779Y-48258000D01*
X107787221Y-49278000D02*
X108112779Y-49278000D01*
%TO.C,R9*%
X107761221Y-43686000D02*
X108086779Y-43686000D01*
X107761221Y-44706000D02*
X108086779Y-44706000D01*
%TO.C,R8*%
X108803221Y-88898000D02*
X109128779Y-88898000D01*
X108803221Y-89918000D02*
X109128779Y-89918000D01*
%TO.C,R7*%
X118201221Y-103122000D02*
X118526779Y-103122000D01*
X118201221Y-104142000D02*
X118526779Y-104142000D01*
%TO.C,R6*%
X132425221Y-103376000D02*
X132750779Y-103376000D01*
X132425221Y-104396000D02*
X132750779Y-104396000D01*
%TO.C,R5*%
X118201221Y-108202000D02*
X118526779Y-108202000D01*
X118201221Y-109222000D02*
X118526779Y-109222000D01*
%TO.C,R4*%
X107787221Y-66546000D02*
X108112779Y-66546000D01*
X107787221Y-67566000D02*
X108112779Y-67566000D01*
%TO.C,R3*%
X107787221Y-57402000D02*
X108112779Y-57402000D01*
X107787221Y-58422000D02*
X108112779Y-58422000D01*
%TO.C,R2*%
X127345221Y-109476000D02*
X127670779Y-109476000D01*
X127345221Y-108456000D02*
X127670779Y-108456000D01*
%TO.C,R1*%
X153832779Y-107444000D02*
X153507221Y-107444000D01*
X153832779Y-106424000D02*
X153507221Y-106424000D01*
D10*
%TO.C,J7*%
X160411419Y-114588000D02*
G75*
G03*
X160411419Y-114588000I-141419J0D01*
G01*
D12*
X169890000Y-129898000D02*
X161300000Y-129898000D01*
X161300000Y-129898000D02*
X161300000Y-109878000D01*
X161300000Y-109878000D02*
X169890000Y-109878000D01*
X169890000Y-109878000D02*
X169890000Y-129898000D01*
D11*
%TO.C,C12*%
X137505221Y-109222000D02*
X137830779Y-109222000D01*
X137505221Y-108202000D02*
X137830779Y-108202000D01*
%TO.C,C11*%
X168581221Y-105866000D02*
X168906779Y-105866000D01*
X168581221Y-104846000D02*
X168906779Y-104846000D01*
%TO.C,C10*%
X168581221Y-99116000D02*
X168906779Y-99116000D01*
X168581221Y-98096000D02*
X168906779Y-98096000D01*
%TO.C,C9*%
X142839221Y-75186000D02*
X143164779Y-75186000D01*
X142839221Y-74166000D02*
X143164779Y-74166000D01*
%TO.C,C8*%
X162581221Y-105866000D02*
X162906779Y-105866000D01*
X162581221Y-104846000D02*
X162906779Y-104846000D01*
%TO.C,C7*%
X140624779Y-79500000D02*
X140299221Y-79500000D01*
X140624779Y-80520000D02*
X140299221Y-80520000D01*
%TO.C,C6*%
X147380815Y-132062560D02*
X147380815Y-131562560D01*
X147630815Y-131812560D02*
X147130815Y-131812560D01*
X141905000Y-130332000D02*
X141905000Y-129764000D01*
X141945000Y-130566000D02*
X141945000Y-129530000D01*
X141985000Y-130725000D02*
X141985000Y-129371000D01*
X142025000Y-130853000D02*
X142025000Y-129243000D01*
X142065000Y-130963000D02*
X142065000Y-129133000D01*
X142105000Y-131059000D02*
X142105000Y-129037000D01*
X142145000Y-131146000D02*
X142145000Y-128950000D01*
X142185000Y-131226000D02*
X142185000Y-128870000D01*
X142225000Y-129008000D02*
X142225000Y-128797000D01*
X142225000Y-131299000D02*
X142225000Y-131088000D01*
X142265000Y-129008000D02*
X142265000Y-128729000D01*
X142265000Y-131367000D02*
X142265000Y-131088000D01*
X142305000Y-129008000D02*
X142305000Y-128665000D01*
X142305000Y-131431000D02*
X142305000Y-131088000D01*
X142345000Y-129008000D02*
X142345000Y-128605000D01*
X142345000Y-131491000D02*
X142345000Y-131088000D01*
X142385000Y-129008000D02*
X142385000Y-128548000D01*
X142385000Y-131548000D02*
X142385000Y-131088000D01*
X142425000Y-129008000D02*
X142425000Y-128494000D01*
X142425000Y-131602000D02*
X142425000Y-131088000D01*
X142465000Y-129008000D02*
X142465000Y-128443000D01*
X142465000Y-131653000D02*
X142465000Y-131088000D01*
X142505000Y-129008000D02*
X142505000Y-128395000D01*
X142505000Y-131701000D02*
X142505000Y-131088000D01*
X142545000Y-129008000D02*
X142545000Y-128349000D01*
X142545000Y-131747000D02*
X142545000Y-131088000D01*
X142585000Y-129008000D02*
X142585000Y-128305000D01*
X142585000Y-131791000D02*
X142585000Y-131088000D01*
X142625000Y-129008000D02*
X142625000Y-128263000D01*
X142625000Y-131833000D02*
X142625000Y-131088000D01*
X142665000Y-129008000D02*
X142665000Y-128222000D01*
X142665000Y-131874000D02*
X142665000Y-131088000D01*
X142705000Y-129008000D02*
X142705000Y-128184000D01*
X142705000Y-131912000D02*
X142705000Y-131088000D01*
X142745000Y-129008000D02*
X142745000Y-128147000D01*
X142745000Y-131949000D02*
X142745000Y-131088000D01*
X142785000Y-129008000D02*
X142785000Y-128111000D01*
X142785000Y-131985000D02*
X142785000Y-131088000D01*
X142825000Y-129008000D02*
X142825000Y-128077000D01*
X142825000Y-132019000D02*
X142825000Y-131088000D01*
X142865000Y-129008000D02*
X142865000Y-128044000D01*
X142865000Y-132052000D02*
X142865000Y-131088000D01*
X142905000Y-129008000D02*
X142905000Y-128013000D01*
X142905000Y-132083000D02*
X142905000Y-131088000D01*
X142945000Y-129008000D02*
X142945000Y-127983000D01*
X142945000Y-132113000D02*
X142945000Y-131088000D01*
X142985000Y-129008000D02*
X142985000Y-127953000D01*
X142985000Y-132143000D02*
X142985000Y-131088000D01*
X143025000Y-129008000D02*
X143025000Y-127926000D01*
X143025000Y-132170000D02*
X143025000Y-131088000D01*
X143065000Y-129008000D02*
X143065000Y-127899000D01*
X143065000Y-132197000D02*
X143065000Y-131088000D01*
X143105000Y-129008000D02*
X143105000Y-127873000D01*
X143105000Y-132223000D02*
X143105000Y-131088000D01*
X143145000Y-129008000D02*
X143145000Y-127848000D01*
X143145000Y-132248000D02*
X143145000Y-131088000D01*
X143185000Y-129008000D02*
X143185000Y-127824000D01*
X143185000Y-132272000D02*
X143185000Y-131088000D01*
X143225000Y-129008000D02*
X143225000Y-127801000D01*
X143225000Y-132295000D02*
X143225000Y-131088000D01*
X143265000Y-129008000D02*
X143265000Y-127780000D01*
X143265000Y-132316000D02*
X143265000Y-131088000D01*
X143305000Y-129008000D02*
X143305000Y-127758000D01*
X143305000Y-132338000D02*
X143305000Y-131088000D01*
X143345000Y-129008000D02*
X143345000Y-127738000D01*
X143345000Y-132358000D02*
X143345000Y-131088000D01*
X143385000Y-129008000D02*
X143385000Y-127719000D01*
X143385000Y-132377000D02*
X143385000Y-131088000D01*
X143425000Y-129008000D02*
X143425000Y-127700000D01*
X143425000Y-132396000D02*
X143425000Y-131088000D01*
X143465000Y-129008000D02*
X143465000Y-127683000D01*
X143465000Y-132413000D02*
X143465000Y-131088000D01*
X143505000Y-129008000D02*
X143505000Y-127666000D01*
X143505000Y-132430000D02*
X143505000Y-131088000D01*
X143545000Y-129008000D02*
X143545000Y-127650000D01*
X143545000Y-132446000D02*
X143545000Y-131088000D01*
X143585000Y-129008000D02*
X143585000Y-127634000D01*
X143585000Y-132462000D02*
X143585000Y-131088000D01*
X143625000Y-129008000D02*
X143625000Y-127620000D01*
X143625000Y-132476000D02*
X143625000Y-131088000D01*
X143665000Y-129008000D02*
X143665000Y-127606000D01*
X143665000Y-132490000D02*
X143665000Y-131088000D01*
X143705000Y-129008000D02*
X143705000Y-127593000D01*
X143705000Y-132503000D02*
X143705000Y-131088000D01*
X143745000Y-129008000D02*
X143745000Y-127580000D01*
X143745000Y-132516000D02*
X143745000Y-131088000D01*
X143785000Y-129008000D02*
X143785000Y-127568000D01*
X143785000Y-132528000D02*
X143785000Y-131088000D01*
X143826000Y-129008000D02*
X143826000Y-127557000D01*
X143826000Y-132539000D02*
X143826000Y-131088000D01*
X143866000Y-129008000D02*
X143866000Y-127547000D01*
X143866000Y-132549000D02*
X143866000Y-131088000D01*
X143906000Y-129008000D02*
X143906000Y-127537000D01*
X143906000Y-132559000D02*
X143906000Y-131088000D01*
X143946000Y-129008000D02*
X143946000Y-127528000D01*
X143946000Y-132568000D02*
X143946000Y-131088000D01*
X143986000Y-129008000D02*
X143986000Y-127520000D01*
X143986000Y-132576000D02*
X143986000Y-131088000D01*
X144026000Y-129008000D02*
X144026000Y-127512000D01*
X144026000Y-132584000D02*
X144026000Y-131088000D01*
X144066000Y-129008000D02*
X144066000Y-127505000D01*
X144066000Y-132591000D02*
X144066000Y-131088000D01*
X144106000Y-129008000D02*
X144106000Y-127498000D01*
X144106000Y-132598000D02*
X144106000Y-131088000D01*
X144146000Y-129008000D02*
X144146000Y-127492000D01*
X144146000Y-132604000D02*
X144146000Y-131088000D01*
X144186000Y-129008000D02*
X144186000Y-127487000D01*
X144186000Y-132609000D02*
X144186000Y-131088000D01*
X144226000Y-129008000D02*
X144226000Y-127483000D01*
X144226000Y-132613000D02*
X144226000Y-131088000D01*
X144266000Y-129008000D02*
X144266000Y-127479000D01*
X144266000Y-132617000D02*
X144266000Y-131088000D01*
X144306000Y-132621000D02*
X144306000Y-127475000D01*
X144346000Y-132624000D02*
X144346000Y-127472000D01*
X144386000Y-132626000D02*
X144386000Y-127470000D01*
X144426000Y-132627000D02*
X144426000Y-127469000D01*
X144466000Y-132628000D02*
X144466000Y-127468000D01*
X144506000Y-132628000D02*
X144506000Y-127468000D01*
X147126000Y-130048000D02*
G75*
G03*
X147126000Y-130048000I-2620000J0D01*
G01*
%TO.C,C5*%
X109057221Y-112778000D02*
X109382779Y-112778000D01*
X109057221Y-111758000D02*
X109382779Y-111758000D01*
%TO.C,C4*%
X109057221Y-117604000D02*
X109382779Y-117604000D01*
X109057221Y-116584000D02*
X109382779Y-116584000D01*
%TO.C,C3*%
X132425221Y-109222000D02*
X132750779Y-109222000D01*
X132425221Y-108202000D02*
X132750779Y-108202000D01*
%TO.C,C2*%
X136244000Y-40640000D02*
G75*
G03*
X136244000Y-40640000I-2620000J0D01*
G01*
X133624000Y-43220000D02*
X133624000Y-38060000D01*
X133584000Y-43220000D02*
X133584000Y-38060000D01*
X133544000Y-43219000D02*
X133544000Y-38061000D01*
X133504000Y-43218000D02*
X133504000Y-38062000D01*
X133464000Y-43216000D02*
X133464000Y-38064000D01*
X133424000Y-43213000D02*
X133424000Y-38067000D01*
X133384000Y-43209000D02*
X133384000Y-41680000D01*
X133384000Y-39600000D02*
X133384000Y-38071000D01*
X133344000Y-43205000D02*
X133344000Y-41680000D01*
X133344000Y-39600000D02*
X133344000Y-38075000D01*
X133304000Y-43201000D02*
X133304000Y-41680000D01*
X133304000Y-39600000D02*
X133304000Y-38079000D01*
X133264000Y-43196000D02*
X133264000Y-41680000D01*
X133264000Y-39600000D02*
X133264000Y-38084000D01*
X133224000Y-43190000D02*
X133224000Y-41680000D01*
X133224000Y-39600000D02*
X133224000Y-38090000D01*
X133184000Y-43183000D02*
X133184000Y-41680000D01*
X133184000Y-39600000D02*
X133184000Y-38097000D01*
X133144000Y-43176000D02*
X133144000Y-41680000D01*
X133144000Y-39600000D02*
X133144000Y-38104000D01*
X133104000Y-43168000D02*
X133104000Y-41680000D01*
X133104000Y-39600000D02*
X133104000Y-38112000D01*
X133064000Y-43160000D02*
X133064000Y-41680000D01*
X133064000Y-39600000D02*
X133064000Y-38120000D01*
X133024000Y-43151000D02*
X133024000Y-41680000D01*
X133024000Y-39600000D02*
X133024000Y-38129000D01*
X132984000Y-43141000D02*
X132984000Y-41680000D01*
X132984000Y-39600000D02*
X132984000Y-38139000D01*
X132944000Y-43131000D02*
X132944000Y-41680000D01*
X132944000Y-39600000D02*
X132944000Y-38149000D01*
X132903000Y-43120000D02*
X132903000Y-41680000D01*
X132903000Y-39600000D02*
X132903000Y-38160000D01*
X132863000Y-43108000D02*
X132863000Y-41680000D01*
X132863000Y-39600000D02*
X132863000Y-38172000D01*
X132823000Y-43095000D02*
X132823000Y-41680000D01*
X132823000Y-39600000D02*
X132823000Y-38185000D01*
X132783000Y-43082000D02*
X132783000Y-41680000D01*
X132783000Y-39600000D02*
X132783000Y-38198000D01*
X132743000Y-43068000D02*
X132743000Y-41680000D01*
X132743000Y-39600000D02*
X132743000Y-38212000D01*
X132703000Y-43054000D02*
X132703000Y-41680000D01*
X132703000Y-39600000D02*
X132703000Y-38226000D01*
X132663000Y-43038000D02*
X132663000Y-41680000D01*
X132663000Y-39600000D02*
X132663000Y-38242000D01*
X132623000Y-43022000D02*
X132623000Y-41680000D01*
X132623000Y-39600000D02*
X132623000Y-38258000D01*
X132583000Y-43005000D02*
X132583000Y-41680000D01*
X132583000Y-39600000D02*
X132583000Y-38275000D01*
X132543000Y-42988000D02*
X132543000Y-41680000D01*
X132543000Y-39600000D02*
X132543000Y-38292000D01*
X132503000Y-42969000D02*
X132503000Y-41680000D01*
X132503000Y-39600000D02*
X132503000Y-38311000D01*
X132463000Y-42950000D02*
X132463000Y-41680000D01*
X132463000Y-39600000D02*
X132463000Y-38330000D01*
X132423000Y-42930000D02*
X132423000Y-41680000D01*
X132423000Y-39600000D02*
X132423000Y-38350000D01*
X132383000Y-42908000D02*
X132383000Y-41680000D01*
X132383000Y-39600000D02*
X132383000Y-38372000D01*
X132343000Y-42887000D02*
X132343000Y-41680000D01*
X132343000Y-39600000D02*
X132343000Y-38393000D01*
X132303000Y-42864000D02*
X132303000Y-41680000D01*
X132303000Y-39600000D02*
X132303000Y-38416000D01*
X132263000Y-42840000D02*
X132263000Y-41680000D01*
X132263000Y-39600000D02*
X132263000Y-38440000D01*
X132223000Y-42815000D02*
X132223000Y-41680000D01*
X132223000Y-39600000D02*
X132223000Y-38465000D01*
X132183000Y-42789000D02*
X132183000Y-41680000D01*
X132183000Y-39600000D02*
X132183000Y-38491000D01*
X132143000Y-42762000D02*
X132143000Y-41680000D01*
X132143000Y-39600000D02*
X132143000Y-38518000D01*
X132103000Y-42735000D02*
X132103000Y-41680000D01*
X132103000Y-39600000D02*
X132103000Y-38545000D01*
X132063000Y-42705000D02*
X132063000Y-41680000D01*
X132063000Y-39600000D02*
X132063000Y-38575000D01*
X132023000Y-42675000D02*
X132023000Y-41680000D01*
X132023000Y-39600000D02*
X132023000Y-38605000D01*
X131983000Y-42644000D02*
X131983000Y-41680000D01*
X131983000Y-39600000D02*
X131983000Y-38636000D01*
X131943000Y-42611000D02*
X131943000Y-41680000D01*
X131943000Y-39600000D02*
X131943000Y-38669000D01*
X131903000Y-42577000D02*
X131903000Y-41680000D01*
X131903000Y-39600000D02*
X131903000Y-38703000D01*
X131863000Y-42541000D02*
X131863000Y-41680000D01*
X131863000Y-39600000D02*
X131863000Y-38739000D01*
X131823000Y-42504000D02*
X131823000Y-41680000D01*
X131823000Y-39600000D02*
X131823000Y-38776000D01*
X131783000Y-42466000D02*
X131783000Y-41680000D01*
X131783000Y-39600000D02*
X131783000Y-38814000D01*
X131743000Y-42425000D02*
X131743000Y-41680000D01*
X131743000Y-39600000D02*
X131743000Y-38855000D01*
X131703000Y-42383000D02*
X131703000Y-41680000D01*
X131703000Y-39600000D02*
X131703000Y-38897000D01*
X131663000Y-42339000D02*
X131663000Y-41680000D01*
X131663000Y-39600000D02*
X131663000Y-38941000D01*
X131623000Y-42293000D02*
X131623000Y-41680000D01*
X131623000Y-39600000D02*
X131623000Y-38987000D01*
X131583000Y-42245000D02*
X131583000Y-41680000D01*
X131583000Y-39600000D02*
X131583000Y-39035000D01*
X131543000Y-42194000D02*
X131543000Y-41680000D01*
X131543000Y-39600000D02*
X131543000Y-39086000D01*
X131503000Y-42140000D02*
X131503000Y-41680000D01*
X131503000Y-39600000D02*
X131503000Y-39140000D01*
X131463000Y-42083000D02*
X131463000Y-41680000D01*
X131463000Y-39600000D02*
X131463000Y-39197000D01*
X131423000Y-42023000D02*
X131423000Y-41680000D01*
X131423000Y-39600000D02*
X131423000Y-39257000D01*
X131383000Y-41959000D02*
X131383000Y-41680000D01*
X131383000Y-39600000D02*
X131383000Y-39321000D01*
X131343000Y-41891000D02*
X131343000Y-41680000D01*
X131343000Y-39600000D02*
X131343000Y-39389000D01*
X131303000Y-41818000D02*
X131303000Y-39462000D01*
X131263000Y-41738000D02*
X131263000Y-39542000D01*
X131223000Y-41651000D02*
X131223000Y-39629000D01*
X131183000Y-41555000D02*
X131183000Y-39725000D01*
X131143000Y-41445000D02*
X131143000Y-39835000D01*
X131103000Y-41317000D02*
X131103000Y-39963000D01*
X131063000Y-41158000D02*
X131063000Y-40122000D01*
X131023000Y-40924000D02*
X131023000Y-40356000D01*
X136748815Y-42404560D02*
X136248815Y-42404560D01*
X136498815Y-42654560D02*
X136498815Y-42154560D01*
%TO.C,C1*%
X132171221Y-70106000D02*
X132496779Y-70106000D01*
X132171221Y-69086000D02*
X132496779Y-69086000D01*
%TO.C,U3*%
D13*
X148082095Y-80942380D02*
X148082095Y-81751904D01*
X148129714Y-81847142D01*
X148177333Y-81894761D01*
X148272571Y-81942380D01*
X148463047Y-81942380D01*
X148558285Y-81894761D01*
X148605904Y-81847142D01*
X148653523Y-81751904D01*
X148653523Y-80942380D01*
X149034476Y-80942380D02*
X149653523Y-80942380D01*
X149320190Y-81323333D01*
X149463047Y-81323333D01*
X149558285Y-81370952D01*
X149605904Y-81418571D01*
X149653523Y-81513809D01*
X149653523Y-81751904D01*
X149605904Y-81847142D01*
X149558285Y-81894761D01*
X149463047Y-81942380D01*
X149177333Y-81942380D01*
X149082095Y-81894761D01*
X149034476Y-81847142D01*
X146724952Y-93222380D02*
X147296380Y-93222380D01*
X147010666Y-94222380D02*
X147010666Y-93222380D01*
X148105904Y-94222380D02*
X147629714Y-94222380D01*
X147629714Y-93222380D01*
X148629714Y-93222380D02*
X148724952Y-93222380D01*
X148820190Y-93270000D01*
X148867809Y-93317619D01*
X148915428Y-93412857D01*
X148963047Y-93603333D01*
X148963047Y-93841428D01*
X148915428Y-94031904D01*
X148867809Y-94127142D01*
X148820190Y-94174761D01*
X148724952Y-94222380D01*
X148629714Y-94222380D01*
X148534476Y-94174761D01*
X148486857Y-94127142D01*
X148439238Y-94031904D01*
X148391619Y-93841428D01*
X148391619Y-93603333D01*
X148439238Y-93412857D01*
X148486857Y-93317619D01*
X148534476Y-93270000D01*
X148629714Y-93222380D01*
X149534476Y-93650952D02*
X149439238Y-93603333D01*
X149391619Y-93555714D01*
X149344000Y-93460476D01*
X149344000Y-93412857D01*
X149391619Y-93317619D01*
X149439238Y-93270000D01*
X149534476Y-93222380D01*
X149724952Y-93222380D01*
X149820190Y-93270000D01*
X149867809Y-93317619D01*
X149915428Y-93412857D01*
X149915428Y-93460476D01*
X149867809Y-93555714D01*
X149820190Y-93603333D01*
X149724952Y-93650952D01*
X149534476Y-93650952D01*
X149439238Y-93698571D01*
X149391619Y-93746190D01*
X149344000Y-93841428D01*
X149344000Y-94031904D01*
X149391619Y-94127142D01*
X149439238Y-94174761D01*
X149534476Y-94222380D01*
X149724952Y-94222380D01*
X149820190Y-94174761D01*
X149867809Y-94127142D01*
X149915428Y-94031904D01*
X149915428Y-93841428D01*
X149867809Y-93746190D01*
X149820190Y-93698571D01*
X149724952Y-93650952D01*
X150296380Y-93317619D02*
X150344000Y-93270000D01*
X150439238Y-93222380D01*
X150677333Y-93222380D01*
X150772571Y-93270000D01*
X150820190Y-93317619D01*
X150867809Y-93412857D01*
X150867809Y-93508095D01*
X150820190Y-93650952D01*
X150248761Y-94222380D01*
X150867809Y-94222380D01*
%TO.C,U2*%
X134112095Y-126662380D02*
X134112095Y-127471904D01*
X134159714Y-127567142D01*
X134207333Y-127614761D01*
X134302571Y-127662380D01*
X134493047Y-127662380D01*
X134588285Y-127614761D01*
X134635904Y-127567142D01*
X134683523Y-127471904D01*
X134683523Y-126662380D01*
X135112095Y-126757619D02*
X135159714Y-126710000D01*
X135254952Y-126662380D01*
X135493047Y-126662380D01*
X135588285Y-126710000D01*
X135635904Y-126757619D01*
X135683523Y-126852857D01*
X135683523Y-126948095D01*
X135635904Y-127090952D01*
X135064476Y-127662380D01*
X135683523Y-127662380D01*
X132254952Y-152356666D02*
X132731142Y-152356666D01*
X132159714Y-152642380D02*
X132493047Y-151642380D01*
X132826380Y-152642380D01*
X133112095Y-152594761D02*
X133254952Y-152642380D01*
X133493047Y-152642380D01*
X133588285Y-152594761D01*
X133635904Y-152547142D01*
X133683523Y-152451904D01*
X133683523Y-152356666D01*
X133635904Y-152261428D01*
X133588285Y-152213809D01*
X133493047Y-152166190D01*
X133302571Y-152118571D01*
X133207333Y-152070952D01*
X133159714Y-152023333D01*
X133112095Y-151928095D01*
X133112095Y-151832857D01*
X133159714Y-151737619D01*
X133207333Y-151690000D01*
X133302571Y-151642380D01*
X133540666Y-151642380D01*
X133683523Y-151690000D01*
X134016857Y-151642380D02*
X134635904Y-151642380D01*
X134302571Y-152023333D01*
X134445428Y-152023333D01*
X134540666Y-152070952D01*
X134588285Y-152118571D01*
X134635904Y-152213809D01*
X134635904Y-152451904D01*
X134588285Y-152547142D01*
X134540666Y-152594761D01*
X134445428Y-152642380D01*
X134159714Y-152642380D01*
X134064476Y-152594761D01*
X134016857Y-152547142D01*
X134969238Y-151642380D02*
X135588285Y-151642380D01*
X135254952Y-152023333D01*
X135397809Y-152023333D01*
X135493047Y-152070952D01*
X135540666Y-152118571D01*
X135588285Y-152213809D01*
X135588285Y-152451904D01*
X135540666Y-152547142D01*
X135493047Y-152594761D01*
X135397809Y-152642380D01*
X135112095Y-152642380D01*
X135016857Y-152594761D01*
X134969238Y-152547142D01*
X135969238Y-151737619D02*
X136016857Y-151690000D01*
X136112095Y-151642380D01*
X136350190Y-151642380D01*
X136445428Y-151690000D01*
X136493047Y-151737619D01*
X136540666Y-151832857D01*
X136540666Y-151928095D01*
X136493047Y-152070952D01*
X135921619Y-152642380D01*
X136540666Y-152642380D01*
X137159714Y-151642380D02*
X137254952Y-151642380D01*
X137350190Y-151690000D01*
X137397809Y-151737619D01*
X137445428Y-151832857D01*
X137493047Y-152023333D01*
X137493047Y-152261428D01*
X137445428Y-152451904D01*
X137397809Y-152547142D01*
X137350190Y-152594761D01*
X137254952Y-152642380D01*
X137159714Y-152642380D01*
X137064476Y-152594761D01*
X137016857Y-152547142D01*
X136969238Y-152451904D01*
X136921619Y-152261428D01*
X136921619Y-152023333D01*
X136969238Y-151832857D01*
X137016857Y-151737619D01*
X137064476Y-151690000D01*
X137159714Y-151642380D01*
%TO.C,U1*%
X165100095Y-81450380D02*
X165100095Y-82259904D01*
X165147714Y-82355142D01*
X165195333Y-82402761D01*
X165290571Y-82450380D01*
X165481047Y-82450380D01*
X165576285Y-82402761D01*
X165623904Y-82355142D01*
X165671523Y-82259904D01*
X165671523Y-81450380D01*
X166671523Y-82450380D02*
X166100095Y-82450380D01*
X166385809Y-82450380D02*
X166385809Y-81450380D01*
X166290571Y-81593238D01*
X166195333Y-81688476D01*
X166100095Y-81736095D01*
X163742952Y-93730380D02*
X164314380Y-93730380D01*
X164028666Y-94730380D02*
X164028666Y-93730380D01*
X165123904Y-94730380D02*
X164647714Y-94730380D01*
X164647714Y-93730380D01*
X165647714Y-93730380D02*
X165742952Y-93730380D01*
X165838190Y-93778000D01*
X165885809Y-93825619D01*
X165933428Y-93920857D01*
X165981047Y-94111333D01*
X165981047Y-94349428D01*
X165933428Y-94539904D01*
X165885809Y-94635142D01*
X165838190Y-94682761D01*
X165742952Y-94730380D01*
X165647714Y-94730380D01*
X165552476Y-94682761D01*
X165504857Y-94635142D01*
X165457238Y-94539904D01*
X165409619Y-94349428D01*
X165409619Y-94111333D01*
X165457238Y-93920857D01*
X165504857Y-93825619D01*
X165552476Y-93778000D01*
X165647714Y-93730380D01*
X166552476Y-94158952D02*
X166457238Y-94111333D01*
X166409619Y-94063714D01*
X166362000Y-93968476D01*
X166362000Y-93920857D01*
X166409619Y-93825619D01*
X166457238Y-93778000D01*
X166552476Y-93730380D01*
X166742952Y-93730380D01*
X166838190Y-93778000D01*
X166885809Y-93825619D01*
X166933428Y-93920857D01*
X166933428Y-93968476D01*
X166885809Y-94063714D01*
X166838190Y-94111333D01*
X166742952Y-94158952D01*
X166552476Y-94158952D01*
X166457238Y-94206571D01*
X166409619Y-94254190D01*
X166362000Y-94349428D01*
X166362000Y-94539904D01*
X166409619Y-94635142D01*
X166457238Y-94682761D01*
X166552476Y-94730380D01*
X166742952Y-94730380D01*
X166838190Y-94682761D01*
X166885809Y-94635142D01*
X166933428Y-94539904D01*
X166933428Y-94349428D01*
X166885809Y-94254190D01*
X166838190Y-94206571D01*
X166742952Y-94158952D01*
X167314380Y-93825619D02*
X167362000Y-93778000D01*
X167457238Y-93730380D01*
X167695333Y-93730380D01*
X167790571Y-93778000D01*
X167838190Y-93825619D01*
X167885809Y-93920857D01*
X167885809Y-94016095D01*
X167838190Y-94158952D01*
X167266761Y-94730380D01*
X167885809Y-94730380D01*
%TO.C,RV9*%
D14*
X118419385Y-74414592D02*
X117952060Y-73746984D01*
X117618256Y-74414592D02*
X117618256Y-73012616D01*
X118152342Y-73012616D01*
X118285863Y-73079377D01*
X118352624Y-73146137D01*
X118419385Y-73279659D01*
X118419385Y-73479941D01*
X118352624Y-73613463D01*
X118285863Y-73680223D01*
X118152342Y-73746984D01*
X117618256Y-73746984D01*
X118819950Y-73012616D02*
X119287275Y-74414592D01*
X119754600Y-73012616D01*
X120288686Y-74414592D02*
X120555729Y-74414592D01*
X120689251Y-74347831D01*
X120756012Y-74281070D01*
X120889533Y-74080788D01*
X120956294Y-73813745D01*
X120956294Y-73279659D01*
X120889533Y-73146137D01*
X120822772Y-73079377D01*
X120689251Y-73012616D01*
X120422208Y-73012616D01*
X120288686Y-73079377D01*
X120221926Y-73146137D01*
X120155165Y-73279659D01*
X120155165Y-73613463D01*
X120221926Y-73746984D01*
X120288686Y-73813745D01*
X120422208Y-73880506D01*
X120689251Y-73880506D01*
X120822772Y-73813745D01*
X120889533Y-73746984D01*
X120956294Y-73613463D01*
X117108282Y-82060980D02*
X116307868Y-82060980D01*
X116708075Y-82060980D02*
X116708075Y-80660256D01*
X116574672Y-80860360D01*
X116441270Y-80993762D01*
X116307868Y-81060463D01*
X117975396Y-80660256D02*
X118108799Y-80660256D01*
X118242201Y-80726958D01*
X118308902Y-80793659D01*
X118375603Y-80927061D01*
X118442304Y-81193866D01*
X118442304Y-81527371D01*
X118375603Y-81794176D01*
X118308902Y-81927578D01*
X118242201Y-81994279D01*
X118108799Y-82060980D01*
X117975396Y-82060980D01*
X117841994Y-81994279D01*
X117775293Y-81927578D01*
X117708592Y-81794176D01*
X117641891Y-81527371D01*
X117641891Y-81193866D01*
X117708592Y-80927061D01*
X117775293Y-80793659D01*
X117841994Y-80726958D01*
X117975396Y-80660256D01*
X119309419Y-80660256D02*
X119442822Y-80660256D01*
X119576224Y-80726958D01*
X119642925Y-80793659D01*
X119709626Y-80927061D01*
X119776327Y-81193866D01*
X119776327Y-81527371D01*
X119709626Y-81794176D01*
X119642925Y-81927578D01*
X119576224Y-81994279D01*
X119442822Y-82060980D01*
X119309419Y-82060980D01*
X119176017Y-81994279D01*
X119109316Y-81927578D01*
X119042615Y-81794176D01*
X118975914Y-81527371D01*
X118975914Y-81193866D01*
X119042615Y-80927061D01*
X119109316Y-80793659D01*
X119176017Y-80726958D01*
X119309419Y-80660256D01*
X120376638Y-82060980D02*
X120376638Y-80660256D01*
X121177051Y-82060980D02*
X120576741Y-81260567D01*
X121177051Y-80660256D02*
X120376638Y-81460670D01*
%TO.C,RV8*%
X127055385Y-74414592D02*
X126588060Y-73746984D01*
X126254256Y-74414592D02*
X126254256Y-73012616D01*
X126788342Y-73012616D01*
X126921863Y-73079377D01*
X126988624Y-73146137D01*
X127055385Y-73279659D01*
X127055385Y-73479941D01*
X126988624Y-73613463D01*
X126921863Y-73680223D01*
X126788342Y-73746984D01*
X126254256Y-73746984D01*
X127455950Y-73012616D02*
X127923275Y-74414592D01*
X128390600Y-73012616D01*
X129058208Y-73613463D02*
X128924686Y-73546702D01*
X128857926Y-73479941D01*
X128791165Y-73346420D01*
X128791165Y-73279659D01*
X128857926Y-73146137D01*
X128924686Y-73079377D01*
X129058208Y-73012616D01*
X129325251Y-73012616D01*
X129458772Y-73079377D01*
X129525533Y-73146137D01*
X129592294Y-73279659D01*
X129592294Y-73346420D01*
X129525533Y-73479941D01*
X129458772Y-73546702D01*
X129325251Y-73613463D01*
X129058208Y-73613463D01*
X128924686Y-73680223D01*
X128857926Y-73746984D01*
X128791165Y-73880506D01*
X128791165Y-74147549D01*
X128857926Y-74281070D01*
X128924686Y-74347831D01*
X129058208Y-74414592D01*
X129325251Y-74414592D01*
X129458772Y-74347831D01*
X129525533Y-74281070D01*
X129592294Y-74147549D01*
X129592294Y-73880506D01*
X129525533Y-73746984D01*
X129458772Y-73680223D01*
X129325251Y-73613463D01*
X126411293Y-82060980D02*
X125610879Y-82060980D01*
X126011086Y-82060980D02*
X126011086Y-80660256D01*
X125877684Y-80860360D01*
X125744282Y-80993762D01*
X125610879Y-81060463D01*
X127011603Y-82060980D02*
X127011603Y-80660256D01*
X127812017Y-82060980D02*
X127211707Y-81260567D01*
X127812017Y-80660256D02*
X127011603Y-81460670D01*
X129079339Y-80660256D02*
X128412327Y-80660256D01*
X128345626Y-81327268D01*
X128412327Y-81260567D01*
X128545730Y-81193866D01*
X128879235Y-81193866D01*
X129012638Y-81260567D01*
X129079339Y-81327268D01*
X129146040Y-81460670D01*
X129146040Y-81794176D01*
X129079339Y-81927578D01*
X129012638Y-81994279D01*
X128879235Y-82060980D01*
X128545730Y-82060980D01*
X128412327Y-81994279D01*
X128345626Y-81927578D01*
%TO.C,RV7*%
X109275385Y-74414592D02*
X108808060Y-73746984D01*
X108474256Y-74414592D02*
X108474256Y-73012616D01*
X109008342Y-73012616D01*
X109141863Y-73079377D01*
X109208624Y-73146137D01*
X109275385Y-73279659D01*
X109275385Y-73479941D01*
X109208624Y-73613463D01*
X109141863Y-73680223D01*
X109008342Y-73746984D01*
X108474256Y-73746984D01*
X109675950Y-73012616D02*
X110143275Y-74414592D01*
X110610600Y-73012616D01*
X110944404Y-73012616D02*
X111879055Y-73012616D01*
X111278208Y-74414592D01*
X107830879Y-80793659D02*
X107897580Y-80726958D01*
X108030983Y-80660256D01*
X108364488Y-80660256D01*
X108497891Y-80726958D01*
X108564592Y-80793659D01*
X108631293Y-80927061D01*
X108631293Y-81060463D01*
X108564592Y-81260567D01*
X107764178Y-82060980D01*
X108631293Y-82060980D01*
X109498408Y-80660256D02*
X109631810Y-80660256D01*
X109765212Y-80726958D01*
X109831914Y-80793659D01*
X109898615Y-80927061D01*
X109965316Y-81193866D01*
X109965316Y-81527371D01*
X109898615Y-81794176D01*
X109831914Y-81927578D01*
X109765212Y-81994279D01*
X109631810Y-82060980D01*
X109498408Y-82060980D01*
X109365006Y-81994279D01*
X109298304Y-81927578D01*
X109231603Y-81794176D01*
X109164902Y-81527371D01*
X109164902Y-81193866D01*
X109231603Y-80927061D01*
X109298304Y-80793659D01*
X109365006Y-80726958D01*
X109498408Y-80660256D01*
X110565626Y-82060980D02*
X110565626Y-80660256D01*
X111366040Y-82060980D02*
X110765730Y-81260567D01*
X111366040Y-80660256D02*
X110565626Y-81460670D01*
%TO.C,R33*%
D13*
X147947142Y-74206380D02*
X147613809Y-73730190D01*
X147375714Y-74206380D02*
X147375714Y-73206380D01*
X147756666Y-73206380D01*
X147851904Y-73254000D01*
X147899523Y-73301619D01*
X147947142Y-73396857D01*
X147947142Y-73539714D01*
X147899523Y-73634952D01*
X147851904Y-73682571D01*
X147756666Y-73730190D01*
X147375714Y-73730190D01*
X148280476Y-73206380D02*
X148899523Y-73206380D01*
X148566190Y-73587333D01*
X148709047Y-73587333D01*
X148804285Y-73634952D01*
X148851904Y-73682571D01*
X148899523Y-73777809D01*
X148899523Y-74015904D01*
X148851904Y-74111142D01*
X148804285Y-74158761D01*
X148709047Y-74206380D01*
X148423333Y-74206380D01*
X148328095Y-74158761D01*
X148280476Y-74111142D01*
X149232857Y-73206380D02*
X149851904Y-73206380D01*
X149518571Y-73587333D01*
X149661428Y-73587333D01*
X149756666Y-73634952D01*
X149804285Y-73682571D01*
X149851904Y-73777809D01*
X149851904Y-74015904D01*
X149804285Y-74111142D01*
X149756666Y-74158761D01*
X149661428Y-74206380D01*
X149375714Y-74206380D01*
X149280476Y-74158761D01*
X149232857Y-74111142D01*
X148375714Y-77066380D02*
X147804285Y-77066380D01*
X148090000Y-77066380D02*
X148090000Y-76066380D01*
X147994761Y-76209238D01*
X147899523Y-76304476D01*
X147804285Y-76352095D01*
X148804285Y-77066380D02*
X148804285Y-76066380D01*
X149375714Y-77066380D02*
X148947142Y-76494952D01*
X149375714Y-76066380D02*
X148804285Y-76637809D01*
%TO.C,R32*%
X147947142Y-68364380D02*
X147613809Y-67888190D01*
X147375714Y-68364380D02*
X147375714Y-67364380D01*
X147756666Y-67364380D01*
X147851904Y-67412000D01*
X147899523Y-67459619D01*
X147947142Y-67554857D01*
X147947142Y-67697714D01*
X147899523Y-67792952D01*
X147851904Y-67840571D01*
X147756666Y-67888190D01*
X147375714Y-67888190D01*
X148280476Y-67364380D02*
X148899523Y-67364380D01*
X148566190Y-67745333D01*
X148709047Y-67745333D01*
X148804285Y-67792952D01*
X148851904Y-67840571D01*
X148899523Y-67935809D01*
X148899523Y-68173904D01*
X148851904Y-68269142D01*
X148804285Y-68316761D01*
X148709047Y-68364380D01*
X148423333Y-68364380D01*
X148328095Y-68316761D01*
X148280476Y-68269142D01*
X149280476Y-67459619D02*
X149328095Y-67412000D01*
X149423333Y-67364380D01*
X149661428Y-67364380D01*
X149756666Y-67412000D01*
X149804285Y-67459619D01*
X149851904Y-67554857D01*
X149851904Y-67650095D01*
X149804285Y-67792952D01*
X149232857Y-68364380D01*
X149851904Y-68364380D01*
X146804285Y-70224380D02*
X147423333Y-70224380D01*
X147090000Y-70605333D01*
X147232857Y-70605333D01*
X147328095Y-70652952D01*
X147375714Y-70700571D01*
X147423333Y-70795809D01*
X147423333Y-71033904D01*
X147375714Y-71129142D01*
X147328095Y-71176761D01*
X147232857Y-71224380D01*
X146947142Y-71224380D01*
X146851904Y-71176761D01*
X146804285Y-71129142D01*
X148042380Y-70224380D02*
X148137619Y-70224380D01*
X148232857Y-70272000D01*
X148280476Y-70319619D01*
X148328095Y-70414857D01*
X148375714Y-70605333D01*
X148375714Y-70843428D01*
X148328095Y-71033904D01*
X148280476Y-71129142D01*
X148232857Y-71176761D01*
X148137619Y-71224380D01*
X148042380Y-71224380D01*
X147947142Y-71176761D01*
X147899523Y-71129142D01*
X147851904Y-71033904D01*
X147804285Y-70843428D01*
X147804285Y-70605333D01*
X147851904Y-70414857D01*
X147899523Y-70319619D01*
X147947142Y-70272000D01*
X148042380Y-70224380D01*
X148994761Y-70224380D02*
X149090000Y-70224380D01*
X149185238Y-70272000D01*
X149232857Y-70319619D01*
X149280476Y-70414857D01*
X149328095Y-70605333D01*
X149328095Y-70843428D01*
X149280476Y-71033904D01*
X149232857Y-71129142D01*
X149185238Y-71176761D01*
X149090000Y-71224380D01*
X148994761Y-71224380D01*
X148899523Y-71176761D01*
X148851904Y-71129142D01*
X148804285Y-71033904D01*
X148756666Y-70843428D01*
X148756666Y-70605333D01*
X148804285Y-70414857D01*
X148851904Y-70319619D01*
X148899523Y-70272000D01*
X148994761Y-70224380D01*
X149756666Y-71224380D02*
X149756666Y-70224380D01*
X150328095Y-71224380D02*
X149899523Y-70652952D01*
X150328095Y-70224380D02*
X149756666Y-70795809D01*
%TO.C,R31*%
X142359142Y-71224380D02*
X142025809Y-70748190D01*
X141787714Y-71224380D02*
X141787714Y-70224380D01*
X142168666Y-70224380D01*
X142263904Y-70272000D01*
X142311523Y-70319619D01*
X142359142Y-70414857D01*
X142359142Y-70557714D01*
X142311523Y-70652952D01*
X142263904Y-70700571D01*
X142168666Y-70748190D01*
X141787714Y-70748190D01*
X142692476Y-70224380D02*
X143311523Y-70224380D01*
X142978190Y-70605333D01*
X143121047Y-70605333D01*
X143216285Y-70652952D01*
X143263904Y-70700571D01*
X143311523Y-70795809D01*
X143311523Y-71033904D01*
X143263904Y-71129142D01*
X143216285Y-71176761D01*
X143121047Y-71224380D01*
X142835333Y-71224380D01*
X142740095Y-71176761D01*
X142692476Y-71129142D01*
X144263904Y-71224380D02*
X143692476Y-71224380D01*
X143978190Y-71224380D02*
X143978190Y-70224380D01*
X143882952Y-70367238D01*
X143787714Y-70462476D01*
X143692476Y-70510095D01*
X141835333Y-68364380D02*
X141263904Y-68364380D01*
X141549619Y-68364380D02*
X141549619Y-67364380D01*
X141454380Y-67507238D01*
X141359142Y-67602476D01*
X141263904Y-67650095D01*
X142406761Y-67792952D02*
X142311523Y-67745333D01*
X142263904Y-67697714D01*
X142216285Y-67602476D01*
X142216285Y-67554857D01*
X142263904Y-67459619D01*
X142311523Y-67412000D01*
X142406761Y-67364380D01*
X142597238Y-67364380D01*
X142692476Y-67412000D01*
X142740095Y-67459619D01*
X142787714Y-67554857D01*
X142787714Y-67602476D01*
X142740095Y-67697714D01*
X142692476Y-67745333D01*
X142597238Y-67792952D01*
X142406761Y-67792952D01*
X142311523Y-67840571D01*
X142263904Y-67888190D01*
X142216285Y-67983428D01*
X142216285Y-68173904D01*
X142263904Y-68269142D01*
X142311523Y-68316761D01*
X142406761Y-68364380D01*
X142597238Y-68364380D01*
X142692476Y-68316761D01*
X142740095Y-68269142D01*
X142787714Y-68173904D01*
X142787714Y-67983428D01*
X142740095Y-67888190D01*
X142692476Y-67840571D01*
X142597238Y-67792952D01*
X143406761Y-67364380D02*
X143502000Y-67364380D01*
X143597238Y-67412000D01*
X143644857Y-67459619D01*
X143692476Y-67554857D01*
X143740095Y-67745333D01*
X143740095Y-67983428D01*
X143692476Y-68173904D01*
X143644857Y-68269142D01*
X143597238Y-68316761D01*
X143502000Y-68364380D01*
X143406761Y-68364380D01*
X143311523Y-68316761D01*
X143263904Y-68269142D01*
X143216285Y-68173904D01*
X143168666Y-67983428D01*
X143168666Y-67745333D01*
X143216285Y-67554857D01*
X143263904Y-67459619D01*
X143311523Y-67412000D01*
X143406761Y-67364380D01*
X144168666Y-68364380D02*
X144168666Y-67364380D01*
X144740095Y-68364380D02*
X144311523Y-67792952D01*
X144740095Y-67364380D02*
X144168666Y-67935809D01*
%TO.C,R30*%
X149725142Y-96050380D02*
X149391809Y-95574190D01*
X149153714Y-96050380D02*
X149153714Y-95050380D01*
X149534666Y-95050380D01*
X149629904Y-95098000D01*
X149677523Y-95145619D01*
X149725142Y-95240857D01*
X149725142Y-95383714D01*
X149677523Y-95478952D01*
X149629904Y-95526571D01*
X149534666Y-95574190D01*
X149153714Y-95574190D01*
X150058476Y-95050380D02*
X150677523Y-95050380D01*
X150344190Y-95431333D01*
X150487047Y-95431333D01*
X150582285Y-95478952D01*
X150629904Y-95526571D01*
X150677523Y-95621809D01*
X150677523Y-95859904D01*
X150629904Y-95955142D01*
X150582285Y-96002761D01*
X150487047Y-96050380D01*
X150201333Y-96050380D01*
X150106095Y-96002761D01*
X150058476Y-95955142D01*
X151296571Y-95050380D02*
X151391809Y-95050380D01*
X151487047Y-95098000D01*
X151534666Y-95145619D01*
X151582285Y-95240857D01*
X151629904Y-95431333D01*
X151629904Y-95669428D01*
X151582285Y-95859904D01*
X151534666Y-95955142D01*
X151487047Y-96002761D01*
X151391809Y-96050380D01*
X151296571Y-96050380D01*
X151201333Y-96002761D01*
X151153714Y-95955142D01*
X151106095Y-95859904D01*
X151058476Y-95669428D01*
X151058476Y-95431333D01*
X151106095Y-95240857D01*
X151153714Y-95145619D01*
X151201333Y-95098000D01*
X151296571Y-95050380D01*
X149201333Y-98910380D02*
X148629904Y-98910380D01*
X148915619Y-98910380D02*
X148915619Y-97910380D01*
X148820380Y-98053238D01*
X148725142Y-98148476D01*
X148629904Y-98196095D01*
X149820380Y-97910380D02*
X149915619Y-97910380D01*
X150010857Y-97958000D01*
X150058476Y-98005619D01*
X150106095Y-98100857D01*
X150153714Y-98291333D01*
X150153714Y-98529428D01*
X150106095Y-98719904D01*
X150058476Y-98815142D01*
X150010857Y-98862761D01*
X149915619Y-98910380D01*
X149820380Y-98910380D01*
X149725142Y-98862761D01*
X149677523Y-98815142D01*
X149629904Y-98719904D01*
X149582285Y-98529428D01*
X149582285Y-98291333D01*
X149629904Y-98100857D01*
X149677523Y-98005619D01*
X149725142Y-97958000D01*
X149820380Y-97910380D01*
X150772761Y-97910380D02*
X150868000Y-97910380D01*
X150963238Y-97958000D01*
X151010857Y-98005619D01*
X151058476Y-98100857D01*
X151106095Y-98291333D01*
X151106095Y-98529428D01*
X151058476Y-98719904D01*
X151010857Y-98815142D01*
X150963238Y-98862761D01*
X150868000Y-98910380D01*
X150772761Y-98910380D01*
X150677523Y-98862761D01*
X150629904Y-98815142D01*
X150582285Y-98719904D01*
X150534666Y-98529428D01*
X150534666Y-98291333D01*
X150582285Y-98100857D01*
X150629904Y-98005619D01*
X150677523Y-97958000D01*
X150772761Y-97910380D01*
X151534666Y-98910380D02*
X151534666Y-97910380D01*
X152106095Y-98910380D02*
X151677523Y-98338952D01*
X152106095Y-97910380D02*
X151534666Y-98481809D01*
%TO.C,R29*%
X107307142Y-52362380D02*
X106973809Y-51886190D01*
X106735714Y-52362380D02*
X106735714Y-51362380D01*
X107116666Y-51362380D01*
X107211904Y-51410000D01*
X107259523Y-51457619D01*
X107307142Y-51552857D01*
X107307142Y-51695714D01*
X107259523Y-51790952D01*
X107211904Y-51838571D01*
X107116666Y-51886190D01*
X106735714Y-51886190D01*
X107688095Y-51457619D02*
X107735714Y-51410000D01*
X107830952Y-51362380D01*
X108069047Y-51362380D01*
X108164285Y-51410000D01*
X108211904Y-51457619D01*
X108259523Y-51552857D01*
X108259523Y-51648095D01*
X108211904Y-51790952D01*
X107640476Y-52362380D01*
X108259523Y-52362380D01*
X108735714Y-52362380D02*
X108926190Y-52362380D01*
X109021428Y-52314761D01*
X109069047Y-52267142D01*
X109164285Y-52124285D01*
X109211904Y-51933809D01*
X109211904Y-51552857D01*
X109164285Y-51457619D01*
X109116666Y-51410000D01*
X109021428Y-51362380D01*
X108830952Y-51362380D01*
X108735714Y-51410000D01*
X108688095Y-51457619D01*
X108640476Y-51552857D01*
X108640476Y-51790952D01*
X108688095Y-51886190D01*
X108735714Y-51933809D01*
X108830952Y-51981428D01*
X109021428Y-51981428D01*
X109116666Y-51933809D01*
X109164285Y-51886190D01*
X109211904Y-51790952D01*
X107735714Y-55222380D02*
X107164285Y-55222380D01*
X107450000Y-55222380D02*
X107450000Y-54222380D01*
X107354761Y-54365238D01*
X107259523Y-54460476D01*
X107164285Y-54508095D01*
X108164285Y-55222380D02*
X108164285Y-54222380D01*
X108735714Y-55222380D02*
X108307142Y-54650952D01*
X108735714Y-54222380D02*
X108164285Y-54793809D01*
%TO.C,R28*%
X144391142Y-142532380D02*
X144057809Y-142056190D01*
X143819714Y-142532380D02*
X143819714Y-141532380D01*
X144200666Y-141532380D01*
X144295904Y-141580000D01*
X144343523Y-141627619D01*
X144391142Y-141722857D01*
X144391142Y-141865714D01*
X144343523Y-141960952D01*
X144295904Y-142008571D01*
X144200666Y-142056190D01*
X143819714Y-142056190D01*
X144772095Y-141627619D02*
X144819714Y-141580000D01*
X144914952Y-141532380D01*
X145153047Y-141532380D01*
X145248285Y-141580000D01*
X145295904Y-141627619D01*
X145343523Y-141722857D01*
X145343523Y-141818095D01*
X145295904Y-141960952D01*
X144724476Y-142532380D01*
X145343523Y-142532380D01*
X145914952Y-141960952D02*
X145819714Y-141913333D01*
X145772095Y-141865714D01*
X145724476Y-141770476D01*
X145724476Y-141722857D01*
X145772095Y-141627619D01*
X145819714Y-141580000D01*
X145914952Y-141532380D01*
X146105428Y-141532380D01*
X146200666Y-141580000D01*
X146248285Y-141627619D01*
X146295904Y-141722857D01*
X146295904Y-141770476D01*
X146248285Y-141865714D01*
X146200666Y-141913333D01*
X146105428Y-141960952D01*
X145914952Y-141960952D01*
X145819714Y-142008571D01*
X145772095Y-142056190D01*
X145724476Y-142151428D01*
X145724476Y-142341904D01*
X145772095Y-142437142D01*
X145819714Y-142484761D01*
X145914952Y-142532380D01*
X146105428Y-142532380D01*
X146200666Y-142484761D01*
X146248285Y-142437142D01*
X146295904Y-142341904D01*
X146295904Y-142151428D01*
X146248285Y-142056190D01*
X146200666Y-142008571D01*
X146105428Y-141960952D01*
X144819714Y-145392380D02*
X144248285Y-145392380D01*
X144534000Y-145392380D02*
X144534000Y-144392380D01*
X144438761Y-144535238D01*
X144343523Y-144630476D01*
X144248285Y-144678095D01*
X145248285Y-145392380D02*
X145248285Y-144392380D01*
X145819714Y-145392380D02*
X145391142Y-144820952D01*
X145819714Y-144392380D02*
X145248285Y-144963809D01*
%TO.C,R27*%
X143147142Y-136690380D02*
X142813809Y-136214190D01*
X142575714Y-136690380D02*
X142575714Y-135690380D01*
X142956666Y-135690380D01*
X143051904Y-135738000D01*
X143099523Y-135785619D01*
X143147142Y-135880857D01*
X143147142Y-136023714D01*
X143099523Y-136118952D01*
X143051904Y-136166571D01*
X142956666Y-136214190D01*
X142575714Y-136214190D01*
X143528095Y-135785619D02*
X143575714Y-135738000D01*
X143670952Y-135690380D01*
X143909047Y-135690380D01*
X144004285Y-135738000D01*
X144051904Y-135785619D01*
X144099523Y-135880857D01*
X144099523Y-135976095D01*
X144051904Y-136118952D01*
X143480476Y-136690380D01*
X144099523Y-136690380D01*
X144432857Y-135690380D02*
X145099523Y-135690380D01*
X144670952Y-136690380D01*
X143051904Y-138550380D02*
X142575714Y-138550380D01*
X142528095Y-139026571D01*
X142575714Y-138978952D01*
X142670952Y-138931333D01*
X142909047Y-138931333D01*
X143004285Y-138978952D01*
X143051904Y-139026571D01*
X143099523Y-139121809D01*
X143099523Y-139359904D01*
X143051904Y-139455142D01*
X143004285Y-139502761D01*
X142909047Y-139550380D01*
X142670952Y-139550380D01*
X142575714Y-139502761D01*
X142528095Y-139455142D01*
X144051904Y-139550380D02*
X143480476Y-139550380D01*
X143766190Y-139550380D02*
X143766190Y-138550380D01*
X143670952Y-138693238D01*
X143575714Y-138788476D01*
X143480476Y-138836095D01*
X144480476Y-139550380D02*
X144480476Y-138550380D01*
X145051904Y-139550380D02*
X144623333Y-138978952D01*
X145051904Y-138550380D02*
X144480476Y-139121809D01*
%TO.C,R26*%
X108323142Y-105006380D02*
X107989809Y-104530190D01*
X107751714Y-105006380D02*
X107751714Y-104006380D01*
X108132666Y-104006380D01*
X108227904Y-104054000D01*
X108275523Y-104101619D01*
X108323142Y-104196857D01*
X108323142Y-104339714D01*
X108275523Y-104434952D01*
X108227904Y-104482571D01*
X108132666Y-104530190D01*
X107751714Y-104530190D01*
X108704095Y-104101619D02*
X108751714Y-104054000D01*
X108846952Y-104006380D01*
X109085047Y-104006380D01*
X109180285Y-104054000D01*
X109227904Y-104101619D01*
X109275523Y-104196857D01*
X109275523Y-104292095D01*
X109227904Y-104434952D01*
X108656476Y-105006380D01*
X109275523Y-105006380D01*
X110132666Y-104006380D02*
X109942190Y-104006380D01*
X109846952Y-104054000D01*
X109799333Y-104101619D01*
X109704095Y-104244476D01*
X109656476Y-104434952D01*
X109656476Y-104815904D01*
X109704095Y-104911142D01*
X109751714Y-104958761D01*
X109846952Y-105006380D01*
X110037428Y-105006380D01*
X110132666Y-104958761D01*
X110180285Y-104911142D01*
X110227904Y-104815904D01*
X110227904Y-104577809D01*
X110180285Y-104482571D01*
X110132666Y-104434952D01*
X110037428Y-104387333D01*
X109846952Y-104387333D01*
X109751714Y-104434952D01*
X109704095Y-104482571D01*
X109656476Y-104577809D01*
X107227904Y-101241619D02*
X107275523Y-101194000D01*
X107370761Y-101146380D01*
X107608857Y-101146380D01*
X107704095Y-101194000D01*
X107751714Y-101241619D01*
X107799333Y-101336857D01*
X107799333Y-101432095D01*
X107751714Y-101574952D01*
X107180285Y-102146380D01*
X107799333Y-102146380D01*
X108656476Y-101479714D02*
X108656476Y-102146380D01*
X108418380Y-101098761D02*
X108180285Y-101813047D01*
X108799333Y-101813047D01*
X109370761Y-101146380D02*
X109466000Y-101146380D01*
X109561238Y-101194000D01*
X109608857Y-101241619D01*
X109656476Y-101336857D01*
X109704095Y-101527333D01*
X109704095Y-101765428D01*
X109656476Y-101955904D01*
X109608857Y-102051142D01*
X109561238Y-102098761D01*
X109466000Y-102146380D01*
X109370761Y-102146380D01*
X109275523Y-102098761D01*
X109227904Y-102051142D01*
X109180285Y-101955904D01*
X109132666Y-101765428D01*
X109132666Y-101527333D01*
X109180285Y-101336857D01*
X109227904Y-101241619D01*
X109275523Y-101194000D01*
X109370761Y-101146380D01*
X110132666Y-102146380D02*
X110132666Y-101146380D01*
X110704095Y-102146380D02*
X110275523Y-101574952D01*
X110704095Y-101146380D02*
X110132666Y-101717809D01*
%TO.C,R25*%
X108349142Y-100434380D02*
X108015809Y-99958190D01*
X107777714Y-100434380D02*
X107777714Y-99434380D01*
X108158666Y-99434380D01*
X108253904Y-99482000D01*
X108301523Y-99529619D01*
X108349142Y-99624857D01*
X108349142Y-99767714D01*
X108301523Y-99862952D01*
X108253904Y-99910571D01*
X108158666Y-99958190D01*
X107777714Y-99958190D01*
X108730095Y-99529619D02*
X108777714Y-99482000D01*
X108872952Y-99434380D01*
X109111047Y-99434380D01*
X109206285Y-99482000D01*
X109253904Y-99529619D01*
X109301523Y-99624857D01*
X109301523Y-99720095D01*
X109253904Y-99862952D01*
X108682476Y-100434380D01*
X109301523Y-100434380D01*
X110206285Y-99434380D02*
X109730095Y-99434380D01*
X109682476Y-99910571D01*
X109730095Y-99862952D01*
X109825333Y-99815333D01*
X110063428Y-99815333D01*
X110158666Y-99862952D01*
X110206285Y-99910571D01*
X110253904Y-100005809D01*
X110253904Y-100243904D01*
X110206285Y-100339142D01*
X110158666Y-100386761D01*
X110063428Y-100434380D01*
X109825333Y-100434380D01*
X109730095Y-100386761D01*
X109682476Y-100339142D01*
X107253904Y-96669619D02*
X107301523Y-96622000D01*
X107396761Y-96574380D01*
X107634857Y-96574380D01*
X107730095Y-96622000D01*
X107777714Y-96669619D01*
X107825333Y-96764857D01*
X107825333Y-96860095D01*
X107777714Y-97002952D01*
X107206285Y-97574380D01*
X107825333Y-97574380D01*
X108682476Y-96907714D02*
X108682476Y-97574380D01*
X108444380Y-96526761D02*
X108206285Y-97241047D01*
X108825333Y-97241047D01*
X109396761Y-96574380D02*
X109492000Y-96574380D01*
X109587238Y-96622000D01*
X109634857Y-96669619D01*
X109682476Y-96764857D01*
X109730095Y-96955333D01*
X109730095Y-97193428D01*
X109682476Y-97383904D01*
X109634857Y-97479142D01*
X109587238Y-97526761D01*
X109492000Y-97574380D01*
X109396761Y-97574380D01*
X109301523Y-97526761D01*
X109253904Y-97479142D01*
X109206285Y-97383904D01*
X109158666Y-97193428D01*
X109158666Y-96955333D01*
X109206285Y-96764857D01*
X109253904Y-96669619D01*
X109301523Y-96622000D01*
X109396761Y-96574380D01*
X110158666Y-97574380D02*
X110158666Y-96574380D01*
X110730095Y-97574380D02*
X110301523Y-97002952D01*
X110730095Y-96574380D02*
X110158666Y-97145809D01*
%TO.C,R24*%
X153789142Y-127038380D02*
X153455809Y-126562190D01*
X153217714Y-127038380D02*
X153217714Y-126038380D01*
X153598666Y-126038380D01*
X153693904Y-126086000D01*
X153741523Y-126133619D01*
X153789142Y-126228857D01*
X153789142Y-126371714D01*
X153741523Y-126466952D01*
X153693904Y-126514571D01*
X153598666Y-126562190D01*
X153217714Y-126562190D01*
X154170095Y-126133619D02*
X154217714Y-126086000D01*
X154312952Y-126038380D01*
X154551047Y-126038380D01*
X154646285Y-126086000D01*
X154693904Y-126133619D01*
X154741523Y-126228857D01*
X154741523Y-126324095D01*
X154693904Y-126466952D01*
X154122476Y-127038380D01*
X154741523Y-127038380D01*
X155598666Y-126371714D02*
X155598666Y-127038380D01*
X155360571Y-125990761D02*
X155122476Y-126705047D01*
X155741523Y-126705047D01*
X153265333Y-129898380D02*
X152693904Y-129898380D01*
X152979619Y-129898380D02*
X152979619Y-128898380D01*
X152884380Y-129041238D01*
X152789142Y-129136476D01*
X152693904Y-129184095D01*
X153884380Y-128898380D02*
X153979619Y-128898380D01*
X154074857Y-128946000D01*
X154122476Y-128993619D01*
X154170095Y-129088857D01*
X154217714Y-129279333D01*
X154217714Y-129517428D01*
X154170095Y-129707904D01*
X154122476Y-129803142D01*
X154074857Y-129850761D01*
X153979619Y-129898380D01*
X153884380Y-129898380D01*
X153789142Y-129850761D01*
X153741523Y-129803142D01*
X153693904Y-129707904D01*
X153646285Y-129517428D01*
X153646285Y-129279333D01*
X153693904Y-129088857D01*
X153741523Y-128993619D01*
X153789142Y-128946000D01*
X153884380Y-128898380D01*
X154836761Y-128898380D02*
X154932000Y-128898380D01*
X155027238Y-128946000D01*
X155074857Y-128993619D01*
X155122476Y-129088857D01*
X155170095Y-129279333D01*
X155170095Y-129517428D01*
X155122476Y-129707904D01*
X155074857Y-129803142D01*
X155027238Y-129850761D01*
X154932000Y-129898380D01*
X154836761Y-129898380D01*
X154741523Y-129850761D01*
X154693904Y-129803142D01*
X154646285Y-129707904D01*
X154598666Y-129517428D01*
X154598666Y-129279333D01*
X154646285Y-129088857D01*
X154693904Y-128993619D01*
X154741523Y-128946000D01*
X154836761Y-128898380D01*
X155598666Y-129898380D02*
X155598666Y-128898380D01*
X156170095Y-129898380D02*
X155741523Y-129326952D01*
X156170095Y-128898380D02*
X155598666Y-129469809D01*
%TO.C,R23*%
X131717142Y-64046380D02*
X131383809Y-63570190D01*
X131145714Y-64046380D02*
X131145714Y-63046380D01*
X131526666Y-63046380D01*
X131621904Y-63094000D01*
X131669523Y-63141619D01*
X131717142Y-63236857D01*
X131717142Y-63379714D01*
X131669523Y-63474952D01*
X131621904Y-63522571D01*
X131526666Y-63570190D01*
X131145714Y-63570190D01*
X132098095Y-63141619D02*
X132145714Y-63094000D01*
X132240952Y-63046380D01*
X132479047Y-63046380D01*
X132574285Y-63094000D01*
X132621904Y-63141619D01*
X132669523Y-63236857D01*
X132669523Y-63332095D01*
X132621904Y-63474952D01*
X132050476Y-64046380D01*
X132669523Y-64046380D01*
X133002857Y-63046380D02*
X133621904Y-63046380D01*
X133288571Y-63427333D01*
X133431428Y-63427333D01*
X133526666Y-63474952D01*
X133574285Y-63522571D01*
X133621904Y-63617809D01*
X133621904Y-63855904D01*
X133574285Y-63951142D01*
X133526666Y-63998761D01*
X133431428Y-64046380D01*
X133145714Y-64046380D01*
X133050476Y-63998761D01*
X133002857Y-63951142D01*
X131193333Y-66906380D02*
X131383809Y-66906380D01*
X131479047Y-66858761D01*
X131526666Y-66811142D01*
X131621904Y-66668285D01*
X131669523Y-66477809D01*
X131669523Y-66096857D01*
X131621904Y-66001619D01*
X131574285Y-65954000D01*
X131479047Y-65906380D01*
X131288571Y-65906380D01*
X131193333Y-65954000D01*
X131145714Y-66001619D01*
X131098095Y-66096857D01*
X131098095Y-66334952D01*
X131145714Y-66430190D01*
X131193333Y-66477809D01*
X131288571Y-66525428D01*
X131479047Y-66525428D01*
X131574285Y-66477809D01*
X131621904Y-66430190D01*
X131669523Y-66334952D01*
X132621904Y-66906380D02*
X132050476Y-66906380D01*
X132336190Y-66906380D02*
X132336190Y-65906380D01*
X132240952Y-66049238D01*
X132145714Y-66144476D01*
X132050476Y-66192095D01*
X133050476Y-66906380D02*
X133050476Y-65906380D01*
X133621904Y-66906380D02*
X133193333Y-66334952D01*
X133621904Y-65906380D02*
X133050476Y-66477809D01*
%TO.C,R22*%
X122039142Y-107734380D02*
X121705809Y-107258190D01*
X121467714Y-107734380D02*
X121467714Y-106734380D01*
X121848666Y-106734380D01*
X121943904Y-106782000D01*
X121991523Y-106829619D01*
X122039142Y-106924857D01*
X122039142Y-107067714D01*
X121991523Y-107162952D01*
X121943904Y-107210571D01*
X121848666Y-107258190D01*
X121467714Y-107258190D01*
X122420095Y-106829619D02*
X122467714Y-106782000D01*
X122562952Y-106734380D01*
X122801047Y-106734380D01*
X122896285Y-106782000D01*
X122943904Y-106829619D01*
X122991523Y-106924857D01*
X122991523Y-107020095D01*
X122943904Y-107162952D01*
X122372476Y-107734380D01*
X122991523Y-107734380D01*
X123372476Y-106829619D02*
X123420095Y-106782000D01*
X123515333Y-106734380D01*
X123753428Y-106734380D01*
X123848666Y-106782000D01*
X123896285Y-106829619D01*
X123943904Y-106924857D01*
X123943904Y-107020095D01*
X123896285Y-107162952D01*
X123324857Y-107734380D01*
X123943904Y-107734380D01*
X121515333Y-110594380D02*
X121705809Y-110594380D01*
X121801047Y-110546761D01*
X121848666Y-110499142D01*
X121943904Y-110356285D01*
X121991523Y-110165809D01*
X121991523Y-109784857D01*
X121943904Y-109689619D01*
X121896285Y-109642000D01*
X121801047Y-109594380D01*
X121610571Y-109594380D01*
X121515333Y-109642000D01*
X121467714Y-109689619D01*
X121420095Y-109784857D01*
X121420095Y-110022952D01*
X121467714Y-110118190D01*
X121515333Y-110165809D01*
X121610571Y-110213428D01*
X121801047Y-110213428D01*
X121896285Y-110165809D01*
X121943904Y-110118190D01*
X121991523Y-110022952D01*
X122943904Y-110594380D02*
X122372476Y-110594380D01*
X122658190Y-110594380D02*
X122658190Y-109594380D01*
X122562952Y-109737238D01*
X122467714Y-109832476D01*
X122372476Y-109880095D01*
X123372476Y-110594380D02*
X123372476Y-109594380D01*
X123943904Y-110594380D02*
X123515333Y-110022952D01*
X123943904Y-109594380D02*
X123372476Y-110165809D01*
%TO.C,R21*%
X131691142Y-59220380D02*
X131357809Y-58744190D01*
X131119714Y-59220380D02*
X131119714Y-58220380D01*
X131500666Y-58220380D01*
X131595904Y-58268000D01*
X131643523Y-58315619D01*
X131691142Y-58410857D01*
X131691142Y-58553714D01*
X131643523Y-58648952D01*
X131595904Y-58696571D01*
X131500666Y-58744190D01*
X131119714Y-58744190D01*
X132072095Y-58315619D02*
X132119714Y-58268000D01*
X132214952Y-58220380D01*
X132453047Y-58220380D01*
X132548285Y-58268000D01*
X132595904Y-58315619D01*
X132643523Y-58410857D01*
X132643523Y-58506095D01*
X132595904Y-58648952D01*
X132024476Y-59220380D01*
X132643523Y-59220380D01*
X133595904Y-59220380D02*
X133024476Y-59220380D01*
X133310190Y-59220380D02*
X133310190Y-58220380D01*
X133214952Y-58363238D01*
X133119714Y-58458476D01*
X133024476Y-58506095D01*
X131167333Y-62080380D02*
X130595904Y-62080380D01*
X130881619Y-62080380D02*
X130881619Y-61080380D01*
X130786380Y-61223238D01*
X130691142Y-61318476D01*
X130595904Y-61366095D01*
X131786380Y-61080380D02*
X131881619Y-61080380D01*
X131976857Y-61128000D01*
X132024476Y-61175619D01*
X132072095Y-61270857D01*
X132119714Y-61461333D01*
X132119714Y-61699428D01*
X132072095Y-61889904D01*
X132024476Y-61985142D01*
X131976857Y-62032761D01*
X131881619Y-62080380D01*
X131786380Y-62080380D01*
X131691142Y-62032761D01*
X131643523Y-61985142D01*
X131595904Y-61889904D01*
X131548285Y-61699428D01*
X131548285Y-61461333D01*
X131595904Y-61270857D01*
X131643523Y-61175619D01*
X131691142Y-61128000D01*
X131786380Y-61080380D01*
X132738761Y-61080380D02*
X132834000Y-61080380D01*
X132929238Y-61128000D01*
X132976857Y-61175619D01*
X133024476Y-61270857D01*
X133072095Y-61461333D01*
X133072095Y-61699428D01*
X133024476Y-61889904D01*
X132976857Y-61985142D01*
X132929238Y-62032761D01*
X132834000Y-62080380D01*
X132738761Y-62080380D01*
X132643523Y-62032761D01*
X132595904Y-61985142D01*
X132548285Y-61889904D01*
X132500666Y-61699428D01*
X132500666Y-61461333D01*
X132548285Y-61270857D01*
X132595904Y-61175619D01*
X132643523Y-61128000D01*
X132738761Y-61080380D01*
X133500666Y-62080380D02*
X133500666Y-61080380D01*
X134072095Y-62080380D02*
X133643523Y-61508952D01*
X134072095Y-61080380D02*
X133500666Y-61651809D01*
%TO.C,R20*%
X144899142Y-99164380D02*
X144565809Y-98688190D01*
X144327714Y-99164380D02*
X144327714Y-98164380D01*
X144708666Y-98164380D01*
X144803904Y-98212000D01*
X144851523Y-98259619D01*
X144899142Y-98354857D01*
X144899142Y-98497714D01*
X144851523Y-98592952D01*
X144803904Y-98640571D01*
X144708666Y-98688190D01*
X144327714Y-98688190D01*
X145280095Y-98259619D02*
X145327714Y-98212000D01*
X145422952Y-98164380D01*
X145661047Y-98164380D01*
X145756285Y-98212000D01*
X145803904Y-98259619D01*
X145851523Y-98354857D01*
X145851523Y-98450095D01*
X145803904Y-98592952D01*
X145232476Y-99164380D01*
X145851523Y-99164380D01*
X146470571Y-98164380D02*
X146565809Y-98164380D01*
X146661047Y-98212000D01*
X146708666Y-98259619D01*
X146756285Y-98354857D01*
X146803904Y-98545333D01*
X146803904Y-98783428D01*
X146756285Y-98973904D01*
X146708666Y-99069142D01*
X146661047Y-99116761D01*
X146565809Y-99164380D01*
X146470571Y-99164380D01*
X146375333Y-99116761D01*
X146327714Y-99069142D01*
X146280095Y-98973904D01*
X146232476Y-98783428D01*
X146232476Y-98545333D01*
X146280095Y-98354857D01*
X146327714Y-98259619D01*
X146375333Y-98212000D01*
X146470571Y-98164380D01*
X143803904Y-95399619D02*
X143851523Y-95352000D01*
X143946761Y-95304380D01*
X144184857Y-95304380D01*
X144280095Y-95352000D01*
X144327714Y-95399619D01*
X144375333Y-95494857D01*
X144375333Y-95590095D01*
X144327714Y-95732952D01*
X143756285Y-96304380D01*
X144375333Y-96304380D01*
X145232476Y-95637714D02*
X145232476Y-96304380D01*
X144994380Y-95256761D02*
X144756285Y-95971047D01*
X145375333Y-95971047D01*
X145946761Y-95304380D02*
X146042000Y-95304380D01*
X146137238Y-95352000D01*
X146184857Y-95399619D01*
X146232476Y-95494857D01*
X146280095Y-95685333D01*
X146280095Y-95923428D01*
X146232476Y-96113904D01*
X146184857Y-96209142D01*
X146137238Y-96256761D01*
X146042000Y-96304380D01*
X145946761Y-96304380D01*
X145851523Y-96256761D01*
X145803904Y-96209142D01*
X145756285Y-96113904D01*
X145708666Y-95923428D01*
X145708666Y-95685333D01*
X145756285Y-95494857D01*
X145803904Y-95399619D01*
X145851523Y-95352000D01*
X145946761Y-95304380D01*
X146708666Y-96304380D02*
X146708666Y-95304380D01*
X147280095Y-96304380D02*
X146851523Y-95732952D01*
X147280095Y-95304380D02*
X146708666Y-95875809D01*
%TO.C,R19*%
X126865142Y-102908380D02*
X126531809Y-102432190D01*
X126293714Y-102908380D02*
X126293714Y-101908380D01*
X126674666Y-101908380D01*
X126769904Y-101956000D01*
X126817523Y-102003619D01*
X126865142Y-102098857D01*
X126865142Y-102241714D01*
X126817523Y-102336952D01*
X126769904Y-102384571D01*
X126674666Y-102432190D01*
X126293714Y-102432190D01*
X127817523Y-102908380D02*
X127246095Y-102908380D01*
X127531809Y-102908380D02*
X127531809Y-101908380D01*
X127436571Y-102051238D01*
X127341333Y-102146476D01*
X127246095Y-102194095D01*
X128293714Y-102908380D02*
X128484190Y-102908380D01*
X128579428Y-102860761D01*
X128627047Y-102813142D01*
X128722285Y-102670285D01*
X128769904Y-102479809D01*
X128769904Y-102098857D01*
X128722285Y-102003619D01*
X128674666Y-101956000D01*
X128579428Y-101908380D01*
X128388952Y-101908380D01*
X128293714Y-101956000D01*
X128246095Y-102003619D01*
X128198476Y-102098857D01*
X128198476Y-102336952D01*
X128246095Y-102432190D01*
X128293714Y-102479809D01*
X128388952Y-102527428D01*
X128579428Y-102527428D01*
X128674666Y-102479809D01*
X128722285Y-102432190D01*
X128769904Y-102336952D01*
X126341333Y-105768380D02*
X125769904Y-105768380D01*
X126055619Y-105768380D02*
X126055619Y-104768380D01*
X125960380Y-104911238D01*
X125865142Y-105006476D01*
X125769904Y-105054095D01*
X126960380Y-104768380D02*
X127055619Y-104768380D01*
X127150857Y-104816000D01*
X127198476Y-104863619D01*
X127246095Y-104958857D01*
X127293714Y-105149333D01*
X127293714Y-105387428D01*
X127246095Y-105577904D01*
X127198476Y-105673142D01*
X127150857Y-105720761D01*
X127055619Y-105768380D01*
X126960380Y-105768380D01*
X126865142Y-105720761D01*
X126817523Y-105673142D01*
X126769904Y-105577904D01*
X126722285Y-105387428D01*
X126722285Y-105149333D01*
X126769904Y-104958857D01*
X126817523Y-104863619D01*
X126865142Y-104816000D01*
X126960380Y-104768380D01*
X127912761Y-104768380D02*
X128008000Y-104768380D01*
X128103238Y-104816000D01*
X128150857Y-104863619D01*
X128198476Y-104958857D01*
X128246095Y-105149333D01*
X128246095Y-105387428D01*
X128198476Y-105577904D01*
X128150857Y-105673142D01*
X128103238Y-105720761D01*
X128008000Y-105768380D01*
X127912761Y-105768380D01*
X127817523Y-105720761D01*
X127769904Y-105673142D01*
X127722285Y-105577904D01*
X127674666Y-105387428D01*
X127674666Y-105149333D01*
X127722285Y-104958857D01*
X127769904Y-104863619D01*
X127817523Y-104816000D01*
X127912761Y-104768380D01*
X128674666Y-105768380D02*
X128674666Y-104768380D01*
X129246095Y-105768380D02*
X128817523Y-105196952D01*
X129246095Y-104768380D02*
X128674666Y-105339809D01*
%TO.C,R18*%
X131691142Y-54394380D02*
X131357809Y-53918190D01*
X131119714Y-54394380D02*
X131119714Y-53394380D01*
X131500666Y-53394380D01*
X131595904Y-53442000D01*
X131643523Y-53489619D01*
X131691142Y-53584857D01*
X131691142Y-53727714D01*
X131643523Y-53822952D01*
X131595904Y-53870571D01*
X131500666Y-53918190D01*
X131119714Y-53918190D01*
X132643523Y-54394380D02*
X132072095Y-54394380D01*
X132357809Y-54394380D02*
X132357809Y-53394380D01*
X132262571Y-53537238D01*
X132167333Y-53632476D01*
X132072095Y-53680095D01*
X133214952Y-53822952D02*
X133119714Y-53775333D01*
X133072095Y-53727714D01*
X133024476Y-53632476D01*
X133024476Y-53584857D01*
X133072095Y-53489619D01*
X133119714Y-53442000D01*
X133214952Y-53394380D01*
X133405428Y-53394380D01*
X133500666Y-53442000D01*
X133548285Y-53489619D01*
X133595904Y-53584857D01*
X133595904Y-53632476D01*
X133548285Y-53727714D01*
X133500666Y-53775333D01*
X133405428Y-53822952D01*
X133214952Y-53822952D01*
X133119714Y-53870571D01*
X133072095Y-53918190D01*
X133024476Y-54013428D01*
X133024476Y-54203904D01*
X133072095Y-54299142D01*
X133119714Y-54346761D01*
X133214952Y-54394380D01*
X133405428Y-54394380D01*
X133500666Y-54346761D01*
X133548285Y-54299142D01*
X133595904Y-54203904D01*
X133595904Y-54013428D01*
X133548285Y-53918190D01*
X133500666Y-53870571D01*
X133405428Y-53822952D01*
X131167333Y-57254380D02*
X131357809Y-57254380D01*
X131453047Y-57206761D01*
X131500666Y-57159142D01*
X131595904Y-57016285D01*
X131643523Y-56825809D01*
X131643523Y-56444857D01*
X131595904Y-56349619D01*
X131548285Y-56302000D01*
X131453047Y-56254380D01*
X131262571Y-56254380D01*
X131167333Y-56302000D01*
X131119714Y-56349619D01*
X131072095Y-56444857D01*
X131072095Y-56682952D01*
X131119714Y-56778190D01*
X131167333Y-56825809D01*
X131262571Y-56873428D01*
X131453047Y-56873428D01*
X131548285Y-56825809D01*
X131595904Y-56778190D01*
X131643523Y-56682952D01*
X132595904Y-57254380D02*
X132024476Y-57254380D01*
X132310190Y-57254380D02*
X132310190Y-56254380D01*
X132214952Y-56397238D01*
X132119714Y-56492476D01*
X132024476Y-56540095D01*
X133024476Y-57254380D02*
X133024476Y-56254380D01*
X133595904Y-57254380D02*
X133167333Y-56682952D01*
X133595904Y-56254380D02*
X133024476Y-56825809D01*
%TO.C,R17*%
X131691142Y-49568380D02*
X131357809Y-49092190D01*
X131119714Y-49568380D02*
X131119714Y-48568380D01*
X131500666Y-48568380D01*
X131595904Y-48616000D01*
X131643523Y-48663619D01*
X131691142Y-48758857D01*
X131691142Y-48901714D01*
X131643523Y-48996952D01*
X131595904Y-49044571D01*
X131500666Y-49092190D01*
X131119714Y-49092190D01*
X132643523Y-49568380D02*
X132072095Y-49568380D01*
X132357809Y-49568380D02*
X132357809Y-48568380D01*
X132262571Y-48711238D01*
X132167333Y-48806476D01*
X132072095Y-48854095D01*
X132976857Y-48568380D02*
X133643523Y-48568380D01*
X133214952Y-49568380D01*
X131167333Y-52428380D02*
X130595904Y-52428380D01*
X130881619Y-52428380D02*
X130881619Y-51428380D01*
X130786380Y-51571238D01*
X130691142Y-51666476D01*
X130595904Y-51714095D01*
X131786380Y-51428380D02*
X131881619Y-51428380D01*
X131976857Y-51476000D01*
X132024476Y-51523619D01*
X132072095Y-51618857D01*
X132119714Y-51809333D01*
X132119714Y-52047428D01*
X132072095Y-52237904D01*
X132024476Y-52333142D01*
X131976857Y-52380761D01*
X131881619Y-52428380D01*
X131786380Y-52428380D01*
X131691142Y-52380761D01*
X131643523Y-52333142D01*
X131595904Y-52237904D01*
X131548285Y-52047428D01*
X131548285Y-51809333D01*
X131595904Y-51618857D01*
X131643523Y-51523619D01*
X131691142Y-51476000D01*
X131786380Y-51428380D01*
X132738761Y-51428380D02*
X132834000Y-51428380D01*
X132929238Y-51476000D01*
X132976857Y-51523619D01*
X133024476Y-51618857D01*
X133072095Y-51809333D01*
X133072095Y-52047428D01*
X133024476Y-52237904D01*
X132976857Y-52333142D01*
X132929238Y-52380761D01*
X132834000Y-52428380D01*
X132738761Y-52428380D01*
X132643523Y-52380761D01*
X132595904Y-52333142D01*
X132548285Y-52237904D01*
X132500666Y-52047428D01*
X132500666Y-51809333D01*
X132548285Y-51618857D01*
X132595904Y-51523619D01*
X132643523Y-51476000D01*
X132738761Y-51428380D01*
X133500666Y-52428380D02*
X133500666Y-51428380D01*
X134072095Y-52428380D02*
X133643523Y-51856952D01*
X134072095Y-51428380D02*
X133500666Y-51999809D01*
%TO.C,R16*%
X137025142Y-105768380D02*
X136691809Y-105292190D01*
X136453714Y-105768380D02*
X136453714Y-104768380D01*
X136834666Y-104768380D01*
X136929904Y-104816000D01*
X136977523Y-104863619D01*
X137025142Y-104958857D01*
X137025142Y-105101714D01*
X136977523Y-105196952D01*
X136929904Y-105244571D01*
X136834666Y-105292190D01*
X136453714Y-105292190D01*
X137977523Y-105768380D02*
X137406095Y-105768380D01*
X137691809Y-105768380D02*
X137691809Y-104768380D01*
X137596571Y-104911238D01*
X137501333Y-105006476D01*
X137406095Y-105054095D01*
X138834666Y-104768380D02*
X138644190Y-104768380D01*
X138548952Y-104816000D01*
X138501333Y-104863619D01*
X138406095Y-105006476D01*
X138358476Y-105196952D01*
X138358476Y-105577904D01*
X138406095Y-105673142D01*
X138453714Y-105720761D01*
X138548952Y-105768380D01*
X138739428Y-105768380D01*
X138834666Y-105720761D01*
X138882285Y-105673142D01*
X138929904Y-105577904D01*
X138929904Y-105339809D01*
X138882285Y-105244571D01*
X138834666Y-105196952D01*
X138739428Y-105149333D01*
X138548952Y-105149333D01*
X138453714Y-105196952D01*
X138406095Y-105244571D01*
X138358476Y-105339809D01*
X136501333Y-102908380D02*
X136691809Y-102908380D01*
X136787047Y-102860761D01*
X136834666Y-102813142D01*
X136929904Y-102670285D01*
X136977523Y-102479809D01*
X136977523Y-102098857D01*
X136929904Y-102003619D01*
X136882285Y-101956000D01*
X136787047Y-101908380D01*
X136596571Y-101908380D01*
X136501333Y-101956000D01*
X136453714Y-102003619D01*
X136406095Y-102098857D01*
X136406095Y-102336952D01*
X136453714Y-102432190D01*
X136501333Y-102479809D01*
X136596571Y-102527428D01*
X136787047Y-102527428D01*
X136882285Y-102479809D01*
X136929904Y-102432190D01*
X136977523Y-102336952D01*
X137929904Y-102908380D02*
X137358476Y-102908380D01*
X137644190Y-102908380D02*
X137644190Y-101908380D01*
X137548952Y-102051238D01*
X137453714Y-102146476D01*
X137358476Y-102194095D01*
X138358476Y-102908380D02*
X138358476Y-101908380D01*
X138929904Y-102908380D02*
X138501333Y-102336952D01*
X138929904Y-101908380D02*
X138358476Y-102479809D01*
%TO.C,R15*%
X108551142Y-126022380D02*
X108217809Y-125546190D01*
X107979714Y-126022380D02*
X107979714Y-125022380D01*
X108360666Y-125022380D01*
X108455904Y-125070000D01*
X108503523Y-125117619D01*
X108551142Y-125212857D01*
X108551142Y-125355714D01*
X108503523Y-125450952D01*
X108455904Y-125498571D01*
X108360666Y-125546190D01*
X107979714Y-125546190D01*
X109503523Y-126022380D02*
X108932095Y-126022380D01*
X109217809Y-126022380D02*
X109217809Y-125022380D01*
X109122571Y-125165238D01*
X109027333Y-125260476D01*
X108932095Y-125308095D01*
X110408285Y-125022380D02*
X109932095Y-125022380D01*
X109884476Y-125498571D01*
X109932095Y-125450952D01*
X110027333Y-125403333D01*
X110265428Y-125403333D01*
X110360666Y-125450952D01*
X110408285Y-125498571D01*
X110455904Y-125593809D01*
X110455904Y-125831904D01*
X110408285Y-125927142D01*
X110360666Y-125974761D01*
X110265428Y-126022380D01*
X110027333Y-126022380D01*
X109932095Y-125974761D01*
X109884476Y-125927142D01*
X108979714Y-128882380D02*
X108408285Y-128882380D01*
X108694000Y-128882380D02*
X108694000Y-127882380D01*
X108598761Y-128025238D01*
X108503523Y-128120476D01*
X108408285Y-128168095D01*
X109408285Y-128882380D02*
X109408285Y-127882380D01*
X109979714Y-128882380D02*
X109551142Y-128310952D01*
X109979714Y-127882380D02*
X109408285Y-128453809D01*
%TO.C,R14*%
X108323142Y-83858380D02*
X107989809Y-83382190D01*
X107751714Y-83858380D02*
X107751714Y-82858380D01*
X108132666Y-82858380D01*
X108227904Y-82906000D01*
X108275523Y-82953619D01*
X108323142Y-83048857D01*
X108323142Y-83191714D01*
X108275523Y-83286952D01*
X108227904Y-83334571D01*
X108132666Y-83382190D01*
X107751714Y-83382190D01*
X109275523Y-83858380D02*
X108704095Y-83858380D01*
X108989809Y-83858380D02*
X108989809Y-82858380D01*
X108894571Y-83001238D01*
X108799333Y-83096476D01*
X108704095Y-83144095D01*
X110132666Y-83191714D02*
X110132666Y-83858380D01*
X109894571Y-82810761D02*
X109656476Y-83525047D01*
X110275523Y-83525047D01*
X108227904Y-85718380D02*
X107751714Y-85718380D01*
X107704095Y-86194571D01*
X107751714Y-86146952D01*
X107846952Y-86099333D01*
X108085047Y-86099333D01*
X108180285Y-86146952D01*
X108227904Y-86194571D01*
X108275523Y-86289809D01*
X108275523Y-86527904D01*
X108227904Y-86623142D01*
X108180285Y-86670761D01*
X108085047Y-86718380D01*
X107846952Y-86718380D01*
X107751714Y-86670761D01*
X107704095Y-86623142D01*
X109132666Y-85718380D02*
X108942190Y-85718380D01*
X108846952Y-85766000D01*
X108799333Y-85813619D01*
X108704095Y-85956476D01*
X108656476Y-86146952D01*
X108656476Y-86527904D01*
X108704095Y-86623142D01*
X108751714Y-86670761D01*
X108846952Y-86718380D01*
X109037428Y-86718380D01*
X109132666Y-86670761D01*
X109180285Y-86623142D01*
X109227904Y-86527904D01*
X109227904Y-86289809D01*
X109180285Y-86194571D01*
X109132666Y-86146952D01*
X109037428Y-86099333D01*
X108846952Y-86099333D01*
X108751714Y-86146952D01*
X108704095Y-86194571D01*
X108656476Y-86289809D01*
X109656476Y-86718380D02*
X109656476Y-85718380D01*
X110227904Y-86718380D02*
X109799333Y-86146952D01*
X110227904Y-85718380D02*
X109656476Y-86289809D01*
%TO.C,R13*%
X117213142Y-51600380D02*
X116879809Y-51124190D01*
X116641714Y-51600380D02*
X116641714Y-50600380D01*
X117022666Y-50600380D01*
X117117904Y-50648000D01*
X117165523Y-50695619D01*
X117213142Y-50790857D01*
X117213142Y-50933714D01*
X117165523Y-51028952D01*
X117117904Y-51076571D01*
X117022666Y-51124190D01*
X116641714Y-51124190D01*
X118165523Y-51600380D02*
X117594095Y-51600380D01*
X117879809Y-51600380D02*
X117879809Y-50600380D01*
X117784571Y-50743238D01*
X117689333Y-50838476D01*
X117594095Y-50886095D01*
X118498857Y-50600380D02*
X119117904Y-50600380D01*
X118784571Y-50981333D01*
X118927428Y-50981333D01*
X119022666Y-51028952D01*
X119070285Y-51076571D01*
X119117904Y-51171809D01*
X119117904Y-51409904D01*
X119070285Y-51505142D01*
X119022666Y-51552761D01*
X118927428Y-51600380D01*
X118641714Y-51600380D01*
X118546476Y-51552761D01*
X118498857Y-51505142D01*
X116546476Y-53460380D02*
X117165523Y-53460380D01*
X116832190Y-53841333D01*
X116975047Y-53841333D01*
X117070285Y-53888952D01*
X117117904Y-53936571D01*
X117165523Y-54031809D01*
X117165523Y-54269904D01*
X117117904Y-54365142D01*
X117070285Y-54412761D01*
X116975047Y-54460380D01*
X116689333Y-54460380D01*
X116594095Y-54412761D01*
X116546476Y-54365142D01*
X118022666Y-53460380D02*
X117832190Y-53460380D01*
X117736952Y-53508000D01*
X117689333Y-53555619D01*
X117594095Y-53698476D01*
X117546476Y-53888952D01*
X117546476Y-54269904D01*
X117594095Y-54365142D01*
X117641714Y-54412761D01*
X117736952Y-54460380D01*
X117927428Y-54460380D01*
X118022666Y-54412761D01*
X118070285Y-54365142D01*
X118117904Y-54269904D01*
X118117904Y-54031809D01*
X118070285Y-53936571D01*
X118022666Y-53888952D01*
X117927428Y-53841333D01*
X117736952Y-53841333D01*
X117641714Y-53888952D01*
X117594095Y-53936571D01*
X117546476Y-54031809D01*
X118546476Y-54460380D02*
X118546476Y-53460380D01*
X119117904Y-54460380D02*
X118689333Y-53888952D01*
X119117904Y-53460380D02*
X118546476Y-54031809D01*
%TO.C,R12*%
X123563142Y-51600380D02*
X123229809Y-51124190D01*
X122991714Y-51600380D02*
X122991714Y-50600380D01*
X123372666Y-50600380D01*
X123467904Y-50648000D01*
X123515523Y-50695619D01*
X123563142Y-50790857D01*
X123563142Y-50933714D01*
X123515523Y-51028952D01*
X123467904Y-51076571D01*
X123372666Y-51124190D01*
X122991714Y-51124190D01*
X124515523Y-51600380D02*
X123944095Y-51600380D01*
X124229809Y-51600380D02*
X124229809Y-50600380D01*
X124134571Y-50743238D01*
X124039333Y-50838476D01*
X123944095Y-50886095D01*
X124896476Y-50695619D02*
X124944095Y-50648000D01*
X125039333Y-50600380D01*
X125277428Y-50600380D01*
X125372666Y-50648000D01*
X125420285Y-50695619D01*
X125467904Y-50790857D01*
X125467904Y-50886095D01*
X125420285Y-51028952D01*
X124848857Y-51600380D01*
X125467904Y-51600380D01*
X123515523Y-54460380D02*
X122944095Y-54460380D01*
X123229809Y-54460380D02*
X123229809Y-53460380D01*
X123134571Y-53603238D01*
X123039333Y-53698476D01*
X122944095Y-53746095D01*
X124420285Y-53460380D02*
X123944095Y-53460380D01*
X123896476Y-53936571D01*
X123944095Y-53888952D01*
X124039333Y-53841333D01*
X124277428Y-53841333D01*
X124372666Y-53888952D01*
X124420285Y-53936571D01*
X124467904Y-54031809D01*
X124467904Y-54269904D01*
X124420285Y-54365142D01*
X124372666Y-54412761D01*
X124277428Y-54460380D01*
X124039333Y-54460380D01*
X123944095Y-54412761D01*
X123896476Y-54365142D01*
X124896476Y-54460380D02*
X124896476Y-53460380D01*
X125467904Y-54460380D02*
X125039333Y-53888952D01*
X125467904Y-53460380D02*
X124896476Y-54031809D01*
%TO.C,R11*%
X107307142Y-61506380D02*
X106973809Y-61030190D01*
X106735714Y-61506380D02*
X106735714Y-60506380D01*
X107116666Y-60506380D01*
X107211904Y-60554000D01*
X107259523Y-60601619D01*
X107307142Y-60696857D01*
X107307142Y-60839714D01*
X107259523Y-60934952D01*
X107211904Y-60982571D01*
X107116666Y-61030190D01*
X106735714Y-61030190D01*
X108259523Y-61506380D02*
X107688095Y-61506380D01*
X107973809Y-61506380D02*
X107973809Y-60506380D01*
X107878571Y-60649238D01*
X107783333Y-60744476D01*
X107688095Y-60792095D01*
X109211904Y-61506380D02*
X108640476Y-61506380D01*
X108926190Y-61506380D02*
X108926190Y-60506380D01*
X108830952Y-60649238D01*
X108735714Y-60744476D01*
X108640476Y-60792095D01*
X106783333Y-64366380D02*
X106973809Y-64366380D01*
X107069047Y-64318761D01*
X107116666Y-64271142D01*
X107211904Y-64128285D01*
X107259523Y-63937809D01*
X107259523Y-63556857D01*
X107211904Y-63461619D01*
X107164285Y-63414000D01*
X107069047Y-63366380D01*
X106878571Y-63366380D01*
X106783333Y-63414000D01*
X106735714Y-63461619D01*
X106688095Y-63556857D01*
X106688095Y-63794952D01*
X106735714Y-63890190D01*
X106783333Y-63937809D01*
X106878571Y-63985428D01*
X107069047Y-63985428D01*
X107164285Y-63937809D01*
X107211904Y-63890190D01*
X107259523Y-63794952D01*
X108211904Y-64366380D02*
X107640476Y-64366380D01*
X107926190Y-64366380D02*
X107926190Y-63366380D01*
X107830952Y-63509238D01*
X107735714Y-63604476D01*
X107640476Y-63652095D01*
X108640476Y-64366380D02*
X108640476Y-63366380D01*
X109211904Y-64366380D02*
X108783333Y-63794952D01*
X109211904Y-63366380D02*
X108640476Y-63937809D01*
%TO.C,R10*%
X107307142Y-47790380D02*
X106973809Y-47314190D01*
X106735714Y-47790380D02*
X106735714Y-46790380D01*
X107116666Y-46790380D01*
X107211904Y-46838000D01*
X107259523Y-46885619D01*
X107307142Y-46980857D01*
X107307142Y-47123714D01*
X107259523Y-47218952D01*
X107211904Y-47266571D01*
X107116666Y-47314190D01*
X106735714Y-47314190D01*
X108259523Y-47790380D02*
X107688095Y-47790380D01*
X107973809Y-47790380D02*
X107973809Y-46790380D01*
X107878571Y-46933238D01*
X107783333Y-47028476D01*
X107688095Y-47076095D01*
X108878571Y-46790380D02*
X108973809Y-46790380D01*
X109069047Y-46838000D01*
X109116666Y-46885619D01*
X109164285Y-46980857D01*
X109211904Y-47171333D01*
X109211904Y-47409428D01*
X109164285Y-47599904D01*
X109116666Y-47695142D01*
X109069047Y-47742761D01*
X108973809Y-47790380D01*
X108878571Y-47790380D01*
X108783333Y-47742761D01*
X108735714Y-47695142D01*
X108688095Y-47599904D01*
X108640476Y-47409428D01*
X108640476Y-47171333D01*
X108688095Y-46980857D01*
X108735714Y-46885619D01*
X108783333Y-46838000D01*
X108878571Y-46790380D01*
X106783333Y-50650380D02*
X106211904Y-50650380D01*
X106497619Y-50650380D02*
X106497619Y-49650380D01*
X106402380Y-49793238D01*
X106307142Y-49888476D01*
X106211904Y-49936095D01*
X107402380Y-49650380D02*
X107497619Y-49650380D01*
X107592857Y-49698000D01*
X107640476Y-49745619D01*
X107688095Y-49840857D01*
X107735714Y-50031333D01*
X107735714Y-50269428D01*
X107688095Y-50459904D01*
X107640476Y-50555142D01*
X107592857Y-50602761D01*
X107497619Y-50650380D01*
X107402380Y-50650380D01*
X107307142Y-50602761D01*
X107259523Y-50555142D01*
X107211904Y-50459904D01*
X107164285Y-50269428D01*
X107164285Y-50031333D01*
X107211904Y-49840857D01*
X107259523Y-49745619D01*
X107307142Y-49698000D01*
X107402380Y-49650380D01*
X108354761Y-49650380D02*
X108450000Y-49650380D01*
X108545238Y-49698000D01*
X108592857Y-49745619D01*
X108640476Y-49840857D01*
X108688095Y-50031333D01*
X108688095Y-50269428D01*
X108640476Y-50459904D01*
X108592857Y-50555142D01*
X108545238Y-50602761D01*
X108450000Y-50650380D01*
X108354761Y-50650380D01*
X108259523Y-50602761D01*
X108211904Y-50555142D01*
X108164285Y-50459904D01*
X108116666Y-50269428D01*
X108116666Y-50031333D01*
X108164285Y-49840857D01*
X108211904Y-49745619D01*
X108259523Y-49698000D01*
X108354761Y-49650380D01*
X109116666Y-50650380D02*
X109116666Y-49650380D01*
X109688095Y-50650380D02*
X109259523Y-50078952D01*
X109688095Y-49650380D02*
X109116666Y-50221809D01*
%TO.C,R9*%
X107757333Y-43218380D02*
X107424000Y-42742190D01*
X107185904Y-43218380D02*
X107185904Y-42218380D01*
X107566857Y-42218380D01*
X107662095Y-42266000D01*
X107709714Y-42313619D01*
X107757333Y-42408857D01*
X107757333Y-42551714D01*
X107709714Y-42646952D01*
X107662095Y-42694571D01*
X107566857Y-42742190D01*
X107185904Y-42742190D01*
X108233523Y-43218380D02*
X108424000Y-43218380D01*
X108519238Y-43170761D01*
X108566857Y-43123142D01*
X108662095Y-42980285D01*
X108709714Y-42789809D01*
X108709714Y-42408857D01*
X108662095Y-42313619D01*
X108614476Y-42266000D01*
X108519238Y-42218380D01*
X108328761Y-42218380D01*
X108233523Y-42266000D01*
X108185904Y-42313619D01*
X108138285Y-42408857D01*
X108138285Y-42646952D01*
X108185904Y-42742190D01*
X108233523Y-42789809D01*
X108328761Y-42837428D01*
X108519238Y-42837428D01*
X108614476Y-42789809D01*
X108662095Y-42742190D01*
X108709714Y-42646952D01*
X106757333Y-46078380D02*
X106185904Y-46078380D01*
X106471619Y-46078380D02*
X106471619Y-45078380D01*
X106376380Y-45221238D01*
X106281142Y-45316476D01*
X106185904Y-45364095D01*
X107376380Y-45078380D02*
X107471619Y-45078380D01*
X107566857Y-45126000D01*
X107614476Y-45173619D01*
X107662095Y-45268857D01*
X107709714Y-45459333D01*
X107709714Y-45697428D01*
X107662095Y-45887904D01*
X107614476Y-45983142D01*
X107566857Y-46030761D01*
X107471619Y-46078380D01*
X107376380Y-46078380D01*
X107281142Y-46030761D01*
X107233523Y-45983142D01*
X107185904Y-45887904D01*
X107138285Y-45697428D01*
X107138285Y-45459333D01*
X107185904Y-45268857D01*
X107233523Y-45173619D01*
X107281142Y-45126000D01*
X107376380Y-45078380D01*
X108328761Y-45078380D02*
X108424000Y-45078380D01*
X108519238Y-45126000D01*
X108566857Y-45173619D01*
X108614476Y-45268857D01*
X108662095Y-45459333D01*
X108662095Y-45697428D01*
X108614476Y-45887904D01*
X108566857Y-45983142D01*
X108519238Y-46030761D01*
X108424000Y-46078380D01*
X108328761Y-46078380D01*
X108233523Y-46030761D01*
X108185904Y-45983142D01*
X108138285Y-45887904D01*
X108090666Y-45697428D01*
X108090666Y-45459333D01*
X108138285Y-45268857D01*
X108185904Y-45173619D01*
X108233523Y-45126000D01*
X108328761Y-45078380D01*
X109090666Y-46078380D02*
X109090666Y-45078380D01*
X109662095Y-46078380D02*
X109233523Y-45506952D01*
X109662095Y-45078380D02*
X109090666Y-45649809D01*
%TO.C,R8*%
X108799333Y-88430380D02*
X108466000Y-87954190D01*
X108227904Y-88430380D02*
X108227904Y-87430380D01*
X108608857Y-87430380D01*
X108704095Y-87478000D01*
X108751714Y-87525619D01*
X108799333Y-87620857D01*
X108799333Y-87763714D01*
X108751714Y-87858952D01*
X108704095Y-87906571D01*
X108608857Y-87954190D01*
X108227904Y-87954190D01*
X109370761Y-87858952D02*
X109275523Y-87811333D01*
X109227904Y-87763714D01*
X109180285Y-87668476D01*
X109180285Y-87620857D01*
X109227904Y-87525619D01*
X109275523Y-87478000D01*
X109370761Y-87430380D01*
X109561238Y-87430380D01*
X109656476Y-87478000D01*
X109704095Y-87525619D01*
X109751714Y-87620857D01*
X109751714Y-87668476D01*
X109704095Y-87763714D01*
X109656476Y-87811333D01*
X109561238Y-87858952D01*
X109370761Y-87858952D01*
X109275523Y-87906571D01*
X109227904Y-87954190D01*
X109180285Y-88049428D01*
X109180285Y-88239904D01*
X109227904Y-88335142D01*
X109275523Y-88382761D01*
X109370761Y-88430380D01*
X109561238Y-88430380D01*
X109656476Y-88382761D01*
X109704095Y-88335142D01*
X109751714Y-88239904D01*
X109751714Y-88049428D01*
X109704095Y-87954190D01*
X109656476Y-87906571D01*
X109561238Y-87858952D01*
X107180285Y-90290380D02*
X107799333Y-90290380D01*
X107466000Y-90671333D01*
X107608857Y-90671333D01*
X107704095Y-90718952D01*
X107751714Y-90766571D01*
X107799333Y-90861809D01*
X107799333Y-91099904D01*
X107751714Y-91195142D01*
X107704095Y-91242761D01*
X107608857Y-91290380D01*
X107323142Y-91290380D01*
X107227904Y-91242761D01*
X107180285Y-91195142D01*
X108418380Y-90290380D02*
X108513619Y-90290380D01*
X108608857Y-90338000D01*
X108656476Y-90385619D01*
X108704095Y-90480857D01*
X108751714Y-90671333D01*
X108751714Y-90909428D01*
X108704095Y-91099904D01*
X108656476Y-91195142D01*
X108608857Y-91242761D01*
X108513619Y-91290380D01*
X108418380Y-91290380D01*
X108323142Y-91242761D01*
X108275523Y-91195142D01*
X108227904Y-91099904D01*
X108180285Y-90909428D01*
X108180285Y-90671333D01*
X108227904Y-90480857D01*
X108275523Y-90385619D01*
X108323142Y-90338000D01*
X108418380Y-90290380D01*
X109370761Y-90290380D02*
X109466000Y-90290380D01*
X109561238Y-90338000D01*
X109608857Y-90385619D01*
X109656476Y-90480857D01*
X109704095Y-90671333D01*
X109704095Y-90909428D01*
X109656476Y-91099904D01*
X109608857Y-91195142D01*
X109561238Y-91242761D01*
X109466000Y-91290380D01*
X109370761Y-91290380D01*
X109275523Y-91242761D01*
X109227904Y-91195142D01*
X109180285Y-91099904D01*
X109132666Y-90909428D01*
X109132666Y-90671333D01*
X109180285Y-90480857D01*
X109227904Y-90385619D01*
X109275523Y-90338000D01*
X109370761Y-90290380D01*
X110132666Y-91290380D02*
X110132666Y-90290380D01*
X110704095Y-91290380D02*
X110275523Y-90718952D01*
X110704095Y-90290380D02*
X110132666Y-90861809D01*
%TO.C,R7*%
X118197333Y-102654380D02*
X117864000Y-102178190D01*
X117625904Y-102654380D02*
X117625904Y-101654380D01*
X118006857Y-101654380D01*
X118102095Y-101702000D01*
X118149714Y-101749619D01*
X118197333Y-101844857D01*
X118197333Y-101987714D01*
X118149714Y-102082952D01*
X118102095Y-102130571D01*
X118006857Y-102178190D01*
X117625904Y-102178190D01*
X118530666Y-101654380D02*
X119197333Y-101654380D01*
X118768761Y-102654380D01*
X117602095Y-105608380D02*
X117030666Y-105608380D01*
X117316380Y-105608380D02*
X117316380Y-104608380D01*
X117221142Y-104751238D01*
X117125904Y-104846476D01*
X117030666Y-104894095D01*
X118030666Y-105608380D02*
X118030666Y-104608380D01*
X118364000Y-105322666D01*
X118697333Y-104608380D01*
X118697333Y-105608380D01*
X119649714Y-104608380D02*
X119173523Y-104608380D01*
X119125904Y-105084571D01*
X119173523Y-105036952D01*
X119268761Y-104989333D01*
X119506857Y-104989333D01*
X119602095Y-105036952D01*
X119649714Y-105084571D01*
X119697333Y-105179809D01*
X119697333Y-105417904D01*
X119649714Y-105513142D01*
X119602095Y-105560761D01*
X119506857Y-105608380D01*
X119268761Y-105608380D01*
X119173523Y-105560761D01*
X119125904Y-105513142D01*
%TO.C,R6*%
X132421333Y-102908380D02*
X132088000Y-102432190D01*
X131849904Y-102908380D02*
X131849904Y-101908380D01*
X132230857Y-101908380D01*
X132326095Y-101956000D01*
X132373714Y-102003619D01*
X132421333Y-102098857D01*
X132421333Y-102241714D01*
X132373714Y-102336952D01*
X132326095Y-102384571D01*
X132230857Y-102432190D01*
X131849904Y-102432190D01*
X133278476Y-101908380D02*
X133088000Y-101908380D01*
X132992761Y-101956000D01*
X132945142Y-102003619D01*
X132849904Y-102146476D01*
X132802285Y-102336952D01*
X132802285Y-102717904D01*
X132849904Y-102813142D01*
X132897523Y-102860761D01*
X132992761Y-102908380D01*
X133183238Y-102908380D01*
X133278476Y-102860761D01*
X133326095Y-102813142D01*
X133373714Y-102717904D01*
X133373714Y-102479809D01*
X133326095Y-102384571D01*
X133278476Y-102336952D01*
X133183238Y-102289333D01*
X132992761Y-102289333D01*
X132897523Y-102336952D01*
X132849904Y-102384571D01*
X132802285Y-102479809D01*
X131421333Y-105768380D02*
X130849904Y-105768380D01*
X131135619Y-105768380D02*
X131135619Y-104768380D01*
X131040380Y-104911238D01*
X130945142Y-105006476D01*
X130849904Y-105054095D01*
X132326095Y-104768380D02*
X131849904Y-104768380D01*
X131802285Y-105244571D01*
X131849904Y-105196952D01*
X131945142Y-105149333D01*
X132183238Y-105149333D01*
X132278476Y-105196952D01*
X132326095Y-105244571D01*
X132373714Y-105339809D01*
X132373714Y-105577904D01*
X132326095Y-105673142D01*
X132278476Y-105720761D01*
X132183238Y-105768380D01*
X131945142Y-105768380D01*
X131849904Y-105720761D01*
X131802285Y-105673142D01*
X132992761Y-104768380D02*
X133088000Y-104768380D01*
X133183238Y-104816000D01*
X133230857Y-104863619D01*
X133278476Y-104958857D01*
X133326095Y-105149333D01*
X133326095Y-105387428D01*
X133278476Y-105577904D01*
X133230857Y-105673142D01*
X133183238Y-105720761D01*
X133088000Y-105768380D01*
X132992761Y-105768380D01*
X132897523Y-105720761D01*
X132849904Y-105673142D01*
X132802285Y-105577904D01*
X132754666Y-105387428D01*
X132754666Y-105149333D01*
X132802285Y-104958857D01*
X132849904Y-104863619D01*
X132897523Y-104816000D01*
X132992761Y-104768380D01*
X133754666Y-105768380D02*
X133754666Y-104768380D01*
X134326095Y-105768380D02*
X133897523Y-105196952D01*
X134326095Y-104768380D02*
X133754666Y-105339809D01*
%TO.C,R5*%
X118197333Y-107734380D02*
X117864000Y-107258190D01*
X117625904Y-107734380D02*
X117625904Y-106734380D01*
X118006857Y-106734380D01*
X118102095Y-106782000D01*
X118149714Y-106829619D01*
X118197333Y-106924857D01*
X118197333Y-107067714D01*
X118149714Y-107162952D01*
X118102095Y-107210571D01*
X118006857Y-107258190D01*
X117625904Y-107258190D01*
X119102095Y-106734380D02*
X118625904Y-106734380D01*
X118578285Y-107210571D01*
X118625904Y-107162952D01*
X118721142Y-107115333D01*
X118959238Y-107115333D01*
X119054476Y-107162952D01*
X119102095Y-107210571D01*
X119149714Y-107305809D01*
X119149714Y-107543904D01*
X119102095Y-107639142D01*
X119054476Y-107686761D01*
X118959238Y-107734380D01*
X118721142Y-107734380D01*
X118625904Y-107686761D01*
X118578285Y-107639142D01*
X117197333Y-110594380D02*
X116625904Y-110594380D01*
X116911619Y-110594380D02*
X116911619Y-109594380D01*
X116816380Y-109737238D01*
X116721142Y-109832476D01*
X116625904Y-109880095D01*
X117816380Y-109594380D02*
X117911619Y-109594380D01*
X118006857Y-109642000D01*
X118054476Y-109689619D01*
X118102095Y-109784857D01*
X118149714Y-109975333D01*
X118149714Y-110213428D01*
X118102095Y-110403904D01*
X118054476Y-110499142D01*
X118006857Y-110546761D01*
X117911619Y-110594380D01*
X117816380Y-110594380D01*
X117721142Y-110546761D01*
X117673523Y-110499142D01*
X117625904Y-110403904D01*
X117578285Y-110213428D01*
X117578285Y-109975333D01*
X117625904Y-109784857D01*
X117673523Y-109689619D01*
X117721142Y-109642000D01*
X117816380Y-109594380D01*
X118768761Y-109594380D02*
X118864000Y-109594380D01*
X118959238Y-109642000D01*
X119006857Y-109689619D01*
X119054476Y-109784857D01*
X119102095Y-109975333D01*
X119102095Y-110213428D01*
X119054476Y-110403904D01*
X119006857Y-110499142D01*
X118959238Y-110546761D01*
X118864000Y-110594380D01*
X118768761Y-110594380D01*
X118673523Y-110546761D01*
X118625904Y-110499142D01*
X118578285Y-110403904D01*
X118530666Y-110213428D01*
X118530666Y-109975333D01*
X118578285Y-109784857D01*
X118625904Y-109689619D01*
X118673523Y-109642000D01*
X118768761Y-109594380D01*
X119530666Y-110594380D02*
X119530666Y-109594380D01*
X120102095Y-110594380D02*
X119673523Y-110022952D01*
X120102095Y-109594380D02*
X119530666Y-110165809D01*
%TO.C,R4*%
X107783333Y-66078380D02*
X107450000Y-65602190D01*
X107211904Y-66078380D02*
X107211904Y-65078380D01*
X107592857Y-65078380D01*
X107688095Y-65126000D01*
X107735714Y-65173619D01*
X107783333Y-65268857D01*
X107783333Y-65411714D01*
X107735714Y-65506952D01*
X107688095Y-65554571D01*
X107592857Y-65602190D01*
X107211904Y-65602190D01*
X108640476Y-65411714D02*
X108640476Y-66078380D01*
X108402380Y-65030761D02*
X108164285Y-65745047D01*
X108783333Y-65745047D01*
X106783333Y-68938380D02*
X106211904Y-68938380D01*
X106497619Y-68938380D02*
X106497619Y-67938380D01*
X106402380Y-68081238D01*
X106307142Y-68176476D01*
X106211904Y-68224095D01*
X107402380Y-67938380D02*
X107497619Y-67938380D01*
X107592857Y-67986000D01*
X107640476Y-68033619D01*
X107688095Y-68128857D01*
X107735714Y-68319333D01*
X107735714Y-68557428D01*
X107688095Y-68747904D01*
X107640476Y-68843142D01*
X107592857Y-68890761D01*
X107497619Y-68938380D01*
X107402380Y-68938380D01*
X107307142Y-68890761D01*
X107259523Y-68843142D01*
X107211904Y-68747904D01*
X107164285Y-68557428D01*
X107164285Y-68319333D01*
X107211904Y-68128857D01*
X107259523Y-68033619D01*
X107307142Y-67986000D01*
X107402380Y-67938380D01*
X108354761Y-67938380D02*
X108450000Y-67938380D01*
X108545238Y-67986000D01*
X108592857Y-68033619D01*
X108640476Y-68128857D01*
X108688095Y-68319333D01*
X108688095Y-68557428D01*
X108640476Y-68747904D01*
X108592857Y-68843142D01*
X108545238Y-68890761D01*
X108450000Y-68938380D01*
X108354761Y-68938380D01*
X108259523Y-68890761D01*
X108211904Y-68843142D01*
X108164285Y-68747904D01*
X108116666Y-68557428D01*
X108116666Y-68319333D01*
X108164285Y-68128857D01*
X108211904Y-68033619D01*
X108259523Y-67986000D01*
X108354761Y-67938380D01*
X109116666Y-68938380D02*
X109116666Y-67938380D01*
X109688095Y-68938380D02*
X109259523Y-68366952D01*
X109688095Y-67938380D02*
X109116666Y-68509809D01*
%TO.C,R3*%
X107783333Y-56934380D02*
X107450000Y-56458190D01*
X107211904Y-56934380D02*
X107211904Y-55934380D01*
X107592857Y-55934380D01*
X107688095Y-55982000D01*
X107735714Y-56029619D01*
X107783333Y-56124857D01*
X107783333Y-56267714D01*
X107735714Y-56362952D01*
X107688095Y-56410571D01*
X107592857Y-56458190D01*
X107211904Y-56458190D01*
X108116666Y-55934380D02*
X108735714Y-55934380D01*
X108402380Y-56315333D01*
X108545238Y-56315333D01*
X108640476Y-56362952D01*
X108688095Y-56410571D01*
X108735714Y-56505809D01*
X108735714Y-56743904D01*
X108688095Y-56839142D01*
X108640476Y-56886761D01*
X108545238Y-56934380D01*
X108259523Y-56934380D01*
X108164285Y-56886761D01*
X108116666Y-56839142D01*
X106783333Y-59794380D02*
X106211904Y-59794380D01*
X106497619Y-59794380D02*
X106497619Y-58794380D01*
X106402380Y-58937238D01*
X106307142Y-59032476D01*
X106211904Y-59080095D01*
X107354761Y-59222952D02*
X107259523Y-59175333D01*
X107211904Y-59127714D01*
X107164285Y-59032476D01*
X107164285Y-58984857D01*
X107211904Y-58889619D01*
X107259523Y-58842000D01*
X107354761Y-58794380D01*
X107545238Y-58794380D01*
X107640476Y-58842000D01*
X107688095Y-58889619D01*
X107735714Y-58984857D01*
X107735714Y-59032476D01*
X107688095Y-59127714D01*
X107640476Y-59175333D01*
X107545238Y-59222952D01*
X107354761Y-59222952D01*
X107259523Y-59270571D01*
X107211904Y-59318190D01*
X107164285Y-59413428D01*
X107164285Y-59603904D01*
X107211904Y-59699142D01*
X107259523Y-59746761D01*
X107354761Y-59794380D01*
X107545238Y-59794380D01*
X107640476Y-59746761D01*
X107688095Y-59699142D01*
X107735714Y-59603904D01*
X107735714Y-59413428D01*
X107688095Y-59318190D01*
X107640476Y-59270571D01*
X107545238Y-59222952D01*
X108354761Y-58794380D02*
X108450000Y-58794380D01*
X108545238Y-58842000D01*
X108592857Y-58889619D01*
X108640476Y-58984857D01*
X108688095Y-59175333D01*
X108688095Y-59413428D01*
X108640476Y-59603904D01*
X108592857Y-59699142D01*
X108545238Y-59746761D01*
X108450000Y-59794380D01*
X108354761Y-59794380D01*
X108259523Y-59746761D01*
X108211904Y-59699142D01*
X108164285Y-59603904D01*
X108116666Y-59413428D01*
X108116666Y-59175333D01*
X108164285Y-58984857D01*
X108211904Y-58889619D01*
X108259523Y-58842000D01*
X108354761Y-58794380D01*
X109116666Y-59794380D02*
X109116666Y-58794380D01*
X109688095Y-59794380D02*
X109259523Y-59222952D01*
X109688095Y-58794380D02*
X109116666Y-59365809D01*
%TO.C,R2*%
X127341333Y-107988380D02*
X127008000Y-107512190D01*
X126769904Y-107988380D02*
X126769904Y-106988380D01*
X127150857Y-106988380D01*
X127246095Y-107036000D01*
X127293714Y-107083619D01*
X127341333Y-107178857D01*
X127341333Y-107321714D01*
X127293714Y-107416952D01*
X127246095Y-107464571D01*
X127150857Y-107512190D01*
X126769904Y-107512190D01*
X127722285Y-107083619D02*
X127769904Y-107036000D01*
X127865142Y-106988380D01*
X128103238Y-106988380D01*
X128198476Y-107036000D01*
X128246095Y-107083619D01*
X128293714Y-107178857D01*
X128293714Y-107274095D01*
X128246095Y-107416952D01*
X127674666Y-107988380D01*
X128293714Y-107988380D01*
X126341333Y-110848380D02*
X125769904Y-110848380D01*
X126055619Y-110848380D02*
X126055619Y-109848380D01*
X125960380Y-109991238D01*
X125865142Y-110086476D01*
X125769904Y-110134095D01*
X126960380Y-109848380D02*
X127055619Y-109848380D01*
X127150857Y-109896000D01*
X127198476Y-109943619D01*
X127246095Y-110038857D01*
X127293714Y-110229333D01*
X127293714Y-110467428D01*
X127246095Y-110657904D01*
X127198476Y-110753142D01*
X127150857Y-110800761D01*
X127055619Y-110848380D01*
X126960380Y-110848380D01*
X126865142Y-110800761D01*
X126817523Y-110753142D01*
X126769904Y-110657904D01*
X126722285Y-110467428D01*
X126722285Y-110229333D01*
X126769904Y-110038857D01*
X126817523Y-109943619D01*
X126865142Y-109896000D01*
X126960380Y-109848380D01*
X127912761Y-109848380D02*
X128008000Y-109848380D01*
X128103238Y-109896000D01*
X128150857Y-109943619D01*
X128198476Y-110038857D01*
X128246095Y-110229333D01*
X128246095Y-110467428D01*
X128198476Y-110657904D01*
X128150857Y-110753142D01*
X128103238Y-110800761D01*
X128008000Y-110848380D01*
X127912761Y-110848380D01*
X127817523Y-110800761D01*
X127769904Y-110753142D01*
X127722285Y-110657904D01*
X127674666Y-110467428D01*
X127674666Y-110229333D01*
X127722285Y-110038857D01*
X127769904Y-109943619D01*
X127817523Y-109896000D01*
X127912761Y-109848380D01*
X128674666Y-110848380D02*
X128674666Y-109848380D01*
X129246095Y-110848380D02*
X128817523Y-110276952D01*
X129246095Y-109848380D02*
X128674666Y-110419809D01*
%TO.C,R1*%
X153503333Y-108816380D02*
X153170000Y-108340190D01*
X152931904Y-108816380D02*
X152931904Y-107816380D01*
X153312857Y-107816380D01*
X153408095Y-107864000D01*
X153455714Y-107911619D01*
X153503333Y-108006857D01*
X153503333Y-108149714D01*
X153455714Y-108244952D01*
X153408095Y-108292571D01*
X153312857Y-108340190D01*
X152931904Y-108340190D01*
X154455714Y-108816380D02*
X153884285Y-108816380D01*
X154170000Y-108816380D02*
X154170000Y-107816380D01*
X154074761Y-107959238D01*
X153979523Y-108054476D01*
X153884285Y-108102095D01*
X152931904Y-104956380D02*
X152455714Y-104956380D01*
X152408095Y-105432571D01*
X152455714Y-105384952D01*
X152550952Y-105337333D01*
X152789047Y-105337333D01*
X152884285Y-105384952D01*
X152931904Y-105432571D01*
X152979523Y-105527809D01*
X152979523Y-105765904D01*
X152931904Y-105861142D01*
X152884285Y-105908761D01*
X152789047Y-105956380D01*
X152550952Y-105956380D01*
X152455714Y-105908761D01*
X152408095Y-105861142D01*
X153931904Y-105956380D02*
X153360476Y-105956380D01*
X153646190Y-105956380D02*
X153646190Y-104956380D01*
X153550952Y-105099238D01*
X153455714Y-105194476D01*
X153360476Y-105242095D01*
X154360476Y-105956380D02*
X154360476Y-104956380D01*
X154931904Y-105956380D02*
X154503333Y-105384952D01*
X154931904Y-104956380D02*
X154360476Y-105527809D01*
%TO.C,J7*%
D14*
X170537380Y-113236333D02*
X171251666Y-113236333D01*
X171394523Y-113283952D01*
X171489761Y-113379190D01*
X171537380Y-113522047D01*
X171537380Y-113617285D01*
X170537380Y-112855380D02*
X170537380Y-112188714D01*
X171537380Y-112617285D01*
D15*
X160622694Y-131127808D02*
X161384599Y-131127808D01*
X161860789Y-131127808D02*
X162622694Y-131127808D01*
X163098884Y-131127808D02*
X163860789Y-131127808D01*
X164336980Y-131127808D02*
X165098884Y-131127808D01*
X165575075Y-131127808D02*
X166336980Y-131127808D01*
X166813170Y-131127808D02*
X167575075Y-131127808D01*
X168051265Y-131127808D02*
X168813170Y-131127808D01*
X169289360Y-131127808D02*
X170051265Y-131127808D01*
%TO.C,C12*%
D13*
X137025142Y-107639142D02*
X136977523Y-107686761D01*
X136834666Y-107734380D01*
X136739428Y-107734380D01*
X136596571Y-107686761D01*
X136501333Y-107591523D01*
X136453714Y-107496285D01*
X136406095Y-107305809D01*
X136406095Y-107162952D01*
X136453714Y-106972476D01*
X136501333Y-106877238D01*
X136596571Y-106782000D01*
X136739428Y-106734380D01*
X136834666Y-106734380D01*
X136977523Y-106782000D01*
X137025142Y-106829619D01*
X137977523Y-107734380D02*
X137406095Y-107734380D01*
X137691809Y-107734380D02*
X137691809Y-106734380D01*
X137596571Y-106877238D01*
X137501333Y-106972476D01*
X137406095Y-107020095D01*
X138358476Y-106829619D02*
X138406095Y-106782000D01*
X138501333Y-106734380D01*
X138739428Y-106734380D01*
X138834666Y-106782000D01*
X138882285Y-106829619D01*
X138929904Y-106924857D01*
X138929904Y-107020095D01*
X138882285Y-107162952D01*
X138310857Y-107734380D01*
X138929904Y-107734380D01*
X135548952Y-109689619D02*
X135596571Y-109642000D01*
X135691809Y-109594380D01*
X135929904Y-109594380D01*
X136025142Y-109642000D01*
X136072761Y-109689619D01*
X136120380Y-109784857D01*
X136120380Y-109880095D01*
X136072761Y-110022952D01*
X135501333Y-110594380D01*
X136120380Y-110594380D01*
X136501333Y-109689619D02*
X136548952Y-109642000D01*
X136644190Y-109594380D01*
X136882285Y-109594380D01*
X136977523Y-109642000D01*
X137025142Y-109689619D01*
X137072761Y-109784857D01*
X137072761Y-109880095D01*
X137025142Y-110022952D01*
X136453714Y-110594380D01*
X137072761Y-110594380D01*
X137691809Y-109594380D02*
X137787047Y-109594380D01*
X137882285Y-109642000D01*
X137929904Y-109689619D01*
X137977523Y-109784857D01*
X138025142Y-109975333D01*
X138025142Y-110213428D01*
X137977523Y-110403904D01*
X137929904Y-110499142D01*
X137882285Y-110546761D01*
X137787047Y-110594380D01*
X137691809Y-110594380D01*
X137596571Y-110546761D01*
X137548952Y-110499142D01*
X137501333Y-110403904D01*
X137453714Y-110213428D01*
X137453714Y-109975333D01*
X137501333Y-109784857D01*
X137548952Y-109689619D01*
X137596571Y-109642000D01*
X137691809Y-109594380D01*
X138453714Y-109927714D02*
X138453714Y-110927714D01*
X138453714Y-109975333D02*
X138548952Y-109927714D01*
X138739428Y-109927714D01*
X138834666Y-109975333D01*
X138882285Y-110022952D01*
X138929904Y-110118190D01*
X138929904Y-110403904D01*
X138882285Y-110499142D01*
X138834666Y-110546761D01*
X138739428Y-110594380D01*
X138548952Y-110594380D01*
X138453714Y-110546761D01*
X139691809Y-110070571D02*
X139358476Y-110070571D01*
X139358476Y-110594380D02*
X139358476Y-109594380D01*
X139834666Y-109594380D01*
%TO.C,C11*%
X168101142Y-104283142D02*
X168053523Y-104330761D01*
X167910666Y-104378380D01*
X167815428Y-104378380D01*
X167672571Y-104330761D01*
X167577333Y-104235523D01*
X167529714Y-104140285D01*
X167482095Y-103949809D01*
X167482095Y-103806952D01*
X167529714Y-103616476D01*
X167577333Y-103521238D01*
X167672571Y-103426000D01*
X167815428Y-103378380D01*
X167910666Y-103378380D01*
X168053523Y-103426000D01*
X168101142Y-103473619D01*
X169053523Y-104378380D02*
X168482095Y-104378380D01*
X168767809Y-104378380D02*
X168767809Y-103378380D01*
X168672571Y-103521238D01*
X168577333Y-103616476D01*
X168482095Y-103664095D01*
X170005904Y-104378380D02*
X169434476Y-104378380D01*
X169720190Y-104378380D02*
X169720190Y-103378380D01*
X169624952Y-103521238D01*
X169529714Y-103616476D01*
X169434476Y-103664095D01*
X167101142Y-106571714D02*
X167101142Y-107238380D01*
X166863047Y-106190761D02*
X166624952Y-106905047D01*
X167244000Y-106905047D01*
X167529714Y-106238380D02*
X168196380Y-106238380D01*
X167767809Y-107238380D01*
X168767809Y-106238380D02*
X168863047Y-106238380D01*
X168958285Y-106286000D01*
X169005904Y-106333619D01*
X169053523Y-106428857D01*
X169101142Y-106619333D01*
X169101142Y-106857428D01*
X169053523Y-107047904D01*
X169005904Y-107143142D01*
X168958285Y-107190761D01*
X168863047Y-107238380D01*
X168767809Y-107238380D01*
X168672571Y-107190761D01*
X168624952Y-107143142D01*
X168577333Y-107047904D01*
X168529714Y-106857428D01*
X168529714Y-106619333D01*
X168577333Y-106428857D01*
X168624952Y-106333619D01*
X168672571Y-106286000D01*
X168767809Y-106238380D01*
X169529714Y-106571714D02*
X169529714Y-107238380D01*
X169529714Y-106666952D02*
X169577333Y-106619333D01*
X169672571Y-106571714D01*
X169815428Y-106571714D01*
X169910666Y-106619333D01*
X169958285Y-106714571D01*
X169958285Y-107238380D01*
X170767809Y-106714571D02*
X170434476Y-106714571D01*
X170434476Y-107238380D02*
X170434476Y-106238380D01*
X170910666Y-106238380D01*
%TO.C,C10*%
X168101142Y-97533142D02*
X168053523Y-97580761D01*
X167910666Y-97628380D01*
X167815428Y-97628380D01*
X167672571Y-97580761D01*
X167577333Y-97485523D01*
X167529714Y-97390285D01*
X167482095Y-97199809D01*
X167482095Y-97056952D01*
X167529714Y-96866476D01*
X167577333Y-96771238D01*
X167672571Y-96676000D01*
X167815428Y-96628380D01*
X167910666Y-96628380D01*
X168053523Y-96676000D01*
X168101142Y-96723619D01*
X169053523Y-97628380D02*
X168482095Y-97628380D01*
X168767809Y-97628380D02*
X168767809Y-96628380D01*
X168672571Y-96771238D01*
X168577333Y-96866476D01*
X168482095Y-96914095D01*
X169672571Y-96628380D02*
X169767809Y-96628380D01*
X169863047Y-96676000D01*
X169910666Y-96723619D01*
X169958285Y-96818857D01*
X170005904Y-97009333D01*
X170005904Y-97247428D01*
X169958285Y-97437904D01*
X169910666Y-97533142D01*
X169863047Y-97580761D01*
X169767809Y-97628380D01*
X169672571Y-97628380D01*
X169577333Y-97580761D01*
X169529714Y-97533142D01*
X169482095Y-97437904D01*
X169434476Y-97247428D01*
X169434476Y-97009333D01*
X169482095Y-96818857D01*
X169529714Y-96723619D01*
X169577333Y-96676000D01*
X169672571Y-96628380D01*
X167196380Y-100488380D02*
X166624952Y-100488380D01*
X166910666Y-100488380D02*
X166910666Y-99488380D01*
X166815428Y-99631238D01*
X166720190Y-99726476D01*
X166624952Y-99774095D01*
X167815428Y-99488380D02*
X167910666Y-99488380D01*
X168005904Y-99536000D01*
X168053523Y-99583619D01*
X168101142Y-99678857D01*
X168148761Y-99869333D01*
X168148761Y-100107428D01*
X168101142Y-100297904D01*
X168053523Y-100393142D01*
X168005904Y-100440761D01*
X167910666Y-100488380D01*
X167815428Y-100488380D01*
X167720190Y-100440761D01*
X167672571Y-100393142D01*
X167624952Y-100297904D01*
X167577333Y-100107428D01*
X167577333Y-99869333D01*
X167624952Y-99678857D01*
X167672571Y-99583619D01*
X167720190Y-99536000D01*
X167815428Y-99488380D01*
X168767809Y-99488380D02*
X168863047Y-99488380D01*
X168958285Y-99536000D01*
X169005904Y-99583619D01*
X169053523Y-99678857D01*
X169101142Y-99869333D01*
X169101142Y-100107428D01*
X169053523Y-100297904D01*
X169005904Y-100393142D01*
X168958285Y-100440761D01*
X168863047Y-100488380D01*
X168767809Y-100488380D01*
X168672571Y-100440761D01*
X168624952Y-100393142D01*
X168577333Y-100297904D01*
X168529714Y-100107428D01*
X168529714Y-99869333D01*
X168577333Y-99678857D01*
X168624952Y-99583619D01*
X168672571Y-99536000D01*
X168767809Y-99488380D01*
X169529714Y-99821714D02*
X169529714Y-100488380D01*
X169529714Y-99916952D02*
X169577333Y-99869333D01*
X169672571Y-99821714D01*
X169815428Y-99821714D01*
X169910666Y-99869333D01*
X169958285Y-99964571D01*
X169958285Y-100488380D01*
X170767809Y-99964571D02*
X170434476Y-99964571D01*
X170434476Y-100488380D02*
X170434476Y-99488380D01*
X170910666Y-99488380D01*
%TO.C,C9*%
X142835333Y-73603142D02*
X142787714Y-73650761D01*
X142644857Y-73698380D01*
X142549619Y-73698380D01*
X142406761Y-73650761D01*
X142311523Y-73555523D01*
X142263904Y-73460285D01*
X142216285Y-73269809D01*
X142216285Y-73126952D01*
X142263904Y-72936476D01*
X142311523Y-72841238D01*
X142406761Y-72746000D01*
X142549619Y-72698380D01*
X142644857Y-72698380D01*
X142787714Y-72746000D01*
X142835333Y-72793619D01*
X143311523Y-73698380D02*
X143502000Y-73698380D01*
X143597238Y-73650761D01*
X143644857Y-73603142D01*
X143740095Y-73460285D01*
X143787714Y-73269809D01*
X143787714Y-72888857D01*
X143740095Y-72793619D01*
X143692476Y-72746000D01*
X143597238Y-72698380D01*
X143406761Y-72698380D01*
X143311523Y-72746000D01*
X143263904Y-72793619D01*
X143216285Y-72888857D01*
X143216285Y-73126952D01*
X143263904Y-73222190D01*
X143311523Y-73269809D01*
X143406761Y-73317428D01*
X143597238Y-73317428D01*
X143692476Y-73269809D01*
X143740095Y-73222190D01*
X143787714Y-73126952D01*
X141359142Y-75653619D02*
X141406761Y-75606000D01*
X141502000Y-75558380D01*
X141740095Y-75558380D01*
X141835333Y-75606000D01*
X141882952Y-75653619D01*
X141930571Y-75748857D01*
X141930571Y-75844095D01*
X141882952Y-75986952D01*
X141311523Y-76558380D01*
X141930571Y-76558380D01*
X142311523Y-75653619D02*
X142359142Y-75606000D01*
X142454380Y-75558380D01*
X142692476Y-75558380D01*
X142787714Y-75606000D01*
X142835333Y-75653619D01*
X142882952Y-75748857D01*
X142882952Y-75844095D01*
X142835333Y-75986952D01*
X142263904Y-76558380D01*
X142882952Y-76558380D01*
X143311523Y-75891714D02*
X143311523Y-76891714D01*
X143311523Y-75939333D02*
X143406761Y-75891714D01*
X143597238Y-75891714D01*
X143692476Y-75939333D01*
X143740095Y-75986952D01*
X143787714Y-76082190D01*
X143787714Y-76367904D01*
X143740095Y-76463142D01*
X143692476Y-76510761D01*
X143597238Y-76558380D01*
X143406761Y-76558380D01*
X143311523Y-76510761D01*
X144549619Y-76034571D02*
X144216285Y-76034571D01*
X144216285Y-76558380D02*
X144216285Y-75558380D01*
X144692476Y-75558380D01*
%TO.C,C8*%
X162577333Y-104283142D02*
X162529714Y-104330761D01*
X162386857Y-104378380D01*
X162291619Y-104378380D01*
X162148761Y-104330761D01*
X162053523Y-104235523D01*
X162005904Y-104140285D01*
X161958285Y-103949809D01*
X161958285Y-103806952D01*
X162005904Y-103616476D01*
X162053523Y-103521238D01*
X162148761Y-103426000D01*
X162291619Y-103378380D01*
X162386857Y-103378380D01*
X162529714Y-103426000D01*
X162577333Y-103473619D01*
X163148761Y-103806952D02*
X163053523Y-103759333D01*
X163005904Y-103711714D01*
X162958285Y-103616476D01*
X162958285Y-103568857D01*
X163005904Y-103473619D01*
X163053523Y-103426000D01*
X163148761Y-103378380D01*
X163339238Y-103378380D01*
X163434476Y-103426000D01*
X163482095Y-103473619D01*
X163529714Y-103568857D01*
X163529714Y-103616476D01*
X163482095Y-103711714D01*
X163434476Y-103759333D01*
X163339238Y-103806952D01*
X163148761Y-103806952D01*
X163053523Y-103854571D01*
X163005904Y-103902190D01*
X162958285Y-103997428D01*
X162958285Y-104187904D01*
X163005904Y-104283142D01*
X163053523Y-104330761D01*
X163148761Y-104378380D01*
X163339238Y-104378380D01*
X163434476Y-104330761D01*
X163482095Y-104283142D01*
X163529714Y-104187904D01*
X163529714Y-103997428D01*
X163482095Y-103902190D01*
X163434476Y-103854571D01*
X163339238Y-103806952D01*
X161101142Y-106571714D02*
X161101142Y-107238380D01*
X160863047Y-106190761D02*
X160624952Y-106905047D01*
X161244000Y-106905047D01*
X161529714Y-106238380D02*
X162196380Y-106238380D01*
X161767809Y-107238380D01*
X162767809Y-106238380D02*
X162863047Y-106238380D01*
X162958285Y-106286000D01*
X163005904Y-106333619D01*
X163053523Y-106428857D01*
X163101142Y-106619333D01*
X163101142Y-106857428D01*
X163053523Y-107047904D01*
X163005904Y-107143142D01*
X162958285Y-107190761D01*
X162863047Y-107238380D01*
X162767809Y-107238380D01*
X162672571Y-107190761D01*
X162624952Y-107143142D01*
X162577333Y-107047904D01*
X162529714Y-106857428D01*
X162529714Y-106619333D01*
X162577333Y-106428857D01*
X162624952Y-106333619D01*
X162672571Y-106286000D01*
X162767809Y-106238380D01*
X163529714Y-106571714D02*
X163529714Y-107238380D01*
X163529714Y-106666952D02*
X163577333Y-106619333D01*
X163672571Y-106571714D01*
X163815428Y-106571714D01*
X163910666Y-106619333D01*
X163958285Y-106714571D01*
X163958285Y-107238380D01*
X164767809Y-106714571D02*
X164434476Y-106714571D01*
X164434476Y-107238380D02*
X164434476Y-106238380D01*
X164910666Y-106238380D01*
%TO.C,C7*%
X140295333Y-81797142D02*
X140247714Y-81844761D01*
X140104857Y-81892380D01*
X140009619Y-81892380D01*
X139866761Y-81844761D01*
X139771523Y-81749523D01*
X139723904Y-81654285D01*
X139676285Y-81463809D01*
X139676285Y-81320952D01*
X139723904Y-81130476D01*
X139771523Y-81035238D01*
X139866761Y-80940000D01*
X140009619Y-80892380D01*
X140104857Y-80892380D01*
X140247714Y-80940000D01*
X140295333Y-80987619D01*
X140628666Y-80892380D02*
X141295333Y-80892380D01*
X140866761Y-81892380D01*
X138914380Y-79032380D02*
X138342952Y-79032380D01*
X138628666Y-79032380D02*
X138628666Y-78032380D01*
X138533428Y-78175238D01*
X138438190Y-78270476D01*
X138342952Y-78318095D01*
X139533428Y-78032380D02*
X139628666Y-78032380D01*
X139723904Y-78080000D01*
X139771523Y-78127619D01*
X139819142Y-78222857D01*
X139866761Y-78413333D01*
X139866761Y-78651428D01*
X139819142Y-78841904D01*
X139771523Y-78937142D01*
X139723904Y-78984761D01*
X139628666Y-79032380D01*
X139533428Y-79032380D01*
X139438190Y-78984761D01*
X139390571Y-78937142D01*
X139342952Y-78841904D01*
X139295333Y-78651428D01*
X139295333Y-78413333D01*
X139342952Y-78222857D01*
X139390571Y-78127619D01*
X139438190Y-78080000D01*
X139533428Y-78032380D01*
X140485809Y-78032380D02*
X140581047Y-78032380D01*
X140676285Y-78080000D01*
X140723904Y-78127619D01*
X140771523Y-78222857D01*
X140819142Y-78413333D01*
X140819142Y-78651428D01*
X140771523Y-78841904D01*
X140723904Y-78937142D01*
X140676285Y-78984761D01*
X140581047Y-79032380D01*
X140485809Y-79032380D01*
X140390571Y-78984761D01*
X140342952Y-78937142D01*
X140295333Y-78841904D01*
X140247714Y-78651428D01*
X140247714Y-78413333D01*
X140295333Y-78222857D01*
X140342952Y-78127619D01*
X140390571Y-78080000D01*
X140485809Y-78032380D01*
X141247714Y-78365714D02*
X141247714Y-79032380D01*
X141247714Y-78460952D02*
X141295333Y-78413333D01*
X141390571Y-78365714D01*
X141533428Y-78365714D01*
X141628666Y-78413333D01*
X141676285Y-78508571D01*
X141676285Y-79032380D01*
X142485809Y-78508571D02*
X142152476Y-78508571D01*
X142152476Y-79032380D02*
X142152476Y-78032380D01*
X142628666Y-78032380D01*
%TO.C,C6*%
X144339333Y-134155142D02*
X144291714Y-134202761D01*
X144148857Y-134250380D01*
X144053619Y-134250380D01*
X143910761Y-134202761D01*
X143815523Y-134107523D01*
X143767904Y-134012285D01*
X143720285Y-133821809D01*
X143720285Y-133678952D01*
X143767904Y-133488476D01*
X143815523Y-133393238D01*
X143910761Y-133298000D01*
X144053619Y-133250380D01*
X144148857Y-133250380D01*
X144291714Y-133298000D01*
X144339333Y-133345619D01*
X145196476Y-133250380D02*
X145006000Y-133250380D01*
X144910761Y-133298000D01*
X144863142Y-133345619D01*
X144767904Y-133488476D01*
X144720285Y-133678952D01*
X144720285Y-134059904D01*
X144767904Y-134155142D01*
X144815523Y-134202761D01*
X144910761Y-134250380D01*
X145101238Y-134250380D01*
X145196476Y-134202761D01*
X145244095Y-134155142D01*
X145291714Y-134059904D01*
X145291714Y-133821809D01*
X145244095Y-133726571D01*
X145196476Y-133678952D01*
X145101238Y-133631333D01*
X144910761Y-133631333D01*
X144815523Y-133678952D01*
X144767904Y-133726571D01*
X144720285Y-133821809D01*
X143839333Y-126750380D02*
X143267904Y-126750380D01*
X143553619Y-126750380D02*
X143553619Y-125750380D01*
X143458380Y-125893238D01*
X143363142Y-125988476D01*
X143267904Y-126036095D01*
X144267904Y-126083714D02*
X144267904Y-127083714D01*
X144744095Y-126607523D02*
X144791714Y-126702761D01*
X144886952Y-126750380D01*
X144267904Y-126607523D02*
X144315523Y-126702761D01*
X144410761Y-126750380D01*
X144601238Y-126750380D01*
X144696476Y-126702761D01*
X144744095Y-126607523D01*
X144744095Y-126083714D01*
X145648857Y-126226571D02*
X145315523Y-126226571D01*
X145315523Y-126750380D02*
X145315523Y-125750380D01*
X145791714Y-125750380D01*
%TO.C,C5*%
X109053333Y-111195142D02*
X109005714Y-111242761D01*
X108862857Y-111290380D01*
X108767619Y-111290380D01*
X108624761Y-111242761D01*
X108529523Y-111147523D01*
X108481904Y-111052285D01*
X108434285Y-110861809D01*
X108434285Y-110718952D01*
X108481904Y-110528476D01*
X108529523Y-110433238D01*
X108624761Y-110338000D01*
X108767619Y-110290380D01*
X108862857Y-110290380D01*
X109005714Y-110338000D01*
X109053333Y-110385619D01*
X109958095Y-110290380D02*
X109481904Y-110290380D01*
X109434285Y-110766571D01*
X109481904Y-110718952D01*
X109577142Y-110671333D01*
X109815238Y-110671333D01*
X109910476Y-110718952D01*
X109958095Y-110766571D01*
X110005714Y-110861809D01*
X110005714Y-111099904D01*
X109958095Y-111195142D01*
X109910476Y-111242761D01*
X109815238Y-111290380D01*
X109577142Y-111290380D01*
X109481904Y-111242761D01*
X109434285Y-111195142D01*
X107100952Y-113245619D02*
X107148571Y-113198000D01*
X107243809Y-113150380D01*
X107481904Y-113150380D01*
X107577142Y-113198000D01*
X107624761Y-113245619D01*
X107672380Y-113340857D01*
X107672380Y-113436095D01*
X107624761Y-113578952D01*
X107053333Y-114150380D01*
X107672380Y-114150380D01*
X108053333Y-113245619D02*
X108100952Y-113198000D01*
X108196190Y-113150380D01*
X108434285Y-113150380D01*
X108529523Y-113198000D01*
X108577142Y-113245619D01*
X108624761Y-113340857D01*
X108624761Y-113436095D01*
X108577142Y-113578952D01*
X108005714Y-114150380D01*
X108624761Y-114150380D01*
X109243809Y-113150380D02*
X109339047Y-113150380D01*
X109434285Y-113198000D01*
X109481904Y-113245619D01*
X109529523Y-113340857D01*
X109577142Y-113531333D01*
X109577142Y-113769428D01*
X109529523Y-113959904D01*
X109481904Y-114055142D01*
X109434285Y-114102761D01*
X109339047Y-114150380D01*
X109243809Y-114150380D01*
X109148571Y-114102761D01*
X109100952Y-114055142D01*
X109053333Y-113959904D01*
X109005714Y-113769428D01*
X109005714Y-113531333D01*
X109053333Y-113340857D01*
X109100952Y-113245619D01*
X109148571Y-113198000D01*
X109243809Y-113150380D01*
X110005714Y-113483714D02*
X110005714Y-114483714D01*
X110005714Y-113531333D02*
X110100952Y-113483714D01*
X110291428Y-113483714D01*
X110386666Y-113531333D01*
X110434285Y-113578952D01*
X110481904Y-113674190D01*
X110481904Y-113959904D01*
X110434285Y-114055142D01*
X110386666Y-114102761D01*
X110291428Y-114150380D01*
X110100952Y-114150380D01*
X110005714Y-114102761D01*
X111243809Y-113626571D02*
X110910476Y-113626571D01*
X110910476Y-114150380D02*
X110910476Y-113150380D01*
X111386666Y-113150380D01*
%TO.C,C4*%
X109053333Y-116021142D02*
X109005714Y-116068761D01*
X108862857Y-116116380D01*
X108767619Y-116116380D01*
X108624761Y-116068761D01*
X108529523Y-115973523D01*
X108481904Y-115878285D01*
X108434285Y-115687809D01*
X108434285Y-115544952D01*
X108481904Y-115354476D01*
X108529523Y-115259238D01*
X108624761Y-115164000D01*
X108767619Y-115116380D01*
X108862857Y-115116380D01*
X109005714Y-115164000D01*
X109053333Y-115211619D01*
X109910476Y-115449714D02*
X109910476Y-116116380D01*
X109672380Y-115068761D02*
X109434285Y-115783047D01*
X110053333Y-115783047D01*
X107100952Y-118071619D02*
X107148571Y-118024000D01*
X107243809Y-117976380D01*
X107481904Y-117976380D01*
X107577142Y-118024000D01*
X107624761Y-118071619D01*
X107672380Y-118166857D01*
X107672380Y-118262095D01*
X107624761Y-118404952D01*
X107053333Y-118976380D01*
X107672380Y-118976380D01*
X108053333Y-118071619D02*
X108100952Y-118024000D01*
X108196190Y-117976380D01*
X108434285Y-117976380D01*
X108529523Y-118024000D01*
X108577142Y-118071619D01*
X108624761Y-118166857D01*
X108624761Y-118262095D01*
X108577142Y-118404952D01*
X108005714Y-118976380D01*
X108624761Y-118976380D01*
X109243809Y-117976380D02*
X109339047Y-117976380D01*
X109434285Y-118024000D01*
X109481904Y-118071619D01*
X109529523Y-118166857D01*
X109577142Y-118357333D01*
X109577142Y-118595428D01*
X109529523Y-118785904D01*
X109481904Y-118881142D01*
X109434285Y-118928761D01*
X109339047Y-118976380D01*
X109243809Y-118976380D01*
X109148571Y-118928761D01*
X109100952Y-118881142D01*
X109053333Y-118785904D01*
X109005714Y-118595428D01*
X109005714Y-118357333D01*
X109053333Y-118166857D01*
X109100952Y-118071619D01*
X109148571Y-118024000D01*
X109243809Y-117976380D01*
X110005714Y-118309714D02*
X110005714Y-119309714D01*
X110005714Y-118357333D02*
X110100952Y-118309714D01*
X110291428Y-118309714D01*
X110386666Y-118357333D01*
X110434285Y-118404952D01*
X110481904Y-118500190D01*
X110481904Y-118785904D01*
X110434285Y-118881142D01*
X110386666Y-118928761D01*
X110291428Y-118976380D01*
X110100952Y-118976380D01*
X110005714Y-118928761D01*
X111243809Y-118452571D02*
X110910476Y-118452571D01*
X110910476Y-118976380D02*
X110910476Y-117976380D01*
X111386666Y-117976380D01*
%TO.C,C3*%
X132421333Y-107639142D02*
X132373714Y-107686761D01*
X132230857Y-107734380D01*
X132135619Y-107734380D01*
X131992761Y-107686761D01*
X131897523Y-107591523D01*
X131849904Y-107496285D01*
X131802285Y-107305809D01*
X131802285Y-107162952D01*
X131849904Y-106972476D01*
X131897523Y-106877238D01*
X131992761Y-106782000D01*
X132135619Y-106734380D01*
X132230857Y-106734380D01*
X132373714Y-106782000D01*
X132421333Y-106829619D01*
X132754666Y-106734380D02*
X133373714Y-106734380D01*
X133040380Y-107115333D01*
X133183238Y-107115333D01*
X133278476Y-107162952D01*
X133326095Y-107210571D01*
X133373714Y-107305809D01*
X133373714Y-107543904D01*
X133326095Y-107639142D01*
X133278476Y-107686761D01*
X133183238Y-107734380D01*
X132897523Y-107734380D01*
X132802285Y-107686761D01*
X132754666Y-107639142D01*
X130468952Y-109689619D02*
X130516571Y-109642000D01*
X130611809Y-109594380D01*
X130849904Y-109594380D01*
X130945142Y-109642000D01*
X130992761Y-109689619D01*
X131040380Y-109784857D01*
X131040380Y-109880095D01*
X130992761Y-110022952D01*
X130421333Y-110594380D01*
X131040380Y-110594380D01*
X131421333Y-109689619D02*
X131468952Y-109642000D01*
X131564190Y-109594380D01*
X131802285Y-109594380D01*
X131897523Y-109642000D01*
X131945142Y-109689619D01*
X131992761Y-109784857D01*
X131992761Y-109880095D01*
X131945142Y-110022952D01*
X131373714Y-110594380D01*
X131992761Y-110594380D01*
X132611809Y-109594380D02*
X132707047Y-109594380D01*
X132802285Y-109642000D01*
X132849904Y-109689619D01*
X132897523Y-109784857D01*
X132945142Y-109975333D01*
X132945142Y-110213428D01*
X132897523Y-110403904D01*
X132849904Y-110499142D01*
X132802285Y-110546761D01*
X132707047Y-110594380D01*
X132611809Y-110594380D01*
X132516571Y-110546761D01*
X132468952Y-110499142D01*
X132421333Y-110403904D01*
X132373714Y-110213428D01*
X132373714Y-109975333D01*
X132421333Y-109784857D01*
X132468952Y-109689619D01*
X132516571Y-109642000D01*
X132611809Y-109594380D01*
X133373714Y-109927714D02*
X133373714Y-110927714D01*
X133373714Y-109975333D02*
X133468952Y-109927714D01*
X133659428Y-109927714D01*
X133754666Y-109975333D01*
X133802285Y-110022952D01*
X133849904Y-110118190D01*
X133849904Y-110403904D01*
X133802285Y-110499142D01*
X133754666Y-110546761D01*
X133659428Y-110594380D01*
X133468952Y-110594380D01*
X133373714Y-110546761D01*
X134611809Y-110070571D02*
X134278476Y-110070571D01*
X134278476Y-110594380D02*
X134278476Y-109594380D01*
X134754666Y-109594380D01*
%TO.C,C2*%
X133457333Y-44747142D02*
X133409714Y-44794761D01*
X133266857Y-44842380D01*
X133171619Y-44842380D01*
X133028761Y-44794761D01*
X132933523Y-44699523D01*
X132885904Y-44604285D01*
X132838285Y-44413809D01*
X132838285Y-44270952D01*
X132885904Y-44080476D01*
X132933523Y-43985238D01*
X133028761Y-43890000D01*
X133171619Y-43842380D01*
X133266857Y-43842380D01*
X133409714Y-43890000D01*
X133457333Y-43937619D01*
X133838285Y-43937619D02*
X133885904Y-43890000D01*
X133981142Y-43842380D01*
X134219238Y-43842380D01*
X134314476Y-43890000D01*
X134362095Y-43937619D01*
X134409714Y-44032857D01*
X134409714Y-44128095D01*
X134362095Y-44270952D01*
X133790666Y-44842380D01*
X134409714Y-44842380D01*
X132957333Y-37342380D02*
X132385904Y-37342380D01*
X132671619Y-37342380D02*
X132671619Y-36342380D01*
X132576380Y-36485238D01*
X132481142Y-36580476D01*
X132385904Y-36628095D01*
X133385904Y-36675714D02*
X133385904Y-37675714D01*
X133862095Y-37199523D02*
X133909714Y-37294761D01*
X134004952Y-37342380D01*
X133385904Y-37199523D02*
X133433523Y-37294761D01*
X133528761Y-37342380D01*
X133719238Y-37342380D01*
X133814476Y-37294761D01*
X133862095Y-37199523D01*
X133862095Y-36675714D01*
X134766857Y-36818571D02*
X134433523Y-36818571D01*
X134433523Y-37342380D02*
X134433523Y-36342380D01*
X134909714Y-36342380D01*
%TO.C,C1*%
X132167333Y-68523142D02*
X132119714Y-68570761D01*
X131976857Y-68618380D01*
X131881619Y-68618380D01*
X131738761Y-68570761D01*
X131643523Y-68475523D01*
X131595904Y-68380285D01*
X131548285Y-68189809D01*
X131548285Y-68046952D01*
X131595904Y-67856476D01*
X131643523Y-67761238D01*
X131738761Y-67666000D01*
X131881619Y-67618380D01*
X131976857Y-67618380D01*
X132119714Y-67666000D01*
X132167333Y-67713619D01*
X133119714Y-68618380D02*
X132548285Y-68618380D01*
X132834000Y-68618380D02*
X132834000Y-67618380D01*
X132738761Y-67761238D01*
X132643523Y-67856476D01*
X132548285Y-67904095D01*
X130691142Y-70573619D02*
X130738761Y-70526000D01*
X130834000Y-70478380D01*
X131072095Y-70478380D01*
X131167333Y-70526000D01*
X131214952Y-70573619D01*
X131262571Y-70668857D01*
X131262571Y-70764095D01*
X131214952Y-70906952D01*
X130643523Y-71478380D01*
X131262571Y-71478380D01*
X131643523Y-70573619D02*
X131691142Y-70526000D01*
X131786380Y-70478380D01*
X132024476Y-70478380D01*
X132119714Y-70526000D01*
X132167333Y-70573619D01*
X132214952Y-70668857D01*
X132214952Y-70764095D01*
X132167333Y-70906952D01*
X131595904Y-71478380D01*
X132214952Y-71478380D01*
X132643523Y-70811714D02*
X132643523Y-71811714D01*
X132643523Y-70859333D02*
X132738761Y-70811714D01*
X132929238Y-70811714D01*
X133024476Y-70859333D01*
X133072095Y-70906952D01*
X133119714Y-71002190D01*
X133119714Y-71287904D01*
X133072095Y-71383142D01*
X133024476Y-71430761D01*
X132929238Y-71478380D01*
X132738761Y-71478380D01*
X132643523Y-71430761D01*
X133881619Y-70954571D02*
X133548285Y-70954571D01*
X133548285Y-71478380D02*
X133548285Y-70478380D01*
X134024476Y-70478380D01*
%TD*%
M02*
