%TF.GenerationSoftware,KiCad,Pcbnew,5.1.7*%
%TF.CreationDate,2020-11-08T18:38:21+01:00*%
%TF.ProjectId,AS3320-VCF,41533333-3230-42d5-9643-462e6b696361,rev?*%
%TF.SameCoordinates,Original*%
%TF.FileFunction,Legend,Top*%
%TF.FilePolarity,Positive*%
%FSLAX46Y46*%
G04 Gerber Fmt 4.6, Leading zero omitted, Abs format (unit mm)*
G04 Created by KiCad (PCBNEW 5.1.7) date 2020-11-08 18:38:21*
%MOMM*%
%LPD*%
G01*
G04 APERTURE LIST*
%ADD10C,0.120000*%
%ADD11C,0.150000*%
G04 APERTURE END LIST*
D10*
%TO.C,U1*%
X125450000Y-59640000D02*
X125450000Y-61290000D01*
X125450000Y-61290000D02*
X148430000Y-61290000D01*
X148430000Y-61290000D02*
X148430000Y-55990000D01*
X148430000Y-55990000D02*
X125450000Y-55990000D01*
X125450000Y-55990000D02*
X125450000Y-57640000D01*
X125390000Y-63780000D02*
X148490000Y-63780000D01*
X148490000Y-63780000D02*
X148490000Y-53500000D01*
X148490000Y-53500000D02*
X125390000Y-53500000D01*
X125390000Y-53500000D02*
X125390000Y-63780000D01*
X125450000Y-57640000D02*
G75*
G02*
X125450000Y-59640000I0J-1000000D01*
G01*
%TO.C,TP7*%
X132290000Y-126180000D02*
X132290000Y-130580000D01*
X127890000Y-126180000D02*
X132290000Y-126180000D01*
X127890000Y-130580000D02*
X127890000Y-126180000D01*
X132290000Y-130580000D02*
X127890000Y-130580000D01*
%TO.C,TP6*%
X118610000Y-130750000D02*
X118610000Y-126350000D01*
X123010000Y-130750000D02*
X118610000Y-130750000D01*
X123010000Y-126350000D02*
X123010000Y-130750000D01*
X118610000Y-126350000D02*
X123010000Y-126350000D01*
%TO.C,TP5*%
X132410000Y-136010000D02*
X132410000Y-140410000D01*
X128010000Y-136010000D02*
X132410000Y-136010000D01*
X128010000Y-140410000D02*
X128010000Y-136010000D01*
X132410000Y-140410000D02*
X128010000Y-140410000D01*
%TO.C,TP4*%
X123000000Y-149650000D02*
X123000000Y-145250000D01*
X127400000Y-149650000D02*
X123000000Y-149650000D01*
X127400000Y-145250000D02*
X127400000Y-149650000D01*
X123000000Y-145250000D02*
X127400000Y-145250000D01*
%TO.C,TP3*%
X114890000Y-149710000D02*
X114890000Y-145310000D01*
X119290000Y-149710000D02*
X114890000Y-149710000D01*
X119290000Y-145310000D02*
X119290000Y-149710000D01*
X114890000Y-145310000D02*
X119290000Y-145310000D01*
%TO.C,TP2*%
X130990000Y-149710000D02*
X130990000Y-145310000D01*
X135390000Y-149710000D02*
X130990000Y-149710000D01*
X135390000Y-145310000D02*
X135390000Y-149710000D01*
X130990000Y-145310000D02*
X135390000Y-145310000D01*
%TO.C,TP1*%
X123210000Y-136010000D02*
X123210000Y-140410000D01*
X118810000Y-136010000D02*
X123210000Y-136010000D01*
X118810000Y-140410000D02*
X118810000Y-136010000D01*
X123210000Y-140410000D02*
X118810000Y-140410000D01*
%TO.C,R21*%
X167140000Y-127770000D02*
X166370000Y-127770000D01*
X159060000Y-127770000D02*
X159830000Y-127770000D01*
X166370000Y-126400000D02*
X159830000Y-126400000D01*
X166370000Y-129140000D02*
X166370000Y-126400000D01*
X159830000Y-129140000D02*
X166370000Y-129140000D01*
X159830000Y-126400000D02*
X159830000Y-129140000D01*
%TO.C,R20*%
X167075000Y-121306000D02*
X166305000Y-121306000D01*
X158995000Y-121306000D02*
X159765000Y-121306000D01*
X166305000Y-119936000D02*
X159765000Y-119936000D01*
X166305000Y-122676000D02*
X166305000Y-119936000D01*
X159765000Y-122676000D02*
X166305000Y-122676000D01*
X159765000Y-119936000D02*
X159765000Y-122676000D01*
%TO.C,R19*%
X167075000Y-114446000D02*
X166305000Y-114446000D01*
X158995000Y-114446000D02*
X159765000Y-114446000D01*
X166305000Y-113076000D02*
X159765000Y-113076000D01*
X166305000Y-115816000D02*
X166305000Y-113076000D01*
X159765000Y-115816000D02*
X166305000Y-115816000D01*
X159765000Y-113076000D02*
X159765000Y-115816000D01*
%TO.C,R18*%
X167075000Y-107466000D02*
X166305000Y-107466000D01*
X158995000Y-107466000D02*
X159765000Y-107466000D01*
X166305000Y-106096000D02*
X159765000Y-106096000D01*
X166305000Y-108836000D02*
X166305000Y-106096000D01*
X159765000Y-108836000D02*
X166305000Y-108836000D01*
X159765000Y-106096000D02*
X159765000Y-108836000D01*
%TO.C,R17*%
X167195000Y-100476000D02*
X166425000Y-100476000D01*
X159115000Y-100476000D02*
X159885000Y-100476000D01*
X166425000Y-99106000D02*
X159885000Y-99106000D01*
X166425000Y-101846000D02*
X166425000Y-99106000D01*
X159885000Y-101846000D02*
X166425000Y-101846000D01*
X159885000Y-99106000D02*
X159885000Y-101846000D01*
%TO.C,R16*%
X167195000Y-93496000D02*
X166425000Y-93496000D01*
X159115000Y-93496000D02*
X159885000Y-93496000D01*
X166425000Y-92126000D02*
X159885000Y-92126000D01*
X166425000Y-94866000D02*
X166425000Y-92126000D01*
X159885000Y-94866000D02*
X166425000Y-94866000D01*
X159885000Y-92126000D02*
X159885000Y-94866000D01*
%TO.C,R15*%
X167322000Y-85882000D02*
X166552000Y-85882000D01*
X159242000Y-85882000D02*
X160012000Y-85882000D01*
X166552000Y-84512000D02*
X160012000Y-84512000D01*
X166552000Y-87252000D02*
X166552000Y-84512000D01*
X160012000Y-87252000D02*
X166552000Y-87252000D01*
X160012000Y-84512000D02*
X160012000Y-87252000D01*
%TO.C,R14*%
X167480000Y-78820000D02*
X166710000Y-78820000D01*
X159400000Y-78820000D02*
X160170000Y-78820000D01*
X166710000Y-77450000D02*
X160170000Y-77450000D01*
X166710000Y-80190000D02*
X166710000Y-77450000D01*
X160170000Y-80190000D02*
X166710000Y-80190000D01*
X160170000Y-77450000D02*
X160170000Y-80190000D01*
%TO.C,R13*%
X167424000Y-71386000D02*
X166654000Y-71386000D01*
X159344000Y-71386000D02*
X160114000Y-71386000D01*
X166654000Y-70016000D02*
X160114000Y-70016000D01*
X166654000Y-72756000D02*
X166654000Y-70016000D01*
X160114000Y-72756000D02*
X166654000Y-72756000D01*
X160114000Y-70016000D02*
X160114000Y-72756000D01*
%TO.C,R12*%
X167480000Y-63590000D02*
X166710000Y-63590000D01*
X159400000Y-63590000D02*
X160170000Y-63590000D01*
X166710000Y-62220000D02*
X160170000Y-62220000D01*
X166710000Y-64960000D02*
X166710000Y-62220000D01*
X160170000Y-64960000D02*
X166710000Y-64960000D01*
X160170000Y-62220000D02*
X160170000Y-64960000D01*
%TO.C,R11*%
X167630000Y-56020000D02*
X166860000Y-56020000D01*
X159550000Y-56020000D02*
X160320000Y-56020000D01*
X166860000Y-54650000D02*
X160320000Y-54650000D01*
X166860000Y-57390000D02*
X166860000Y-54650000D01*
X160320000Y-57390000D02*
X166860000Y-57390000D01*
X160320000Y-54650000D02*
X160320000Y-57390000D01*
%TO.C,R10*%
X116270000Y-121970000D02*
X115500000Y-121970000D01*
X108190000Y-121970000D02*
X108960000Y-121970000D01*
X115500000Y-120600000D02*
X108960000Y-120600000D01*
X115500000Y-123340000D02*
X115500000Y-120600000D01*
X108960000Y-123340000D02*
X115500000Y-123340000D01*
X108960000Y-120600000D02*
X108960000Y-123340000D01*
%TO.C,R9*%
X116350000Y-115220000D02*
X115580000Y-115220000D01*
X108270000Y-115220000D02*
X109040000Y-115220000D01*
X115580000Y-113850000D02*
X109040000Y-113850000D01*
X115580000Y-116590000D02*
X115580000Y-113850000D01*
X109040000Y-116590000D02*
X115580000Y-116590000D01*
X109040000Y-113850000D02*
X109040000Y-116590000D01*
%TO.C,R8*%
X116350000Y-108380000D02*
X115580000Y-108380000D01*
X108270000Y-108380000D02*
X109040000Y-108380000D01*
X115580000Y-107010000D02*
X109040000Y-107010000D01*
X115580000Y-109750000D02*
X115580000Y-107010000D01*
X109040000Y-109750000D02*
X115580000Y-109750000D01*
X109040000Y-107010000D02*
X109040000Y-109750000D01*
%TO.C,R7*%
X116420000Y-101280000D02*
X115650000Y-101280000D01*
X108340000Y-101280000D02*
X109110000Y-101280000D01*
X115650000Y-99910000D02*
X109110000Y-99910000D01*
X115650000Y-102650000D02*
X115650000Y-99910000D01*
X109110000Y-102650000D02*
X115650000Y-102650000D01*
X109110000Y-99910000D02*
X109110000Y-102650000D01*
%TO.C,R6*%
X116420000Y-94150000D02*
X115650000Y-94150000D01*
X108340000Y-94150000D02*
X109110000Y-94150000D01*
X115650000Y-92780000D02*
X109110000Y-92780000D01*
X115650000Y-95520000D02*
X115650000Y-92780000D01*
X109110000Y-95520000D02*
X115650000Y-95520000D01*
X109110000Y-92780000D02*
X109110000Y-95520000D01*
%TO.C,R5*%
X116490000Y-86880000D02*
X115720000Y-86880000D01*
X108410000Y-86880000D02*
X109180000Y-86880000D01*
X115720000Y-85510000D02*
X109180000Y-85510000D01*
X115720000Y-88250000D02*
X115720000Y-85510000D01*
X109180000Y-88250000D02*
X115720000Y-88250000D01*
X109180000Y-85510000D02*
X109180000Y-88250000D01*
%TO.C,R4*%
X116500000Y-79680000D02*
X115730000Y-79680000D01*
X108420000Y-79680000D02*
X109190000Y-79680000D01*
X115730000Y-78310000D02*
X109190000Y-78310000D01*
X115730000Y-81050000D02*
X115730000Y-78310000D01*
X109190000Y-81050000D02*
X115730000Y-81050000D01*
X109190000Y-78310000D02*
X109190000Y-81050000D01*
%TO.C,R3*%
X116490000Y-72260000D02*
X115720000Y-72260000D01*
X108410000Y-72260000D02*
X109180000Y-72260000D01*
X115720000Y-70890000D02*
X109180000Y-70890000D01*
X115720000Y-73630000D02*
X115720000Y-70890000D01*
X109180000Y-73630000D02*
X115720000Y-73630000D01*
X109180000Y-70890000D02*
X109180000Y-73630000D01*
%TO.C,R2*%
X116528000Y-64638000D02*
X115758000Y-64638000D01*
X108448000Y-64638000D02*
X109218000Y-64638000D01*
X115758000Y-63268000D02*
X109218000Y-63268000D01*
X115758000Y-66008000D02*
X115758000Y-63268000D01*
X109218000Y-66008000D02*
X115758000Y-66008000D01*
X109218000Y-63268000D02*
X109218000Y-66008000D01*
%TO.C,R1*%
X116500000Y-56950000D02*
X115730000Y-56950000D01*
X108420000Y-56950000D02*
X109190000Y-56950000D01*
X115730000Y-55580000D02*
X109190000Y-55580000D01*
X115730000Y-58320000D02*
X115730000Y-55580000D01*
X109190000Y-58320000D02*
X115730000Y-58320000D01*
X109190000Y-55580000D02*
X109190000Y-58320000D01*
%TO.C,C5*%
X141850000Y-128670000D02*
G75*
G03*
X141850000Y-128670000I-2620000J0D01*
G01*
X139230000Y-126090000D02*
X139230000Y-131250000D01*
X139270000Y-126090000D02*
X139270000Y-131250000D01*
X139310000Y-126091000D02*
X139310000Y-131249000D01*
X139350000Y-126092000D02*
X139350000Y-131248000D01*
X139390000Y-126094000D02*
X139390000Y-131246000D01*
X139430000Y-126097000D02*
X139430000Y-131243000D01*
X139470000Y-126101000D02*
X139470000Y-127630000D01*
X139470000Y-129710000D02*
X139470000Y-131239000D01*
X139510000Y-126105000D02*
X139510000Y-127630000D01*
X139510000Y-129710000D02*
X139510000Y-131235000D01*
X139550000Y-126109000D02*
X139550000Y-127630000D01*
X139550000Y-129710000D02*
X139550000Y-131231000D01*
X139590000Y-126114000D02*
X139590000Y-127630000D01*
X139590000Y-129710000D02*
X139590000Y-131226000D01*
X139630000Y-126120000D02*
X139630000Y-127630000D01*
X139630000Y-129710000D02*
X139630000Y-131220000D01*
X139670000Y-126127000D02*
X139670000Y-127630000D01*
X139670000Y-129710000D02*
X139670000Y-131213000D01*
X139710000Y-126134000D02*
X139710000Y-127630000D01*
X139710000Y-129710000D02*
X139710000Y-131206000D01*
X139750000Y-126142000D02*
X139750000Y-127630000D01*
X139750000Y-129710000D02*
X139750000Y-131198000D01*
X139790000Y-126150000D02*
X139790000Y-127630000D01*
X139790000Y-129710000D02*
X139790000Y-131190000D01*
X139830000Y-126159000D02*
X139830000Y-127630000D01*
X139830000Y-129710000D02*
X139830000Y-131181000D01*
X139870000Y-126169000D02*
X139870000Y-127630000D01*
X139870000Y-129710000D02*
X139870000Y-131171000D01*
X139910000Y-126179000D02*
X139910000Y-127630000D01*
X139910000Y-129710000D02*
X139910000Y-131161000D01*
X139951000Y-126190000D02*
X139951000Y-127630000D01*
X139951000Y-129710000D02*
X139951000Y-131150000D01*
X139991000Y-126202000D02*
X139991000Y-127630000D01*
X139991000Y-129710000D02*
X139991000Y-131138000D01*
X140031000Y-126215000D02*
X140031000Y-127630000D01*
X140031000Y-129710000D02*
X140031000Y-131125000D01*
X140071000Y-126228000D02*
X140071000Y-127630000D01*
X140071000Y-129710000D02*
X140071000Y-131112000D01*
X140111000Y-126242000D02*
X140111000Y-127630000D01*
X140111000Y-129710000D02*
X140111000Y-131098000D01*
X140151000Y-126256000D02*
X140151000Y-127630000D01*
X140151000Y-129710000D02*
X140151000Y-131084000D01*
X140191000Y-126272000D02*
X140191000Y-127630000D01*
X140191000Y-129710000D02*
X140191000Y-131068000D01*
X140231000Y-126288000D02*
X140231000Y-127630000D01*
X140231000Y-129710000D02*
X140231000Y-131052000D01*
X140271000Y-126305000D02*
X140271000Y-127630000D01*
X140271000Y-129710000D02*
X140271000Y-131035000D01*
X140311000Y-126322000D02*
X140311000Y-127630000D01*
X140311000Y-129710000D02*
X140311000Y-131018000D01*
X140351000Y-126341000D02*
X140351000Y-127630000D01*
X140351000Y-129710000D02*
X140351000Y-130999000D01*
X140391000Y-126360000D02*
X140391000Y-127630000D01*
X140391000Y-129710000D02*
X140391000Y-130980000D01*
X140431000Y-126380000D02*
X140431000Y-127630000D01*
X140431000Y-129710000D02*
X140431000Y-130960000D01*
X140471000Y-126402000D02*
X140471000Y-127630000D01*
X140471000Y-129710000D02*
X140471000Y-130938000D01*
X140511000Y-126423000D02*
X140511000Y-127630000D01*
X140511000Y-129710000D02*
X140511000Y-130917000D01*
X140551000Y-126446000D02*
X140551000Y-127630000D01*
X140551000Y-129710000D02*
X140551000Y-130894000D01*
X140591000Y-126470000D02*
X140591000Y-127630000D01*
X140591000Y-129710000D02*
X140591000Y-130870000D01*
X140631000Y-126495000D02*
X140631000Y-127630000D01*
X140631000Y-129710000D02*
X140631000Y-130845000D01*
X140671000Y-126521000D02*
X140671000Y-127630000D01*
X140671000Y-129710000D02*
X140671000Y-130819000D01*
X140711000Y-126548000D02*
X140711000Y-127630000D01*
X140711000Y-129710000D02*
X140711000Y-130792000D01*
X140751000Y-126575000D02*
X140751000Y-127630000D01*
X140751000Y-129710000D02*
X140751000Y-130765000D01*
X140791000Y-126605000D02*
X140791000Y-127630000D01*
X140791000Y-129710000D02*
X140791000Y-130735000D01*
X140831000Y-126635000D02*
X140831000Y-127630000D01*
X140831000Y-129710000D02*
X140831000Y-130705000D01*
X140871000Y-126666000D02*
X140871000Y-127630000D01*
X140871000Y-129710000D02*
X140871000Y-130674000D01*
X140911000Y-126699000D02*
X140911000Y-127630000D01*
X140911000Y-129710000D02*
X140911000Y-130641000D01*
X140951000Y-126733000D02*
X140951000Y-127630000D01*
X140951000Y-129710000D02*
X140951000Y-130607000D01*
X140991000Y-126769000D02*
X140991000Y-127630000D01*
X140991000Y-129710000D02*
X140991000Y-130571000D01*
X141031000Y-126806000D02*
X141031000Y-127630000D01*
X141031000Y-129710000D02*
X141031000Y-130534000D01*
X141071000Y-126844000D02*
X141071000Y-127630000D01*
X141071000Y-129710000D02*
X141071000Y-130496000D01*
X141111000Y-126885000D02*
X141111000Y-127630000D01*
X141111000Y-129710000D02*
X141111000Y-130455000D01*
X141151000Y-126927000D02*
X141151000Y-127630000D01*
X141151000Y-129710000D02*
X141151000Y-130413000D01*
X141191000Y-126971000D02*
X141191000Y-127630000D01*
X141191000Y-129710000D02*
X141191000Y-130369000D01*
X141231000Y-127017000D02*
X141231000Y-127630000D01*
X141231000Y-129710000D02*
X141231000Y-130323000D01*
X141271000Y-127065000D02*
X141271000Y-127630000D01*
X141271000Y-129710000D02*
X141271000Y-130275000D01*
X141311000Y-127116000D02*
X141311000Y-127630000D01*
X141311000Y-129710000D02*
X141311000Y-130224000D01*
X141351000Y-127170000D02*
X141351000Y-127630000D01*
X141351000Y-129710000D02*
X141351000Y-130170000D01*
X141391000Y-127227000D02*
X141391000Y-127630000D01*
X141391000Y-129710000D02*
X141391000Y-130113000D01*
X141431000Y-127287000D02*
X141431000Y-127630000D01*
X141431000Y-129710000D02*
X141431000Y-130053000D01*
X141471000Y-127351000D02*
X141471000Y-127630000D01*
X141471000Y-129710000D02*
X141471000Y-129989000D01*
X141511000Y-127419000D02*
X141511000Y-127630000D01*
X141511000Y-129710000D02*
X141511000Y-129921000D01*
X141551000Y-127492000D02*
X141551000Y-129848000D01*
X141591000Y-127572000D02*
X141591000Y-129768000D01*
X141631000Y-127659000D02*
X141631000Y-129681000D01*
X141671000Y-127755000D02*
X141671000Y-129585000D01*
X141711000Y-127865000D02*
X141711000Y-129475000D01*
X141751000Y-127993000D02*
X141751000Y-129347000D01*
X141791000Y-128152000D02*
X141791000Y-129188000D01*
X141831000Y-128386000D02*
X141831000Y-128954000D01*
X136425225Y-127195000D02*
X136925225Y-127195000D01*
X136675225Y-126945000D02*
X136675225Y-127445000D01*
%TO.C,C4*%
X162404000Y-136530000D02*
X162404000Y-139270000D01*
X154664000Y-136530000D02*
X154664000Y-139270000D01*
X154664000Y-139270000D02*
X162404000Y-139270000D01*
X154664000Y-136530000D02*
X162404000Y-136530000D01*
%TO.C,C3*%
X152508000Y-144642000D02*
X152508000Y-147382000D01*
X144768000Y-144642000D02*
X144768000Y-147382000D01*
X144768000Y-147382000D02*
X152508000Y-147382000D01*
X144768000Y-144642000D02*
X152508000Y-144642000D01*
%TO.C,C2*%
X152558000Y-136522000D02*
X152558000Y-139262000D01*
X144818000Y-136522000D02*
X144818000Y-139262000D01*
X144818000Y-139262000D02*
X152558000Y-139262000D01*
X144818000Y-136522000D02*
X152558000Y-136522000D01*
%TO.C,C1*%
X162354000Y-144650000D02*
X162354000Y-147390000D01*
X154614000Y-144650000D02*
X154614000Y-147390000D01*
X154614000Y-147390000D02*
X162354000Y-147390000D01*
X154614000Y-144650000D02*
X162354000Y-144650000D01*
%TO.C,J5*%
X166360000Y-37410000D02*
X161160000Y-37410000D01*
X166360000Y-47630000D02*
X166360000Y-37410000D01*
X161160000Y-50230000D02*
X161160000Y-37410000D01*
X166360000Y-47630000D02*
X163760000Y-47630000D01*
X163760000Y-47630000D02*
X163760000Y-50230000D01*
X163760000Y-50230000D02*
X161160000Y-50230000D01*
X166360000Y-48900000D02*
X166360000Y-50230000D01*
X166360000Y-50230000D02*
X165030000Y-50230000D01*
%TO.C,C7*%
X155440000Y-45410000D02*
G75*
G03*
X155440000Y-45410000I-2620000J0D01*
G01*
X152820000Y-47990000D02*
X152820000Y-42830000D01*
X152780000Y-47990000D02*
X152780000Y-42830000D01*
X152740000Y-47989000D02*
X152740000Y-42831000D01*
X152700000Y-47988000D02*
X152700000Y-42832000D01*
X152660000Y-47986000D02*
X152660000Y-42834000D01*
X152620000Y-47983000D02*
X152620000Y-42837000D01*
X152580000Y-47979000D02*
X152580000Y-46450000D01*
X152580000Y-44370000D02*
X152580000Y-42841000D01*
X152540000Y-47975000D02*
X152540000Y-46450000D01*
X152540000Y-44370000D02*
X152540000Y-42845000D01*
X152500000Y-47971000D02*
X152500000Y-46450000D01*
X152500000Y-44370000D02*
X152500000Y-42849000D01*
X152460000Y-47966000D02*
X152460000Y-46450000D01*
X152460000Y-44370000D02*
X152460000Y-42854000D01*
X152420000Y-47960000D02*
X152420000Y-46450000D01*
X152420000Y-44370000D02*
X152420000Y-42860000D01*
X152380000Y-47953000D02*
X152380000Y-46450000D01*
X152380000Y-44370000D02*
X152380000Y-42867000D01*
X152340000Y-47946000D02*
X152340000Y-46450000D01*
X152340000Y-44370000D02*
X152340000Y-42874000D01*
X152300000Y-47938000D02*
X152300000Y-46450000D01*
X152300000Y-44370000D02*
X152300000Y-42882000D01*
X152260000Y-47930000D02*
X152260000Y-46450000D01*
X152260000Y-44370000D02*
X152260000Y-42890000D01*
X152220000Y-47921000D02*
X152220000Y-46450000D01*
X152220000Y-44370000D02*
X152220000Y-42899000D01*
X152180000Y-47911000D02*
X152180000Y-46450000D01*
X152180000Y-44370000D02*
X152180000Y-42909000D01*
X152140000Y-47901000D02*
X152140000Y-46450000D01*
X152140000Y-44370000D02*
X152140000Y-42919000D01*
X152099000Y-47890000D02*
X152099000Y-46450000D01*
X152099000Y-44370000D02*
X152099000Y-42930000D01*
X152059000Y-47878000D02*
X152059000Y-46450000D01*
X152059000Y-44370000D02*
X152059000Y-42942000D01*
X152019000Y-47865000D02*
X152019000Y-46450000D01*
X152019000Y-44370000D02*
X152019000Y-42955000D01*
X151979000Y-47852000D02*
X151979000Y-46450000D01*
X151979000Y-44370000D02*
X151979000Y-42968000D01*
X151939000Y-47838000D02*
X151939000Y-46450000D01*
X151939000Y-44370000D02*
X151939000Y-42982000D01*
X151899000Y-47824000D02*
X151899000Y-46450000D01*
X151899000Y-44370000D02*
X151899000Y-42996000D01*
X151859000Y-47808000D02*
X151859000Y-46450000D01*
X151859000Y-44370000D02*
X151859000Y-43012000D01*
X151819000Y-47792000D02*
X151819000Y-46450000D01*
X151819000Y-44370000D02*
X151819000Y-43028000D01*
X151779000Y-47775000D02*
X151779000Y-46450000D01*
X151779000Y-44370000D02*
X151779000Y-43045000D01*
X151739000Y-47758000D02*
X151739000Y-46450000D01*
X151739000Y-44370000D02*
X151739000Y-43062000D01*
X151699000Y-47739000D02*
X151699000Y-46450000D01*
X151699000Y-44370000D02*
X151699000Y-43081000D01*
X151659000Y-47720000D02*
X151659000Y-46450000D01*
X151659000Y-44370000D02*
X151659000Y-43100000D01*
X151619000Y-47700000D02*
X151619000Y-46450000D01*
X151619000Y-44370000D02*
X151619000Y-43120000D01*
X151579000Y-47678000D02*
X151579000Y-46450000D01*
X151579000Y-44370000D02*
X151579000Y-43142000D01*
X151539000Y-47657000D02*
X151539000Y-46450000D01*
X151539000Y-44370000D02*
X151539000Y-43163000D01*
X151499000Y-47634000D02*
X151499000Y-46450000D01*
X151499000Y-44370000D02*
X151499000Y-43186000D01*
X151459000Y-47610000D02*
X151459000Y-46450000D01*
X151459000Y-44370000D02*
X151459000Y-43210000D01*
X151419000Y-47585000D02*
X151419000Y-46450000D01*
X151419000Y-44370000D02*
X151419000Y-43235000D01*
X151379000Y-47559000D02*
X151379000Y-46450000D01*
X151379000Y-44370000D02*
X151379000Y-43261000D01*
X151339000Y-47532000D02*
X151339000Y-46450000D01*
X151339000Y-44370000D02*
X151339000Y-43288000D01*
X151299000Y-47505000D02*
X151299000Y-46450000D01*
X151299000Y-44370000D02*
X151299000Y-43315000D01*
X151259000Y-47475000D02*
X151259000Y-46450000D01*
X151259000Y-44370000D02*
X151259000Y-43345000D01*
X151219000Y-47445000D02*
X151219000Y-46450000D01*
X151219000Y-44370000D02*
X151219000Y-43375000D01*
X151179000Y-47414000D02*
X151179000Y-46450000D01*
X151179000Y-44370000D02*
X151179000Y-43406000D01*
X151139000Y-47381000D02*
X151139000Y-46450000D01*
X151139000Y-44370000D02*
X151139000Y-43439000D01*
X151099000Y-47347000D02*
X151099000Y-46450000D01*
X151099000Y-44370000D02*
X151099000Y-43473000D01*
X151059000Y-47311000D02*
X151059000Y-46450000D01*
X151059000Y-44370000D02*
X151059000Y-43509000D01*
X151019000Y-47274000D02*
X151019000Y-46450000D01*
X151019000Y-44370000D02*
X151019000Y-43546000D01*
X150979000Y-47236000D02*
X150979000Y-46450000D01*
X150979000Y-44370000D02*
X150979000Y-43584000D01*
X150939000Y-47195000D02*
X150939000Y-46450000D01*
X150939000Y-44370000D02*
X150939000Y-43625000D01*
X150899000Y-47153000D02*
X150899000Y-46450000D01*
X150899000Y-44370000D02*
X150899000Y-43667000D01*
X150859000Y-47109000D02*
X150859000Y-46450000D01*
X150859000Y-44370000D02*
X150859000Y-43711000D01*
X150819000Y-47063000D02*
X150819000Y-46450000D01*
X150819000Y-44370000D02*
X150819000Y-43757000D01*
X150779000Y-47015000D02*
X150779000Y-46450000D01*
X150779000Y-44370000D02*
X150779000Y-43805000D01*
X150739000Y-46964000D02*
X150739000Y-46450000D01*
X150739000Y-44370000D02*
X150739000Y-43856000D01*
X150699000Y-46910000D02*
X150699000Y-46450000D01*
X150699000Y-44370000D02*
X150699000Y-43910000D01*
X150659000Y-46853000D02*
X150659000Y-46450000D01*
X150659000Y-44370000D02*
X150659000Y-43967000D01*
X150619000Y-46793000D02*
X150619000Y-46450000D01*
X150619000Y-44370000D02*
X150619000Y-44027000D01*
X150579000Y-46729000D02*
X150579000Y-46450000D01*
X150579000Y-44370000D02*
X150579000Y-44091000D01*
X150539000Y-46661000D02*
X150539000Y-46450000D01*
X150539000Y-44370000D02*
X150539000Y-44159000D01*
X150499000Y-46588000D02*
X150499000Y-44232000D01*
X150459000Y-46508000D02*
X150459000Y-44312000D01*
X150419000Y-46421000D02*
X150419000Y-44399000D01*
X150379000Y-46325000D02*
X150379000Y-44495000D01*
X150339000Y-46215000D02*
X150339000Y-44605000D01*
X150299000Y-46087000D02*
X150299000Y-44733000D01*
X150259000Y-45928000D02*
X150259000Y-44892000D01*
X150219000Y-45694000D02*
X150219000Y-45126000D01*
X155624775Y-46885000D02*
X155124775Y-46885000D01*
X155374775Y-47135000D02*
X155374775Y-46635000D01*
%TO.C,C6*%
X151010000Y-128690000D02*
G75*
G03*
X151010000Y-128690000I-2620000J0D01*
G01*
X148390000Y-131270000D02*
X148390000Y-126110000D01*
X148350000Y-131270000D02*
X148350000Y-126110000D01*
X148310000Y-131269000D02*
X148310000Y-126111000D01*
X148270000Y-131268000D02*
X148270000Y-126112000D01*
X148230000Y-131266000D02*
X148230000Y-126114000D01*
X148190000Y-131263000D02*
X148190000Y-126117000D01*
X148150000Y-131259000D02*
X148150000Y-129730000D01*
X148150000Y-127650000D02*
X148150000Y-126121000D01*
X148110000Y-131255000D02*
X148110000Y-129730000D01*
X148110000Y-127650000D02*
X148110000Y-126125000D01*
X148070000Y-131251000D02*
X148070000Y-129730000D01*
X148070000Y-127650000D02*
X148070000Y-126129000D01*
X148030000Y-131246000D02*
X148030000Y-129730000D01*
X148030000Y-127650000D02*
X148030000Y-126134000D01*
X147990000Y-131240000D02*
X147990000Y-129730000D01*
X147990000Y-127650000D02*
X147990000Y-126140000D01*
X147950000Y-131233000D02*
X147950000Y-129730000D01*
X147950000Y-127650000D02*
X147950000Y-126147000D01*
X147910000Y-131226000D02*
X147910000Y-129730000D01*
X147910000Y-127650000D02*
X147910000Y-126154000D01*
X147870000Y-131218000D02*
X147870000Y-129730000D01*
X147870000Y-127650000D02*
X147870000Y-126162000D01*
X147830000Y-131210000D02*
X147830000Y-129730000D01*
X147830000Y-127650000D02*
X147830000Y-126170000D01*
X147790000Y-131201000D02*
X147790000Y-129730000D01*
X147790000Y-127650000D02*
X147790000Y-126179000D01*
X147750000Y-131191000D02*
X147750000Y-129730000D01*
X147750000Y-127650000D02*
X147750000Y-126189000D01*
X147710000Y-131181000D02*
X147710000Y-129730000D01*
X147710000Y-127650000D02*
X147710000Y-126199000D01*
X147669000Y-131170000D02*
X147669000Y-129730000D01*
X147669000Y-127650000D02*
X147669000Y-126210000D01*
X147629000Y-131158000D02*
X147629000Y-129730000D01*
X147629000Y-127650000D02*
X147629000Y-126222000D01*
X147589000Y-131145000D02*
X147589000Y-129730000D01*
X147589000Y-127650000D02*
X147589000Y-126235000D01*
X147549000Y-131132000D02*
X147549000Y-129730000D01*
X147549000Y-127650000D02*
X147549000Y-126248000D01*
X147509000Y-131118000D02*
X147509000Y-129730000D01*
X147509000Y-127650000D02*
X147509000Y-126262000D01*
X147469000Y-131104000D02*
X147469000Y-129730000D01*
X147469000Y-127650000D02*
X147469000Y-126276000D01*
X147429000Y-131088000D02*
X147429000Y-129730000D01*
X147429000Y-127650000D02*
X147429000Y-126292000D01*
X147389000Y-131072000D02*
X147389000Y-129730000D01*
X147389000Y-127650000D02*
X147389000Y-126308000D01*
X147349000Y-131055000D02*
X147349000Y-129730000D01*
X147349000Y-127650000D02*
X147349000Y-126325000D01*
X147309000Y-131038000D02*
X147309000Y-129730000D01*
X147309000Y-127650000D02*
X147309000Y-126342000D01*
X147269000Y-131019000D02*
X147269000Y-129730000D01*
X147269000Y-127650000D02*
X147269000Y-126361000D01*
X147229000Y-131000000D02*
X147229000Y-129730000D01*
X147229000Y-127650000D02*
X147229000Y-126380000D01*
X147189000Y-130980000D02*
X147189000Y-129730000D01*
X147189000Y-127650000D02*
X147189000Y-126400000D01*
X147149000Y-130958000D02*
X147149000Y-129730000D01*
X147149000Y-127650000D02*
X147149000Y-126422000D01*
X147109000Y-130937000D02*
X147109000Y-129730000D01*
X147109000Y-127650000D02*
X147109000Y-126443000D01*
X147069000Y-130914000D02*
X147069000Y-129730000D01*
X147069000Y-127650000D02*
X147069000Y-126466000D01*
X147029000Y-130890000D02*
X147029000Y-129730000D01*
X147029000Y-127650000D02*
X147029000Y-126490000D01*
X146989000Y-130865000D02*
X146989000Y-129730000D01*
X146989000Y-127650000D02*
X146989000Y-126515000D01*
X146949000Y-130839000D02*
X146949000Y-129730000D01*
X146949000Y-127650000D02*
X146949000Y-126541000D01*
X146909000Y-130812000D02*
X146909000Y-129730000D01*
X146909000Y-127650000D02*
X146909000Y-126568000D01*
X146869000Y-130785000D02*
X146869000Y-129730000D01*
X146869000Y-127650000D02*
X146869000Y-126595000D01*
X146829000Y-130755000D02*
X146829000Y-129730000D01*
X146829000Y-127650000D02*
X146829000Y-126625000D01*
X146789000Y-130725000D02*
X146789000Y-129730000D01*
X146789000Y-127650000D02*
X146789000Y-126655000D01*
X146749000Y-130694000D02*
X146749000Y-129730000D01*
X146749000Y-127650000D02*
X146749000Y-126686000D01*
X146709000Y-130661000D02*
X146709000Y-129730000D01*
X146709000Y-127650000D02*
X146709000Y-126719000D01*
X146669000Y-130627000D02*
X146669000Y-129730000D01*
X146669000Y-127650000D02*
X146669000Y-126753000D01*
X146629000Y-130591000D02*
X146629000Y-129730000D01*
X146629000Y-127650000D02*
X146629000Y-126789000D01*
X146589000Y-130554000D02*
X146589000Y-129730000D01*
X146589000Y-127650000D02*
X146589000Y-126826000D01*
X146549000Y-130516000D02*
X146549000Y-129730000D01*
X146549000Y-127650000D02*
X146549000Y-126864000D01*
X146509000Y-130475000D02*
X146509000Y-129730000D01*
X146509000Y-127650000D02*
X146509000Y-126905000D01*
X146469000Y-130433000D02*
X146469000Y-129730000D01*
X146469000Y-127650000D02*
X146469000Y-126947000D01*
X146429000Y-130389000D02*
X146429000Y-129730000D01*
X146429000Y-127650000D02*
X146429000Y-126991000D01*
X146389000Y-130343000D02*
X146389000Y-129730000D01*
X146389000Y-127650000D02*
X146389000Y-127037000D01*
X146349000Y-130295000D02*
X146349000Y-129730000D01*
X146349000Y-127650000D02*
X146349000Y-127085000D01*
X146309000Y-130244000D02*
X146309000Y-129730000D01*
X146309000Y-127650000D02*
X146309000Y-127136000D01*
X146269000Y-130190000D02*
X146269000Y-129730000D01*
X146269000Y-127650000D02*
X146269000Y-127190000D01*
X146229000Y-130133000D02*
X146229000Y-129730000D01*
X146229000Y-127650000D02*
X146229000Y-127247000D01*
X146189000Y-130073000D02*
X146189000Y-129730000D01*
X146189000Y-127650000D02*
X146189000Y-127307000D01*
X146149000Y-130009000D02*
X146149000Y-129730000D01*
X146149000Y-127650000D02*
X146149000Y-127371000D01*
X146109000Y-129941000D02*
X146109000Y-129730000D01*
X146109000Y-127650000D02*
X146109000Y-127439000D01*
X146069000Y-129868000D02*
X146069000Y-127512000D01*
X146029000Y-129788000D02*
X146029000Y-127592000D01*
X145989000Y-129701000D02*
X145989000Y-127679000D01*
X145949000Y-129605000D02*
X145949000Y-127775000D01*
X145909000Y-129495000D02*
X145909000Y-127885000D01*
X145869000Y-129367000D02*
X145869000Y-128013000D01*
X145829000Y-129208000D02*
X145829000Y-128172000D01*
X145789000Y-128974000D02*
X145789000Y-128406000D01*
X151194775Y-130165000D02*
X150694775Y-130165000D01*
X150944775Y-130415000D02*
X150944775Y-129915000D01*
%TO.C,TOP_RIGHT_MOUNT*%
D11*
X148071904Y-26372380D02*
X148643333Y-26372380D01*
X148357619Y-27372380D02*
X148357619Y-26372380D01*
X149167142Y-26372380D02*
X149357619Y-26372380D01*
X149452857Y-26420000D01*
X149548095Y-26515238D01*
X149595714Y-26705714D01*
X149595714Y-27039047D01*
X149548095Y-27229523D01*
X149452857Y-27324761D01*
X149357619Y-27372380D01*
X149167142Y-27372380D01*
X149071904Y-27324761D01*
X148976666Y-27229523D01*
X148929047Y-27039047D01*
X148929047Y-26705714D01*
X148976666Y-26515238D01*
X149071904Y-26420000D01*
X149167142Y-26372380D01*
X150024285Y-27372380D02*
X150024285Y-26372380D01*
X150405238Y-26372380D01*
X150500476Y-26420000D01*
X150548095Y-26467619D01*
X150595714Y-26562857D01*
X150595714Y-26705714D01*
X150548095Y-26800952D01*
X150500476Y-26848571D01*
X150405238Y-26896190D01*
X150024285Y-26896190D01*
X150786190Y-27467619D02*
X151548095Y-27467619D01*
X152357619Y-27372380D02*
X152024285Y-26896190D01*
X151786190Y-27372380D02*
X151786190Y-26372380D01*
X152167142Y-26372380D01*
X152262380Y-26420000D01*
X152310000Y-26467619D01*
X152357619Y-26562857D01*
X152357619Y-26705714D01*
X152310000Y-26800952D01*
X152262380Y-26848571D01*
X152167142Y-26896190D01*
X151786190Y-26896190D01*
X152786190Y-27372380D02*
X152786190Y-26372380D01*
X153786190Y-26420000D02*
X153690952Y-26372380D01*
X153548095Y-26372380D01*
X153405238Y-26420000D01*
X153310000Y-26515238D01*
X153262380Y-26610476D01*
X153214761Y-26800952D01*
X153214761Y-26943809D01*
X153262380Y-27134285D01*
X153310000Y-27229523D01*
X153405238Y-27324761D01*
X153548095Y-27372380D01*
X153643333Y-27372380D01*
X153786190Y-27324761D01*
X153833809Y-27277142D01*
X153833809Y-26943809D01*
X153643333Y-26943809D01*
X154262380Y-27372380D02*
X154262380Y-26372380D01*
X154262380Y-26848571D02*
X154833809Y-26848571D01*
X154833809Y-27372380D02*
X154833809Y-26372380D01*
X155167142Y-26372380D02*
X155738571Y-26372380D01*
X155452857Y-27372380D02*
X155452857Y-26372380D01*
X155833809Y-27467619D02*
X156595714Y-27467619D01*
X156833809Y-27372380D02*
X156833809Y-26372380D01*
X157167142Y-27086666D01*
X157500476Y-26372380D01*
X157500476Y-27372380D01*
X158167142Y-26372380D02*
X158357619Y-26372380D01*
X158452857Y-26420000D01*
X158548095Y-26515238D01*
X158595714Y-26705714D01*
X158595714Y-27039047D01*
X158548095Y-27229523D01*
X158452857Y-27324761D01*
X158357619Y-27372380D01*
X158167142Y-27372380D01*
X158071904Y-27324761D01*
X157976666Y-27229523D01*
X157929047Y-27039047D01*
X157929047Y-26705714D01*
X157976666Y-26515238D01*
X158071904Y-26420000D01*
X158167142Y-26372380D01*
X159024285Y-26372380D02*
X159024285Y-27181904D01*
X159071904Y-27277142D01*
X159119523Y-27324761D01*
X159214761Y-27372380D01*
X159405238Y-27372380D01*
X159500476Y-27324761D01*
X159548095Y-27277142D01*
X159595714Y-27181904D01*
X159595714Y-26372380D01*
X160071904Y-27372380D02*
X160071904Y-26372380D01*
X160643333Y-27372380D01*
X160643333Y-26372380D01*
X160976666Y-26372380D02*
X161548095Y-26372380D01*
X161262380Y-27372380D02*
X161262380Y-26372380D01*
%TO.C,TOP_LEFT_MOUNT*%
X113718095Y-26622380D02*
X114289523Y-26622380D01*
X114003809Y-27622380D02*
X114003809Y-26622380D01*
X114813333Y-26622380D02*
X115003809Y-26622380D01*
X115099047Y-26670000D01*
X115194285Y-26765238D01*
X115241904Y-26955714D01*
X115241904Y-27289047D01*
X115194285Y-27479523D01*
X115099047Y-27574761D01*
X115003809Y-27622380D01*
X114813333Y-27622380D01*
X114718095Y-27574761D01*
X114622857Y-27479523D01*
X114575238Y-27289047D01*
X114575238Y-26955714D01*
X114622857Y-26765238D01*
X114718095Y-26670000D01*
X114813333Y-26622380D01*
X115670476Y-27622380D02*
X115670476Y-26622380D01*
X116051428Y-26622380D01*
X116146666Y-26670000D01*
X116194285Y-26717619D01*
X116241904Y-26812857D01*
X116241904Y-26955714D01*
X116194285Y-27050952D01*
X116146666Y-27098571D01*
X116051428Y-27146190D01*
X115670476Y-27146190D01*
X116432380Y-27717619D02*
X117194285Y-27717619D01*
X117908571Y-27622380D02*
X117432380Y-27622380D01*
X117432380Y-26622380D01*
X118241904Y-27098571D02*
X118575238Y-27098571D01*
X118718095Y-27622380D02*
X118241904Y-27622380D01*
X118241904Y-26622380D01*
X118718095Y-26622380D01*
X119480000Y-27098571D02*
X119146666Y-27098571D01*
X119146666Y-27622380D02*
X119146666Y-26622380D01*
X119622857Y-26622380D01*
X119860952Y-26622380D02*
X120432380Y-26622380D01*
X120146666Y-27622380D02*
X120146666Y-26622380D01*
X120527619Y-27717619D02*
X121289523Y-27717619D01*
X121527619Y-27622380D02*
X121527619Y-26622380D01*
X121860952Y-27336666D01*
X122194285Y-26622380D01*
X122194285Y-27622380D01*
X122860952Y-26622380D02*
X123051428Y-26622380D01*
X123146666Y-26670000D01*
X123241904Y-26765238D01*
X123289523Y-26955714D01*
X123289523Y-27289047D01*
X123241904Y-27479523D01*
X123146666Y-27574761D01*
X123051428Y-27622380D01*
X122860952Y-27622380D01*
X122765714Y-27574761D01*
X122670476Y-27479523D01*
X122622857Y-27289047D01*
X122622857Y-26955714D01*
X122670476Y-26765238D01*
X122765714Y-26670000D01*
X122860952Y-26622380D01*
X123718095Y-26622380D02*
X123718095Y-27431904D01*
X123765714Y-27527142D01*
X123813333Y-27574761D01*
X123908571Y-27622380D01*
X124099047Y-27622380D01*
X124194285Y-27574761D01*
X124241904Y-27527142D01*
X124289523Y-27431904D01*
X124289523Y-26622380D01*
X124765714Y-27622380D02*
X124765714Y-26622380D01*
X125337142Y-27622380D01*
X125337142Y-26622380D01*
X125670476Y-26622380D02*
X126241904Y-26622380D01*
X125956190Y-27622380D02*
X125956190Y-26622380D01*
%TO.C,BOTTOM_LEFT_MOUNT*%
X113128095Y-156758571D02*
X113270952Y-156806190D01*
X113318571Y-156853809D01*
X113366190Y-156949047D01*
X113366190Y-157091904D01*
X113318571Y-157187142D01*
X113270952Y-157234761D01*
X113175714Y-157282380D01*
X112794761Y-157282380D01*
X112794761Y-156282380D01*
X113128095Y-156282380D01*
X113223333Y-156330000D01*
X113270952Y-156377619D01*
X113318571Y-156472857D01*
X113318571Y-156568095D01*
X113270952Y-156663333D01*
X113223333Y-156710952D01*
X113128095Y-156758571D01*
X112794761Y-156758571D01*
X113985238Y-156282380D02*
X114175714Y-156282380D01*
X114270952Y-156330000D01*
X114366190Y-156425238D01*
X114413809Y-156615714D01*
X114413809Y-156949047D01*
X114366190Y-157139523D01*
X114270952Y-157234761D01*
X114175714Y-157282380D01*
X113985238Y-157282380D01*
X113890000Y-157234761D01*
X113794761Y-157139523D01*
X113747142Y-156949047D01*
X113747142Y-156615714D01*
X113794761Y-156425238D01*
X113890000Y-156330000D01*
X113985238Y-156282380D01*
X114699523Y-156282380D02*
X115270952Y-156282380D01*
X114985238Y-157282380D02*
X114985238Y-156282380D01*
X115461428Y-156282380D02*
X116032857Y-156282380D01*
X115747142Y-157282380D02*
X115747142Y-156282380D01*
X116556666Y-156282380D02*
X116747142Y-156282380D01*
X116842380Y-156330000D01*
X116937619Y-156425238D01*
X116985238Y-156615714D01*
X116985238Y-156949047D01*
X116937619Y-157139523D01*
X116842380Y-157234761D01*
X116747142Y-157282380D01*
X116556666Y-157282380D01*
X116461428Y-157234761D01*
X116366190Y-157139523D01*
X116318571Y-156949047D01*
X116318571Y-156615714D01*
X116366190Y-156425238D01*
X116461428Y-156330000D01*
X116556666Y-156282380D01*
X117413809Y-157282380D02*
X117413809Y-156282380D01*
X117747142Y-156996666D01*
X118080476Y-156282380D01*
X118080476Y-157282380D01*
X118318571Y-157377619D02*
X119080476Y-157377619D01*
X119794761Y-157282380D02*
X119318571Y-157282380D01*
X119318571Y-156282380D01*
X120128095Y-156758571D02*
X120461428Y-156758571D01*
X120604285Y-157282380D02*
X120128095Y-157282380D01*
X120128095Y-156282380D01*
X120604285Y-156282380D01*
X121366190Y-156758571D02*
X121032857Y-156758571D01*
X121032857Y-157282380D02*
X121032857Y-156282380D01*
X121509047Y-156282380D01*
X121747142Y-156282380D02*
X122318571Y-156282380D01*
X122032857Y-157282380D02*
X122032857Y-156282380D01*
X122413809Y-157377619D02*
X123175714Y-157377619D01*
X123413809Y-157282380D02*
X123413809Y-156282380D01*
X123747142Y-156996666D01*
X124080476Y-156282380D01*
X124080476Y-157282380D01*
X124747142Y-156282380D02*
X124937619Y-156282380D01*
X125032857Y-156330000D01*
X125128095Y-156425238D01*
X125175714Y-156615714D01*
X125175714Y-156949047D01*
X125128095Y-157139523D01*
X125032857Y-157234761D01*
X124937619Y-157282380D01*
X124747142Y-157282380D01*
X124651904Y-157234761D01*
X124556666Y-157139523D01*
X124509047Y-156949047D01*
X124509047Y-156615714D01*
X124556666Y-156425238D01*
X124651904Y-156330000D01*
X124747142Y-156282380D01*
X125604285Y-156282380D02*
X125604285Y-157091904D01*
X125651904Y-157187142D01*
X125699523Y-157234761D01*
X125794761Y-157282380D01*
X125985238Y-157282380D01*
X126080476Y-157234761D01*
X126128095Y-157187142D01*
X126175714Y-157091904D01*
X126175714Y-156282380D01*
X126651904Y-157282380D02*
X126651904Y-156282380D01*
X127223333Y-157282380D01*
X127223333Y-156282380D01*
X127556666Y-156282380D02*
X128128095Y-156282380D01*
X127842380Y-157282380D02*
X127842380Y-156282380D01*
%TO.C,BOTTOM_RIGHT_MOUNT*%
X145691904Y-156468571D02*
X145834761Y-156516190D01*
X145882380Y-156563809D01*
X145930000Y-156659047D01*
X145930000Y-156801904D01*
X145882380Y-156897142D01*
X145834761Y-156944761D01*
X145739523Y-156992380D01*
X145358571Y-156992380D01*
X145358571Y-155992380D01*
X145691904Y-155992380D01*
X145787142Y-156040000D01*
X145834761Y-156087619D01*
X145882380Y-156182857D01*
X145882380Y-156278095D01*
X145834761Y-156373333D01*
X145787142Y-156420952D01*
X145691904Y-156468571D01*
X145358571Y-156468571D01*
X146549047Y-155992380D02*
X146739523Y-155992380D01*
X146834761Y-156040000D01*
X146930000Y-156135238D01*
X146977619Y-156325714D01*
X146977619Y-156659047D01*
X146930000Y-156849523D01*
X146834761Y-156944761D01*
X146739523Y-156992380D01*
X146549047Y-156992380D01*
X146453809Y-156944761D01*
X146358571Y-156849523D01*
X146310952Y-156659047D01*
X146310952Y-156325714D01*
X146358571Y-156135238D01*
X146453809Y-156040000D01*
X146549047Y-155992380D01*
X147263333Y-155992380D02*
X147834761Y-155992380D01*
X147549047Y-156992380D02*
X147549047Y-155992380D01*
X148025238Y-155992380D02*
X148596666Y-155992380D01*
X148310952Y-156992380D02*
X148310952Y-155992380D01*
X149120476Y-155992380D02*
X149310952Y-155992380D01*
X149406190Y-156040000D01*
X149501428Y-156135238D01*
X149549047Y-156325714D01*
X149549047Y-156659047D01*
X149501428Y-156849523D01*
X149406190Y-156944761D01*
X149310952Y-156992380D01*
X149120476Y-156992380D01*
X149025238Y-156944761D01*
X148930000Y-156849523D01*
X148882380Y-156659047D01*
X148882380Y-156325714D01*
X148930000Y-156135238D01*
X149025238Y-156040000D01*
X149120476Y-155992380D01*
X149977619Y-156992380D02*
X149977619Y-155992380D01*
X150310952Y-156706666D01*
X150644285Y-155992380D01*
X150644285Y-156992380D01*
X150882380Y-157087619D02*
X151644285Y-157087619D01*
X152453809Y-156992380D02*
X152120476Y-156516190D01*
X151882380Y-156992380D02*
X151882380Y-155992380D01*
X152263333Y-155992380D01*
X152358571Y-156040000D01*
X152406190Y-156087619D01*
X152453809Y-156182857D01*
X152453809Y-156325714D01*
X152406190Y-156420952D01*
X152358571Y-156468571D01*
X152263333Y-156516190D01*
X151882380Y-156516190D01*
X152882380Y-156992380D02*
X152882380Y-155992380D01*
X153882380Y-156040000D02*
X153787142Y-155992380D01*
X153644285Y-155992380D01*
X153501428Y-156040000D01*
X153406190Y-156135238D01*
X153358571Y-156230476D01*
X153310952Y-156420952D01*
X153310952Y-156563809D01*
X153358571Y-156754285D01*
X153406190Y-156849523D01*
X153501428Y-156944761D01*
X153644285Y-156992380D01*
X153739523Y-156992380D01*
X153882380Y-156944761D01*
X153930000Y-156897142D01*
X153930000Y-156563809D01*
X153739523Y-156563809D01*
X154358571Y-156992380D02*
X154358571Y-155992380D01*
X154358571Y-156468571D02*
X154930000Y-156468571D01*
X154930000Y-156992380D02*
X154930000Y-155992380D01*
X155263333Y-155992380D02*
X155834761Y-155992380D01*
X155549047Y-156992380D02*
X155549047Y-155992380D01*
X155930000Y-157087619D02*
X156691904Y-157087619D01*
X156930000Y-156992380D02*
X156930000Y-155992380D01*
X157263333Y-156706666D01*
X157596666Y-155992380D01*
X157596666Y-156992380D01*
X158263333Y-155992380D02*
X158453809Y-155992380D01*
X158549047Y-156040000D01*
X158644285Y-156135238D01*
X158691904Y-156325714D01*
X158691904Y-156659047D01*
X158644285Y-156849523D01*
X158549047Y-156944761D01*
X158453809Y-156992380D01*
X158263333Y-156992380D01*
X158168095Y-156944761D01*
X158072857Y-156849523D01*
X158025238Y-156659047D01*
X158025238Y-156325714D01*
X158072857Y-156135238D01*
X158168095Y-156040000D01*
X158263333Y-155992380D01*
X159120476Y-155992380D02*
X159120476Y-156801904D01*
X159168095Y-156897142D01*
X159215714Y-156944761D01*
X159310952Y-156992380D01*
X159501428Y-156992380D01*
X159596666Y-156944761D01*
X159644285Y-156897142D01*
X159691904Y-156801904D01*
X159691904Y-155992380D01*
X160168095Y-156992380D02*
X160168095Y-155992380D01*
X160739523Y-156992380D01*
X160739523Y-155992380D01*
X161072857Y-155992380D02*
X161644285Y-155992380D01*
X161358571Y-156992380D02*
X161358571Y-155992380D01*
%TO.C,U1*%
X123902380Y-59401904D02*
X124711904Y-59401904D01*
X124807142Y-59354285D01*
X124854761Y-59306666D01*
X124902380Y-59211428D01*
X124902380Y-59020952D01*
X124854761Y-58925714D01*
X124807142Y-58878095D01*
X124711904Y-58830476D01*
X123902380Y-58830476D01*
X124902380Y-57830476D02*
X124902380Y-58401904D01*
X124902380Y-58116190D02*
X123902380Y-58116190D01*
X124045238Y-58211428D01*
X124140476Y-58306666D01*
X124188095Y-58401904D01*
X149596666Y-61259047D02*
X149596666Y-60782857D01*
X149882380Y-61354285D02*
X148882380Y-61020952D01*
X149882380Y-60687619D01*
X149834761Y-60401904D02*
X149882380Y-60259047D01*
X149882380Y-60020952D01*
X149834761Y-59925714D01*
X149787142Y-59878095D01*
X149691904Y-59830476D01*
X149596666Y-59830476D01*
X149501428Y-59878095D01*
X149453809Y-59925714D01*
X149406190Y-60020952D01*
X149358571Y-60211428D01*
X149310952Y-60306666D01*
X149263333Y-60354285D01*
X149168095Y-60401904D01*
X149072857Y-60401904D01*
X148977619Y-60354285D01*
X148930000Y-60306666D01*
X148882380Y-60211428D01*
X148882380Y-59973333D01*
X148930000Y-59830476D01*
X148882380Y-59497142D02*
X148882380Y-58878095D01*
X149263333Y-59211428D01*
X149263333Y-59068571D01*
X149310952Y-58973333D01*
X149358571Y-58925714D01*
X149453809Y-58878095D01*
X149691904Y-58878095D01*
X149787142Y-58925714D01*
X149834761Y-58973333D01*
X149882380Y-59068571D01*
X149882380Y-59354285D01*
X149834761Y-59449523D01*
X149787142Y-59497142D01*
X148882380Y-58544761D02*
X148882380Y-57925714D01*
X149263333Y-58259047D01*
X149263333Y-58116190D01*
X149310952Y-58020952D01*
X149358571Y-57973333D01*
X149453809Y-57925714D01*
X149691904Y-57925714D01*
X149787142Y-57973333D01*
X149834761Y-58020952D01*
X149882380Y-58116190D01*
X149882380Y-58401904D01*
X149834761Y-58497142D01*
X149787142Y-58544761D01*
X148977619Y-57544761D02*
X148930000Y-57497142D01*
X148882380Y-57401904D01*
X148882380Y-57163809D01*
X148930000Y-57068571D01*
X148977619Y-57020952D01*
X149072857Y-56973333D01*
X149168095Y-56973333D01*
X149310952Y-57020952D01*
X149882380Y-57592380D01*
X149882380Y-56973333D01*
X148882380Y-56354285D02*
X148882380Y-56259047D01*
X148930000Y-56163809D01*
X148977619Y-56116190D01*
X149072857Y-56068571D01*
X149263333Y-56020952D01*
X149501428Y-56020952D01*
X149691904Y-56068571D01*
X149787142Y-56116190D01*
X149834761Y-56163809D01*
X149882380Y-56259047D01*
X149882380Y-56354285D01*
X149834761Y-56449523D01*
X149787142Y-56497142D01*
X149691904Y-56544761D01*
X149501428Y-56592380D01*
X149263333Y-56592380D01*
X149072857Y-56544761D01*
X148977619Y-56497142D01*
X148930000Y-56449523D01*
X148882380Y-56354285D01*
%TO.C,TP7*%
X128828095Y-130730380D02*
X129399523Y-130730380D01*
X129113809Y-131730380D02*
X129113809Y-130730380D01*
X129732857Y-131730380D02*
X129732857Y-130730380D01*
X130113809Y-130730380D01*
X130209047Y-130778000D01*
X130256666Y-130825619D01*
X130304285Y-130920857D01*
X130304285Y-131063714D01*
X130256666Y-131158952D01*
X130209047Y-131206571D01*
X130113809Y-131254190D01*
X129732857Y-131254190D01*
X130637619Y-130730380D02*
X131304285Y-130730380D01*
X130875714Y-131730380D01*
X127685238Y-124732380D02*
X127875714Y-124732380D01*
X127970952Y-124780000D01*
X128066190Y-124875238D01*
X128113809Y-125065714D01*
X128113809Y-125399047D01*
X128066190Y-125589523D01*
X127970952Y-125684761D01*
X127875714Y-125732380D01*
X127685238Y-125732380D01*
X127590000Y-125684761D01*
X127494761Y-125589523D01*
X127447142Y-125399047D01*
X127447142Y-125065714D01*
X127494761Y-124875238D01*
X127590000Y-124780000D01*
X127685238Y-124732380D01*
X128542380Y-124732380D02*
X128542380Y-125541904D01*
X128590000Y-125637142D01*
X128637619Y-125684761D01*
X128732857Y-125732380D01*
X128923333Y-125732380D01*
X129018571Y-125684761D01*
X129066190Y-125637142D01*
X129113809Y-125541904D01*
X129113809Y-124732380D01*
X129447142Y-124732380D02*
X130018571Y-124732380D01*
X129732857Y-125732380D02*
X129732857Y-124732380D01*
X130351904Y-125732380D02*
X130351904Y-124732380D01*
X130732857Y-124732380D01*
X130828095Y-124780000D01*
X130875714Y-124827619D01*
X130923333Y-124922857D01*
X130923333Y-125065714D01*
X130875714Y-125160952D01*
X130828095Y-125208571D01*
X130732857Y-125256190D01*
X130351904Y-125256190D01*
X131351904Y-124732380D02*
X131351904Y-125541904D01*
X131399523Y-125637142D01*
X131447142Y-125684761D01*
X131542380Y-125732380D01*
X131732857Y-125732380D01*
X131828095Y-125684761D01*
X131875714Y-125637142D01*
X131923333Y-125541904D01*
X131923333Y-124732380D01*
X132256666Y-124732380D02*
X132828095Y-124732380D01*
X132542380Y-125732380D02*
X132542380Y-124732380D01*
%TO.C,TP6*%
X119548095Y-125104380D02*
X120119523Y-125104380D01*
X119833809Y-126104380D02*
X119833809Y-125104380D01*
X120452857Y-126104380D02*
X120452857Y-125104380D01*
X120833809Y-125104380D01*
X120929047Y-125152000D01*
X120976666Y-125199619D01*
X121024285Y-125294857D01*
X121024285Y-125437714D01*
X120976666Y-125532952D01*
X120929047Y-125580571D01*
X120833809Y-125628190D01*
X120452857Y-125628190D01*
X121881428Y-125104380D02*
X121690952Y-125104380D01*
X121595714Y-125152000D01*
X121548095Y-125199619D01*
X121452857Y-125342476D01*
X121405238Y-125532952D01*
X121405238Y-125913904D01*
X121452857Y-126009142D01*
X121500476Y-126056761D01*
X121595714Y-126104380D01*
X121786190Y-126104380D01*
X121881428Y-126056761D01*
X121929047Y-126009142D01*
X121976666Y-125913904D01*
X121976666Y-125675809D01*
X121929047Y-125580571D01*
X121881428Y-125532952D01*
X121786190Y-125485333D01*
X121595714Y-125485333D01*
X121500476Y-125532952D01*
X121452857Y-125580571D01*
X121405238Y-125675809D01*
X118881428Y-132102380D02*
X118881428Y-131102380D01*
X119357619Y-132102380D02*
X119357619Y-131102380D01*
X119929047Y-132102380D01*
X119929047Y-131102380D01*
X120405238Y-132102380D02*
X120405238Y-131102380D01*
X120786190Y-131102380D01*
X120881428Y-131150000D01*
X120929047Y-131197619D01*
X120976666Y-131292857D01*
X120976666Y-131435714D01*
X120929047Y-131530952D01*
X120881428Y-131578571D01*
X120786190Y-131626190D01*
X120405238Y-131626190D01*
X121405238Y-131102380D02*
X121405238Y-131911904D01*
X121452857Y-132007142D01*
X121500476Y-132054761D01*
X121595714Y-132102380D01*
X121786190Y-132102380D01*
X121881428Y-132054761D01*
X121929047Y-132007142D01*
X121976666Y-131911904D01*
X121976666Y-131102380D01*
X122310000Y-131102380D02*
X122881428Y-131102380D01*
X122595714Y-132102380D02*
X122595714Y-131102380D01*
%TO.C,TP5*%
X128948095Y-140560380D02*
X129519523Y-140560380D01*
X129233809Y-141560380D02*
X129233809Y-140560380D01*
X129852857Y-141560380D02*
X129852857Y-140560380D01*
X130233809Y-140560380D01*
X130329047Y-140608000D01*
X130376666Y-140655619D01*
X130424285Y-140750857D01*
X130424285Y-140893714D01*
X130376666Y-140988952D01*
X130329047Y-141036571D01*
X130233809Y-141084190D01*
X129852857Y-141084190D01*
X131329047Y-140560380D02*
X130852857Y-140560380D01*
X130805238Y-141036571D01*
X130852857Y-140988952D01*
X130948095Y-140941333D01*
X131186190Y-140941333D01*
X131281428Y-140988952D01*
X131329047Y-141036571D01*
X131376666Y-141131809D01*
X131376666Y-141369904D01*
X131329047Y-141465142D01*
X131281428Y-141512761D01*
X131186190Y-141560380D01*
X130948095Y-141560380D01*
X130852857Y-141512761D01*
X130805238Y-141465142D01*
X126710000Y-135038571D02*
X126376666Y-135038571D01*
X126376666Y-135562380D02*
X126376666Y-134562380D01*
X126852857Y-134562380D01*
X127805238Y-135562380D02*
X127471904Y-135086190D01*
X127233809Y-135562380D02*
X127233809Y-134562380D01*
X127614761Y-134562380D01*
X127710000Y-134610000D01*
X127757619Y-134657619D01*
X127805238Y-134752857D01*
X127805238Y-134895714D01*
X127757619Y-134990952D01*
X127710000Y-135038571D01*
X127614761Y-135086190D01*
X127233809Y-135086190D01*
X128233809Y-135038571D02*
X128567142Y-135038571D01*
X128710000Y-135562380D02*
X128233809Y-135562380D01*
X128233809Y-134562380D01*
X128710000Y-134562380D01*
X129805238Y-135657619D02*
X129710000Y-135610000D01*
X129614761Y-135514761D01*
X129471904Y-135371904D01*
X129376666Y-135324285D01*
X129281428Y-135324285D01*
X129329047Y-135562380D02*
X129233809Y-135514761D01*
X129138571Y-135419523D01*
X129090952Y-135229047D01*
X129090952Y-134895714D01*
X129138571Y-134705238D01*
X129233809Y-134610000D01*
X129329047Y-134562380D01*
X129519523Y-134562380D01*
X129614761Y-134610000D01*
X129710000Y-134705238D01*
X129757619Y-134895714D01*
X129757619Y-135229047D01*
X129710000Y-135419523D01*
X129614761Y-135514761D01*
X129519523Y-135562380D01*
X129329047Y-135562380D01*
X129948095Y-135657619D02*
X130710000Y-135657619D01*
X131519523Y-135467142D02*
X131471904Y-135514761D01*
X131329047Y-135562380D01*
X131233809Y-135562380D01*
X131090952Y-135514761D01*
X130995714Y-135419523D01*
X130948095Y-135324285D01*
X130900476Y-135133809D01*
X130900476Y-134990952D01*
X130948095Y-134800476D01*
X130995714Y-134705238D01*
X131090952Y-134610000D01*
X131233809Y-134562380D01*
X131329047Y-134562380D01*
X131471904Y-134610000D01*
X131519523Y-134657619D01*
X131805238Y-134562380D02*
X132376666Y-134562380D01*
X132090952Y-135562380D02*
X132090952Y-134562380D01*
X133281428Y-135562380D02*
X132948095Y-135086190D01*
X132710000Y-135562380D02*
X132710000Y-134562380D01*
X133090952Y-134562380D01*
X133186190Y-134610000D01*
X133233809Y-134657619D01*
X133281428Y-134752857D01*
X133281428Y-134895714D01*
X133233809Y-134990952D01*
X133186190Y-135038571D01*
X133090952Y-135086190D01*
X132710000Y-135086190D01*
X134186190Y-135562380D02*
X133710000Y-135562380D01*
X133710000Y-134562380D01*
%TO.C,TP4*%
X123938095Y-144004380D02*
X124509523Y-144004380D01*
X124223809Y-145004380D02*
X124223809Y-144004380D01*
X124842857Y-145004380D02*
X124842857Y-144004380D01*
X125223809Y-144004380D01*
X125319047Y-144052000D01*
X125366666Y-144099619D01*
X125414285Y-144194857D01*
X125414285Y-144337714D01*
X125366666Y-144432952D01*
X125319047Y-144480571D01*
X125223809Y-144528190D01*
X124842857Y-144528190D01*
X126271428Y-144337714D02*
X126271428Y-145004380D01*
X126033333Y-143956761D02*
X125795238Y-144671047D01*
X126414285Y-144671047D01*
X124438095Y-150050000D02*
X124342857Y-150002380D01*
X124200000Y-150002380D01*
X124057142Y-150050000D01*
X123961904Y-150145238D01*
X123914285Y-150240476D01*
X123866666Y-150430952D01*
X123866666Y-150573809D01*
X123914285Y-150764285D01*
X123961904Y-150859523D01*
X124057142Y-150954761D01*
X124200000Y-151002380D01*
X124295238Y-151002380D01*
X124438095Y-150954761D01*
X124485714Y-150907142D01*
X124485714Y-150573809D01*
X124295238Y-150573809D01*
X124914285Y-151002380D02*
X124914285Y-150002380D01*
X125485714Y-151002380D01*
X125485714Y-150002380D01*
X125961904Y-151002380D02*
X125961904Y-150002380D01*
X126200000Y-150002380D01*
X126342857Y-150050000D01*
X126438095Y-150145238D01*
X126485714Y-150240476D01*
X126533333Y-150430952D01*
X126533333Y-150573809D01*
X126485714Y-150764285D01*
X126438095Y-150859523D01*
X126342857Y-150954761D01*
X126200000Y-151002380D01*
X125961904Y-151002380D01*
%TO.C,TP3*%
X115828095Y-144064380D02*
X116399523Y-144064380D01*
X116113809Y-145064380D02*
X116113809Y-144064380D01*
X116732857Y-145064380D02*
X116732857Y-144064380D01*
X117113809Y-144064380D01*
X117209047Y-144112000D01*
X117256666Y-144159619D01*
X117304285Y-144254857D01*
X117304285Y-144397714D01*
X117256666Y-144492952D01*
X117209047Y-144540571D01*
X117113809Y-144588190D01*
X116732857Y-144588190D01*
X117637619Y-144064380D02*
X118256666Y-144064380D01*
X117923333Y-144445333D01*
X118066190Y-144445333D01*
X118161428Y-144492952D01*
X118209047Y-144540571D01*
X118256666Y-144635809D01*
X118256666Y-144873904D01*
X118209047Y-144969142D01*
X118161428Y-145016761D01*
X118066190Y-145064380D01*
X117780476Y-145064380D01*
X117685238Y-145016761D01*
X117637619Y-144969142D01*
X115328095Y-150681428D02*
X116090000Y-150681428D01*
X117090000Y-151062380D02*
X116518571Y-151062380D01*
X116804285Y-151062380D02*
X116804285Y-150062380D01*
X116709047Y-150205238D01*
X116613809Y-150300476D01*
X116518571Y-150348095D01*
X117470952Y-150157619D02*
X117518571Y-150110000D01*
X117613809Y-150062380D01*
X117851904Y-150062380D01*
X117947142Y-150110000D01*
X117994761Y-150157619D01*
X118042380Y-150252857D01*
X118042380Y-150348095D01*
X117994761Y-150490952D01*
X117423333Y-151062380D01*
X118042380Y-151062380D01*
X118328095Y-150062380D02*
X118661428Y-151062380D01*
X118994761Y-150062380D01*
%TO.C,TP2*%
X131928095Y-144064380D02*
X132499523Y-144064380D01*
X132213809Y-145064380D02*
X132213809Y-144064380D01*
X132832857Y-145064380D02*
X132832857Y-144064380D01*
X133213809Y-144064380D01*
X133309047Y-144112000D01*
X133356666Y-144159619D01*
X133404285Y-144254857D01*
X133404285Y-144397714D01*
X133356666Y-144492952D01*
X133309047Y-144540571D01*
X133213809Y-144588190D01*
X132832857Y-144588190D01*
X133785238Y-144159619D02*
X133832857Y-144112000D01*
X133928095Y-144064380D01*
X134166190Y-144064380D01*
X134261428Y-144112000D01*
X134309047Y-144159619D01*
X134356666Y-144254857D01*
X134356666Y-144350095D01*
X134309047Y-144492952D01*
X133737619Y-145064380D01*
X134356666Y-145064380D01*
X131428095Y-150681428D02*
X132190000Y-150681428D01*
X131809047Y-151062380D02*
X131809047Y-150300476D01*
X133190000Y-151062380D02*
X132618571Y-151062380D01*
X132904285Y-151062380D02*
X132904285Y-150062380D01*
X132809047Y-150205238D01*
X132713809Y-150300476D01*
X132618571Y-150348095D01*
X133570952Y-150157619D02*
X133618571Y-150110000D01*
X133713809Y-150062380D01*
X133951904Y-150062380D01*
X134047142Y-150110000D01*
X134094761Y-150157619D01*
X134142380Y-150252857D01*
X134142380Y-150348095D01*
X134094761Y-150490952D01*
X133523333Y-151062380D01*
X134142380Y-151062380D01*
X134428095Y-150062380D02*
X134761428Y-151062380D01*
X135094761Y-150062380D01*
%TO.C,TP1*%
X119748095Y-140560380D02*
X120319523Y-140560380D01*
X120033809Y-141560380D02*
X120033809Y-140560380D01*
X120652857Y-141560380D02*
X120652857Y-140560380D01*
X121033809Y-140560380D01*
X121129047Y-140608000D01*
X121176666Y-140655619D01*
X121224285Y-140750857D01*
X121224285Y-140893714D01*
X121176666Y-140988952D01*
X121129047Y-141036571D01*
X121033809Y-141084190D01*
X120652857Y-141084190D01*
X122176666Y-141560380D02*
X121605238Y-141560380D01*
X121890952Y-141560380D02*
X121890952Y-140560380D01*
X121795714Y-140703238D01*
X121700476Y-140798476D01*
X121605238Y-140846095D01*
X118224285Y-135562380D02*
X117890952Y-135086190D01*
X117652857Y-135562380D02*
X117652857Y-134562380D01*
X118033809Y-134562380D01*
X118129047Y-134610000D01*
X118176666Y-134657619D01*
X118224285Y-134752857D01*
X118224285Y-134895714D01*
X118176666Y-134990952D01*
X118129047Y-135038571D01*
X118033809Y-135086190D01*
X117652857Y-135086190D01*
X118652857Y-135038571D02*
X118986190Y-135038571D01*
X119129047Y-135562380D02*
X118652857Y-135562380D01*
X118652857Y-134562380D01*
X119129047Y-134562380D01*
X119510000Y-135514761D02*
X119652857Y-135562380D01*
X119890952Y-135562380D01*
X119986190Y-135514761D01*
X120033809Y-135467142D01*
X120081428Y-135371904D01*
X120081428Y-135276666D01*
X120033809Y-135181428D01*
X119986190Y-135133809D01*
X119890952Y-135086190D01*
X119700476Y-135038571D01*
X119605238Y-134990952D01*
X119557619Y-134943333D01*
X119510000Y-134848095D01*
X119510000Y-134752857D01*
X119557619Y-134657619D01*
X119605238Y-134610000D01*
X119700476Y-134562380D01*
X119938571Y-134562380D01*
X120081428Y-134610000D01*
X120271904Y-135657619D02*
X121033809Y-135657619D01*
X121843333Y-135467142D02*
X121795714Y-135514761D01*
X121652857Y-135562380D01*
X121557619Y-135562380D01*
X121414761Y-135514761D01*
X121319523Y-135419523D01*
X121271904Y-135324285D01*
X121224285Y-135133809D01*
X121224285Y-134990952D01*
X121271904Y-134800476D01*
X121319523Y-134705238D01*
X121414761Y-134610000D01*
X121557619Y-134562380D01*
X121652857Y-134562380D01*
X121795714Y-134610000D01*
X121843333Y-134657619D01*
X122129047Y-134562380D02*
X122700476Y-134562380D01*
X122414761Y-135562380D02*
X122414761Y-134562380D01*
X123605238Y-135562380D02*
X123271904Y-135086190D01*
X123033809Y-135562380D02*
X123033809Y-134562380D01*
X123414761Y-134562380D01*
X123510000Y-134610000D01*
X123557619Y-134657619D01*
X123605238Y-134752857D01*
X123605238Y-134895714D01*
X123557619Y-134990952D01*
X123510000Y-135038571D01*
X123414761Y-135086190D01*
X123033809Y-135086190D01*
X124510000Y-135562380D02*
X124033809Y-135562380D01*
X124033809Y-134562380D01*
%TO.C,R21*%
X161314285Y-127222380D02*
X161933333Y-127222380D01*
X161600000Y-127603333D01*
X161742857Y-127603333D01*
X161838095Y-127650952D01*
X161885714Y-127698571D01*
X161933333Y-127793809D01*
X161933333Y-128031904D01*
X161885714Y-128127142D01*
X161838095Y-128174761D01*
X161742857Y-128222380D01*
X161457142Y-128222380D01*
X161361904Y-128174761D01*
X161314285Y-128127142D01*
X162266666Y-127222380D02*
X162885714Y-127222380D01*
X162552380Y-127603333D01*
X162695238Y-127603333D01*
X162790476Y-127650952D01*
X162838095Y-127698571D01*
X162885714Y-127793809D01*
X162885714Y-128031904D01*
X162838095Y-128127142D01*
X162790476Y-128174761D01*
X162695238Y-128222380D01*
X162409523Y-128222380D01*
X162314285Y-128174761D01*
X162266666Y-128127142D01*
X163504761Y-127222380D02*
X163600000Y-127222380D01*
X163695238Y-127270000D01*
X163742857Y-127317619D01*
X163790476Y-127412857D01*
X163838095Y-127603333D01*
X163838095Y-127841428D01*
X163790476Y-128031904D01*
X163742857Y-128127142D01*
X163695238Y-128174761D01*
X163600000Y-128222380D01*
X163504761Y-128222380D01*
X163409523Y-128174761D01*
X163361904Y-128127142D01*
X163314285Y-128031904D01*
X163266666Y-127841428D01*
X163266666Y-127603333D01*
X163314285Y-127412857D01*
X163361904Y-127317619D01*
X163409523Y-127270000D01*
X163504761Y-127222380D01*
X164838095Y-128222380D02*
X164504761Y-127746190D01*
X164266666Y-128222380D02*
X164266666Y-127222380D01*
X164647619Y-127222380D01*
X164742857Y-127270000D01*
X164790476Y-127317619D01*
X164838095Y-127412857D01*
X164838095Y-127555714D01*
X164790476Y-127650952D01*
X164742857Y-127698571D01*
X164647619Y-127746190D01*
X164266666Y-127746190D01*
X162457142Y-130762380D02*
X162123809Y-130286190D01*
X161885714Y-130762380D02*
X161885714Y-129762380D01*
X162266666Y-129762380D01*
X162361904Y-129810000D01*
X162409523Y-129857619D01*
X162457142Y-129952857D01*
X162457142Y-130095714D01*
X162409523Y-130190952D01*
X162361904Y-130238571D01*
X162266666Y-130286190D01*
X161885714Y-130286190D01*
X162838095Y-129857619D02*
X162885714Y-129810000D01*
X162980952Y-129762380D01*
X163219047Y-129762380D01*
X163314285Y-129810000D01*
X163361904Y-129857619D01*
X163409523Y-129952857D01*
X163409523Y-130048095D01*
X163361904Y-130190952D01*
X162790476Y-130762380D01*
X163409523Y-130762380D01*
X164361904Y-130762380D02*
X163790476Y-130762380D01*
X164076190Y-130762380D02*
X164076190Y-129762380D01*
X163980952Y-129905238D01*
X163885714Y-130000476D01*
X163790476Y-130048095D01*
%TO.C,R20*%
X162296904Y-120758380D02*
X161820714Y-120758380D01*
X161773095Y-121234571D01*
X161820714Y-121186952D01*
X161915952Y-121139333D01*
X162154047Y-121139333D01*
X162249285Y-121186952D01*
X162296904Y-121234571D01*
X162344523Y-121329809D01*
X162344523Y-121567904D01*
X162296904Y-121663142D01*
X162249285Y-121710761D01*
X162154047Y-121758380D01*
X161915952Y-121758380D01*
X161820714Y-121710761D01*
X161773095Y-121663142D01*
X163296904Y-121758380D02*
X162725476Y-121758380D01*
X163011190Y-121758380D02*
X163011190Y-120758380D01*
X162915952Y-120901238D01*
X162820714Y-120996476D01*
X162725476Y-121044095D01*
X163725476Y-121758380D02*
X163725476Y-120758380D01*
X164296904Y-121758380D02*
X163868333Y-121186952D01*
X164296904Y-120758380D02*
X163725476Y-121329809D01*
X162392142Y-124298380D02*
X162058809Y-123822190D01*
X161820714Y-124298380D02*
X161820714Y-123298380D01*
X162201666Y-123298380D01*
X162296904Y-123346000D01*
X162344523Y-123393619D01*
X162392142Y-123488857D01*
X162392142Y-123631714D01*
X162344523Y-123726952D01*
X162296904Y-123774571D01*
X162201666Y-123822190D01*
X161820714Y-123822190D01*
X162773095Y-123393619D02*
X162820714Y-123346000D01*
X162915952Y-123298380D01*
X163154047Y-123298380D01*
X163249285Y-123346000D01*
X163296904Y-123393619D01*
X163344523Y-123488857D01*
X163344523Y-123584095D01*
X163296904Y-123726952D01*
X162725476Y-124298380D01*
X163344523Y-124298380D01*
X163963571Y-123298380D02*
X164058809Y-123298380D01*
X164154047Y-123346000D01*
X164201666Y-123393619D01*
X164249285Y-123488857D01*
X164296904Y-123679333D01*
X164296904Y-123917428D01*
X164249285Y-124107904D01*
X164201666Y-124203142D01*
X164154047Y-124250761D01*
X164058809Y-124298380D01*
X163963571Y-124298380D01*
X163868333Y-124250761D01*
X163820714Y-124203142D01*
X163773095Y-124107904D01*
X163725476Y-123917428D01*
X163725476Y-123679333D01*
X163773095Y-123488857D01*
X163820714Y-123393619D01*
X163868333Y-123346000D01*
X163963571Y-123298380D01*
%TO.C,R19*%
X162344523Y-114898380D02*
X161773095Y-114898380D01*
X162058809Y-114898380D02*
X162058809Y-113898380D01*
X161963571Y-114041238D01*
X161868333Y-114136476D01*
X161773095Y-114184095D01*
X162773095Y-114898380D02*
X162773095Y-113898380D01*
X163344523Y-114898380D02*
X162915952Y-114326952D01*
X163344523Y-113898380D02*
X162773095Y-114469809D01*
X163915952Y-114326952D02*
X163820714Y-114279333D01*
X163773095Y-114231714D01*
X163725476Y-114136476D01*
X163725476Y-114088857D01*
X163773095Y-113993619D01*
X163820714Y-113946000D01*
X163915952Y-113898380D01*
X164106428Y-113898380D01*
X164201666Y-113946000D01*
X164249285Y-113993619D01*
X164296904Y-114088857D01*
X164296904Y-114136476D01*
X164249285Y-114231714D01*
X164201666Y-114279333D01*
X164106428Y-114326952D01*
X163915952Y-114326952D01*
X163820714Y-114374571D01*
X163773095Y-114422190D01*
X163725476Y-114517428D01*
X163725476Y-114707904D01*
X163773095Y-114803142D01*
X163820714Y-114850761D01*
X163915952Y-114898380D01*
X164106428Y-114898380D01*
X164201666Y-114850761D01*
X164249285Y-114803142D01*
X164296904Y-114707904D01*
X164296904Y-114517428D01*
X164249285Y-114422190D01*
X164201666Y-114374571D01*
X164106428Y-114326952D01*
X162392142Y-117438380D02*
X162058809Y-116962190D01*
X161820714Y-117438380D02*
X161820714Y-116438380D01*
X162201666Y-116438380D01*
X162296904Y-116486000D01*
X162344523Y-116533619D01*
X162392142Y-116628857D01*
X162392142Y-116771714D01*
X162344523Y-116866952D01*
X162296904Y-116914571D01*
X162201666Y-116962190D01*
X161820714Y-116962190D01*
X163344523Y-117438380D02*
X162773095Y-117438380D01*
X163058809Y-117438380D02*
X163058809Y-116438380D01*
X162963571Y-116581238D01*
X162868333Y-116676476D01*
X162773095Y-116724095D01*
X163820714Y-117438380D02*
X164011190Y-117438380D01*
X164106428Y-117390761D01*
X164154047Y-117343142D01*
X164249285Y-117200285D01*
X164296904Y-117009809D01*
X164296904Y-116628857D01*
X164249285Y-116533619D01*
X164201666Y-116486000D01*
X164106428Y-116438380D01*
X163915952Y-116438380D01*
X163820714Y-116486000D01*
X163773095Y-116533619D01*
X163725476Y-116628857D01*
X163725476Y-116866952D01*
X163773095Y-116962190D01*
X163820714Y-117009809D01*
X163915952Y-117057428D01*
X164106428Y-117057428D01*
X164201666Y-117009809D01*
X164249285Y-116962190D01*
X164296904Y-116866952D01*
%TO.C,R18*%
X161868333Y-107918380D02*
X161296904Y-107918380D01*
X161582619Y-107918380D02*
X161582619Y-106918380D01*
X161487380Y-107061238D01*
X161392142Y-107156476D01*
X161296904Y-107204095D01*
X162487380Y-106918380D02*
X162582619Y-106918380D01*
X162677857Y-106966000D01*
X162725476Y-107013619D01*
X162773095Y-107108857D01*
X162820714Y-107299333D01*
X162820714Y-107537428D01*
X162773095Y-107727904D01*
X162725476Y-107823142D01*
X162677857Y-107870761D01*
X162582619Y-107918380D01*
X162487380Y-107918380D01*
X162392142Y-107870761D01*
X162344523Y-107823142D01*
X162296904Y-107727904D01*
X162249285Y-107537428D01*
X162249285Y-107299333D01*
X162296904Y-107108857D01*
X162344523Y-107013619D01*
X162392142Y-106966000D01*
X162487380Y-106918380D01*
X163439761Y-106918380D02*
X163535000Y-106918380D01*
X163630238Y-106966000D01*
X163677857Y-107013619D01*
X163725476Y-107108857D01*
X163773095Y-107299333D01*
X163773095Y-107537428D01*
X163725476Y-107727904D01*
X163677857Y-107823142D01*
X163630238Y-107870761D01*
X163535000Y-107918380D01*
X163439761Y-107918380D01*
X163344523Y-107870761D01*
X163296904Y-107823142D01*
X163249285Y-107727904D01*
X163201666Y-107537428D01*
X163201666Y-107299333D01*
X163249285Y-107108857D01*
X163296904Y-107013619D01*
X163344523Y-106966000D01*
X163439761Y-106918380D01*
X164201666Y-107918380D02*
X164201666Y-106918380D01*
X164773095Y-107918380D02*
X164344523Y-107346952D01*
X164773095Y-106918380D02*
X164201666Y-107489809D01*
X162392142Y-110458380D02*
X162058809Y-109982190D01*
X161820714Y-110458380D02*
X161820714Y-109458380D01*
X162201666Y-109458380D01*
X162296904Y-109506000D01*
X162344523Y-109553619D01*
X162392142Y-109648857D01*
X162392142Y-109791714D01*
X162344523Y-109886952D01*
X162296904Y-109934571D01*
X162201666Y-109982190D01*
X161820714Y-109982190D01*
X163344523Y-110458380D02*
X162773095Y-110458380D01*
X163058809Y-110458380D02*
X163058809Y-109458380D01*
X162963571Y-109601238D01*
X162868333Y-109696476D01*
X162773095Y-109744095D01*
X163915952Y-109886952D02*
X163820714Y-109839333D01*
X163773095Y-109791714D01*
X163725476Y-109696476D01*
X163725476Y-109648857D01*
X163773095Y-109553619D01*
X163820714Y-109506000D01*
X163915952Y-109458380D01*
X164106428Y-109458380D01*
X164201666Y-109506000D01*
X164249285Y-109553619D01*
X164296904Y-109648857D01*
X164296904Y-109696476D01*
X164249285Y-109791714D01*
X164201666Y-109839333D01*
X164106428Y-109886952D01*
X163915952Y-109886952D01*
X163820714Y-109934571D01*
X163773095Y-109982190D01*
X163725476Y-110077428D01*
X163725476Y-110267904D01*
X163773095Y-110363142D01*
X163820714Y-110410761D01*
X163915952Y-110458380D01*
X164106428Y-110458380D01*
X164201666Y-110410761D01*
X164249285Y-110363142D01*
X164296904Y-110267904D01*
X164296904Y-110077428D01*
X164249285Y-109982190D01*
X164201666Y-109934571D01*
X164106428Y-109886952D01*
%TO.C,R17*%
X161988333Y-100928380D02*
X162178809Y-100928380D01*
X162274047Y-100880761D01*
X162321666Y-100833142D01*
X162416904Y-100690285D01*
X162464523Y-100499809D01*
X162464523Y-100118857D01*
X162416904Y-100023619D01*
X162369285Y-99976000D01*
X162274047Y-99928380D01*
X162083571Y-99928380D01*
X161988333Y-99976000D01*
X161940714Y-100023619D01*
X161893095Y-100118857D01*
X161893095Y-100356952D01*
X161940714Y-100452190D01*
X161988333Y-100499809D01*
X162083571Y-100547428D01*
X162274047Y-100547428D01*
X162369285Y-100499809D01*
X162416904Y-100452190D01*
X162464523Y-100356952D01*
X163416904Y-100928380D02*
X162845476Y-100928380D01*
X163131190Y-100928380D02*
X163131190Y-99928380D01*
X163035952Y-100071238D01*
X162940714Y-100166476D01*
X162845476Y-100214095D01*
X163845476Y-100928380D02*
X163845476Y-99928380D01*
X164416904Y-100928380D02*
X163988333Y-100356952D01*
X164416904Y-99928380D02*
X163845476Y-100499809D01*
X162512142Y-103468380D02*
X162178809Y-102992190D01*
X161940714Y-103468380D02*
X161940714Y-102468380D01*
X162321666Y-102468380D01*
X162416904Y-102516000D01*
X162464523Y-102563619D01*
X162512142Y-102658857D01*
X162512142Y-102801714D01*
X162464523Y-102896952D01*
X162416904Y-102944571D01*
X162321666Y-102992190D01*
X161940714Y-102992190D01*
X163464523Y-103468380D02*
X162893095Y-103468380D01*
X163178809Y-103468380D02*
X163178809Y-102468380D01*
X163083571Y-102611238D01*
X162988333Y-102706476D01*
X162893095Y-102754095D01*
X163797857Y-102468380D02*
X164464523Y-102468380D01*
X164035952Y-103468380D01*
%TO.C,R16*%
X161988333Y-93948380D02*
X161416904Y-93948380D01*
X161702619Y-93948380D02*
X161702619Y-92948380D01*
X161607380Y-93091238D01*
X161512142Y-93186476D01*
X161416904Y-93234095D01*
X162607380Y-92948380D02*
X162702619Y-92948380D01*
X162797857Y-92996000D01*
X162845476Y-93043619D01*
X162893095Y-93138857D01*
X162940714Y-93329333D01*
X162940714Y-93567428D01*
X162893095Y-93757904D01*
X162845476Y-93853142D01*
X162797857Y-93900761D01*
X162702619Y-93948380D01*
X162607380Y-93948380D01*
X162512142Y-93900761D01*
X162464523Y-93853142D01*
X162416904Y-93757904D01*
X162369285Y-93567428D01*
X162369285Y-93329333D01*
X162416904Y-93138857D01*
X162464523Y-93043619D01*
X162512142Y-92996000D01*
X162607380Y-92948380D01*
X163559761Y-92948380D02*
X163655000Y-92948380D01*
X163750238Y-92996000D01*
X163797857Y-93043619D01*
X163845476Y-93138857D01*
X163893095Y-93329333D01*
X163893095Y-93567428D01*
X163845476Y-93757904D01*
X163797857Y-93853142D01*
X163750238Y-93900761D01*
X163655000Y-93948380D01*
X163559761Y-93948380D01*
X163464523Y-93900761D01*
X163416904Y-93853142D01*
X163369285Y-93757904D01*
X163321666Y-93567428D01*
X163321666Y-93329333D01*
X163369285Y-93138857D01*
X163416904Y-93043619D01*
X163464523Y-92996000D01*
X163559761Y-92948380D01*
X164321666Y-93948380D02*
X164321666Y-92948380D01*
X164893095Y-93948380D02*
X164464523Y-93376952D01*
X164893095Y-92948380D02*
X164321666Y-93519809D01*
X162512142Y-96488380D02*
X162178809Y-96012190D01*
X161940714Y-96488380D02*
X161940714Y-95488380D01*
X162321666Y-95488380D01*
X162416904Y-95536000D01*
X162464523Y-95583619D01*
X162512142Y-95678857D01*
X162512142Y-95821714D01*
X162464523Y-95916952D01*
X162416904Y-95964571D01*
X162321666Y-96012190D01*
X161940714Y-96012190D01*
X163464523Y-96488380D02*
X162893095Y-96488380D01*
X163178809Y-96488380D02*
X163178809Y-95488380D01*
X163083571Y-95631238D01*
X162988333Y-95726476D01*
X162893095Y-95774095D01*
X164321666Y-95488380D02*
X164131190Y-95488380D01*
X164035952Y-95536000D01*
X163988333Y-95583619D01*
X163893095Y-95726476D01*
X163845476Y-95916952D01*
X163845476Y-96297904D01*
X163893095Y-96393142D01*
X163940714Y-96440761D01*
X164035952Y-96488380D01*
X164226428Y-96488380D01*
X164321666Y-96440761D01*
X164369285Y-96393142D01*
X164416904Y-96297904D01*
X164416904Y-96059809D01*
X164369285Y-95964571D01*
X164321666Y-95916952D01*
X164226428Y-95869333D01*
X164035952Y-95869333D01*
X163940714Y-95916952D01*
X163893095Y-95964571D01*
X163845476Y-96059809D01*
%TO.C,R15*%
X162115333Y-86334380D02*
X162305809Y-86334380D01*
X162401047Y-86286761D01*
X162448666Y-86239142D01*
X162543904Y-86096285D01*
X162591523Y-85905809D01*
X162591523Y-85524857D01*
X162543904Y-85429619D01*
X162496285Y-85382000D01*
X162401047Y-85334380D01*
X162210571Y-85334380D01*
X162115333Y-85382000D01*
X162067714Y-85429619D01*
X162020095Y-85524857D01*
X162020095Y-85762952D01*
X162067714Y-85858190D01*
X162115333Y-85905809D01*
X162210571Y-85953428D01*
X162401047Y-85953428D01*
X162496285Y-85905809D01*
X162543904Y-85858190D01*
X162591523Y-85762952D01*
X163543904Y-86334380D02*
X162972476Y-86334380D01*
X163258190Y-86334380D02*
X163258190Y-85334380D01*
X163162952Y-85477238D01*
X163067714Y-85572476D01*
X162972476Y-85620095D01*
X163972476Y-86334380D02*
X163972476Y-85334380D01*
X164543904Y-86334380D02*
X164115333Y-85762952D01*
X164543904Y-85334380D02*
X163972476Y-85905809D01*
X162639142Y-88874380D02*
X162305809Y-88398190D01*
X162067714Y-88874380D02*
X162067714Y-87874380D01*
X162448666Y-87874380D01*
X162543904Y-87922000D01*
X162591523Y-87969619D01*
X162639142Y-88064857D01*
X162639142Y-88207714D01*
X162591523Y-88302952D01*
X162543904Y-88350571D01*
X162448666Y-88398190D01*
X162067714Y-88398190D01*
X163591523Y-88874380D02*
X163020095Y-88874380D01*
X163305809Y-88874380D02*
X163305809Y-87874380D01*
X163210571Y-88017238D01*
X163115333Y-88112476D01*
X163020095Y-88160095D01*
X164496285Y-87874380D02*
X164020095Y-87874380D01*
X163972476Y-88350571D01*
X164020095Y-88302952D01*
X164115333Y-88255333D01*
X164353428Y-88255333D01*
X164448666Y-88302952D01*
X164496285Y-88350571D01*
X164543904Y-88445809D01*
X164543904Y-88683904D01*
X164496285Y-88779142D01*
X164448666Y-88826761D01*
X164353428Y-88874380D01*
X164115333Y-88874380D01*
X164020095Y-88826761D01*
X163972476Y-88779142D01*
%TO.C,R14*%
X162273333Y-79272380D02*
X161701904Y-79272380D01*
X161987619Y-79272380D02*
X161987619Y-78272380D01*
X161892380Y-78415238D01*
X161797142Y-78510476D01*
X161701904Y-78558095D01*
X162892380Y-78272380D02*
X162987619Y-78272380D01*
X163082857Y-78320000D01*
X163130476Y-78367619D01*
X163178095Y-78462857D01*
X163225714Y-78653333D01*
X163225714Y-78891428D01*
X163178095Y-79081904D01*
X163130476Y-79177142D01*
X163082857Y-79224761D01*
X162987619Y-79272380D01*
X162892380Y-79272380D01*
X162797142Y-79224761D01*
X162749523Y-79177142D01*
X162701904Y-79081904D01*
X162654285Y-78891428D01*
X162654285Y-78653333D01*
X162701904Y-78462857D01*
X162749523Y-78367619D01*
X162797142Y-78320000D01*
X162892380Y-78272380D01*
X163844761Y-78272380D02*
X163940000Y-78272380D01*
X164035238Y-78320000D01*
X164082857Y-78367619D01*
X164130476Y-78462857D01*
X164178095Y-78653333D01*
X164178095Y-78891428D01*
X164130476Y-79081904D01*
X164082857Y-79177142D01*
X164035238Y-79224761D01*
X163940000Y-79272380D01*
X163844761Y-79272380D01*
X163749523Y-79224761D01*
X163701904Y-79177142D01*
X163654285Y-79081904D01*
X163606666Y-78891428D01*
X163606666Y-78653333D01*
X163654285Y-78462857D01*
X163701904Y-78367619D01*
X163749523Y-78320000D01*
X163844761Y-78272380D01*
X164606666Y-79272380D02*
X164606666Y-78272380D01*
X165178095Y-79272380D02*
X164749523Y-78700952D01*
X165178095Y-78272380D02*
X164606666Y-78843809D01*
X162797142Y-81812380D02*
X162463809Y-81336190D01*
X162225714Y-81812380D02*
X162225714Y-80812380D01*
X162606666Y-80812380D01*
X162701904Y-80860000D01*
X162749523Y-80907619D01*
X162797142Y-81002857D01*
X162797142Y-81145714D01*
X162749523Y-81240952D01*
X162701904Y-81288571D01*
X162606666Y-81336190D01*
X162225714Y-81336190D01*
X163749523Y-81812380D02*
X163178095Y-81812380D01*
X163463809Y-81812380D02*
X163463809Y-80812380D01*
X163368571Y-80955238D01*
X163273333Y-81050476D01*
X163178095Y-81098095D01*
X164606666Y-81145714D02*
X164606666Y-81812380D01*
X164368571Y-80764761D02*
X164130476Y-81479047D01*
X164749523Y-81479047D01*
%TO.C,R13*%
X162217333Y-71838380D02*
X162407809Y-71838380D01*
X162503047Y-71790761D01*
X162550666Y-71743142D01*
X162645904Y-71600285D01*
X162693523Y-71409809D01*
X162693523Y-71028857D01*
X162645904Y-70933619D01*
X162598285Y-70886000D01*
X162503047Y-70838380D01*
X162312571Y-70838380D01*
X162217333Y-70886000D01*
X162169714Y-70933619D01*
X162122095Y-71028857D01*
X162122095Y-71266952D01*
X162169714Y-71362190D01*
X162217333Y-71409809D01*
X162312571Y-71457428D01*
X162503047Y-71457428D01*
X162598285Y-71409809D01*
X162645904Y-71362190D01*
X162693523Y-71266952D01*
X163645904Y-71838380D02*
X163074476Y-71838380D01*
X163360190Y-71838380D02*
X163360190Y-70838380D01*
X163264952Y-70981238D01*
X163169714Y-71076476D01*
X163074476Y-71124095D01*
X164074476Y-71838380D02*
X164074476Y-70838380D01*
X164645904Y-71838380D02*
X164217333Y-71266952D01*
X164645904Y-70838380D02*
X164074476Y-71409809D01*
X162741142Y-74378380D02*
X162407809Y-73902190D01*
X162169714Y-74378380D02*
X162169714Y-73378380D01*
X162550666Y-73378380D01*
X162645904Y-73426000D01*
X162693523Y-73473619D01*
X162741142Y-73568857D01*
X162741142Y-73711714D01*
X162693523Y-73806952D01*
X162645904Y-73854571D01*
X162550666Y-73902190D01*
X162169714Y-73902190D01*
X163693523Y-74378380D02*
X163122095Y-74378380D01*
X163407809Y-74378380D02*
X163407809Y-73378380D01*
X163312571Y-73521238D01*
X163217333Y-73616476D01*
X163122095Y-73664095D01*
X164026857Y-73378380D02*
X164645904Y-73378380D01*
X164312571Y-73759333D01*
X164455428Y-73759333D01*
X164550666Y-73806952D01*
X164598285Y-73854571D01*
X164645904Y-73949809D01*
X164645904Y-74187904D01*
X164598285Y-74283142D01*
X164550666Y-74330761D01*
X164455428Y-74378380D01*
X164169714Y-74378380D01*
X164074476Y-74330761D01*
X164026857Y-74283142D01*
%TO.C,R12*%
X162273333Y-64042380D02*
X161701904Y-64042380D01*
X161987619Y-64042380D02*
X161987619Y-63042380D01*
X161892380Y-63185238D01*
X161797142Y-63280476D01*
X161701904Y-63328095D01*
X162892380Y-63042380D02*
X162987619Y-63042380D01*
X163082857Y-63090000D01*
X163130476Y-63137619D01*
X163178095Y-63232857D01*
X163225714Y-63423333D01*
X163225714Y-63661428D01*
X163178095Y-63851904D01*
X163130476Y-63947142D01*
X163082857Y-63994761D01*
X162987619Y-64042380D01*
X162892380Y-64042380D01*
X162797142Y-63994761D01*
X162749523Y-63947142D01*
X162701904Y-63851904D01*
X162654285Y-63661428D01*
X162654285Y-63423333D01*
X162701904Y-63232857D01*
X162749523Y-63137619D01*
X162797142Y-63090000D01*
X162892380Y-63042380D01*
X163844761Y-63042380D02*
X163940000Y-63042380D01*
X164035238Y-63090000D01*
X164082857Y-63137619D01*
X164130476Y-63232857D01*
X164178095Y-63423333D01*
X164178095Y-63661428D01*
X164130476Y-63851904D01*
X164082857Y-63947142D01*
X164035238Y-63994761D01*
X163940000Y-64042380D01*
X163844761Y-64042380D01*
X163749523Y-63994761D01*
X163701904Y-63947142D01*
X163654285Y-63851904D01*
X163606666Y-63661428D01*
X163606666Y-63423333D01*
X163654285Y-63232857D01*
X163701904Y-63137619D01*
X163749523Y-63090000D01*
X163844761Y-63042380D01*
X164606666Y-64042380D02*
X164606666Y-63042380D01*
X165178095Y-64042380D02*
X164749523Y-63470952D01*
X165178095Y-63042380D02*
X164606666Y-63613809D01*
X162797142Y-66582380D02*
X162463809Y-66106190D01*
X162225714Y-66582380D02*
X162225714Y-65582380D01*
X162606666Y-65582380D01*
X162701904Y-65630000D01*
X162749523Y-65677619D01*
X162797142Y-65772857D01*
X162797142Y-65915714D01*
X162749523Y-66010952D01*
X162701904Y-66058571D01*
X162606666Y-66106190D01*
X162225714Y-66106190D01*
X163749523Y-66582380D02*
X163178095Y-66582380D01*
X163463809Y-66582380D02*
X163463809Y-65582380D01*
X163368571Y-65725238D01*
X163273333Y-65820476D01*
X163178095Y-65868095D01*
X164130476Y-65677619D02*
X164178095Y-65630000D01*
X164273333Y-65582380D01*
X164511428Y-65582380D01*
X164606666Y-65630000D01*
X164654285Y-65677619D01*
X164701904Y-65772857D01*
X164701904Y-65868095D01*
X164654285Y-66010952D01*
X164082857Y-66582380D01*
X164701904Y-66582380D01*
%TO.C,R11*%
X162423333Y-56472380D02*
X162613809Y-56472380D01*
X162709047Y-56424761D01*
X162756666Y-56377142D01*
X162851904Y-56234285D01*
X162899523Y-56043809D01*
X162899523Y-55662857D01*
X162851904Y-55567619D01*
X162804285Y-55520000D01*
X162709047Y-55472380D01*
X162518571Y-55472380D01*
X162423333Y-55520000D01*
X162375714Y-55567619D01*
X162328095Y-55662857D01*
X162328095Y-55900952D01*
X162375714Y-55996190D01*
X162423333Y-56043809D01*
X162518571Y-56091428D01*
X162709047Y-56091428D01*
X162804285Y-56043809D01*
X162851904Y-55996190D01*
X162899523Y-55900952D01*
X163851904Y-56472380D02*
X163280476Y-56472380D01*
X163566190Y-56472380D02*
X163566190Y-55472380D01*
X163470952Y-55615238D01*
X163375714Y-55710476D01*
X163280476Y-55758095D01*
X164280476Y-56472380D02*
X164280476Y-55472380D01*
X164851904Y-56472380D02*
X164423333Y-55900952D01*
X164851904Y-55472380D02*
X164280476Y-56043809D01*
X162947142Y-59012380D02*
X162613809Y-58536190D01*
X162375714Y-59012380D02*
X162375714Y-58012380D01*
X162756666Y-58012380D01*
X162851904Y-58060000D01*
X162899523Y-58107619D01*
X162947142Y-58202857D01*
X162947142Y-58345714D01*
X162899523Y-58440952D01*
X162851904Y-58488571D01*
X162756666Y-58536190D01*
X162375714Y-58536190D01*
X163899523Y-59012380D02*
X163328095Y-59012380D01*
X163613809Y-59012380D02*
X163613809Y-58012380D01*
X163518571Y-58155238D01*
X163423333Y-58250476D01*
X163328095Y-58298095D01*
X164851904Y-59012380D02*
X164280476Y-59012380D01*
X164566190Y-59012380D02*
X164566190Y-58012380D01*
X164470952Y-58155238D01*
X164375714Y-58250476D01*
X164280476Y-58298095D01*
%TO.C,R10*%
X111539523Y-122422380D02*
X110968095Y-122422380D01*
X111253809Y-122422380D02*
X111253809Y-121422380D01*
X111158571Y-121565238D01*
X111063333Y-121660476D01*
X110968095Y-121708095D01*
X111968095Y-122422380D02*
X111968095Y-121422380D01*
X112539523Y-122422380D02*
X112110952Y-121850952D01*
X112539523Y-121422380D02*
X111968095Y-121993809D01*
X113110952Y-121850952D02*
X113015714Y-121803333D01*
X112968095Y-121755714D01*
X112920476Y-121660476D01*
X112920476Y-121612857D01*
X112968095Y-121517619D01*
X113015714Y-121470000D01*
X113110952Y-121422380D01*
X113301428Y-121422380D01*
X113396666Y-121470000D01*
X113444285Y-121517619D01*
X113491904Y-121612857D01*
X113491904Y-121660476D01*
X113444285Y-121755714D01*
X113396666Y-121803333D01*
X113301428Y-121850952D01*
X113110952Y-121850952D01*
X113015714Y-121898571D01*
X112968095Y-121946190D01*
X112920476Y-122041428D01*
X112920476Y-122231904D01*
X112968095Y-122327142D01*
X113015714Y-122374761D01*
X113110952Y-122422380D01*
X113301428Y-122422380D01*
X113396666Y-122374761D01*
X113444285Y-122327142D01*
X113491904Y-122231904D01*
X113491904Y-122041428D01*
X113444285Y-121946190D01*
X113396666Y-121898571D01*
X113301428Y-121850952D01*
X111587142Y-124962380D02*
X111253809Y-124486190D01*
X111015714Y-124962380D02*
X111015714Y-123962380D01*
X111396666Y-123962380D01*
X111491904Y-124010000D01*
X111539523Y-124057619D01*
X111587142Y-124152857D01*
X111587142Y-124295714D01*
X111539523Y-124390952D01*
X111491904Y-124438571D01*
X111396666Y-124486190D01*
X111015714Y-124486190D01*
X112539523Y-124962380D02*
X111968095Y-124962380D01*
X112253809Y-124962380D02*
X112253809Y-123962380D01*
X112158571Y-124105238D01*
X112063333Y-124200476D01*
X111968095Y-124248095D01*
X113158571Y-123962380D02*
X113253809Y-123962380D01*
X113349047Y-124010000D01*
X113396666Y-124057619D01*
X113444285Y-124152857D01*
X113491904Y-124343333D01*
X113491904Y-124581428D01*
X113444285Y-124771904D01*
X113396666Y-124867142D01*
X113349047Y-124914761D01*
X113253809Y-124962380D01*
X113158571Y-124962380D01*
X113063333Y-124914761D01*
X113015714Y-124867142D01*
X112968095Y-124771904D01*
X112920476Y-124581428D01*
X112920476Y-124343333D01*
X112968095Y-124152857D01*
X113015714Y-124057619D01*
X113063333Y-124010000D01*
X113158571Y-123962380D01*
%TO.C,R9*%
X111143333Y-115672380D02*
X110571904Y-115672380D01*
X110857619Y-115672380D02*
X110857619Y-114672380D01*
X110762380Y-114815238D01*
X110667142Y-114910476D01*
X110571904Y-114958095D01*
X111762380Y-114672380D02*
X111857619Y-114672380D01*
X111952857Y-114720000D01*
X112000476Y-114767619D01*
X112048095Y-114862857D01*
X112095714Y-115053333D01*
X112095714Y-115291428D01*
X112048095Y-115481904D01*
X112000476Y-115577142D01*
X111952857Y-115624761D01*
X111857619Y-115672380D01*
X111762380Y-115672380D01*
X111667142Y-115624761D01*
X111619523Y-115577142D01*
X111571904Y-115481904D01*
X111524285Y-115291428D01*
X111524285Y-115053333D01*
X111571904Y-114862857D01*
X111619523Y-114767619D01*
X111667142Y-114720000D01*
X111762380Y-114672380D01*
X112714761Y-114672380D02*
X112810000Y-114672380D01*
X112905238Y-114720000D01*
X112952857Y-114767619D01*
X113000476Y-114862857D01*
X113048095Y-115053333D01*
X113048095Y-115291428D01*
X113000476Y-115481904D01*
X112952857Y-115577142D01*
X112905238Y-115624761D01*
X112810000Y-115672380D01*
X112714761Y-115672380D01*
X112619523Y-115624761D01*
X112571904Y-115577142D01*
X112524285Y-115481904D01*
X112476666Y-115291428D01*
X112476666Y-115053333D01*
X112524285Y-114862857D01*
X112571904Y-114767619D01*
X112619523Y-114720000D01*
X112714761Y-114672380D01*
X113476666Y-115672380D02*
X113476666Y-114672380D01*
X114048095Y-115672380D02*
X113619523Y-115100952D01*
X114048095Y-114672380D02*
X113476666Y-115243809D01*
X112143333Y-118212380D02*
X111810000Y-117736190D01*
X111571904Y-118212380D02*
X111571904Y-117212380D01*
X111952857Y-117212380D01*
X112048095Y-117260000D01*
X112095714Y-117307619D01*
X112143333Y-117402857D01*
X112143333Y-117545714D01*
X112095714Y-117640952D01*
X112048095Y-117688571D01*
X111952857Y-117736190D01*
X111571904Y-117736190D01*
X112619523Y-118212380D02*
X112810000Y-118212380D01*
X112905238Y-118164761D01*
X112952857Y-118117142D01*
X113048095Y-117974285D01*
X113095714Y-117783809D01*
X113095714Y-117402857D01*
X113048095Y-117307619D01*
X113000476Y-117260000D01*
X112905238Y-117212380D01*
X112714761Y-117212380D01*
X112619523Y-117260000D01*
X112571904Y-117307619D01*
X112524285Y-117402857D01*
X112524285Y-117640952D01*
X112571904Y-117736190D01*
X112619523Y-117783809D01*
X112714761Y-117831428D01*
X112905238Y-117831428D01*
X113000476Y-117783809D01*
X113048095Y-117736190D01*
X113095714Y-117640952D01*
%TO.C,R8*%
X111143333Y-108832380D02*
X110571904Y-108832380D01*
X110857619Y-108832380D02*
X110857619Y-107832380D01*
X110762380Y-107975238D01*
X110667142Y-108070476D01*
X110571904Y-108118095D01*
X111762380Y-107832380D02*
X111857619Y-107832380D01*
X111952857Y-107880000D01*
X112000476Y-107927619D01*
X112048095Y-108022857D01*
X112095714Y-108213333D01*
X112095714Y-108451428D01*
X112048095Y-108641904D01*
X112000476Y-108737142D01*
X111952857Y-108784761D01*
X111857619Y-108832380D01*
X111762380Y-108832380D01*
X111667142Y-108784761D01*
X111619523Y-108737142D01*
X111571904Y-108641904D01*
X111524285Y-108451428D01*
X111524285Y-108213333D01*
X111571904Y-108022857D01*
X111619523Y-107927619D01*
X111667142Y-107880000D01*
X111762380Y-107832380D01*
X112714761Y-107832380D02*
X112810000Y-107832380D01*
X112905238Y-107880000D01*
X112952857Y-107927619D01*
X113000476Y-108022857D01*
X113048095Y-108213333D01*
X113048095Y-108451428D01*
X113000476Y-108641904D01*
X112952857Y-108737142D01*
X112905238Y-108784761D01*
X112810000Y-108832380D01*
X112714761Y-108832380D01*
X112619523Y-108784761D01*
X112571904Y-108737142D01*
X112524285Y-108641904D01*
X112476666Y-108451428D01*
X112476666Y-108213333D01*
X112524285Y-108022857D01*
X112571904Y-107927619D01*
X112619523Y-107880000D01*
X112714761Y-107832380D01*
X113476666Y-108832380D02*
X113476666Y-107832380D01*
X114048095Y-108832380D02*
X113619523Y-108260952D01*
X114048095Y-107832380D02*
X113476666Y-108403809D01*
X112143333Y-111372380D02*
X111810000Y-110896190D01*
X111571904Y-111372380D02*
X111571904Y-110372380D01*
X111952857Y-110372380D01*
X112048095Y-110420000D01*
X112095714Y-110467619D01*
X112143333Y-110562857D01*
X112143333Y-110705714D01*
X112095714Y-110800952D01*
X112048095Y-110848571D01*
X111952857Y-110896190D01*
X111571904Y-110896190D01*
X112714761Y-110800952D02*
X112619523Y-110753333D01*
X112571904Y-110705714D01*
X112524285Y-110610476D01*
X112524285Y-110562857D01*
X112571904Y-110467619D01*
X112619523Y-110420000D01*
X112714761Y-110372380D01*
X112905238Y-110372380D01*
X113000476Y-110420000D01*
X113048095Y-110467619D01*
X113095714Y-110562857D01*
X113095714Y-110610476D01*
X113048095Y-110705714D01*
X113000476Y-110753333D01*
X112905238Y-110800952D01*
X112714761Y-110800952D01*
X112619523Y-110848571D01*
X112571904Y-110896190D01*
X112524285Y-110991428D01*
X112524285Y-111181904D01*
X112571904Y-111277142D01*
X112619523Y-111324761D01*
X112714761Y-111372380D01*
X112905238Y-111372380D01*
X113000476Y-111324761D01*
X113048095Y-111277142D01*
X113095714Y-111181904D01*
X113095714Y-110991428D01*
X113048095Y-110896190D01*
X113000476Y-110848571D01*
X112905238Y-110800952D01*
%TO.C,R7*%
X111641904Y-100732380D02*
X111165714Y-100732380D01*
X111118095Y-101208571D01*
X111165714Y-101160952D01*
X111260952Y-101113333D01*
X111499047Y-101113333D01*
X111594285Y-101160952D01*
X111641904Y-101208571D01*
X111689523Y-101303809D01*
X111689523Y-101541904D01*
X111641904Y-101637142D01*
X111594285Y-101684761D01*
X111499047Y-101732380D01*
X111260952Y-101732380D01*
X111165714Y-101684761D01*
X111118095Y-101637142D01*
X112308571Y-100732380D02*
X112403809Y-100732380D01*
X112499047Y-100780000D01*
X112546666Y-100827619D01*
X112594285Y-100922857D01*
X112641904Y-101113333D01*
X112641904Y-101351428D01*
X112594285Y-101541904D01*
X112546666Y-101637142D01*
X112499047Y-101684761D01*
X112403809Y-101732380D01*
X112308571Y-101732380D01*
X112213333Y-101684761D01*
X112165714Y-101637142D01*
X112118095Y-101541904D01*
X112070476Y-101351428D01*
X112070476Y-101113333D01*
X112118095Y-100922857D01*
X112165714Y-100827619D01*
X112213333Y-100780000D01*
X112308571Y-100732380D01*
X113070476Y-101732380D02*
X113070476Y-100732380D01*
X113641904Y-101732380D02*
X113213333Y-101160952D01*
X113641904Y-100732380D02*
X113070476Y-101303809D01*
X112213333Y-104272380D02*
X111880000Y-103796190D01*
X111641904Y-104272380D02*
X111641904Y-103272380D01*
X112022857Y-103272380D01*
X112118095Y-103320000D01*
X112165714Y-103367619D01*
X112213333Y-103462857D01*
X112213333Y-103605714D01*
X112165714Y-103700952D01*
X112118095Y-103748571D01*
X112022857Y-103796190D01*
X111641904Y-103796190D01*
X112546666Y-103272380D02*
X113213333Y-103272380D01*
X112784761Y-104272380D01*
%TO.C,R6*%
X110641904Y-93697619D02*
X110689523Y-93650000D01*
X110784761Y-93602380D01*
X111022857Y-93602380D01*
X111118095Y-93650000D01*
X111165714Y-93697619D01*
X111213333Y-93792857D01*
X111213333Y-93888095D01*
X111165714Y-94030952D01*
X110594285Y-94602380D01*
X111213333Y-94602380D01*
X111594285Y-93697619D02*
X111641904Y-93650000D01*
X111737142Y-93602380D01*
X111975238Y-93602380D01*
X112070476Y-93650000D01*
X112118095Y-93697619D01*
X112165714Y-93792857D01*
X112165714Y-93888095D01*
X112118095Y-94030952D01*
X111546666Y-94602380D01*
X112165714Y-94602380D01*
X112784761Y-93602380D02*
X112880000Y-93602380D01*
X112975238Y-93650000D01*
X113022857Y-93697619D01*
X113070476Y-93792857D01*
X113118095Y-93983333D01*
X113118095Y-94221428D01*
X113070476Y-94411904D01*
X113022857Y-94507142D01*
X112975238Y-94554761D01*
X112880000Y-94602380D01*
X112784761Y-94602380D01*
X112689523Y-94554761D01*
X112641904Y-94507142D01*
X112594285Y-94411904D01*
X112546666Y-94221428D01*
X112546666Y-93983333D01*
X112594285Y-93792857D01*
X112641904Y-93697619D01*
X112689523Y-93650000D01*
X112784761Y-93602380D01*
X113546666Y-94602380D02*
X113546666Y-93602380D01*
X114118095Y-94602380D02*
X113689523Y-94030952D01*
X114118095Y-93602380D02*
X113546666Y-94173809D01*
X112213333Y-97142380D02*
X111880000Y-96666190D01*
X111641904Y-97142380D02*
X111641904Y-96142380D01*
X112022857Y-96142380D01*
X112118095Y-96190000D01*
X112165714Y-96237619D01*
X112213333Y-96332857D01*
X112213333Y-96475714D01*
X112165714Y-96570952D01*
X112118095Y-96618571D01*
X112022857Y-96666190D01*
X111641904Y-96666190D01*
X113070476Y-96142380D02*
X112880000Y-96142380D01*
X112784761Y-96190000D01*
X112737142Y-96237619D01*
X112641904Y-96380476D01*
X112594285Y-96570952D01*
X112594285Y-96951904D01*
X112641904Y-97047142D01*
X112689523Y-97094761D01*
X112784761Y-97142380D01*
X112975238Y-97142380D01*
X113070476Y-97094761D01*
X113118095Y-97047142D01*
X113165714Y-96951904D01*
X113165714Y-96713809D01*
X113118095Y-96618571D01*
X113070476Y-96570952D01*
X112975238Y-96523333D01*
X112784761Y-96523333D01*
X112689523Y-96570952D01*
X112641904Y-96618571D01*
X112594285Y-96713809D01*
%TO.C,R5*%
X110711904Y-86427619D02*
X110759523Y-86380000D01*
X110854761Y-86332380D01*
X111092857Y-86332380D01*
X111188095Y-86380000D01*
X111235714Y-86427619D01*
X111283333Y-86522857D01*
X111283333Y-86618095D01*
X111235714Y-86760952D01*
X110664285Y-87332380D01*
X111283333Y-87332380D01*
X111664285Y-86427619D02*
X111711904Y-86380000D01*
X111807142Y-86332380D01*
X112045238Y-86332380D01*
X112140476Y-86380000D01*
X112188095Y-86427619D01*
X112235714Y-86522857D01*
X112235714Y-86618095D01*
X112188095Y-86760952D01*
X111616666Y-87332380D01*
X112235714Y-87332380D01*
X112854761Y-86332380D02*
X112950000Y-86332380D01*
X113045238Y-86380000D01*
X113092857Y-86427619D01*
X113140476Y-86522857D01*
X113188095Y-86713333D01*
X113188095Y-86951428D01*
X113140476Y-87141904D01*
X113092857Y-87237142D01*
X113045238Y-87284761D01*
X112950000Y-87332380D01*
X112854761Y-87332380D01*
X112759523Y-87284761D01*
X112711904Y-87237142D01*
X112664285Y-87141904D01*
X112616666Y-86951428D01*
X112616666Y-86713333D01*
X112664285Y-86522857D01*
X112711904Y-86427619D01*
X112759523Y-86380000D01*
X112854761Y-86332380D01*
X113616666Y-87332380D02*
X113616666Y-86332380D01*
X114188095Y-87332380D02*
X113759523Y-86760952D01*
X114188095Y-86332380D02*
X113616666Y-86903809D01*
X112283333Y-89872380D02*
X111950000Y-89396190D01*
X111711904Y-89872380D02*
X111711904Y-88872380D01*
X112092857Y-88872380D01*
X112188095Y-88920000D01*
X112235714Y-88967619D01*
X112283333Y-89062857D01*
X112283333Y-89205714D01*
X112235714Y-89300952D01*
X112188095Y-89348571D01*
X112092857Y-89396190D01*
X111711904Y-89396190D01*
X113188095Y-88872380D02*
X112711904Y-88872380D01*
X112664285Y-89348571D01*
X112711904Y-89300952D01*
X112807142Y-89253333D01*
X113045238Y-89253333D01*
X113140476Y-89300952D01*
X113188095Y-89348571D01*
X113235714Y-89443809D01*
X113235714Y-89681904D01*
X113188095Y-89777142D01*
X113140476Y-89824761D01*
X113045238Y-89872380D01*
X112807142Y-89872380D01*
X112711904Y-89824761D01*
X112664285Y-89777142D01*
%TO.C,R4*%
X110721904Y-79227619D02*
X110769523Y-79180000D01*
X110864761Y-79132380D01*
X111102857Y-79132380D01*
X111198095Y-79180000D01*
X111245714Y-79227619D01*
X111293333Y-79322857D01*
X111293333Y-79418095D01*
X111245714Y-79560952D01*
X110674285Y-80132380D01*
X111293333Y-80132380D01*
X111674285Y-79227619D02*
X111721904Y-79180000D01*
X111817142Y-79132380D01*
X112055238Y-79132380D01*
X112150476Y-79180000D01*
X112198095Y-79227619D01*
X112245714Y-79322857D01*
X112245714Y-79418095D01*
X112198095Y-79560952D01*
X111626666Y-80132380D01*
X112245714Y-80132380D01*
X112864761Y-79132380D02*
X112960000Y-79132380D01*
X113055238Y-79180000D01*
X113102857Y-79227619D01*
X113150476Y-79322857D01*
X113198095Y-79513333D01*
X113198095Y-79751428D01*
X113150476Y-79941904D01*
X113102857Y-80037142D01*
X113055238Y-80084761D01*
X112960000Y-80132380D01*
X112864761Y-80132380D01*
X112769523Y-80084761D01*
X112721904Y-80037142D01*
X112674285Y-79941904D01*
X112626666Y-79751428D01*
X112626666Y-79513333D01*
X112674285Y-79322857D01*
X112721904Y-79227619D01*
X112769523Y-79180000D01*
X112864761Y-79132380D01*
X113626666Y-80132380D02*
X113626666Y-79132380D01*
X114198095Y-80132380D02*
X113769523Y-79560952D01*
X114198095Y-79132380D02*
X113626666Y-79703809D01*
X112293333Y-82672380D02*
X111960000Y-82196190D01*
X111721904Y-82672380D02*
X111721904Y-81672380D01*
X112102857Y-81672380D01*
X112198095Y-81720000D01*
X112245714Y-81767619D01*
X112293333Y-81862857D01*
X112293333Y-82005714D01*
X112245714Y-82100952D01*
X112198095Y-82148571D01*
X112102857Y-82196190D01*
X111721904Y-82196190D01*
X113150476Y-82005714D02*
X113150476Y-82672380D01*
X112912380Y-81624761D02*
X112674285Y-82339047D01*
X113293333Y-82339047D01*
%TO.C,R3*%
X111711904Y-71712380D02*
X111235714Y-71712380D01*
X111188095Y-72188571D01*
X111235714Y-72140952D01*
X111330952Y-72093333D01*
X111569047Y-72093333D01*
X111664285Y-72140952D01*
X111711904Y-72188571D01*
X111759523Y-72283809D01*
X111759523Y-72521904D01*
X111711904Y-72617142D01*
X111664285Y-72664761D01*
X111569047Y-72712380D01*
X111330952Y-72712380D01*
X111235714Y-72664761D01*
X111188095Y-72617142D01*
X112378571Y-71712380D02*
X112473809Y-71712380D01*
X112569047Y-71760000D01*
X112616666Y-71807619D01*
X112664285Y-71902857D01*
X112711904Y-72093333D01*
X112711904Y-72331428D01*
X112664285Y-72521904D01*
X112616666Y-72617142D01*
X112569047Y-72664761D01*
X112473809Y-72712380D01*
X112378571Y-72712380D01*
X112283333Y-72664761D01*
X112235714Y-72617142D01*
X112188095Y-72521904D01*
X112140476Y-72331428D01*
X112140476Y-72093333D01*
X112188095Y-71902857D01*
X112235714Y-71807619D01*
X112283333Y-71760000D01*
X112378571Y-71712380D01*
X113140476Y-72712380D02*
X113140476Y-71712380D01*
X113711904Y-72712380D02*
X113283333Y-72140952D01*
X113711904Y-71712380D02*
X113140476Y-72283809D01*
X112283333Y-75252380D02*
X111950000Y-74776190D01*
X111711904Y-75252380D02*
X111711904Y-74252380D01*
X112092857Y-74252380D01*
X112188095Y-74300000D01*
X112235714Y-74347619D01*
X112283333Y-74442857D01*
X112283333Y-74585714D01*
X112235714Y-74680952D01*
X112188095Y-74728571D01*
X112092857Y-74776190D01*
X111711904Y-74776190D01*
X112616666Y-74252380D02*
X113235714Y-74252380D01*
X112902380Y-74633333D01*
X113045238Y-74633333D01*
X113140476Y-74680952D01*
X113188095Y-74728571D01*
X113235714Y-74823809D01*
X113235714Y-75061904D01*
X113188095Y-75157142D01*
X113140476Y-75204761D01*
X113045238Y-75252380D01*
X112759523Y-75252380D01*
X112664285Y-75204761D01*
X112616666Y-75157142D01*
%TO.C,R2*%
X111178476Y-64090380D02*
X111845142Y-64090380D01*
X111416571Y-65090380D01*
X112178476Y-64185619D02*
X112226095Y-64138000D01*
X112321333Y-64090380D01*
X112559428Y-64090380D01*
X112654666Y-64138000D01*
X112702285Y-64185619D01*
X112749904Y-64280857D01*
X112749904Y-64376095D01*
X112702285Y-64518952D01*
X112130857Y-65090380D01*
X112749904Y-65090380D01*
X113178476Y-65090380D02*
X113178476Y-64090380D01*
X113749904Y-65090380D02*
X113321333Y-64518952D01*
X113749904Y-64090380D02*
X113178476Y-64661809D01*
X112321333Y-67630380D02*
X111988000Y-67154190D01*
X111749904Y-67630380D02*
X111749904Y-66630380D01*
X112130857Y-66630380D01*
X112226095Y-66678000D01*
X112273714Y-66725619D01*
X112321333Y-66820857D01*
X112321333Y-66963714D01*
X112273714Y-67058952D01*
X112226095Y-67106571D01*
X112130857Y-67154190D01*
X111749904Y-67154190D01*
X112702285Y-66725619D02*
X112749904Y-66678000D01*
X112845142Y-66630380D01*
X113083238Y-66630380D01*
X113178476Y-66678000D01*
X113226095Y-66725619D01*
X113273714Y-66820857D01*
X113273714Y-66916095D01*
X113226095Y-67058952D01*
X112654666Y-67630380D01*
X113273714Y-67630380D01*
%TO.C,R1*%
X110674285Y-56402380D02*
X111293333Y-56402380D01*
X110960000Y-56783333D01*
X111102857Y-56783333D01*
X111198095Y-56830952D01*
X111245714Y-56878571D01*
X111293333Y-56973809D01*
X111293333Y-57211904D01*
X111245714Y-57307142D01*
X111198095Y-57354761D01*
X111102857Y-57402380D01*
X110817142Y-57402380D01*
X110721904Y-57354761D01*
X110674285Y-57307142D01*
X111626666Y-56402380D02*
X112245714Y-56402380D01*
X111912380Y-56783333D01*
X112055238Y-56783333D01*
X112150476Y-56830952D01*
X112198095Y-56878571D01*
X112245714Y-56973809D01*
X112245714Y-57211904D01*
X112198095Y-57307142D01*
X112150476Y-57354761D01*
X112055238Y-57402380D01*
X111769523Y-57402380D01*
X111674285Y-57354761D01*
X111626666Y-57307142D01*
X112864761Y-56402380D02*
X112960000Y-56402380D01*
X113055238Y-56450000D01*
X113102857Y-56497619D01*
X113150476Y-56592857D01*
X113198095Y-56783333D01*
X113198095Y-57021428D01*
X113150476Y-57211904D01*
X113102857Y-57307142D01*
X113055238Y-57354761D01*
X112960000Y-57402380D01*
X112864761Y-57402380D01*
X112769523Y-57354761D01*
X112721904Y-57307142D01*
X112674285Y-57211904D01*
X112626666Y-57021428D01*
X112626666Y-56783333D01*
X112674285Y-56592857D01*
X112721904Y-56497619D01*
X112769523Y-56450000D01*
X112864761Y-56402380D01*
X114198095Y-57402380D02*
X113864761Y-56926190D01*
X113626666Y-57402380D02*
X113626666Y-56402380D01*
X114007619Y-56402380D01*
X114102857Y-56450000D01*
X114150476Y-56497619D01*
X114198095Y-56592857D01*
X114198095Y-56735714D01*
X114150476Y-56830952D01*
X114102857Y-56878571D01*
X114007619Y-56926190D01*
X113626666Y-56926190D01*
X112293333Y-59942380D02*
X111960000Y-59466190D01*
X111721904Y-59942380D02*
X111721904Y-58942380D01*
X112102857Y-58942380D01*
X112198095Y-58990000D01*
X112245714Y-59037619D01*
X112293333Y-59132857D01*
X112293333Y-59275714D01*
X112245714Y-59370952D01*
X112198095Y-59418571D01*
X112102857Y-59466190D01*
X111721904Y-59466190D01*
X113245714Y-59942380D02*
X112674285Y-59942380D01*
X112960000Y-59942380D02*
X112960000Y-58942380D01*
X112864761Y-59085238D01*
X112769523Y-59180476D01*
X112674285Y-59228095D01*
%TO.C,C5*%
X139063333Y-125277142D02*
X139015714Y-125324761D01*
X138872857Y-125372380D01*
X138777619Y-125372380D01*
X138634761Y-125324761D01*
X138539523Y-125229523D01*
X138491904Y-125134285D01*
X138444285Y-124943809D01*
X138444285Y-124800952D01*
X138491904Y-124610476D01*
X138539523Y-124515238D01*
X138634761Y-124420000D01*
X138777619Y-124372380D01*
X138872857Y-124372380D01*
X139015714Y-124420000D01*
X139063333Y-124467619D01*
X139968095Y-124372380D02*
X139491904Y-124372380D01*
X139444285Y-124848571D01*
X139491904Y-124800952D01*
X139587142Y-124753333D01*
X139825238Y-124753333D01*
X139920476Y-124800952D01*
X139968095Y-124848571D01*
X140015714Y-124943809D01*
X140015714Y-125181904D01*
X139968095Y-125277142D01*
X139920476Y-125324761D01*
X139825238Y-125372380D01*
X139587142Y-125372380D01*
X139491904Y-125324761D01*
X139444285Y-125277142D01*
%TO.C,C4*%
X156407333Y-139892380D02*
X157026380Y-139892380D01*
X156693047Y-140273333D01*
X156835904Y-140273333D01*
X156931142Y-140320952D01*
X156978761Y-140368571D01*
X157026380Y-140463809D01*
X157026380Y-140701904D01*
X156978761Y-140797142D01*
X156931142Y-140844761D01*
X156835904Y-140892380D01*
X156550190Y-140892380D01*
X156454952Y-140844761D01*
X156407333Y-140797142D01*
X157645428Y-139892380D02*
X157740666Y-139892380D01*
X157835904Y-139940000D01*
X157883523Y-139987619D01*
X157931142Y-140082857D01*
X157978761Y-140273333D01*
X157978761Y-140511428D01*
X157931142Y-140701904D01*
X157883523Y-140797142D01*
X157835904Y-140844761D01*
X157740666Y-140892380D01*
X157645428Y-140892380D01*
X157550190Y-140844761D01*
X157502571Y-140797142D01*
X157454952Y-140701904D01*
X157407333Y-140511428D01*
X157407333Y-140273333D01*
X157454952Y-140082857D01*
X157502571Y-139987619D01*
X157550190Y-139940000D01*
X157645428Y-139892380D01*
X158597809Y-139892380D02*
X158693047Y-139892380D01*
X158788285Y-139940000D01*
X158835904Y-139987619D01*
X158883523Y-140082857D01*
X158931142Y-140273333D01*
X158931142Y-140511428D01*
X158883523Y-140701904D01*
X158835904Y-140797142D01*
X158788285Y-140844761D01*
X158693047Y-140892380D01*
X158597809Y-140892380D01*
X158502571Y-140844761D01*
X158454952Y-140797142D01*
X158407333Y-140701904D01*
X158359714Y-140511428D01*
X158359714Y-140273333D01*
X158407333Y-140082857D01*
X158454952Y-139987619D01*
X158502571Y-139940000D01*
X158597809Y-139892380D01*
X159359714Y-140225714D02*
X159359714Y-141225714D01*
X159359714Y-140273333D02*
X159454952Y-140225714D01*
X159645428Y-140225714D01*
X159740666Y-140273333D01*
X159788285Y-140320952D01*
X159835904Y-140416190D01*
X159835904Y-140701904D01*
X159788285Y-140797142D01*
X159740666Y-140844761D01*
X159645428Y-140892380D01*
X159454952Y-140892380D01*
X159359714Y-140844761D01*
X160597809Y-140368571D02*
X160264476Y-140368571D01*
X160264476Y-140892380D02*
X160264476Y-139892380D01*
X160740666Y-139892380D01*
X158407333Y-135717142D02*
X158359714Y-135764761D01*
X158216857Y-135812380D01*
X158121619Y-135812380D01*
X157978761Y-135764761D01*
X157883523Y-135669523D01*
X157835904Y-135574285D01*
X157788285Y-135383809D01*
X157788285Y-135240952D01*
X157835904Y-135050476D01*
X157883523Y-134955238D01*
X157978761Y-134860000D01*
X158121619Y-134812380D01*
X158216857Y-134812380D01*
X158359714Y-134860000D01*
X158407333Y-134907619D01*
X159264476Y-135145714D02*
X159264476Y-135812380D01*
X159026380Y-134764761D02*
X158788285Y-135479047D01*
X159407333Y-135479047D01*
%TO.C,C3*%
X146511333Y-148004380D02*
X147130380Y-148004380D01*
X146797047Y-148385333D01*
X146939904Y-148385333D01*
X147035142Y-148432952D01*
X147082761Y-148480571D01*
X147130380Y-148575809D01*
X147130380Y-148813904D01*
X147082761Y-148909142D01*
X147035142Y-148956761D01*
X146939904Y-149004380D01*
X146654190Y-149004380D01*
X146558952Y-148956761D01*
X146511333Y-148909142D01*
X147749428Y-148004380D02*
X147844666Y-148004380D01*
X147939904Y-148052000D01*
X147987523Y-148099619D01*
X148035142Y-148194857D01*
X148082761Y-148385333D01*
X148082761Y-148623428D01*
X148035142Y-148813904D01*
X147987523Y-148909142D01*
X147939904Y-148956761D01*
X147844666Y-149004380D01*
X147749428Y-149004380D01*
X147654190Y-148956761D01*
X147606571Y-148909142D01*
X147558952Y-148813904D01*
X147511333Y-148623428D01*
X147511333Y-148385333D01*
X147558952Y-148194857D01*
X147606571Y-148099619D01*
X147654190Y-148052000D01*
X147749428Y-148004380D01*
X148701809Y-148004380D02*
X148797047Y-148004380D01*
X148892285Y-148052000D01*
X148939904Y-148099619D01*
X148987523Y-148194857D01*
X149035142Y-148385333D01*
X149035142Y-148623428D01*
X148987523Y-148813904D01*
X148939904Y-148909142D01*
X148892285Y-148956761D01*
X148797047Y-149004380D01*
X148701809Y-149004380D01*
X148606571Y-148956761D01*
X148558952Y-148909142D01*
X148511333Y-148813904D01*
X148463714Y-148623428D01*
X148463714Y-148385333D01*
X148511333Y-148194857D01*
X148558952Y-148099619D01*
X148606571Y-148052000D01*
X148701809Y-148004380D01*
X149463714Y-148337714D02*
X149463714Y-149337714D01*
X149463714Y-148385333D02*
X149558952Y-148337714D01*
X149749428Y-148337714D01*
X149844666Y-148385333D01*
X149892285Y-148432952D01*
X149939904Y-148528190D01*
X149939904Y-148813904D01*
X149892285Y-148909142D01*
X149844666Y-148956761D01*
X149749428Y-149004380D01*
X149558952Y-149004380D01*
X149463714Y-148956761D01*
X150701809Y-148480571D02*
X150368476Y-148480571D01*
X150368476Y-149004380D02*
X150368476Y-148004380D01*
X150844666Y-148004380D01*
X148511333Y-143829142D02*
X148463714Y-143876761D01*
X148320857Y-143924380D01*
X148225619Y-143924380D01*
X148082761Y-143876761D01*
X147987523Y-143781523D01*
X147939904Y-143686285D01*
X147892285Y-143495809D01*
X147892285Y-143352952D01*
X147939904Y-143162476D01*
X147987523Y-143067238D01*
X148082761Y-142972000D01*
X148225619Y-142924380D01*
X148320857Y-142924380D01*
X148463714Y-142972000D01*
X148511333Y-143019619D01*
X148844666Y-142924380D02*
X149463714Y-142924380D01*
X149130380Y-143305333D01*
X149273238Y-143305333D01*
X149368476Y-143352952D01*
X149416095Y-143400571D01*
X149463714Y-143495809D01*
X149463714Y-143733904D01*
X149416095Y-143829142D01*
X149368476Y-143876761D01*
X149273238Y-143924380D01*
X148987523Y-143924380D01*
X148892285Y-143876761D01*
X148844666Y-143829142D01*
%TO.C,C2*%
X146561333Y-139884380D02*
X147180380Y-139884380D01*
X146847047Y-140265333D01*
X146989904Y-140265333D01*
X147085142Y-140312952D01*
X147132761Y-140360571D01*
X147180380Y-140455809D01*
X147180380Y-140693904D01*
X147132761Y-140789142D01*
X147085142Y-140836761D01*
X146989904Y-140884380D01*
X146704190Y-140884380D01*
X146608952Y-140836761D01*
X146561333Y-140789142D01*
X147799428Y-139884380D02*
X147894666Y-139884380D01*
X147989904Y-139932000D01*
X148037523Y-139979619D01*
X148085142Y-140074857D01*
X148132761Y-140265333D01*
X148132761Y-140503428D01*
X148085142Y-140693904D01*
X148037523Y-140789142D01*
X147989904Y-140836761D01*
X147894666Y-140884380D01*
X147799428Y-140884380D01*
X147704190Y-140836761D01*
X147656571Y-140789142D01*
X147608952Y-140693904D01*
X147561333Y-140503428D01*
X147561333Y-140265333D01*
X147608952Y-140074857D01*
X147656571Y-139979619D01*
X147704190Y-139932000D01*
X147799428Y-139884380D01*
X148751809Y-139884380D02*
X148847047Y-139884380D01*
X148942285Y-139932000D01*
X148989904Y-139979619D01*
X149037523Y-140074857D01*
X149085142Y-140265333D01*
X149085142Y-140503428D01*
X149037523Y-140693904D01*
X148989904Y-140789142D01*
X148942285Y-140836761D01*
X148847047Y-140884380D01*
X148751809Y-140884380D01*
X148656571Y-140836761D01*
X148608952Y-140789142D01*
X148561333Y-140693904D01*
X148513714Y-140503428D01*
X148513714Y-140265333D01*
X148561333Y-140074857D01*
X148608952Y-139979619D01*
X148656571Y-139932000D01*
X148751809Y-139884380D01*
X149513714Y-140217714D02*
X149513714Y-141217714D01*
X149513714Y-140265333D02*
X149608952Y-140217714D01*
X149799428Y-140217714D01*
X149894666Y-140265333D01*
X149942285Y-140312952D01*
X149989904Y-140408190D01*
X149989904Y-140693904D01*
X149942285Y-140789142D01*
X149894666Y-140836761D01*
X149799428Y-140884380D01*
X149608952Y-140884380D01*
X149513714Y-140836761D01*
X150751809Y-140360571D02*
X150418476Y-140360571D01*
X150418476Y-140884380D02*
X150418476Y-139884380D01*
X150894666Y-139884380D01*
X148561333Y-135709142D02*
X148513714Y-135756761D01*
X148370857Y-135804380D01*
X148275619Y-135804380D01*
X148132761Y-135756761D01*
X148037523Y-135661523D01*
X147989904Y-135566285D01*
X147942285Y-135375809D01*
X147942285Y-135232952D01*
X147989904Y-135042476D01*
X148037523Y-134947238D01*
X148132761Y-134852000D01*
X148275619Y-134804380D01*
X148370857Y-134804380D01*
X148513714Y-134852000D01*
X148561333Y-134899619D01*
X148942285Y-134899619D02*
X148989904Y-134852000D01*
X149085142Y-134804380D01*
X149323238Y-134804380D01*
X149418476Y-134852000D01*
X149466095Y-134899619D01*
X149513714Y-134994857D01*
X149513714Y-135090095D01*
X149466095Y-135232952D01*
X148894666Y-135804380D01*
X149513714Y-135804380D01*
%TO.C,C1*%
X156357333Y-148012380D02*
X156976380Y-148012380D01*
X156643047Y-148393333D01*
X156785904Y-148393333D01*
X156881142Y-148440952D01*
X156928761Y-148488571D01*
X156976380Y-148583809D01*
X156976380Y-148821904D01*
X156928761Y-148917142D01*
X156881142Y-148964761D01*
X156785904Y-149012380D01*
X156500190Y-149012380D01*
X156404952Y-148964761D01*
X156357333Y-148917142D01*
X157595428Y-148012380D02*
X157690666Y-148012380D01*
X157785904Y-148060000D01*
X157833523Y-148107619D01*
X157881142Y-148202857D01*
X157928761Y-148393333D01*
X157928761Y-148631428D01*
X157881142Y-148821904D01*
X157833523Y-148917142D01*
X157785904Y-148964761D01*
X157690666Y-149012380D01*
X157595428Y-149012380D01*
X157500190Y-148964761D01*
X157452571Y-148917142D01*
X157404952Y-148821904D01*
X157357333Y-148631428D01*
X157357333Y-148393333D01*
X157404952Y-148202857D01*
X157452571Y-148107619D01*
X157500190Y-148060000D01*
X157595428Y-148012380D01*
X158547809Y-148012380D02*
X158643047Y-148012380D01*
X158738285Y-148060000D01*
X158785904Y-148107619D01*
X158833523Y-148202857D01*
X158881142Y-148393333D01*
X158881142Y-148631428D01*
X158833523Y-148821904D01*
X158785904Y-148917142D01*
X158738285Y-148964761D01*
X158643047Y-149012380D01*
X158547809Y-149012380D01*
X158452571Y-148964761D01*
X158404952Y-148917142D01*
X158357333Y-148821904D01*
X158309714Y-148631428D01*
X158309714Y-148393333D01*
X158357333Y-148202857D01*
X158404952Y-148107619D01*
X158452571Y-148060000D01*
X158547809Y-148012380D01*
X159309714Y-148345714D02*
X159309714Y-149345714D01*
X159309714Y-148393333D02*
X159404952Y-148345714D01*
X159595428Y-148345714D01*
X159690666Y-148393333D01*
X159738285Y-148440952D01*
X159785904Y-148536190D01*
X159785904Y-148821904D01*
X159738285Y-148917142D01*
X159690666Y-148964761D01*
X159595428Y-149012380D01*
X159404952Y-149012380D01*
X159309714Y-148964761D01*
X160547809Y-148488571D02*
X160214476Y-148488571D01*
X160214476Y-149012380D02*
X160214476Y-148012380D01*
X160690666Y-148012380D01*
X158357333Y-143837142D02*
X158309714Y-143884761D01*
X158166857Y-143932380D01*
X158071619Y-143932380D01*
X157928761Y-143884761D01*
X157833523Y-143789523D01*
X157785904Y-143694285D01*
X157738285Y-143503809D01*
X157738285Y-143360952D01*
X157785904Y-143170476D01*
X157833523Y-143075238D01*
X157928761Y-142980000D01*
X158071619Y-142932380D01*
X158166857Y-142932380D01*
X158309714Y-142980000D01*
X158357333Y-143027619D01*
X159309714Y-143932380D02*
X158738285Y-143932380D01*
X159024000Y-143932380D02*
X159024000Y-142932380D01*
X158928761Y-143075238D01*
X158833523Y-143170476D01*
X158738285Y-143218095D01*
%TO.C,J5*%
X163426666Y-50682380D02*
X163426666Y-51396666D01*
X163379047Y-51539523D01*
X163283809Y-51634761D01*
X163140952Y-51682380D01*
X163045714Y-51682380D01*
X164379047Y-50682380D02*
X163902857Y-50682380D01*
X163855238Y-51158571D01*
X163902857Y-51110952D01*
X163998095Y-51063333D01*
X164236190Y-51063333D01*
X164331428Y-51110952D01*
X164379047Y-51158571D01*
X164426666Y-51253809D01*
X164426666Y-51491904D01*
X164379047Y-51587142D01*
X164331428Y-51634761D01*
X164236190Y-51682380D01*
X163998095Y-51682380D01*
X163902857Y-51634761D01*
X163855238Y-51587142D01*
X160902857Y-36481428D02*
X161664761Y-36481428D01*
X162140952Y-36481428D02*
X162902857Y-36481428D01*
X163379047Y-36481428D02*
X164140952Y-36481428D01*
X164617142Y-36481428D02*
X165379047Y-36481428D01*
X165855238Y-36481428D02*
X166617142Y-36481428D01*
%TO.C,C7*%
X152653333Y-49517142D02*
X152605714Y-49564761D01*
X152462857Y-49612380D01*
X152367619Y-49612380D01*
X152224761Y-49564761D01*
X152129523Y-49469523D01*
X152081904Y-49374285D01*
X152034285Y-49183809D01*
X152034285Y-49040952D01*
X152081904Y-48850476D01*
X152129523Y-48755238D01*
X152224761Y-48660000D01*
X152367619Y-48612380D01*
X152462857Y-48612380D01*
X152605714Y-48660000D01*
X152653333Y-48707619D01*
X152986666Y-48612380D02*
X153653333Y-48612380D01*
X153224761Y-49612380D01*
X151748571Y-42112380D02*
X151177142Y-42112380D01*
X151462857Y-42112380D02*
X151462857Y-41112380D01*
X151367619Y-41255238D01*
X151272380Y-41350476D01*
X151177142Y-41398095D01*
X152367619Y-41112380D02*
X152462857Y-41112380D01*
X152558095Y-41160000D01*
X152605714Y-41207619D01*
X152653333Y-41302857D01*
X152700952Y-41493333D01*
X152700952Y-41731428D01*
X152653333Y-41921904D01*
X152605714Y-42017142D01*
X152558095Y-42064761D01*
X152462857Y-42112380D01*
X152367619Y-42112380D01*
X152272380Y-42064761D01*
X152224761Y-42017142D01*
X152177142Y-41921904D01*
X152129523Y-41731428D01*
X152129523Y-41493333D01*
X152177142Y-41302857D01*
X152224761Y-41207619D01*
X152272380Y-41160000D01*
X152367619Y-41112380D01*
X153558095Y-41445714D02*
X153558095Y-42112380D01*
X153129523Y-41445714D02*
X153129523Y-41969523D01*
X153177142Y-42064761D01*
X153272380Y-42112380D01*
X153415238Y-42112380D01*
X153510476Y-42064761D01*
X153558095Y-42017142D01*
X154367619Y-41588571D02*
X154034285Y-41588571D01*
X154034285Y-42112380D02*
X154034285Y-41112380D01*
X154510476Y-41112380D01*
%TO.C,C6*%
X148223333Y-132797142D02*
X148175714Y-132844761D01*
X148032857Y-132892380D01*
X147937619Y-132892380D01*
X147794761Y-132844761D01*
X147699523Y-132749523D01*
X147651904Y-132654285D01*
X147604285Y-132463809D01*
X147604285Y-132320952D01*
X147651904Y-132130476D01*
X147699523Y-132035238D01*
X147794761Y-131940000D01*
X147937619Y-131892380D01*
X148032857Y-131892380D01*
X148175714Y-131940000D01*
X148223333Y-131987619D01*
X149080476Y-131892380D02*
X148890000Y-131892380D01*
X148794761Y-131940000D01*
X148747142Y-131987619D01*
X148651904Y-132130476D01*
X148604285Y-132320952D01*
X148604285Y-132701904D01*
X148651904Y-132797142D01*
X148699523Y-132844761D01*
X148794761Y-132892380D01*
X148985238Y-132892380D01*
X149080476Y-132844761D01*
X149128095Y-132797142D01*
X149175714Y-132701904D01*
X149175714Y-132463809D01*
X149128095Y-132368571D01*
X149080476Y-132320952D01*
X148985238Y-132273333D01*
X148794761Y-132273333D01*
X148699523Y-132320952D01*
X148651904Y-132368571D01*
X148604285Y-132463809D01*
X147318571Y-125392380D02*
X146747142Y-125392380D01*
X147032857Y-125392380D02*
X147032857Y-124392380D01*
X146937619Y-124535238D01*
X146842380Y-124630476D01*
X146747142Y-124678095D01*
X147937619Y-124392380D02*
X148032857Y-124392380D01*
X148128095Y-124440000D01*
X148175714Y-124487619D01*
X148223333Y-124582857D01*
X148270952Y-124773333D01*
X148270952Y-125011428D01*
X148223333Y-125201904D01*
X148175714Y-125297142D01*
X148128095Y-125344761D01*
X148032857Y-125392380D01*
X147937619Y-125392380D01*
X147842380Y-125344761D01*
X147794761Y-125297142D01*
X147747142Y-125201904D01*
X147699523Y-125011428D01*
X147699523Y-124773333D01*
X147747142Y-124582857D01*
X147794761Y-124487619D01*
X147842380Y-124440000D01*
X147937619Y-124392380D01*
X149128095Y-124725714D02*
X149128095Y-125392380D01*
X148699523Y-124725714D02*
X148699523Y-125249523D01*
X148747142Y-125344761D01*
X148842380Y-125392380D01*
X148985238Y-125392380D01*
X149080476Y-125344761D01*
X149128095Y-125297142D01*
X149937619Y-124868571D02*
X149604285Y-124868571D01*
X149604285Y-125392380D02*
X149604285Y-124392380D01*
X150080476Y-124392380D01*
%TD*%
M02*
